G04 EAGLE Gerber RS-274X export*
G75*
%MOMM*%
%FSLAX34Y34*%
%LPD*%
%INsts*%
%IPPOS*%
%AMOC8*
5,1,8,0,0,1.08239X$1,22.5*%
G01*
%ADD10R,1.733200X1.733200*%
%ADD11C,1.733200*%
%ADD12C,3.203200*%
%ADD13C,2.528200*%
%ADD14C,1.103200*%
%ADD15C,2.453200*%
%ADD16C,3.053200*%
%ADD17C,2.003200*%
%ADD18C,2.453200*%
%ADD19C,0.808000*%


D10*
X343300Y272700D03*
D11*
X373300Y272700D03*
D12*
X358300Y315900D03*
D13*
X519100Y95625D02*
X519100Y72375D01*
X446100Y72375D02*
X446100Y95625D01*
X519100Y42625D02*
X519100Y19375D01*
X446100Y19375D02*
X446100Y42625D01*
D14*
X500100Y64000D03*
X465100Y64000D03*
D15*
X342500Y95250D02*
X342500Y117750D01*
X308500Y117750D02*
X308500Y95250D01*
X256500Y95250D02*
X256500Y117750D01*
D16*
X247500Y47750D02*
X247500Y19250D01*
X346500Y19250D02*
X346500Y47750D01*
D17*
X309500Y43500D03*
D18*
X93010Y150000D03*
X140000Y150000D03*
X186990Y150000D03*
X114600Y23000D03*
X165400Y23000D03*
X703010Y150000D03*
X750000Y150000D03*
X796990Y150000D03*
X724600Y23000D03*
X775400Y23000D03*
D19*
X470400Y105600D03*
X446400Y139200D03*
X465600Y136000D03*
X592000Y292800D03*
X592000Y233600D03*
X417600Y166400D03*
X414400Y180800D03*
X454400Y249600D03*
X494400Y137600D03*
X544000Y142400D03*
X433600Y56000D03*
X427200Y252800D03*
X454400Y275200D03*
X507200Y214400D03*
X489600Y112000D03*
X582400Y334400D03*
X576000Y246400D03*
X616000Y236800D03*
X616000Y216000D03*
X608000Y254400D03*
X608000Y220800D03*
X600000Y273600D03*
X600000Y227200D03*
X584000Y304000D03*
X584000Y240000D03*
D12*
X30000Y340000D03*
X860000Y340000D03*
X860000Y30000D03*
X30000Y30000D03*
X400000Y30000D03*
M02*
