G04 EAGLE Gerber RS-274X export*
G75*
%MOMM*%
%FSLAX34Y34*%
%LPD*%
%INcmp*%
%IPPOS*%
%AMOC8*
5,1,8,0,0,1.08239X$1,22.5*%
G01*
%ADD10R,1.530000X1.530000*%
%ADD11C,1.530000*%
%ADD12C,2.325000*%
%ADD13R,0.500000X2.000000*%
%ADD14R,0.600000X1.550000*%
%ADD15R,1.200000X1.800000*%
%ADD16R,0.740000X0.925000*%
%ADD17R,0.304800X0.787400*%
%ADD18R,2.489200X1.752600*%
%ADD19R,0.250000X1.200000*%
%ADD20R,1.200000X0.250000*%
%ADD21R,0.900000X0.700000*%
%ADD22R,1.400000X1.900000*%
%ADD23R,0.925000X0.740000*%
%ADD24R,1.000000X1.100000*%
%ADD25C,2.250000*%
%ADD26C,2.850000*%
%ADD27R,0.800000X0.800000*%
%ADD28C,2.250000*%
%ADD29C,0.160000*%
%ADD30C,0.604800*%
%ADD31C,0.254000*%
%ADD32C,0.152400*%
%ADD33C,0.406400*%
%ADD34C,0.404600*%
%ADD35C,3.000000*%

G36*
X152070Y125612D02*
X152070Y125612D01*
X152141Y125613D01*
X152194Y125632D01*
X152249Y125641D01*
X152312Y125673D01*
X152379Y125696D01*
X152427Y125732D01*
X152473Y125756D01*
X152512Y125795D01*
X152565Y125835D01*
X158065Y131335D01*
X158107Y131392D01*
X158156Y131444D01*
X158180Y131494D01*
X158213Y131539D01*
X158235Y131607D01*
X158266Y131671D01*
X158274Y131730D01*
X158290Y131779D01*
X158290Y131835D01*
X158299Y131900D01*
X158299Y186967D01*
X165033Y193701D01*
X165700Y193701D01*
X165770Y193712D01*
X165841Y193713D01*
X165894Y193732D01*
X165949Y193740D01*
X166012Y193773D01*
X166079Y193796D01*
X166127Y193832D01*
X166173Y193856D01*
X166212Y193895D01*
X166265Y193935D01*
X235531Y263201D01*
X332350Y263201D01*
X332355Y263202D01*
X332360Y263201D01*
X332480Y263222D01*
X332599Y263241D01*
X332603Y263243D01*
X332609Y263244D01*
X332716Y263301D01*
X332823Y263356D01*
X332827Y263359D01*
X332831Y263362D01*
X332914Y263448D01*
X333000Y263535D01*
X333003Y263540D01*
X333006Y263544D01*
X333058Y263652D01*
X333113Y263761D01*
X333113Y263766D01*
X333116Y263771D01*
X333149Y264000D01*
X333149Y281386D01*
X334614Y282851D01*
X351986Y282851D01*
X353451Y281386D01*
X353451Y264000D01*
X353452Y263995D01*
X353451Y263990D01*
X353472Y263869D01*
X353490Y263751D01*
X353493Y263747D01*
X353494Y263741D01*
X353551Y263634D01*
X353606Y263527D01*
X353609Y263523D01*
X353612Y263519D01*
X353698Y263436D01*
X353785Y263350D01*
X353790Y263347D01*
X353793Y263344D01*
X353902Y263292D01*
X354011Y263237D01*
X354016Y263237D01*
X354020Y263234D01*
X354250Y263201D01*
X390400Y263201D01*
X390470Y263212D01*
X390541Y263213D01*
X390594Y263232D01*
X390649Y263241D01*
X390712Y263273D01*
X390779Y263296D01*
X390827Y263332D01*
X390873Y263356D01*
X390912Y263395D01*
X390965Y263435D01*
X408565Y281035D01*
X408607Y281092D01*
X408656Y281144D01*
X408680Y281194D01*
X408713Y281239D01*
X408735Y281307D01*
X408766Y281371D01*
X408774Y281430D01*
X408790Y281479D01*
X408790Y281535D01*
X408799Y281600D01*
X408799Y323200D01*
X408788Y323270D01*
X408787Y323341D01*
X408768Y323394D01*
X408760Y323449D01*
X408727Y323512D01*
X408704Y323579D01*
X408668Y323627D01*
X408644Y323673D01*
X408605Y323712D01*
X408565Y323765D01*
X395765Y336565D01*
X395708Y336607D01*
X395657Y336656D01*
X395606Y336680D01*
X395561Y336713D01*
X395493Y336735D01*
X395430Y336766D01*
X395370Y336774D01*
X395321Y336790D01*
X395265Y336790D01*
X395200Y336799D01*
X374913Y336799D01*
X374848Y336789D01*
X374782Y336788D01*
X374724Y336769D01*
X374664Y336760D01*
X374605Y336729D01*
X374543Y336708D01*
X374494Y336672D01*
X374440Y336644D01*
X374394Y336597D01*
X374341Y336558D01*
X374306Y336508D01*
X374263Y336465D01*
X374233Y336406D01*
X374195Y336352D01*
X374177Y336294D01*
X374150Y336239D01*
X374141Y336174D01*
X374121Y336111D01*
X374123Y336050D01*
X374114Y335990D01*
X374125Y335925D01*
X374126Y335859D01*
X374146Y335802D01*
X374157Y335741D01*
X374188Y335683D01*
X374209Y335621D01*
X374249Y335568D01*
X374275Y335519D01*
X374312Y335483D01*
X374348Y335435D01*
X378434Y331349D01*
X381746Y325612D01*
X383461Y319212D01*
X383461Y312588D01*
X381746Y306188D01*
X378434Y300451D01*
X373749Y295766D01*
X368012Y292454D01*
X361612Y290739D01*
X354988Y290739D01*
X348588Y292454D01*
X342851Y295766D01*
X338166Y300451D01*
X334854Y306188D01*
X333139Y312588D01*
X333139Y319212D01*
X334854Y325612D01*
X338166Y331349D01*
X342252Y335435D01*
X342291Y335488D01*
X342337Y335535D01*
X342364Y335590D01*
X342400Y335639D01*
X342420Y335702D01*
X342450Y335761D01*
X342458Y335821D01*
X342477Y335879D01*
X342477Y335945D01*
X342486Y336010D01*
X342476Y336070D01*
X342475Y336131D01*
X342455Y336194D01*
X342443Y336259D01*
X342415Y336312D01*
X342395Y336370D01*
X342356Y336423D01*
X342325Y336481D01*
X342281Y336523D01*
X342245Y336572D01*
X342191Y336610D01*
X342144Y336656D01*
X342089Y336682D01*
X342039Y336718D01*
X341976Y336737D01*
X341917Y336766D01*
X341851Y336775D01*
X341798Y336792D01*
X341747Y336791D01*
X341687Y336799D01*
X128000Y336799D01*
X127949Y336791D01*
X127897Y336793D01*
X127825Y336771D01*
X127751Y336760D01*
X127705Y336736D01*
X127655Y336721D01*
X127586Y336675D01*
X127527Y336644D01*
X127499Y336616D01*
X127462Y336591D01*
X74662Y288591D01*
X74606Y288521D01*
X74544Y288457D01*
X74528Y288423D01*
X74505Y288395D01*
X74473Y288310D01*
X74434Y288230D01*
X74429Y288191D01*
X74417Y288158D01*
X74414Y288089D01*
X74401Y288000D01*
X74401Y126400D01*
X74402Y126395D01*
X74401Y126390D01*
X74422Y126269D01*
X74441Y126151D01*
X74443Y126147D01*
X74444Y126141D01*
X74501Y126034D01*
X74556Y125927D01*
X74559Y125923D01*
X74562Y125919D01*
X74648Y125836D01*
X74735Y125750D01*
X74740Y125747D01*
X74744Y125744D01*
X74852Y125692D01*
X74961Y125637D01*
X74966Y125637D01*
X74971Y125634D01*
X75200Y125601D01*
X152000Y125601D01*
X152070Y125612D01*
G37*
G36*
X210347Y66412D02*
X210347Y66412D01*
X210418Y66413D01*
X210470Y66432D01*
X210525Y66441D01*
X210589Y66473D01*
X210656Y66496D01*
X210704Y66532D01*
X210750Y66556D01*
X210789Y66595D01*
X210842Y66635D01*
X222340Y78133D01*
X363200Y78133D01*
X363205Y78134D01*
X363210Y78133D01*
X363330Y78154D01*
X363449Y78172D01*
X363453Y78175D01*
X363459Y78176D01*
X363566Y78233D01*
X363673Y78288D01*
X363677Y78291D01*
X363681Y78294D01*
X363764Y78380D01*
X363850Y78467D01*
X363853Y78472D01*
X363856Y78475D01*
X363908Y78584D01*
X363963Y78693D01*
X363963Y78698D01*
X363966Y78702D01*
X363999Y78932D01*
X363999Y140800D01*
X363988Y140870D01*
X363987Y140941D01*
X363968Y140994D01*
X363960Y141049D01*
X363927Y141112D01*
X363904Y141179D01*
X363868Y141227D01*
X363844Y141273D01*
X363805Y141312D01*
X363765Y141365D01*
X314165Y190965D01*
X314108Y191007D01*
X314057Y191056D01*
X314006Y191080D01*
X313961Y191113D01*
X313893Y191135D01*
X313830Y191166D01*
X313770Y191174D01*
X313721Y191190D01*
X313665Y191190D01*
X313600Y191199D01*
X166400Y191199D01*
X166330Y191188D01*
X166259Y191187D01*
X166206Y191168D01*
X166151Y191160D01*
X166088Y191127D01*
X166021Y191104D01*
X165973Y191068D01*
X165927Y191044D01*
X165888Y191005D01*
X165835Y190965D01*
X161035Y186165D01*
X160993Y186108D01*
X160944Y186057D01*
X160920Y186006D01*
X160887Y185961D01*
X160865Y185893D01*
X160834Y185830D01*
X160826Y185770D01*
X160810Y185721D01*
X160810Y185665D01*
X160801Y185600D01*
X160801Y86400D01*
X160809Y86347D01*
X160808Y86293D01*
X160829Y86223D01*
X160841Y86151D01*
X160865Y86103D01*
X160881Y86052D01*
X160926Y85985D01*
X160956Y85927D01*
X160974Y85909D01*
X160978Y85901D01*
X160992Y85888D01*
X161011Y85860D01*
X178611Y66660D01*
X178680Y66605D01*
X178744Y66544D01*
X178778Y66527D01*
X178808Y66503D01*
X178891Y66473D01*
X178971Y66434D01*
X179011Y66428D01*
X179045Y66416D01*
X179114Y66413D01*
X179200Y66401D01*
X210277Y66401D01*
X210347Y66412D01*
G37*
%LPC*%
G36*
X305765Y81499D02*
X305765Y81499D01*
X300711Y83593D01*
X296843Y87461D01*
X294749Y92515D01*
X294749Y120485D01*
X296843Y125539D01*
X300711Y129407D01*
X305765Y131501D01*
X311235Y131501D01*
X316289Y129407D01*
X320157Y125539D01*
X322251Y120485D01*
X322251Y92515D01*
X320157Y87461D01*
X316289Y83593D01*
X311235Y81499D01*
X305765Y81499D01*
G37*
%LPD*%
%LPC*%
G36*
X253765Y81499D02*
X253765Y81499D01*
X248711Y83593D01*
X244843Y87461D01*
X242749Y92515D01*
X242749Y120485D01*
X244843Y125539D01*
X248711Y129407D01*
X253765Y131501D01*
X259235Y131501D01*
X264289Y129407D01*
X268157Y125539D01*
X270251Y120485D01*
X270251Y92515D01*
X268157Y87461D01*
X264289Y83593D01*
X259235Y81499D01*
X253765Y81499D01*
G37*
%LPD*%
%LPC*%
G36*
X90275Y136249D02*
X90275Y136249D01*
X85221Y138343D01*
X81353Y142211D01*
X79259Y147265D01*
X79259Y152735D01*
X81353Y157789D01*
X85221Y161657D01*
X90275Y163751D01*
X95745Y163751D01*
X100799Y161657D01*
X104667Y157789D01*
X106761Y152735D01*
X106761Y147265D01*
X104667Y142211D01*
X100799Y138343D01*
X95745Y136249D01*
X90275Y136249D01*
G37*
%LPD*%
D10*
X343300Y272700D03*
D11*
X373300Y272700D03*
D12*
X519100Y95625D02*
X519100Y72375D01*
X446100Y72375D02*
X446100Y95625D01*
X519100Y42625D02*
X519100Y19375D01*
X446100Y19375D02*
X446100Y42625D01*
D13*
X466600Y86500D03*
X474600Y86500D03*
X482600Y86500D03*
X490600Y86500D03*
X498600Y86500D03*
D14*
X585600Y318250D03*
X575600Y318250D03*
X565600Y318250D03*
X555600Y318250D03*
X545600Y318250D03*
X535600Y318250D03*
X525600Y318250D03*
D15*
X598600Y357000D03*
X512600Y357000D03*
D16*
X432900Y271800D03*
X432900Y283800D03*
D17*
X451600Y264395D03*
X456600Y264395D03*
X461600Y264395D03*
X466600Y264395D03*
X466600Y293605D03*
X461600Y293605D03*
X456600Y293605D03*
X451600Y293605D03*
D18*
X459100Y279000D03*
D19*
X452800Y148700D03*
X457800Y148700D03*
X462800Y148700D03*
X467800Y148700D03*
X472800Y148700D03*
X477800Y148700D03*
X482800Y148700D03*
X487800Y148700D03*
X492800Y148700D03*
X497800Y148700D03*
X502800Y148700D03*
X507800Y148700D03*
D20*
X525300Y166200D03*
X525300Y171200D03*
X525300Y176200D03*
X525300Y181200D03*
X525300Y186200D03*
X525300Y191200D03*
X525300Y196200D03*
X525300Y201200D03*
X525300Y206200D03*
X525300Y211200D03*
X525300Y216200D03*
X525300Y221200D03*
D19*
X507800Y238700D03*
X502800Y238700D03*
X497800Y238700D03*
X492800Y238700D03*
X487800Y238700D03*
X482800Y238700D03*
X477800Y238700D03*
X472800Y238700D03*
X467800Y238700D03*
X462800Y238700D03*
X457800Y238700D03*
X452800Y238700D03*
D20*
X435300Y221200D03*
X435300Y216200D03*
X435300Y211200D03*
X435300Y206200D03*
X435300Y201200D03*
X435300Y196200D03*
X435300Y191200D03*
X435300Y186200D03*
X435300Y181200D03*
X435300Y176200D03*
X435300Y171200D03*
X435300Y166200D03*
D21*
X470400Y113900D03*
X470400Y126900D03*
D22*
X388200Y129100D03*
X388200Y85100D03*
X412200Y85100D03*
X412200Y129100D03*
D23*
X443800Y120300D03*
X455800Y120300D03*
X427700Y130600D03*
X439700Y130600D03*
D16*
X426400Y230400D03*
X426400Y242400D03*
X416700Y230200D03*
X416700Y242200D03*
X415500Y202400D03*
X415500Y190400D03*
D24*
X504800Y132400D03*
X504800Y115400D03*
D23*
X520600Y141900D03*
X532600Y141900D03*
X427000Y147500D03*
X415000Y147500D03*
D25*
X342500Y117750D02*
X342500Y95250D01*
X308500Y95250D02*
X308500Y117750D01*
X256500Y117750D02*
X256500Y95250D01*
D26*
X247500Y47750D02*
X247500Y19250D01*
X346500Y19250D02*
X346500Y47750D01*
D23*
X427000Y158300D03*
X415000Y158300D03*
X527200Y119600D03*
X539200Y119600D03*
X527200Y129600D03*
X539200Y129600D03*
D24*
X399400Y205300D03*
X399400Y188300D03*
D27*
X223900Y9700D03*
X208900Y9700D03*
D21*
X211500Y38000D03*
X211500Y51000D03*
D14*
X570000Y52250D03*
X580000Y52250D03*
X590000Y52250D03*
X600000Y52250D03*
X610000Y52250D03*
X620000Y52250D03*
X630000Y52250D03*
D15*
X557000Y13500D03*
X643000Y13500D03*
D14*
X478600Y318250D03*
X468600Y318250D03*
X458600Y318250D03*
X448600Y318250D03*
D15*
X491600Y357000D03*
X435600Y357000D03*
D28*
X93010Y150000D03*
X140000Y150000D03*
X186990Y150000D03*
X114600Y23000D03*
X165400Y23000D03*
X703010Y150000D03*
X750000Y150000D03*
X796990Y150000D03*
X724600Y23000D03*
X775400Y23000D03*
D14*
X656600Y316650D03*
X646600Y316650D03*
D15*
X669600Y355400D03*
X633600Y355400D03*
D24*
X398400Y151500D03*
X398400Y168500D03*
D29*
X492800Y148700D02*
X497800Y148700D01*
X502800Y148700D01*
X470400Y113900D02*
X470400Y105600D01*
D30*
X470400Y105600D03*
D29*
X439700Y130600D02*
X446400Y137300D01*
X446400Y139200D01*
D30*
X446400Y139200D03*
D29*
X467800Y138200D02*
X467800Y148700D01*
X467800Y138200D02*
X465600Y136000D01*
D30*
X465600Y136000D03*
X592000Y292800D03*
X592000Y233600D03*
D29*
X590000Y52250D02*
X588800Y49450D01*
X588800Y59200D01*
X596800Y67200D01*
X596800Y217600D01*
X592000Y222400D01*
X592000Y233600D01*
X592000Y292800D02*
X585600Y292800D01*
X415000Y158300D02*
X415000Y147500D01*
X418100Y166200D02*
X435300Y166200D01*
X418100Y166200D02*
X415000Y163100D01*
X415000Y158300D01*
X435300Y166200D02*
X435300Y171200D01*
X435300Y166200D02*
X417800Y166200D01*
X417600Y166400D01*
D30*
X417600Y166400D03*
D29*
X435300Y196200D02*
X435300Y201200D01*
X425200Y201200D01*
D30*
X414400Y180800D03*
D29*
X452800Y238700D02*
X457800Y238700D01*
X452800Y238700D02*
X452800Y248000D01*
X454400Y249600D01*
D30*
X454400Y249600D03*
D29*
X492800Y148700D02*
X492800Y139100D01*
X494300Y137600D02*
X494400Y137600D01*
X494300Y137600D02*
X492800Y139100D01*
D30*
X494400Y137600D03*
D29*
X532600Y141900D02*
X538100Y141900D01*
X540800Y139200D01*
X540800Y131200D01*
X539200Y129600D01*
X539200Y119600D01*
X543500Y141900D02*
X532600Y141900D01*
X543500Y141900D02*
X544000Y142400D01*
D30*
X544000Y142400D03*
D29*
X233600Y67200D02*
X225600Y59200D01*
X233600Y67200D02*
X372267Y67200D01*
X379733Y56000D01*
X433600Y56000D01*
D30*
X433600Y56000D03*
D29*
X424000Y200000D02*
X425200Y201200D01*
X424000Y200000D02*
X424000Y190400D01*
X415500Y190400D01*
X416900Y242400D02*
X426400Y242400D01*
X416900Y242400D02*
X416700Y242200D01*
X426400Y242400D02*
X426400Y252000D01*
X427200Y252800D01*
D30*
X427200Y252800D03*
D29*
X455400Y274200D02*
X459100Y279000D01*
X454400Y275200D02*
X455400Y274200D01*
D30*
X454400Y275200D03*
D29*
X466600Y271000D02*
X466600Y264395D01*
X466600Y271000D02*
X462400Y275200D01*
X454400Y275200D01*
X452700Y283800D02*
X432900Y283800D01*
X452700Y283800D02*
X459100Y279000D01*
X525300Y216200D02*
X525300Y211200D01*
X525300Y216200D02*
X505400Y216200D01*
X507200Y214400D01*
D30*
X507200Y214400D03*
D29*
X225600Y59200D02*
X225600Y11400D01*
X223900Y9700D01*
X703010Y150000D02*
X703010Y207390D01*
X648000Y262400D01*
X648000Y283200D01*
X638400Y292800D01*
X592000Y292800D01*
X585600Y292800D02*
X565600Y312800D01*
X565600Y318250D01*
X641050Y321600D02*
X646600Y316650D01*
X641050Y321600D02*
X627200Y321600D01*
X608000Y340800D01*
X576000Y340800D01*
X565600Y330400D01*
X565600Y318250D01*
D31*
X498600Y103000D02*
X498600Y86500D01*
X498600Y103000D02*
X489600Y112000D01*
D30*
X489600Y112000D03*
D32*
X464000Y120300D02*
X455800Y120300D01*
X464000Y120300D02*
X470400Y113900D01*
X415500Y181900D02*
X415500Y190400D01*
X415500Y181900D02*
X414400Y180800D01*
D30*
X582400Y334400D03*
X576000Y246400D03*
D29*
X569600Y52650D02*
X570000Y52250D01*
X569600Y52650D02*
X569600Y57600D01*
X590400Y78400D01*
X590400Y214400D01*
X576000Y228800D01*
X576000Y246400D01*
X585600Y318250D02*
X585600Y329600D01*
X582400Y334400D01*
X446400Y211200D02*
X435300Y211200D01*
X446400Y211200D02*
X454400Y219200D01*
X462400Y227200D01*
X462400Y238300D01*
X462800Y238700D01*
X785200Y150000D02*
X796990Y150000D01*
X785200Y150000D02*
X764800Y129600D01*
X742400Y129600D01*
X729600Y142400D01*
X729600Y185600D01*
X651200Y264000D01*
X651200Y292800D01*
X609600Y334400D01*
X582400Y334400D01*
X507200Y142400D02*
X507200Y134800D01*
X504800Y132400D01*
X507200Y142400D02*
X507200Y148100D01*
X507800Y148700D01*
X507200Y149300D02*
X507200Y158400D01*
X507200Y149300D02*
X507800Y148700D01*
X446400Y176200D02*
X435300Y176200D01*
X446400Y176200D02*
X489400Y176200D01*
X500000Y165600D01*
X507200Y158400D01*
X507700Y141900D02*
X520600Y141900D01*
X507700Y141900D02*
X507200Y142400D01*
X504400Y221200D02*
X525300Y221200D01*
X504400Y221200D02*
X500800Y217600D01*
X500800Y166400D01*
X500000Y165600D01*
X435300Y176200D02*
X433874Y174774D01*
X412137Y168500D02*
X398400Y168500D01*
X412137Y168500D02*
X418411Y174774D01*
X433874Y174774D01*
X435300Y211200D02*
X444037Y211200D01*
X446400Y208837D01*
X446400Y176200D01*
X442595Y265400D02*
X432900Y271800D01*
X442595Y265400D02*
X451600Y264395D01*
D32*
X451600Y254310D01*
X449090Y251800D01*
X449090Y224510D01*
X454400Y219200D01*
D30*
X616000Y236800D03*
X616000Y216000D03*
D29*
X620800Y53050D02*
X620000Y52250D01*
X620800Y53050D02*
X620800Y57600D01*
X606400Y72000D01*
X606400Y206400D01*
X616000Y216000D01*
X616000Y236800D02*
X574400Y278400D01*
X550400Y278400D01*
X535600Y293200D01*
X535600Y318250D01*
X628800Y53450D02*
X630000Y52250D01*
X628800Y53450D02*
X628800Y59200D01*
X609600Y78400D01*
X609600Y200000D01*
X622400Y212800D01*
X622400Y217600D01*
X564800Y275200D01*
X548800Y275200D01*
X525600Y298400D01*
X525600Y318250D01*
D30*
X608000Y254400D03*
X608000Y220800D03*
D29*
X611200Y53450D02*
X610000Y52250D01*
X611200Y53450D02*
X611200Y57600D01*
X603200Y65600D01*
X603200Y216000D01*
X608000Y220800D01*
X545600Y318250D02*
X545600Y323200D01*
X580800Y281600D02*
X608000Y254400D01*
X580800Y281600D02*
X553600Y281600D01*
X545600Y289600D01*
X545600Y318250D01*
X555600Y318250D02*
X555600Y318000D01*
D30*
X600000Y273600D03*
X600000Y227200D03*
D29*
X600000Y52250D01*
X600000Y273600D02*
X588800Y284800D01*
X561600Y284800D01*
X555600Y290800D01*
X555600Y318250D01*
D30*
X584000Y304000D03*
X584000Y240000D03*
D29*
X579200Y53050D02*
X580000Y52250D01*
X579200Y53050D02*
X579200Y57600D01*
X593600Y72000D01*
X593600Y216000D01*
X584000Y225600D01*
X584000Y240000D01*
X575600Y312400D02*
X575600Y318250D01*
X575600Y312400D02*
X584000Y304000D01*
X532800Y171200D02*
X525300Y171200D01*
X532800Y171200D02*
X536000Y174400D01*
X536000Y244800D01*
X529600Y251200D01*
X462400Y251200D01*
X456000Y257600D01*
X456000Y263795D01*
X456600Y264395D01*
X461600Y264395D02*
X461600Y258400D01*
X465600Y254400D01*
X531200Y254400D01*
X539200Y246400D01*
X539200Y171200D01*
X534400Y166400D01*
X525500Y166400D01*
X525300Y166200D01*
X478400Y318050D02*
X478600Y318250D01*
D32*
X478600Y305605D01*
X466600Y293605D01*
X468600Y307000D02*
X468600Y318250D01*
X461600Y300000D02*
X461600Y293605D01*
X461600Y300000D02*
X468600Y307000D01*
D29*
X456600Y316250D02*
X456600Y293605D01*
X456600Y316250D02*
X458600Y318250D01*
X448600Y318250D02*
X448600Y296605D01*
X451600Y293605D01*
X472800Y148700D02*
X472800Y126100D01*
X470400Y126900D01*
D32*
X427700Y130600D02*
X427700Y132810D01*
X421486Y118653D02*
X420147Y117314D01*
X404253Y117314D01*
X421486Y118653D02*
X421486Y124386D01*
X392467Y129100D02*
X388200Y129100D01*
X392467Y129100D02*
X404253Y117314D01*
X421486Y124386D02*
X427700Y130600D01*
X448610Y144510D02*
X452800Y148700D01*
X430352Y132810D02*
X427700Y132810D01*
X442052Y144510D02*
X448610Y144510D01*
X442052Y144510D02*
X430352Y132810D01*
D29*
X443800Y120300D02*
X445487Y118391D01*
X446400Y120000D01*
X457600Y140500D02*
X457800Y148700D01*
X416000Y88900D02*
X412200Y85100D01*
D32*
X439818Y116318D02*
X443800Y120300D01*
X439818Y116318D02*
X433411Y116318D01*
X412200Y95107D01*
X412200Y85100D01*
X457600Y134100D02*
X457600Y140500D01*
X457600Y134100D02*
X443800Y120300D01*
D29*
X435300Y206200D02*
X416000Y206200D01*
X400300Y206200D01*
X399400Y205300D01*
X415500Y202400D02*
X416000Y202900D01*
X416000Y206200D01*
X477800Y148700D02*
X477800Y136600D01*
X478400Y136000D01*
X478400Y99200D01*
X475200Y96000D01*
X475200Y87100D01*
X474600Y86500D01*
X482600Y86500D02*
X482600Y148500D01*
X482800Y148700D01*
X435300Y216200D02*
X425400Y216200D01*
X417600Y224000D01*
X417600Y229300D01*
X416700Y230200D01*
X426400Y230100D02*
X435300Y221200D01*
X426400Y230100D02*
X426400Y230400D01*
X487800Y148700D02*
X487800Y126600D01*
X501900Y112500D01*
X504800Y115400D01*
X523000Y115400D01*
X527200Y119600D01*
X527200Y129600D01*
X462800Y148700D02*
X462800Y156400D01*
X460800Y158400D01*
X427100Y158400D01*
X427000Y158300D01*
X427000Y147500D01*
X426612Y147500D01*
X420588Y141476D01*
X408424Y141476D01*
X398400Y151500D01*
D33*
X466600Y95000D02*
X466600Y86500D01*
X466600Y95000D02*
X453276Y112000D01*
X435200Y112000D01*
X427200Y104000D01*
X427200Y64000D01*
X393600Y64000D01*
X374400Y73600D02*
X372800Y73600D01*
X224217Y73600D01*
X211500Y60883D01*
X211500Y51000D01*
X381900Y188300D02*
X399400Y188300D01*
X381900Y188300D02*
X374400Y180800D01*
X374400Y73600D01*
D34*
X382400Y64000D02*
X393600Y64000D01*
X382400Y64000D02*
X372800Y73600D01*
D29*
X211500Y38000D02*
X208900Y35400D01*
X208900Y9700D01*
D35*
X30000Y340000D03*
X860000Y340000D03*
X860000Y30000D03*
X30000Y30000D03*
X400000Y30000D03*
D29*
X655000Y265000D02*
X656600Y316650D01*
X655000Y265000D02*
X748800Y171200D01*
X748800Y151200D01*
X750000Y150000D01*
M02*
