G04 EAGLE Gerber RS-274X export*
G75*
%MOMM*%
%FSLAX34Y34*%
%LPD*%
%INsol*%
%IPPOS*%
%AMOC8*
5,1,8,0,0,1.08239X$1,22.5*%
G01*
%ADD10R,1.530000X1.530000*%
%ADD11C,1.530000*%
%ADD12C,2.325000*%
%ADD13C,2.250000*%
%ADD14C,2.850000*%
%ADD15C,2.250000*%
%ADD16C,0.604800*%
%ADD17C,0.160000*%
%ADD18C,3.000000*%

G36*
X361605Y66402D02*
X361605Y66402D01*
X361610Y66401D01*
X361730Y66422D01*
X361849Y66441D01*
X361853Y66443D01*
X361859Y66444D01*
X361966Y66501D01*
X362073Y66556D01*
X362077Y66559D01*
X362081Y66562D01*
X362164Y66648D01*
X362250Y66735D01*
X362253Y66740D01*
X362256Y66744D01*
X362308Y66852D01*
X362363Y66961D01*
X362363Y66966D01*
X362366Y66971D01*
X362399Y67200D01*
X362399Y234856D01*
X390949Y261819D01*
X390999Y261884D01*
X391056Y261944D01*
X391075Y261983D01*
X391102Y262019D01*
X391130Y262096D01*
X391166Y262171D01*
X391172Y262217D01*
X391186Y262256D01*
X391188Y262321D01*
X391199Y262400D01*
X391199Y337600D01*
X391198Y337605D01*
X391199Y337610D01*
X391178Y337730D01*
X391160Y337849D01*
X391157Y337853D01*
X391156Y337859D01*
X391099Y337966D01*
X391044Y338073D01*
X391041Y338077D01*
X391038Y338081D01*
X390952Y338164D01*
X390865Y338250D01*
X390860Y338253D01*
X390857Y338256D01*
X390748Y338308D01*
X390639Y338363D01*
X390634Y338363D01*
X390630Y338366D01*
X390400Y338399D01*
X372634Y338399D01*
X372591Y338392D01*
X372547Y338394D01*
X372467Y338373D01*
X372386Y338360D01*
X372346Y338339D01*
X372304Y338328D01*
X372235Y338282D01*
X372161Y338244D01*
X372130Y338213D01*
X372094Y338188D01*
X372042Y338124D01*
X371984Y338065D01*
X371965Y338025D01*
X371937Y337991D01*
X371909Y337913D01*
X371872Y337839D01*
X371865Y337796D01*
X371850Y337754D01*
X371847Y337672D01*
X371835Y337590D01*
X371843Y337546D01*
X371841Y337502D01*
X371864Y337423D01*
X371878Y337341D01*
X371899Y337302D01*
X371911Y337260D01*
X371958Y337192D01*
X371996Y337119D01*
X372028Y337088D01*
X372053Y337052D01*
X372126Y336994D01*
X372178Y336944D01*
X372207Y336930D01*
X372235Y336908D01*
X373749Y336034D01*
X378434Y331349D01*
X381746Y325612D01*
X383461Y319212D01*
X383461Y312588D01*
X381746Y306188D01*
X378434Y300451D01*
X373749Y295766D01*
X368012Y292454D01*
X361612Y290739D01*
X354988Y290739D01*
X348588Y292454D01*
X342851Y295766D01*
X338166Y300451D01*
X334854Y306188D01*
X333139Y312588D01*
X333139Y319212D01*
X334854Y325612D01*
X338166Y331349D01*
X342851Y336034D01*
X344365Y336908D01*
X344399Y336936D01*
X344439Y336956D01*
X344497Y337015D01*
X344561Y337067D01*
X344585Y337104D01*
X344616Y337135D01*
X344653Y337209D01*
X344697Y337279D01*
X344709Y337321D01*
X344728Y337361D01*
X344740Y337442D01*
X344761Y337523D01*
X344758Y337567D01*
X344765Y337610D01*
X344751Y337692D01*
X344746Y337774D01*
X344729Y337815D01*
X344722Y337859D01*
X344683Y337932D01*
X344653Y338008D01*
X344624Y338042D01*
X344604Y338081D01*
X344544Y338139D01*
X344491Y338202D01*
X344454Y338226D01*
X344422Y338256D01*
X344348Y338292D01*
X344278Y338336D01*
X344235Y338346D01*
X344195Y338366D01*
X344103Y338379D01*
X344033Y338396D01*
X344001Y338394D01*
X343966Y338399D01*
X331200Y338399D01*
X331130Y338388D01*
X331059Y338387D01*
X331006Y338368D01*
X330951Y338360D01*
X330888Y338327D01*
X330821Y338304D01*
X330773Y338268D01*
X330727Y338244D01*
X330688Y338205D01*
X330635Y338165D01*
X188235Y195765D01*
X188193Y195708D01*
X188144Y195657D01*
X188120Y195606D01*
X188087Y195561D01*
X188065Y195493D01*
X188034Y195430D01*
X188026Y195370D01*
X188010Y195321D01*
X188010Y195265D01*
X188001Y195200D01*
X188001Y164550D01*
X188002Y164545D01*
X188001Y164540D01*
X188022Y164420D01*
X188041Y164301D01*
X188043Y164297D01*
X188044Y164291D01*
X188101Y164184D01*
X188156Y164077D01*
X188159Y164073D01*
X188162Y164069D01*
X188248Y163986D01*
X188335Y163900D01*
X188340Y163897D01*
X188344Y163894D01*
X188452Y163842D01*
X188561Y163787D01*
X188566Y163787D01*
X188571Y163784D01*
X188800Y163751D01*
X189725Y163751D01*
X194779Y161657D01*
X198647Y157789D01*
X200741Y152735D01*
X200741Y147265D01*
X198647Y142211D01*
X194779Y138343D01*
X189725Y136249D01*
X188800Y136249D01*
X188795Y136248D01*
X188790Y136249D01*
X188670Y136228D01*
X188551Y136210D01*
X188547Y136207D01*
X188541Y136206D01*
X188434Y136149D01*
X188327Y136094D01*
X188323Y136091D01*
X188319Y136088D01*
X188236Y136002D01*
X188150Y135915D01*
X188147Y135910D01*
X188144Y135907D01*
X188092Y135798D01*
X188037Y135689D01*
X188037Y135684D01*
X188034Y135680D01*
X188001Y135450D01*
X188001Y67200D01*
X188002Y67195D01*
X188001Y67190D01*
X188022Y67070D01*
X188041Y66951D01*
X188043Y66947D01*
X188044Y66941D01*
X188101Y66834D01*
X188156Y66727D01*
X188159Y66723D01*
X188162Y66719D01*
X188248Y66636D01*
X188335Y66550D01*
X188340Y66547D01*
X188344Y66544D01*
X188452Y66492D01*
X188561Y66437D01*
X188566Y66437D01*
X188571Y66434D01*
X188800Y66401D01*
X361600Y66401D01*
X361605Y66402D01*
G37*
G36*
X434711Y103212D02*
X434711Y103212D01*
X434782Y103213D01*
X434834Y103232D01*
X434890Y103241D01*
X434953Y103273D01*
X435020Y103296D01*
X435068Y103332D01*
X435114Y103356D01*
X435153Y103395D01*
X435206Y103435D01*
X438608Y106837D01*
X443469Y108851D01*
X448731Y108851D01*
X453592Y106837D01*
X456994Y103435D01*
X457052Y103393D01*
X457103Y103344D01*
X457153Y103320D01*
X457198Y103287D01*
X457266Y103265D01*
X457330Y103234D01*
X457389Y103226D01*
X457438Y103210D01*
X457494Y103210D01*
X457559Y103201D01*
X507641Y103201D01*
X507711Y103212D01*
X507782Y103213D01*
X507834Y103232D01*
X507890Y103241D01*
X507953Y103273D01*
X508020Y103296D01*
X508068Y103332D01*
X508114Y103356D01*
X508153Y103395D01*
X508206Y103435D01*
X511608Y106837D01*
X516469Y108851D01*
X521731Y108851D01*
X526592Y106837D01*
X529994Y103435D01*
X530052Y103393D01*
X530103Y103344D01*
X530153Y103320D01*
X530198Y103287D01*
X530266Y103265D01*
X530330Y103234D01*
X530389Y103226D01*
X530438Y103210D01*
X530494Y103210D01*
X530559Y103201D01*
X552000Y103201D01*
X552005Y103202D01*
X552010Y103201D01*
X552130Y103222D01*
X552249Y103241D01*
X552253Y103243D01*
X552259Y103244D01*
X552366Y103301D01*
X552473Y103356D01*
X552477Y103359D01*
X552481Y103362D01*
X552564Y103448D01*
X552650Y103535D01*
X552653Y103540D01*
X552656Y103544D01*
X552708Y103652D01*
X552763Y103761D01*
X552763Y103766D01*
X552766Y103771D01*
X552799Y104000D01*
X552799Y299200D01*
X552798Y299205D01*
X552799Y299210D01*
X552778Y299330D01*
X552760Y299449D01*
X552757Y299453D01*
X552756Y299459D01*
X552699Y299566D01*
X552644Y299673D01*
X552641Y299677D01*
X552638Y299681D01*
X552552Y299764D01*
X552465Y299850D01*
X552460Y299853D01*
X552457Y299856D01*
X552348Y299908D01*
X552239Y299963D01*
X552234Y299963D01*
X552230Y299966D01*
X552000Y299999D01*
X411200Y299999D01*
X411195Y299998D01*
X411190Y299999D01*
X411070Y299978D01*
X410951Y299960D01*
X410947Y299957D01*
X410941Y299956D01*
X410834Y299899D01*
X410727Y299844D01*
X410723Y299841D01*
X410719Y299838D01*
X410636Y299752D01*
X410550Y299665D01*
X410547Y299660D01*
X410544Y299657D01*
X410492Y299548D01*
X410437Y299439D01*
X410437Y299434D01*
X410434Y299430D01*
X410401Y299200D01*
X410401Y104000D01*
X410402Y103995D01*
X410401Y103990D01*
X410422Y103869D01*
X410441Y103751D01*
X410443Y103747D01*
X410444Y103741D01*
X410501Y103634D01*
X410556Y103527D01*
X410559Y103523D01*
X410562Y103519D01*
X410648Y103436D01*
X410735Y103350D01*
X410740Y103347D01*
X410744Y103344D01*
X410852Y103292D01*
X410961Y103237D01*
X410966Y103237D01*
X410971Y103234D01*
X411200Y103201D01*
X434641Y103201D01*
X434711Y103212D01*
G37*
%LPC*%
G36*
X339765Y81499D02*
X339765Y81499D01*
X334711Y83593D01*
X330843Y87461D01*
X328749Y92515D01*
X328749Y120485D01*
X330843Y125539D01*
X334711Y129407D01*
X339765Y131501D01*
X345235Y131501D01*
X350289Y129407D01*
X354157Y125539D01*
X356251Y120485D01*
X356251Y92515D01*
X354157Y87461D01*
X350289Y83593D01*
X345235Y81499D01*
X339765Y81499D01*
G37*
%LPD*%
%LPC*%
G36*
X371281Y262549D02*
X371281Y262549D01*
X367550Y264095D01*
X364695Y266950D01*
X363149Y270681D01*
X363149Y274719D01*
X364695Y278450D01*
X367550Y281305D01*
X371281Y282851D01*
X375319Y282851D01*
X379050Y281305D01*
X381905Y278450D01*
X383451Y274719D01*
X383451Y270681D01*
X381905Y266950D01*
X379050Y264095D01*
X375319Y262549D01*
X371281Y262549D01*
G37*
%LPD*%
D10*
X343300Y272700D03*
D11*
X373300Y272700D03*
D12*
X519100Y95625D02*
X519100Y72375D01*
X446100Y72375D02*
X446100Y95625D01*
X519100Y42625D02*
X519100Y19375D01*
X446100Y19375D02*
X446100Y42625D01*
D13*
X342500Y95250D02*
X342500Y117750D01*
X308500Y117750D02*
X308500Y95250D01*
X256500Y95250D02*
X256500Y117750D01*
D14*
X247500Y47750D02*
X247500Y19250D01*
X346500Y19250D02*
X346500Y47750D01*
D15*
X93010Y150000D03*
X140000Y150000D03*
X186990Y150000D03*
X114600Y23000D03*
X165400Y23000D03*
X703010Y150000D03*
X750000Y150000D03*
X796990Y150000D03*
X724600Y23000D03*
X775400Y23000D03*
D16*
X470400Y105600D03*
D17*
X468000Y108000D01*
X465600Y108800D01*
D16*
X446400Y139200D03*
X465600Y136000D03*
D17*
X464000Y134400D01*
D16*
X592000Y292800D03*
D17*
X592000Y233600D01*
D16*
X592000Y233600D03*
X417600Y166400D03*
D17*
X419200Y168000D02*
X420800Y168000D01*
X419200Y168000D02*
X417600Y166400D01*
D16*
X414400Y180800D03*
D17*
X420800Y187200D01*
X430400Y206400D01*
D16*
X454400Y249600D03*
D17*
X457600Y252800D01*
D16*
X494400Y137600D03*
D17*
X494400Y134400D01*
D16*
X544000Y142400D03*
D17*
X545600Y144000D01*
D16*
X433600Y56000D03*
D17*
X428800Y60800D02*
X428800Y107200D01*
X428800Y60800D02*
X433600Y56000D01*
D16*
X427200Y252800D03*
D17*
X427200Y256000D01*
D16*
X454400Y275200D03*
D17*
X451200Y275200D01*
X449600Y276800D01*
D16*
X507200Y214400D03*
D17*
X539200Y214400D01*
D16*
X489600Y112000D03*
X582400Y334400D03*
D17*
X576000Y320000D01*
X576000Y246400D01*
D16*
X576000Y246400D03*
X616000Y236800D03*
D17*
X616000Y216000D01*
D16*
X616000Y216000D03*
X608000Y254400D03*
D17*
X608000Y220800D01*
D16*
X608000Y220800D03*
X600000Y273600D03*
D17*
X600000Y227200D01*
D16*
X600000Y227200D03*
X584000Y304000D03*
D17*
X584000Y240000D01*
D16*
X584000Y240000D03*
D18*
X30000Y340000D03*
X860000Y340000D03*
X860000Y30000D03*
X30000Y30000D03*
X400000Y30000D03*
M02*
