M48
;GenerationSoftware,Autodesk,EAGLE,9.6.2*%
;CreationDate,2020-09-05T02:51:36Z*%
FMAT,2
ICI,OFF
METRIC,TZ,000.000
T9C0.300
T8C0.900
T7C1.020
T6C1.500
T5C1.550
T4C1.800
T3C1.900
T2C2.000
T1C3.000
%
G90
M71
T1
X35830Y31590
T2
X3000Y34000
X86000Y34000
X86000Y3000
X40000Y3000
X3000Y3000
T3
X34650Y3350
X24750Y3350
T4
X30950Y4350
T5
X44610Y3100
X51910Y3100
X44610Y8400
X51910Y8400
T6
X77540Y2300
X11460Y2300
X34250Y10650
X30850Y10650
X25650Y10650
X9301Y15000
X14000Y15000
X18699Y15000
X16540Y2300
X70301Y15000
X75000Y15000
X79699Y15000
X72460Y2300
T7
X34330Y27270
X37330Y27270
T8
X50010Y6400
X46510Y6400
T9
X47040Y10560
X44640Y13920
X46560Y13600
X59200Y29280
X59200Y23360
X41760Y16640
X45440Y24960
X49440Y13760
X54400Y14240
X43360Y5600
X42720Y25280
X45440Y27520
X50720Y21440
X48960Y11200
X58400Y24000
X58400Y30400
X60000Y22720
X57600Y24640
X58240Y33440
X60000Y27360
X41440Y18080
X60800Y22080
X60800Y25440
X61600Y21600
X61600Y23680
M30