G04 EAGLE Gerber RS-274X export*
G75*
%MOMM*%
%FSLAX34Y34*%
%LPD*%
%INstc*%
%IPPOS*%
%AMOC8*
5,1,8,0,0,1.08239X$1,22.5*%
G01*
%ADD10R,1.733200X1.733200*%
%ADD11C,1.733200*%
%ADD12C,3.203200*%
%ADD13C,2.528200*%
%ADD14R,0.703200X2.203200*%
%ADD15C,1.103200*%
%ADD16R,0.803200X1.753200*%
%ADD17R,1.403200X2.003200*%
%ADD18R,0.943200X1.128200*%
%ADD19R,0.508000X0.990600*%
%ADD20R,2.692400X1.955800*%
%ADD21R,0.453200X1.403200*%
%ADD22R,1.403200X0.453200*%
%ADD23R,1.103200X0.903200*%
%ADD24R,1.603200X2.103200*%
%ADD25R,1.128200X0.943200*%
%ADD26R,1.203200X1.303200*%
%ADD27C,2.453200*%
%ADD28C,3.053200*%
%ADD29C,2.003200*%
%ADD30R,1.003200X1.003200*%
%ADD31C,2.453200*%
%ADD32C,0.808000*%


D10*
X343300Y272700D03*
D11*
X373300Y272700D03*
D12*
X358300Y315900D03*
D13*
X519100Y95625D02*
X519100Y72375D01*
X446100Y72375D02*
X446100Y95625D01*
X519100Y42625D02*
X519100Y19375D01*
X446100Y19375D02*
X446100Y42625D01*
D14*
X466600Y86500D03*
X474600Y86500D03*
X482600Y86500D03*
X490600Y86500D03*
X498600Y86500D03*
D15*
X500100Y64000D03*
X465100Y64000D03*
D16*
X585600Y318250D03*
X575600Y318250D03*
X565600Y318250D03*
X555600Y318250D03*
X545600Y318250D03*
X535600Y318250D03*
X525600Y318250D03*
D17*
X598600Y357000D03*
X512600Y357000D03*
D18*
X432900Y271800D03*
X432900Y283800D03*
D19*
X451600Y264395D03*
X456600Y264395D03*
X461600Y264395D03*
X466600Y264395D03*
X466600Y293605D03*
X461600Y293605D03*
X456600Y293605D03*
X451600Y293605D03*
D20*
X459100Y279000D03*
D21*
X452800Y148700D03*
X457800Y148700D03*
X462800Y148700D03*
X467800Y148700D03*
X472800Y148700D03*
X477800Y148700D03*
X482800Y148700D03*
X487800Y148700D03*
X492800Y148700D03*
X497800Y148700D03*
X502800Y148700D03*
X507800Y148700D03*
D22*
X525300Y166200D03*
X525300Y171200D03*
X525300Y176200D03*
X525300Y181200D03*
X525300Y186200D03*
X525300Y191200D03*
X525300Y196200D03*
X525300Y201200D03*
X525300Y206200D03*
X525300Y211200D03*
X525300Y216200D03*
X525300Y221200D03*
D21*
X507800Y238700D03*
X502800Y238700D03*
X497800Y238700D03*
X492800Y238700D03*
X487800Y238700D03*
X482800Y238700D03*
X477800Y238700D03*
X472800Y238700D03*
X467800Y238700D03*
X462800Y238700D03*
X457800Y238700D03*
X452800Y238700D03*
D22*
X435300Y221200D03*
X435300Y216200D03*
X435300Y211200D03*
X435300Y206200D03*
X435300Y201200D03*
X435300Y196200D03*
X435300Y191200D03*
X435300Y186200D03*
X435300Y181200D03*
X435300Y176200D03*
X435300Y171200D03*
X435300Y166200D03*
D23*
X470400Y113900D03*
X470400Y126900D03*
D24*
X388200Y129100D03*
X388200Y85100D03*
X412200Y85100D03*
X412200Y129100D03*
D25*
X443800Y120300D03*
X455800Y120300D03*
X427700Y130600D03*
X439700Y130600D03*
D18*
X426400Y230400D03*
X426400Y242400D03*
X416700Y230200D03*
X416700Y242200D03*
X415500Y202400D03*
X415500Y190400D03*
D26*
X504800Y132400D03*
X504800Y115400D03*
D25*
X520600Y141900D03*
X532600Y141900D03*
X427000Y147500D03*
X415000Y147500D03*
D27*
X342500Y117750D02*
X342500Y95250D01*
X308500Y95250D02*
X308500Y117750D01*
X256500Y117750D02*
X256500Y95250D01*
D28*
X247500Y47750D02*
X247500Y19250D01*
X346500Y19250D02*
X346500Y47750D01*
D29*
X309500Y43500D03*
D25*
X427000Y158300D03*
X415000Y158300D03*
X527200Y119600D03*
X539200Y119600D03*
X527200Y129600D03*
X539200Y129600D03*
D26*
X399400Y205300D03*
X399400Y188300D03*
D30*
X223900Y9700D03*
X208900Y9700D03*
D23*
X211500Y38000D03*
X211500Y51000D03*
D16*
X570000Y52250D03*
X580000Y52250D03*
X590000Y52250D03*
X600000Y52250D03*
X610000Y52250D03*
X620000Y52250D03*
X630000Y52250D03*
D17*
X557000Y13500D03*
X643000Y13500D03*
D16*
X478600Y318250D03*
X468600Y318250D03*
X458600Y318250D03*
X448600Y318250D03*
D17*
X491600Y357000D03*
X435600Y357000D03*
D31*
X93010Y150000D03*
X140000Y150000D03*
X186990Y150000D03*
X114600Y23000D03*
X165400Y23000D03*
X703010Y150000D03*
X750000Y150000D03*
X796990Y150000D03*
X724600Y23000D03*
X775400Y23000D03*
D16*
X656600Y316650D03*
X646600Y316650D03*
D17*
X669600Y355400D03*
X633600Y355400D03*
D26*
X398400Y151500D03*
X398400Y168500D03*
D32*
X470400Y105600D03*
X446400Y139200D03*
X465600Y136000D03*
X592000Y292800D03*
X592000Y233600D03*
X417600Y166400D03*
X414400Y180800D03*
X454400Y249600D03*
X494400Y137600D03*
X544000Y142400D03*
X433600Y56000D03*
X427200Y252800D03*
X454400Y275200D03*
X507200Y214400D03*
X489600Y112000D03*
X582400Y334400D03*
X576000Y246400D03*
X616000Y236800D03*
X616000Y216000D03*
X608000Y254400D03*
X608000Y220800D03*
X600000Y273600D03*
X600000Y227200D03*
X584000Y304000D03*
X584000Y240000D03*
D12*
X30000Y340000D03*
X860000Y340000D03*
X860000Y30000D03*
X30000Y30000D03*
X400000Y30000D03*
M02*
