G75*
%MOIN*%
%OFA0B0*%
%FSLAX24Y24*%
%IPPOS*%
%LPD*%
%AMOC8*
5,1,8,0,0,1.08239X$1,22.5*
%
%ADD10C,0.0157*%
%ADD11R,0.0689X0.0689*%
%ADD12R,0.0276X0.0157*%
%ADD13R,0.0157X0.0276*%
%ADD14OC8,0.0710*%
%ADD15C,0.0710*%
%ADD16C,0.0358*%
%ADD17C,0.1261*%
D10*
X002777Y002954D03*
X002777Y003151D03*
X002777Y003348D03*
X002777Y003545D03*
X002954Y003722D03*
X003151Y003722D03*
X003348Y003722D03*
X003545Y003722D03*
X003722Y003545D03*
X003722Y003348D03*
X003722Y003151D03*
X003722Y002954D03*
X003545Y002777D03*
X003348Y002777D03*
X003151Y002777D03*
X002954Y002777D03*
D11*
X003250Y003250D03*
D12*
X003860Y003348D03*
X003860Y003151D03*
X003860Y002954D03*
X003860Y003545D03*
X002639Y003545D03*
X002639Y003348D03*
X002639Y003151D03*
X002639Y002954D03*
D13*
X002954Y002639D03*
X003151Y002639D03*
X003348Y002639D03*
X003545Y002639D03*
X003545Y003860D03*
X003348Y003860D03*
X003151Y003860D03*
X002954Y003860D03*
D14*
X003750Y005317D03*
D15*
X002750Y005317D03*
D16*
X003053Y004332D03*
X002364Y004234D03*
X003102Y003102D03*
X003250Y002265D03*
X003348Y001872D03*
X003840Y002167D03*
D17*
X000789Y000789D03*
X000789Y005710D03*
X005710Y005710D03*
X005710Y000789D03*
M02*
