G75*
%MOIN*%
%OFA0B0*%
%FSLAX24Y24*%
%IPPOS*%
%LPD*%
%AMOC8*
5,1,8,0,0,1.08239X$1,22.5*
%
%ADD10C,0.0000*%
%ADD11C,0.0040*%
%ADD12R,0.0197X0.0108*%
%ADD13C,0.0060*%
%ADD14R,0.0200X0.1000*%
%ADD15C,0.0100*%
D10*
X000100Y000789D02*
X000100Y005710D01*
X000102Y005761D01*
X000108Y005813D01*
X000117Y005863D01*
X000131Y005913D01*
X000148Y005962D01*
X000168Y006009D01*
X000192Y006055D01*
X000220Y006098D01*
X000250Y006140D01*
X000284Y006179D01*
X000320Y006215D01*
X000359Y006249D01*
X000401Y006279D01*
X000444Y006307D01*
X000490Y006331D01*
X000537Y006351D01*
X000586Y006368D01*
X000636Y006382D01*
X000686Y006391D01*
X000738Y006397D01*
X000789Y006399D01*
X005710Y006399D01*
X005761Y006397D01*
X005813Y006391D01*
X005863Y006382D01*
X005913Y006368D01*
X005962Y006351D01*
X006009Y006331D01*
X006055Y006307D01*
X006098Y006279D01*
X006140Y006249D01*
X006179Y006215D01*
X006215Y006179D01*
X006249Y006140D01*
X006279Y006098D01*
X006307Y006055D01*
X006331Y006009D01*
X006351Y005962D01*
X006368Y005913D01*
X006382Y005863D01*
X006391Y005813D01*
X006397Y005761D01*
X006399Y005710D01*
X006399Y000789D01*
X006397Y000738D01*
X006391Y000686D01*
X006382Y000636D01*
X006368Y000586D01*
X006351Y000537D01*
X006331Y000490D01*
X006307Y000445D01*
X006279Y000401D01*
X006249Y000359D01*
X006215Y000320D01*
X006179Y000284D01*
X006140Y000250D01*
X006098Y000220D01*
X006055Y000192D01*
X006009Y000168D01*
X005962Y000148D01*
X005913Y000131D01*
X005863Y000117D01*
X005813Y000108D01*
X005761Y000102D01*
X005710Y000100D01*
X000789Y000100D01*
X000738Y000102D01*
X000686Y000108D01*
X000636Y000117D01*
X000586Y000131D01*
X000537Y000148D01*
X000490Y000168D01*
X000444Y000192D01*
X000401Y000220D01*
X000359Y000250D01*
X000320Y000284D01*
X000284Y000320D01*
X000250Y000359D01*
X000220Y000401D01*
X000192Y000445D01*
X000168Y000490D01*
X000148Y000537D01*
X000131Y000586D01*
X000117Y000636D01*
X000108Y000686D01*
X000102Y000738D01*
X000100Y000789D01*
D11*
X001820Y004161D02*
X001820Y004496D01*
X001978Y004496D02*
X001978Y004161D01*
D12*
X001899Y004186D03*
X001899Y004471D03*
D13*
X002600Y005317D02*
X002950Y005317D01*
X002950Y005817D01*
X003150Y005817D01*
X003150Y004817D01*
X002950Y004817D01*
X002950Y005317D01*
X002250Y005317D02*
X002252Y005380D01*
X002258Y005442D01*
X002268Y005504D01*
X002281Y005566D01*
X002299Y005626D01*
X002320Y005685D01*
X002345Y005743D01*
X002374Y005799D01*
X002406Y005853D01*
X002441Y005905D01*
X002479Y005954D01*
X002521Y006002D01*
X002565Y006046D01*
X002613Y006088D01*
X002662Y006126D01*
X002714Y006161D01*
X002768Y006193D01*
X002824Y006222D01*
X002882Y006247D01*
X002941Y006268D01*
X003001Y006286D01*
X003063Y006299D01*
X003125Y006309D01*
X003187Y006315D01*
X003250Y006317D01*
X003313Y006315D01*
X003375Y006309D01*
X003437Y006299D01*
X003499Y006286D01*
X003559Y006268D01*
X003618Y006247D01*
X003676Y006222D01*
X003732Y006193D01*
X003786Y006161D01*
X003838Y006126D01*
X003887Y006088D01*
X003935Y006046D01*
X003979Y006002D01*
X004021Y005954D01*
X004059Y005905D01*
X004094Y005853D01*
X004126Y005799D01*
X004155Y005743D01*
X004180Y005685D01*
X004201Y005626D01*
X004219Y005566D01*
X004232Y005504D01*
X004242Y005442D01*
X004248Y005380D01*
X004250Y005317D01*
X004248Y005254D01*
X004242Y005192D01*
X004232Y005130D01*
X004219Y005068D01*
X004201Y005008D01*
X004180Y004949D01*
X004155Y004891D01*
X004126Y004835D01*
X004094Y004781D01*
X004059Y004729D01*
X004021Y004680D01*
X003979Y004632D01*
X003935Y004588D01*
X003887Y004546D01*
X003838Y004508D01*
X003786Y004473D01*
X003732Y004441D01*
X003676Y004412D01*
X003618Y004387D01*
X003559Y004366D01*
X003499Y004348D01*
X003437Y004335D01*
X003375Y004325D01*
X003313Y004319D01*
X003250Y004317D01*
X003187Y004319D01*
X003125Y004325D01*
X003063Y004335D01*
X003001Y004348D01*
X002941Y004366D01*
X002882Y004387D01*
X002824Y004412D01*
X002768Y004441D01*
X002714Y004473D01*
X002662Y004508D01*
X002613Y004546D01*
X002565Y004588D01*
X002521Y004632D01*
X002479Y004680D01*
X002441Y004729D01*
X002406Y004781D01*
X002374Y004835D01*
X002345Y004891D01*
X002320Y004949D01*
X002299Y005008D01*
X002281Y005068D01*
X002268Y005130D01*
X002258Y005192D01*
X002252Y005254D01*
X002250Y005317D01*
X002700Y005717D02*
X002700Y005817D01*
X002700Y005917D01*
X002700Y005817D02*
X002600Y005817D01*
X002700Y005817D02*
X002800Y005817D01*
X003500Y005317D02*
X003900Y005317D01*
D14*
X003450Y005317D03*
D15*
X004628Y003652D02*
X004774Y003652D01*
X004774Y002856D01*
X004774Y002079D02*
X001725Y002079D01*
X001725Y003652D01*
X001872Y003652D01*
X001725Y003652D02*
X001725Y002856D01*
X002265Y002079D02*
X004234Y002079D01*
X004774Y002079D02*
X004774Y003652D01*
X001725Y003652D01*
M02*
