G75*
%MOIN*%
%OFA0B0*%
%FSLAX24Y24*%
%IPPOS*%
%LPD*%
%AMOC8*
5,1,8,0,0,1.08239X$1,22.5*
%
%ADD10R,0.0200X0.0400*%
%ADD11R,0.2090X0.2090*%
%ADD12R,0.0631X0.0631*%
%ADD13C,0.0158*%
%ADD14R,0.0493X0.0505*%
%ADD15R,0.0356X0.0434*%
%ADD16R,0.0371X0.0444*%
%ADD17R,0.0505X0.0493*%
%ADD18R,0.0444X0.0371*%
%ADD19R,0.0434X0.0356*%
%ADD20R,0.0289X0.0525*%
%ADD21R,0.1793X0.1537*%
%ADD22R,0.0289X0.0604*%
%ADD23R,0.0474X0.0167*%
%ADD24R,0.0167X0.0474*%
%ADD25R,0.0474X0.0513*%
%ADD26C,0.0142*%
%ADD27R,0.0710X0.0316*%
%ADD28R,0.1143X0.0710*%
%ADD29R,0.0669X0.1024*%
%ADD30R,0.0374X0.0217*%
%ADD31R,0.0867X0.0671*%
%ADD32R,0.0671X0.0867*%
%ADD33R,0.0390X0.0200*%
%ADD34R,0.0770X0.1060*%
%ADD35C,0.0480*%
%ADD36C,0.0500*%
%ADD37C,0.1661*%
D10*
G36*
X008352Y006836D02*
X008210Y006978D01*
X008492Y007260D01*
X008634Y007118D01*
X008352Y006836D01*
G37*
G36*
X008217Y006970D02*
X008075Y007112D01*
X008357Y007394D01*
X008499Y007252D01*
X008217Y006970D01*
G37*
G36*
X008606Y007118D02*
X008748Y007260D01*
X009030Y006978D01*
X008888Y006836D01*
X008606Y007118D01*
G37*
G36*
X008740Y007252D02*
X008882Y007394D01*
X009164Y007112D01*
X009022Y006970D01*
X008740Y007252D01*
G37*
G36*
X008881Y007394D02*
X009023Y007536D01*
X009305Y007254D01*
X009163Y007112D01*
X008881Y007394D01*
G37*
G36*
X009023Y007535D02*
X009165Y007677D01*
X009447Y007395D01*
X009305Y007253D01*
X009023Y007535D01*
G37*
G36*
X009157Y007669D02*
X009299Y007811D01*
X009581Y007529D01*
X009439Y007387D01*
X009157Y007669D01*
G37*
G36*
X009299Y007811D02*
X009441Y007953D01*
X009723Y007671D01*
X009581Y007529D01*
X009299Y007811D01*
G37*
G36*
X009440Y007952D02*
X009582Y008094D01*
X009864Y007812D01*
X009722Y007670D01*
X009440Y007952D01*
G37*
G36*
X009581Y008094D02*
X009723Y008236D01*
X010005Y007954D01*
X009863Y007812D01*
X009581Y008094D01*
G37*
G36*
X009716Y008228D02*
X009858Y008370D01*
X010140Y008088D01*
X009998Y007946D01*
X009716Y008228D01*
G37*
G36*
X009857Y008369D02*
X009999Y008511D01*
X010281Y008229D01*
X010139Y008087D01*
X009857Y008369D01*
G37*
G36*
X009999Y008511D02*
X010141Y008653D01*
X010423Y008371D01*
X010281Y008229D01*
X009999Y008511D01*
G37*
G36*
X010133Y008645D02*
X010275Y008787D01*
X010557Y008505D01*
X010415Y008363D01*
X010133Y008645D01*
G37*
G36*
X010275Y008759D02*
X010133Y008901D01*
X010415Y009183D01*
X010557Y009041D01*
X010275Y008759D01*
G37*
G36*
X010141Y008894D02*
X009999Y009036D01*
X010281Y009318D01*
X010423Y009176D01*
X010141Y008894D01*
G37*
G36*
X009999Y009035D02*
X009857Y009177D01*
X010139Y009459D01*
X010281Y009317D01*
X009999Y009035D01*
G37*
G36*
X009858Y009176D02*
X009716Y009318D01*
X009998Y009600D01*
X010140Y009458D01*
X009858Y009176D01*
G37*
G36*
X009723Y009311D02*
X009581Y009453D01*
X009863Y009735D01*
X010005Y009593D01*
X009723Y009311D01*
G37*
G36*
X009582Y009452D02*
X009440Y009594D01*
X009722Y009876D01*
X009864Y009734D01*
X009582Y009452D01*
G37*
G36*
X009441Y009594D02*
X009299Y009736D01*
X009581Y010018D01*
X009723Y009876D01*
X009441Y009594D01*
G37*
G36*
X009299Y009735D02*
X009157Y009877D01*
X009439Y010159D01*
X009581Y010017D01*
X009299Y009735D01*
G37*
G36*
X009165Y009869D02*
X009023Y010011D01*
X009305Y010293D01*
X009447Y010151D01*
X009165Y009869D01*
G37*
G36*
X009023Y010011D02*
X008881Y010153D01*
X009163Y010435D01*
X009305Y010293D01*
X009023Y010011D01*
G37*
G36*
X008882Y010152D02*
X008740Y010294D01*
X009022Y010576D01*
X009164Y010434D01*
X008882Y010152D01*
G37*
G36*
X008748Y010287D02*
X008606Y010429D01*
X008888Y010711D01*
X009030Y010569D01*
X008748Y010287D01*
G37*
G36*
X008210Y010569D02*
X008352Y010711D01*
X008634Y010429D01*
X008492Y010287D01*
X008210Y010569D01*
G37*
G36*
X008075Y010434D02*
X008217Y010576D01*
X008499Y010294D01*
X008357Y010152D01*
X008075Y010434D01*
G37*
G36*
X007934Y010293D02*
X008076Y010435D01*
X008358Y010153D01*
X008216Y010011D01*
X007934Y010293D01*
G37*
G36*
X007792Y010151D02*
X007934Y010293D01*
X008216Y010011D01*
X008074Y009869D01*
X007792Y010151D01*
G37*
G36*
X007658Y010017D02*
X007800Y010159D01*
X008082Y009877D01*
X007940Y009735D01*
X007658Y010017D01*
G37*
G36*
X007517Y009876D02*
X007659Y010018D01*
X007941Y009736D01*
X007799Y009594D01*
X007517Y009876D01*
G37*
G36*
X007375Y009734D02*
X007517Y009876D01*
X007799Y009594D01*
X007657Y009452D01*
X007375Y009734D01*
G37*
G36*
X007234Y009593D02*
X007376Y009735D01*
X007658Y009453D01*
X007516Y009311D01*
X007234Y009593D01*
G37*
G36*
X007100Y009458D02*
X007242Y009600D01*
X007524Y009318D01*
X007382Y009176D01*
X007100Y009458D01*
G37*
G36*
X006958Y009317D02*
X007100Y009459D01*
X007382Y009177D01*
X007240Y009035D01*
X006958Y009317D01*
G37*
G36*
X006817Y009176D02*
X006959Y009318D01*
X007241Y009036D01*
X007099Y008894D01*
X006817Y009176D01*
G37*
G36*
X006682Y009041D02*
X006824Y009183D01*
X007106Y008901D01*
X006964Y008759D01*
X006682Y009041D01*
G37*
G36*
X006824Y008363D02*
X006682Y008505D01*
X006964Y008787D01*
X007106Y008645D01*
X006824Y008363D01*
G37*
G36*
X006959Y008229D02*
X006817Y008371D01*
X007099Y008653D01*
X007241Y008511D01*
X006959Y008229D01*
G37*
G36*
X007100Y008087D02*
X006958Y008229D01*
X007240Y008511D01*
X007382Y008369D01*
X007100Y008087D01*
G37*
G36*
X007242Y007946D02*
X007100Y008088D01*
X007382Y008370D01*
X007524Y008228D01*
X007242Y007946D01*
G37*
G36*
X007376Y007812D02*
X007234Y007954D01*
X007516Y008236D01*
X007658Y008094D01*
X007376Y007812D01*
G37*
G36*
X007517Y007670D02*
X007375Y007812D01*
X007657Y008094D01*
X007799Y007952D01*
X007517Y007670D01*
G37*
G36*
X007659Y007529D02*
X007517Y007671D01*
X007799Y007953D01*
X007941Y007811D01*
X007659Y007529D01*
G37*
G36*
X007800Y007387D02*
X007658Y007529D01*
X007940Y007811D01*
X008082Y007669D01*
X007800Y007387D01*
G37*
G36*
X007934Y007253D02*
X007792Y007395D01*
X008074Y007677D01*
X008216Y007535D01*
X007934Y007253D01*
G37*
G36*
X008076Y007112D02*
X007934Y007254D01*
X008216Y007536D01*
X008358Y007394D01*
X008076Y007112D01*
G37*
D11*
G36*
X010097Y008773D02*
X008620Y007296D01*
X007143Y008773D01*
X008620Y010250D01*
X010097Y008773D01*
G37*
D12*
X006486Y009828D03*
X004990Y009828D03*
D13*
X004537Y010466D02*
X005639Y010466D01*
X004537Y010466D02*
X004537Y010938D01*
X005639Y010938D01*
X005639Y010466D01*
X005639Y010623D02*
X004537Y010623D01*
X004537Y010780D02*
X005639Y010780D01*
X005639Y010937D02*
X004537Y010937D01*
X004537Y011333D02*
X005639Y011333D01*
X004537Y011333D02*
X004537Y011805D01*
X005639Y011805D01*
X005639Y011333D01*
X005639Y011490D02*
X004537Y011490D01*
X004537Y011647D02*
X005639Y011647D01*
X005639Y011804D02*
X004537Y011804D01*
D14*
X004570Y012391D03*
X005259Y012391D03*
X006189Y010576D03*
X006878Y010576D03*
X005594Y009191D03*
X004905Y009191D03*
D15*
X004844Y007525D03*
X005356Y007525D03*
X005364Y007049D03*
X004852Y007049D03*
X010041Y011049D03*
X010553Y011049D03*
X011061Y011584D03*
X011572Y011584D03*
X014415Y014462D03*
X014927Y014462D03*
D16*
X011714Y009986D03*
X011714Y009513D03*
X011057Y009596D03*
X011057Y009124D03*
X006017Y007372D03*
X006017Y006899D03*
X017537Y009167D03*
X018029Y009151D03*
X018029Y009624D03*
X017537Y009639D03*
D17*
X008864Y011822D03*
X008344Y011826D03*
X008344Y012515D03*
X008864Y012511D03*
X006671Y007504D03*
X006671Y006815D03*
D18*
X008832Y010939D03*
X009305Y010939D03*
X013281Y013950D03*
X013754Y013950D03*
X015545Y013958D03*
X016017Y013958D03*
X016726Y008474D03*
X017198Y008474D03*
D19*
X017600Y011966D03*
X017600Y012478D03*
X011667Y011029D03*
X011151Y011029D03*
X011151Y010517D03*
X011667Y010517D03*
X010403Y011549D03*
X010403Y012061D03*
X006194Y011899D03*
X006194Y011387D03*
D20*
X015728Y004718D03*
X016228Y004718D03*
X016728Y004718D03*
X017228Y004718D03*
X014984Y002009D03*
X014484Y002009D03*
X013984Y002009D03*
X013484Y002009D03*
X012799Y002206D03*
X012299Y002206D03*
X011799Y002206D03*
X011299Y002206D03*
X010614Y003990D03*
X010114Y003990D03*
X009614Y003990D03*
X009114Y003990D03*
X008370Y003990D03*
X007870Y003990D03*
X007370Y003990D03*
X006870Y003990D03*
X006244Y002364D03*
X005744Y002364D03*
X005244Y002364D03*
X004744Y002364D03*
D21*
X005494Y003600D03*
X007620Y002754D03*
X009864Y002754D03*
X012049Y003443D03*
X014234Y003246D03*
X016478Y003482D03*
D22*
X016728Y002561D03*
X016228Y002561D03*
X015728Y002561D03*
X017228Y002561D03*
X014984Y004167D03*
X014484Y004167D03*
X013984Y004167D03*
X013484Y004167D03*
X012799Y004364D03*
X012299Y004364D03*
X011799Y004364D03*
X011299Y004364D03*
X010614Y001832D03*
X010114Y001832D03*
X009614Y001832D03*
X009114Y001832D03*
X008370Y001832D03*
X007870Y001832D03*
X007370Y001832D03*
X006870Y001832D03*
X006244Y004521D03*
X005744Y004521D03*
X005244Y004521D03*
X004744Y004521D03*
D23*
X012415Y009517D03*
X012415Y009714D03*
X012415Y009911D03*
X012415Y010108D03*
X012415Y010305D03*
X012415Y010502D03*
X012415Y010698D03*
X012415Y010895D03*
X012415Y011092D03*
X012415Y011289D03*
X012415Y011486D03*
X012415Y011683D03*
X012415Y011880D03*
X012415Y012076D03*
X012415Y012273D03*
X012415Y012470D03*
X016943Y012470D03*
X016943Y012273D03*
X016943Y012076D03*
X016943Y011880D03*
X016943Y011683D03*
X016943Y011486D03*
X016943Y011289D03*
X016943Y011092D03*
X016943Y010895D03*
X016943Y010698D03*
X016943Y010502D03*
X016943Y010305D03*
X016943Y010108D03*
X016943Y009911D03*
X016943Y009714D03*
X016943Y009517D03*
D24*
X016155Y008730D03*
X015958Y008730D03*
X015761Y008730D03*
X015565Y008730D03*
X015368Y008730D03*
X015171Y008730D03*
X014974Y008730D03*
X014777Y008730D03*
X014580Y008730D03*
X014383Y008730D03*
X014187Y008730D03*
X013990Y008730D03*
X013793Y008730D03*
X013596Y008730D03*
X013399Y008730D03*
X013202Y008730D03*
X013202Y013257D03*
X013399Y013257D03*
X013596Y013257D03*
X013793Y013257D03*
X013990Y013257D03*
X014187Y013257D03*
X014383Y013257D03*
X014580Y013257D03*
X014777Y013257D03*
X014974Y013257D03*
X015171Y013257D03*
X015368Y013257D03*
X015565Y013257D03*
X015761Y013257D03*
X015958Y013257D03*
X016155Y013257D03*
D25*
X018096Y012691D03*
X018096Y012021D03*
D26*
X016000Y014308D02*
X016000Y014640D01*
X016332Y014640D01*
X016332Y014308D01*
X016000Y014308D01*
X016000Y014449D02*
X016332Y014449D01*
X016332Y014590D02*
X016000Y014590D01*
X015309Y014640D02*
X015309Y014308D01*
X015309Y014640D02*
X015641Y014640D01*
X015641Y014308D01*
X015309Y014308D01*
X015309Y014449D02*
X015641Y014449D01*
X015641Y014590D02*
X015309Y014590D01*
X011828Y012290D02*
X011828Y011958D01*
X011496Y011958D01*
X011496Y012290D01*
X011828Y012290D01*
X011828Y012099D02*
X011496Y012099D01*
X011496Y012240D02*
X011828Y012240D01*
X011137Y012290D02*
X011137Y011958D01*
X010805Y011958D01*
X010805Y012290D01*
X011137Y012290D01*
X011137Y012099D02*
X010805Y012099D01*
X010805Y012240D02*
X011137Y012240D01*
D27*
X018076Y011328D03*
X018076Y010856D03*
X018076Y010383D03*
D28*
X010163Y005809D03*
X010163Y004706D03*
X008352Y004698D03*
X008352Y005801D03*
D29*
X007226Y011647D03*
D30*
X006655Y011647D03*
X006655Y012041D03*
X006655Y011254D03*
X007797Y011254D03*
X007797Y011647D03*
X007797Y012041D03*
D31*
X006163Y006037D03*
X005356Y006037D03*
X004529Y006037D03*
X003698Y006037D03*
X003698Y004856D03*
X004529Y004856D03*
X005356Y004856D03*
X006163Y004856D03*
X011569Y004738D03*
X012332Y004738D03*
X013915Y004679D03*
X014742Y004679D03*
X014742Y005860D03*
X013915Y005860D03*
X012332Y005919D03*
X011569Y005919D03*
X018112Y004927D03*
X018112Y003746D03*
D32*
X005801Y008450D03*
X004620Y008450D03*
D33*
X016100Y007738D03*
X016100Y007541D03*
X016100Y007344D03*
X016100Y007147D03*
X017250Y007147D03*
X017250Y007344D03*
X017250Y007541D03*
X017250Y007738D03*
D34*
X016675Y007443D03*
D35*
X016336Y000939D03*
X015836Y000939D03*
X015336Y000939D03*
X014836Y000939D03*
X014336Y000939D03*
X013836Y000939D03*
X013336Y000939D03*
X012836Y000939D03*
X012336Y000939D03*
X011836Y000939D03*
X011336Y000939D03*
X010836Y000939D03*
X010336Y000939D03*
X009836Y000939D03*
X009336Y000939D03*
X008836Y000939D03*
X008336Y000939D03*
X007836Y000939D03*
X007336Y000939D03*
X006836Y000939D03*
X006336Y000939D03*
X005836Y000939D03*
X005336Y000939D03*
X004836Y000939D03*
X004336Y000939D03*
D36*
X002122Y004881D03*
X001622Y004881D03*
X001622Y005381D03*
X002122Y005381D03*
X002122Y005881D03*
X001622Y005881D03*
X001622Y006381D03*
X002122Y006381D03*
X002122Y006881D03*
X001622Y006881D03*
X001622Y007381D03*
X002122Y007381D03*
X002122Y007881D03*
X001622Y007881D03*
X001622Y008381D03*
X002122Y008381D03*
X002122Y008881D03*
X001622Y008881D03*
X001622Y009381D03*
X002122Y009381D03*
X002122Y009881D03*
X001622Y009881D03*
X001622Y010381D03*
X002122Y010381D03*
X019732Y010381D03*
X020232Y010381D03*
X020232Y009881D03*
X019732Y009881D03*
X019732Y009381D03*
X020232Y009381D03*
X020232Y008881D03*
X019732Y008881D03*
X019732Y008381D03*
X020232Y008381D03*
X020232Y007881D03*
X019732Y007881D03*
X019732Y007381D03*
X020232Y007381D03*
X020232Y006881D03*
X019732Y006881D03*
X019732Y006381D03*
X020232Y006381D03*
X020232Y005881D03*
X019732Y005881D03*
X019732Y005381D03*
X020232Y005381D03*
X020232Y004881D03*
X019732Y004881D03*
D37*
X002462Y002907D03*
X002462Y012356D03*
X020179Y012356D03*
X020179Y002907D03*
M02*
