G75*
%MOIN*%
%OFA0B0*%
%FSLAX24Y24*%
%IPPOS*%
%LPD*%
%AMOC8*
5,1,8,0,0,1.08239X$1,22.5*
%
%ADD10C,0.0400*%
%ADD11C,0.0420*%
%ADD12C,0.0236*%
%ADD13C,0.0063*%
%ADD14C,0.0100*%
%ADD15C,0.0160*%
%ADD16C,0.0120*%
%ADD17C,0.0240*%
%ADD18C,0.1581*%
D10*
X004336Y000939D03*
X004836Y000939D03*
X005336Y000939D03*
X005836Y000939D03*
X006336Y000939D03*
X006836Y000939D03*
X007336Y000939D03*
X007836Y000939D03*
X008336Y000939D03*
X008836Y000939D03*
X009336Y000939D03*
X009836Y000939D03*
X010336Y000939D03*
X010836Y000939D03*
X011336Y000939D03*
X011836Y000939D03*
X012336Y000939D03*
X012836Y000939D03*
X013336Y000939D03*
X013836Y000939D03*
X014336Y000939D03*
X014836Y000939D03*
X015336Y000939D03*
X015836Y000939D03*
X016336Y000939D03*
D11*
X019732Y004881D03*
X020232Y004881D03*
X020232Y005381D03*
X019732Y005381D03*
X019732Y005881D03*
X020232Y005881D03*
X020232Y006381D03*
X019732Y006381D03*
X019732Y006881D03*
X020232Y006881D03*
X020232Y007381D03*
X019732Y007381D03*
X019732Y007881D03*
X020232Y007881D03*
X020232Y008381D03*
X019732Y008381D03*
X019732Y008881D03*
X020232Y008881D03*
X020232Y009381D03*
X019732Y009381D03*
X019732Y009881D03*
X020232Y009881D03*
X020232Y010381D03*
X019732Y010381D03*
X002122Y010381D03*
X001622Y010381D03*
X001622Y009881D03*
X002122Y009881D03*
X002122Y009381D03*
X001622Y009381D03*
X001622Y008881D03*
X002122Y008881D03*
X002122Y008381D03*
X001622Y008381D03*
X001622Y007881D03*
X002122Y007881D03*
X002122Y007381D03*
X001622Y007381D03*
X001622Y006881D03*
X002122Y006881D03*
X002122Y006381D03*
X001622Y006381D03*
X001622Y005881D03*
X002122Y005881D03*
X002122Y005381D03*
X001622Y005381D03*
X001622Y004881D03*
X002122Y004881D03*
D12*
X003517Y005584D03*
X003895Y005584D03*
X004273Y005584D03*
X004628Y005584D03*
X004982Y005584D03*
X005336Y005584D03*
X005691Y005584D03*
X006045Y005584D03*
X006399Y005584D03*
X006399Y006175D03*
X006045Y006175D03*
X005691Y006175D03*
X005336Y006175D03*
X004982Y006175D03*
X004628Y006175D03*
X004273Y006175D03*
X003895Y006175D03*
X003517Y006175D03*
X004450Y007076D03*
X004454Y007506D03*
X006470Y008513D03*
X007458Y008754D03*
X008049Y009344D03*
X008580Y009935D03*
X009171Y009344D03*
X008639Y008754D03*
X008049Y008163D03*
X008639Y007572D03*
X009230Y008163D03*
X009820Y008754D03*
X010517Y008939D03*
X011423Y009084D03*
X011994Y009061D03*
X012431Y009344D03*
X013021Y009462D03*
X013025Y010309D03*
X013494Y010643D03*
X013198Y010820D03*
X012903Y010998D03*
X014198Y011714D03*
X014439Y012002D03*
X014675Y012238D03*
X014911Y012537D03*
X015147Y012773D03*
X015856Y012651D03*
X016269Y012651D03*
X017053Y012734D03*
X017565Y012954D03*
X017954Y013135D03*
X018502Y012293D03*
X018754Y011096D03*
X019383Y010907D03*
X018439Y009962D03*
X017667Y010931D03*
X016383Y011588D03*
X015974Y011116D03*
X015698Y010860D03*
X016297Y010655D03*
X015982Y010151D03*
X015415Y009962D03*
X015982Y009545D03*
X016506Y009639D03*
X016958Y009159D03*
X016210Y009108D03*
X015324Y009167D03*
X014281Y008135D03*
X014344Y007506D03*
X014029Y007506D03*
X013714Y007506D03*
X013399Y007506D03*
X015037Y007506D03*
X015037Y007128D03*
X014970Y006175D03*
X014616Y006175D03*
X014261Y006175D03*
X013907Y006175D03*
X013553Y006175D03*
X013553Y005584D03*
X013907Y005584D03*
X014261Y005584D03*
X014616Y005584D03*
X014970Y005584D03*
X016202Y005289D03*
X016439Y005289D03*
X016675Y005289D03*
X016911Y005289D03*
X017147Y005289D03*
X017147Y005053D03*
X016911Y005053D03*
X016675Y005053D03*
X016439Y005053D03*
X016439Y004817D03*
X016675Y004817D03*
X016911Y004817D03*
X017147Y004817D03*
X016911Y004580D03*
X016675Y004580D03*
X016439Y004580D03*
X016202Y004580D03*
X016202Y004817D03*
X016202Y005053D03*
X016226Y003911D03*
X016462Y003911D03*
X016698Y003911D03*
X016935Y003911D03*
X017171Y003911D03*
X017171Y003675D03*
X016935Y003675D03*
X016935Y003439D03*
X017171Y003439D03*
X017171Y003202D03*
X017171Y002966D03*
X016935Y002966D03*
X016935Y003202D03*
X016698Y003202D03*
X016462Y003202D03*
X016462Y002966D03*
X016226Y002966D03*
X015990Y002966D03*
X015990Y003202D03*
X016226Y003202D03*
X016226Y003439D03*
X016226Y003675D03*
X016462Y003675D03*
X016462Y003439D03*
X016698Y003439D03*
X016698Y003675D03*
X015990Y003675D03*
X015990Y003439D03*
X015754Y003439D03*
X015754Y003675D03*
X015754Y003911D03*
X015990Y003911D03*
X015754Y003202D03*
X015754Y002966D03*
X014923Y002907D03*
X014923Y002671D03*
X014687Y002671D03*
X014687Y002907D03*
X014450Y002907D03*
X014214Y002907D03*
X013978Y002907D03*
X013978Y002671D03*
X014214Y002671D03*
X014450Y002671D03*
X014450Y003143D03*
X014214Y003143D03*
X013978Y003143D03*
X013742Y003143D03*
X013506Y003143D03*
X013506Y003380D03*
X013742Y003380D03*
X013978Y003380D03*
X014214Y003380D03*
X014450Y003380D03*
X014687Y003380D03*
X014923Y003380D03*
X014923Y003143D03*
X014687Y003143D03*
X014687Y003616D03*
X014923Y003616D03*
X014923Y003852D03*
X014687Y003852D03*
X014450Y003852D03*
X014214Y003852D03*
X013978Y003852D03*
X013978Y003616D03*
X014214Y003616D03*
X014450Y003616D03*
X013742Y003616D03*
X013742Y003852D03*
X013506Y003852D03*
X013506Y003616D03*
X012742Y003557D03*
X012506Y003557D03*
X012506Y003320D03*
X012742Y003320D03*
X012742Y003084D03*
X012742Y002848D03*
X012506Y002848D03*
X012506Y003084D03*
X012269Y003084D03*
X012033Y003084D03*
X012033Y002848D03*
X011797Y002848D03*
X011797Y003084D03*
X011561Y003084D03*
X011561Y002848D03*
X011324Y002848D03*
X011324Y003084D03*
X011324Y003320D03*
X011561Y003320D03*
X011797Y003320D03*
X012033Y003320D03*
X012269Y003320D03*
X012269Y003557D03*
X012033Y003557D03*
X011797Y003557D03*
X011561Y003557D03*
X011324Y003557D03*
X011324Y003793D03*
X011324Y004029D03*
X011561Y004029D03*
X011797Y004029D03*
X012033Y004029D03*
X012033Y003793D03*
X011797Y003793D03*
X011561Y003793D03*
X012269Y003793D03*
X012269Y004029D03*
X012506Y004029D03*
X012742Y004029D03*
X012742Y003793D03*
X012506Y003793D03*
X012269Y002848D03*
X012206Y002257D03*
X012206Y002021D03*
X011970Y002021D03*
X011734Y002021D03*
X011498Y002021D03*
X011498Y002257D03*
X011734Y002257D03*
X011970Y002257D03*
X011261Y002257D03*
X011261Y002021D03*
X010553Y002139D03*
X010317Y002139D03*
X010080Y002139D03*
X009844Y002139D03*
X009608Y002139D03*
X009372Y002139D03*
X009135Y002139D03*
X009135Y002376D03*
X009135Y002612D03*
X009372Y002612D03*
X009608Y002612D03*
X009844Y002612D03*
X010080Y002612D03*
X010080Y002376D03*
X009844Y002376D03*
X009608Y002376D03*
X009372Y002376D03*
X009372Y002848D03*
X009608Y002848D03*
X009844Y002848D03*
X009844Y003084D03*
X009608Y003084D03*
X009372Y003084D03*
X009135Y003084D03*
X009135Y002848D03*
X009135Y003320D03*
X009372Y003320D03*
X009608Y003320D03*
X009844Y003320D03*
X010080Y003320D03*
X010317Y003320D03*
X010553Y003320D03*
X010553Y003084D03*
X010553Y002848D03*
X010317Y002848D03*
X010317Y003084D03*
X010080Y003084D03*
X010080Y002848D03*
X010317Y002612D03*
X010553Y002612D03*
X010553Y002376D03*
X010317Y002376D03*
X008313Y002435D03*
X008313Y002198D03*
X008076Y002198D03*
X007840Y002198D03*
X007604Y002198D03*
X007368Y002198D03*
X007131Y002198D03*
X006895Y002198D03*
X006895Y002435D03*
X007131Y002435D03*
X007368Y002435D03*
X007604Y002435D03*
X007840Y002435D03*
X008076Y002435D03*
X008076Y002671D03*
X007840Y002671D03*
X007604Y002671D03*
X007604Y002907D03*
X007840Y002907D03*
X008076Y002907D03*
X008313Y002907D03*
X008313Y002671D03*
X008313Y003143D03*
X008313Y003380D03*
X008076Y003380D03*
X007840Y003380D03*
X007604Y003380D03*
X007368Y003380D03*
X007131Y003380D03*
X006895Y003380D03*
X006895Y003143D03*
X007131Y003143D03*
X007368Y003143D03*
X007604Y003143D03*
X007840Y003143D03*
X008076Y003143D03*
X007368Y002907D03*
X007368Y002671D03*
X007131Y002671D03*
X006895Y002671D03*
X006895Y002907D03*
X007131Y002907D03*
X006183Y003025D03*
X005946Y003025D03*
X005710Y003025D03*
X005474Y003025D03*
X005238Y003025D03*
X005002Y003025D03*
X004765Y003025D03*
X004765Y003261D03*
X005002Y003261D03*
X005238Y003261D03*
X005474Y003261D03*
X005710Y003261D03*
X005946Y003261D03*
X005946Y003498D03*
X005710Y003498D03*
X005474Y003498D03*
X005238Y003498D03*
X005002Y003498D03*
X004765Y003498D03*
X004765Y003734D03*
X004765Y003970D03*
X005002Y003970D03*
X005238Y003970D03*
X005474Y003970D03*
X005474Y003734D03*
X005238Y003734D03*
X005002Y003734D03*
X005002Y004206D03*
X005238Y004206D03*
X005474Y004206D03*
X005710Y004206D03*
X005946Y004206D03*
X006183Y004206D03*
X006183Y003970D03*
X006183Y003734D03*
X005946Y003734D03*
X005710Y003734D03*
X005710Y003970D03*
X005946Y003970D03*
X006183Y003498D03*
X006183Y003261D03*
X005769Y002439D03*
X005533Y002439D03*
X005297Y002439D03*
X005061Y002439D03*
X004824Y002439D03*
X005297Y002202D03*
X005533Y002202D03*
X005769Y002202D03*
X004765Y004206D03*
X007718Y004443D03*
X007954Y004443D03*
X008191Y004443D03*
X008427Y004443D03*
X008663Y004443D03*
X008663Y004679D03*
X008427Y004679D03*
X008191Y004679D03*
X007954Y004679D03*
X007718Y004679D03*
X007939Y005643D03*
X007939Y005880D03*
X008175Y005880D03*
X008411Y005880D03*
X008647Y005880D03*
X008647Y005643D03*
X008647Y006116D03*
X008411Y006116D03*
X008175Y006116D03*
X007939Y006116D03*
X008427Y006561D03*
X008872Y006679D03*
X009836Y006116D03*
X010072Y006116D03*
X010309Y006116D03*
X010545Y006116D03*
X010545Y005880D03*
X010309Y005880D03*
X010072Y005880D03*
X009836Y005880D03*
X009836Y005643D03*
X010545Y005643D03*
X011191Y005584D03*
X011545Y005584D03*
X011899Y005584D03*
X012254Y005584D03*
X012608Y005584D03*
X012608Y006175D03*
X012254Y006175D03*
X011899Y006175D03*
X011545Y006175D03*
X011191Y006175D03*
X010246Y006561D03*
X010006Y006773D03*
X009962Y004679D03*
X010198Y004679D03*
X010435Y004679D03*
X010671Y004679D03*
X010671Y004443D03*
X010435Y004443D03*
X010198Y004443D03*
X009962Y004443D03*
X009726Y004443D03*
X009726Y004679D03*
X007226Y007254D03*
X006513Y009265D03*
X007399Y010112D03*
X007340Y010407D03*
X007576Y010643D03*
X007891Y010584D03*
X008108Y010820D03*
X008403Y010939D03*
X008072Y011317D03*
X008710Y011352D03*
X009596Y010525D03*
X009895Y010415D03*
X010187Y010289D03*
X010246Y009931D03*
X010655Y010061D03*
X011297Y009915D03*
X010907Y011588D03*
X010006Y011549D03*
X010376Y012482D03*
X007939Y012502D03*
X007265Y011927D03*
X004580Y011600D03*
X004529Y012395D03*
X005273Y014561D03*
X013096Y012824D03*
X013494Y012828D03*
X018313Y014624D03*
X016647Y007781D03*
X018880Y007317D03*
X018880Y006246D03*
X018513Y003285D03*
X018513Y003033D03*
X017757Y003033D03*
X017757Y003285D03*
X016698Y002966D03*
X014513Y002080D03*
X014277Y002080D03*
X014041Y002080D03*
X014041Y001844D03*
X014277Y001844D03*
X014513Y001844D03*
X013805Y001844D03*
X013569Y001844D03*
X013569Y002080D03*
X013805Y002080D03*
X013742Y002671D03*
X013742Y002907D03*
X013506Y002907D03*
X013506Y002671D03*
D13*
X003958Y005072D02*
X003900Y000482D01*
X003955Y000480D01*
X004009Y000480D01*
X004009Y000480D01*
X012156Y000480D01*
X018643Y000506D01*
X018643Y004187D01*
X007391Y004147D01*
X006446Y005072D01*
X003958Y005072D01*
X003958Y005049D02*
X006471Y005049D01*
X006533Y004987D02*
X003957Y004987D01*
X003956Y004926D02*
X006596Y004926D01*
X006659Y004864D02*
X003956Y004864D01*
X003955Y004803D02*
X006722Y004803D01*
X006785Y004741D02*
X003954Y004741D01*
X003953Y004680D02*
X006847Y004680D01*
X006910Y004618D02*
X003952Y004618D01*
X003952Y004557D02*
X006973Y004557D01*
X007036Y004495D02*
X003951Y004495D01*
X003950Y004434D02*
X007099Y004434D01*
X007161Y004372D02*
X003949Y004372D01*
X003949Y004311D02*
X007224Y004311D01*
X007287Y004249D02*
X003948Y004249D01*
X003947Y004188D02*
X007350Y004188D01*
X007318Y003629D02*
X007250Y003601D01*
X007181Y003629D01*
X007082Y003629D01*
X007013Y003601D01*
X006945Y003629D01*
X006846Y003629D01*
X006754Y003591D01*
X006684Y003521D01*
X006646Y003429D01*
X006646Y003330D01*
X006674Y003261D01*
X006646Y003193D01*
X006646Y003094D01*
X006674Y003025D01*
X006646Y002957D01*
X006646Y002857D01*
X006674Y002789D01*
X006646Y002721D01*
X006646Y002621D01*
X006674Y002553D01*
X006646Y002484D01*
X006646Y002385D01*
X006674Y002317D01*
X006646Y002248D01*
X006646Y002149D01*
X006684Y002057D01*
X006754Y001987D01*
X006846Y001949D01*
X006945Y001949D01*
X007013Y001977D01*
X007082Y001949D01*
X007181Y001949D01*
X007250Y001977D01*
X007318Y001949D01*
X007417Y001949D01*
X007486Y001977D01*
X007554Y001949D01*
X007654Y001949D01*
X007722Y001977D01*
X007791Y001949D01*
X007890Y001949D01*
X007958Y001977D01*
X008027Y001949D01*
X008126Y001949D01*
X008194Y001977D01*
X008263Y001949D01*
X008362Y001949D01*
X008454Y001987D01*
X008524Y002057D01*
X008562Y002149D01*
X008562Y002248D01*
X008534Y002317D01*
X008562Y002385D01*
X008562Y002484D01*
X008534Y002553D01*
X008562Y002621D01*
X008562Y002721D01*
X008534Y002789D01*
X008562Y002857D01*
X008562Y002957D01*
X008534Y003025D01*
X008562Y003094D01*
X008562Y003193D01*
X008534Y003261D01*
X008562Y003330D01*
X008562Y003429D01*
X008524Y003521D01*
X008454Y003591D01*
X008362Y003629D01*
X008263Y003629D01*
X008194Y003601D01*
X008126Y003629D01*
X008027Y003629D01*
X007958Y003601D01*
X007890Y003629D01*
X007791Y003629D01*
X007722Y003601D01*
X007654Y003629D01*
X007554Y003629D01*
X007486Y003601D01*
X007417Y003629D01*
X007318Y003629D01*
X006736Y003573D02*
X003939Y003573D01*
X003938Y003512D02*
X006680Y003512D01*
X006654Y003450D02*
X003938Y003450D01*
X003937Y003389D02*
X006646Y003389D01*
X006647Y003327D02*
X003936Y003327D01*
X003935Y003266D02*
X006672Y003266D01*
X006650Y003204D02*
X003934Y003204D01*
X003934Y003143D02*
X006646Y003143D01*
X006651Y003081D02*
X003933Y003081D01*
X003932Y003020D02*
X006672Y003020D01*
X006646Y002958D02*
X003931Y002958D01*
X003930Y002897D02*
X006646Y002897D01*
X006655Y002835D02*
X003930Y002835D01*
X003929Y002774D02*
X006668Y002774D01*
X006646Y002712D02*
X003928Y002712D01*
X003927Y002651D02*
X004684Y002651D01*
X004683Y002650D02*
X004613Y002580D01*
X004575Y002488D01*
X004575Y002389D01*
X004613Y002297D01*
X004683Y002227D01*
X004775Y002189D01*
X004874Y002189D01*
X004943Y002217D01*
X005011Y002189D01*
X005047Y002189D01*
X005047Y002153D01*
X005085Y002061D01*
X005155Y001991D01*
X005247Y001953D01*
X005346Y001953D01*
X005415Y001981D01*
X005483Y001953D01*
X005583Y001953D01*
X005651Y001981D01*
X005720Y001953D01*
X005819Y001953D01*
X005911Y001991D01*
X005981Y002061D01*
X006019Y002153D01*
X006019Y002252D01*
X005991Y002320D01*
X006019Y002389D01*
X006019Y002488D01*
X005981Y002580D01*
X005911Y002650D01*
X005819Y002688D01*
X005720Y002688D01*
X005651Y002660D01*
X005583Y002688D01*
X005483Y002688D01*
X005415Y002660D01*
X005346Y002688D01*
X005247Y002688D01*
X005179Y002660D01*
X005110Y002688D01*
X005011Y002688D01*
X004943Y002660D01*
X004874Y002688D01*
X004775Y002688D01*
X004683Y002650D01*
X004622Y002589D02*
X003927Y002589D01*
X003926Y002528D02*
X004591Y002528D01*
X004575Y002466D02*
X003925Y002466D01*
X003924Y002405D02*
X004575Y002405D01*
X004594Y002343D02*
X003923Y002343D01*
X003923Y002282D02*
X004628Y002282D01*
X004699Y002220D02*
X003922Y002220D01*
X003921Y002159D02*
X005047Y002159D01*
X005070Y002097D02*
X003920Y002097D01*
X003919Y002036D02*
X005111Y002036D01*
X005195Y001974D02*
X003919Y001974D01*
X003918Y001913D02*
X009030Y001913D01*
X008994Y001928D02*
X009086Y001890D01*
X009185Y001890D01*
X009254Y001918D01*
X009322Y001890D01*
X009421Y001890D01*
X009490Y001918D01*
X009558Y001890D01*
X009658Y001890D01*
X009726Y001918D01*
X009794Y001890D01*
X009894Y001890D01*
X009962Y001918D01*
X010031Y001890D01*
X010130Y001890D01*
X010198Y001918D01*
X010267Y001890D01*
X010366Y001890D01*
X010435Y001918D01*
X010503Y001890D01*
X010602Y001890D01*
X010694Y001928D01*
X010764Y001998D01*
X010802Y002090D01*
X010802Y002189D01*
X010774Y002257D01*
X010802Y002326D01*
X010802Y002425D01*
X010774Y002494D01*
X010802Y002562D01*
X010802Y002661D01*
X010774Y002730D01*
X010802Y002798D01*
X010802Y002898D01*
X010774Y002966D01*
X010802Y003035D01*
X010802Y003134D01*
X010774Y003202D01*
X010802Y003271D01*
X010802Y003370D01*
X010764Y003462D01*
X010694Y003532D01*
X010602Y003570D01*
X010503Y003570D01*
X010435Y003542D01*
X010366Y003570D01*
X010267Y003570D01*
X010198Y003542D01*
X010130Y003570D01*
X010031Y003570D01*
X009962Y003542D01*
X009894Y003570D01*
X009794Y003570D01*
X009726Y003542D01*
X009658Y003570D01*
X009558Y003570D01*
X009490Y003542D01*
X009421Y003570D01*
X009322Y003570D01*
X009254Y003542D01*
X009185Y003570D01*
X009086Y003570D01*
X008994Y003532D01*
X008924Y003462D01*
X008886Y003370D01*
X008886Y003271D01*
X008914Y003202D01*
X008886Y003134D01*
X008886Y003035D01*
X008914Y002966D01*
X008886Y002898D01*
X008886Y002798D01*
X008914Y002730D01*
X008886Y002661D01*
X008886Y002562D01*
X008914Y002494D01*
X008886Y002425D01*
X008886Y002326D01*
X008914Y002257D01*
X008886Y002189D01*
X008886Y002090D01*
X008924Y001998D01*
X008994Y001928D01*
X008948Y001974D02*
X008424Y001974D01*
X008503Y002036D02*
X008908Y002036D01*
X008886Y002097D02*
X008541Y002097D01*
X008562Y002159D02*
X008886Y002159D01*
X008899Y002220D02*
X008562Y002220D01*
X008548Y002282D02*
X008904Y002282D01*
X008886Y002343D02*
X008545Y002343D01*
X008562Y002405D02*
X008886Y002405D01*
X008903Y002466D02*
X008562Y002466D01*
X008544Y002528D02*
X008900Y002528D01*
X008886Y002589D02*
X008549Y002589D01*
X008562Y002651D02*
X008886Y002651D01*
X008907Y002712D02*
X008562Y002712D01*
X008540Y002774D02*
X008896Y002774D01*
X008886Y002835D02*
X008553Y002835D01*
X008562Y002897D02*
X008886Y002897D01*
X008911Y002958D02*
X008562Y002958D01*
X008536Y003020D02*
X008892Y003020D01*
X008886Y003081D02*
X008557Y003081D01*
X008562Y003143D02*
X008889Y003143D01*
X008913Y003204D02*
X008558Y003204D01*
X008536Y003266D02*
X008888Y003266D01*
X008886Y003327D02*
X008561Y003327D01*
X008562Y003389D02*
X008893Y003389D01*
X008919Y003450D02*
X008554Y003450D01*
X008528Y003512D02*
X008973Y003512D01*
X008472Y003573D02*
X015526Y003573D01*
X015532Y003557D02*
X015504Y003625D01*
X015504Y003724D01*
X015532Y003793D01*
X015504Y003861D01*
X015504Y003961D01*
X015542Y004052D01*
X015612Y004123D01*
X015704Y004161D01*
X015803Y004161D01*
X015872Y004132D01*
X015940Y004161D01*
X016039Y004161D01*
X016108Y004132D01*
X016176Y004161D01*
X016276Y004161D01*
X016344Y004132D01*
X016413Y004161D01*
X016512Y004161D01*
X016580Y004132D01*
X016649Y004161D01*
X016748Y004161D01*
X016817Y004132D01*
X016885Y004161D01*
X016984Y004161D01*
X017053Y004132D01*
X017121Y004161D01*
X017221Y004161D01*
X017312Y004123D01*
X017382Y004052D01*
X017420Y003961D01*
X017420Y003861D01*
X017392Y003793D01*
X017420Y003724D01*
X017420Y003625D01*
X017392Y003557D01*
X017420Y003488D01*
X017420Y003389D01*
X017392Y003320D01*
X017420Y003252D01*
X017420Y003153D01*
X017392Y003084D01*
X017420Y003016D01*
X017420Y002916D01*
X017382Y002825D01*
X017312Y002755D01*
X017221Y002717D01*
X017121Y002717D01*
X017053Y002745D01*
X016984Y002717D01*
X016885Y002717D01*
X016817Y002745D01*
X016748Y002717D01*
X016649Y002717D01*
X016580Y002745D01*
X016512Y002717D01*
X016413Y002717D01*
X016344Y002745D01*
X016276Y002717D01*
X016176Y002717D01*
X016108Y002745D01*
X016039Y002717D01*
X015940Y002717D01*
X015872Y002745D01*
X015803Y002717D01*
X015704Y002717D01*
X015612Y002755D01*
X015542Y002825D01*
X015504Y002916D01*
X015504Y003016D01*
X015532Y003084D01*
X015504Y003153D01*
X015504Y003252D01*
X015532Y003320D01*
X015504Y003389D01*
X015504Y003488D01*
X015532Y003557D01*
X015514Y003512D02*
X010715Y003512D01*
X010769Y003450D02*
X015504Y003450D01*
X015504Y003389D02*
X010795Y003389D01*
X010802Y003327D02*
X015530Y003327D01*
X015510Y003266D02*
X010800Y003266D01*
X010775Y003204D02*
X015504Y003204D01*
X015508Y003143D02*
X010799Y003143D01*
X010802Y003081D02*
X015531Y003081D01*
X015505Y003020D02*
X010796Y003020D01*
X010777Y002958D02*
X015504Y002958D01*
X015512Y002897D02*
X010802Y002897D01*
X010802Y002835D02*
X015538Y002835D01*
X015593Y002774D02*
X010792Y002774D01*
X010781Y002712D02*
X018643Y002712D01*
X018643Y002651D02*
X010802Y002651D01*
X010802Y002589D02*
X018643Y002589D01*
X018643Y002528D02*
X010788Y002528D01*
X010785Y002466D02*
X011117Y002466D01*
X011120Y002469D02*
X011050Y002399D01*
X011012Y002307D01*
X011012Y002208D01*
X011040Y002139D01*
X011012Y002071D01*
X011012Y001972D01*
X011050Y001880D01*
X011120Y001810D01*
X011212Y001772D01*
X011311Y001772D01*
X011380Y001800D01*
X011448Y001772D01*
X011547Y001772D01*
X011616Y001800D01*
X011684Y001772D01*
X011784Y001772D01*
X011852Y001800D01*
X011920Y001772D01*
X012020Y001772D01*
X012088Y001800D01*
X012157Y001772D01*
X012256Y001772D01*
X012348Y001810D01*
X012418Y001880D01*
X012456Y001972D01*
X012456Y002071D01*
X012428Y002139D01*
X012456Y002208D01*
X012456Y002307D01*
X012418Y002399D01*
X012348Y002469D01*
X012256Y002507D01*
X012157Y002507D01*
X012088Y002479D01*
X012020Y002507D01*
X011920Y002507D01*
X011852Y002479D01*
X011784Y002507D01*
X011684Y002507D01*
X011616Y002479D01*
X011547Y002507D01*
X011448Y002507D01*
X011380Y002479D01*
X011311Y002507D01*
X011212Y002507D01*
X011120Y002469D01*
X011056Y002405D02*
X010802Y002405D01*
X010802Y002343D02*
X011027Y002343D01*
X011012Y002282D02*
X010784Y002282D01*
X010789Y002220D02*
X011012Y002220D01*
X011032Y002159D02*
X010802Y002159D01*
X010802Y002097D02*
X011023Y002097D01*
X011012Y002036D02*
X010780Y002036D01*
X010741Y001974D02*
X011012Y001974D01*
X011036Y001913D02*
X010658Y001913D01*
X010448Y001913D02*
X010422Y001913D01*
X010211Y001913D02*
X010185Y001913D01*
X009975Y001913D02*
X009949Y001913D01*
X009739Y001913D02*
X009713Y001913D01*
X009503Y001913D02*
X009477Y001913D01*
X009267Y001913D02*
X009240Y001913D01*
X009270Y001270D02*
X009148Y001220D01*
X009086Y001157D01*
X009024Y001220D01*
X008902Y001270D01*
X008770Y001270D01*
X008648Y001220D01*
X008586Y001157D01*
X008524Y001220D01*
X008402Y001270D01*
X008270Y001270D01*
X008148Y001220D01*
X008086Y001157D01*
X008024Y001220D01*
X007902Y001270D01*
X007770Y001270D01*
X007648Y001220D01*
X007586Y001157D01*
X007524Y001220D01*
X007402Y001270D01*
X007270Y001270D01*
X007148Y001220D01*
X007086Y001157D01*
X007024Y001220D01*
X006902Y001270D01*
X006770Y001270D01*
X006648Y001220D01*
X006586Y001157D01*
X006524Y001220D01*
X006402Y001270D01*
X006270Y001270D01*
X006148Y001220D01*
X006086Y001157D01*
X006024Y001220D01*
X005902Y001270D01*
X005770Y001270D01*
X005648Y001220D01*
X005586Y001157D01*
X005524Y001220D01*
X005402Y001270D01*
X005270Y001270D01*
X005148Y001220D01*
X005086Y001157D01*
X005024Y001220D01*
X004902Y001270D01*
X004770Y001270D01*
X004648Y001220D01*
X004586Y001157D01*
X004524Y001220D01*
X004402Y001270D01*
X004270Y001270D01*
X004148Y001220D01*
X004055Y001126D01*
X004005Y001005D01*
X004005Y000873D01*
X004055Y000751D01*
X004148Y000658D01*
X004270Y000607D01*
X004402Y000607D01*
X004524Y000658D01*
X004586Y000720D01*
X004648Y000658D01*
X004770Y000607D01*
X004902Y000607D01*
X005024Y000658D01*
X005086Y000720D01*
X005148Y000658D01*
X005270Y000607D01*
X005402Y000607D01*
X005524Y000658D01*
X005586Y000720D01*
X005648Y000658D01*
X005770Y000607D01*
X005902Y000607D01*
X006024Y000658D01*
X006086Y000720D01*
X006148Y000658D01*
X006270Y000607D01*
X006402Y000607D01*
X006524Y000658D01*
X006586Y000720D01*
X006648Y000658D01*
X006770Y000607D01*
X006902Y000607D01*
X007024Y000658D01*
X007086Y000720D01*
X007148Y000658D01*
X007270Y000607D01*
X007402Y000607D01*
X007524Y000658D01*
X007586Y000720D01*
X007648Y000658D01*
X007770Y000607D01*
X007902Y000607D01*
X008024Y000658D01*
X008086Y000720D01*
X008148Y000658D01*
X008270Y000607D01*
X008402Y000607D01*
X008524Y000658D01*
X008586Y000720D01*
X008648Y000658D01*
X008770Y000607D01*
X008902Y000607D01*
X009024Y000658D01*
X009086Y000720D01*
X009148Y000658D01*
X009270Y000607D01*
X009402Y000607D01*
X009524Y000658D01*
X009586Y000720D01*
X009648Y000658D01*
X009770Y000607D01*
X009902Y000607D01*
X010024Y000658D01*
X010086Y000720D01*
X010148Y000658D01*
X010270Y000607D01*
X010402Y000607D01*
X010524Y000658D01*
X010586Y000720D01*
X010648Y000658D01*
X010770Y000607D01*
X010902Y000607D01*
X011024Y000658D01*
X011086Y000720D01*
X011148Y000658D01*
X011270Y000607D01*
X011402Y000607D01*
X011524Y000658D01*
X011586Y000720D01*
X011648Y000658D01*
X011770Y000607D01*
X011902Y000607D01*
X012024Y000658D01*
X012086Y000720D01*
X012148Y000658D01*
X012270Y000607D01*
X012402Y000607D01*
X012524Y000658D01*
X012586Y000720D01*
X012648Y000658D01*
X012770Y000607D01*
X012902Y000607D01*
X013024Y000658D01*
X013086Y000720D01*
X013148Y000658D01*
X013270Y000607D01*
X013402Y000607D01*
X013524Y000658D01*
X013586Y000720D01*
X013648Y000658D01*
X013770Y000607D01*
X013902Y000607D01*
X014024Y000658D01*
X014086Y000720D01*
X014148Y000658D01*
X014270Y000607D01*
X014402Y000607D01*
X014524Y000658D01*
X014586Y000720D01*
X014648Y000658D01*
X014770Y000607D01*
X014902Y000607D01*
X015024Y000658D01*
X015086Y000720D01*
X015148Y000658D01*
X015270Y000607D01*
X015402Y000607D01*
X015524Y000658D01*
X015586Y000720D01*
X015648Y000658D01*
X015770Y000607D01*
X015902Y000607D01*
X016024Y000658D01*
X016086Y000720D01*
X016148Y000658D01*
X016270Y000607D01*
X016402Y000607D01*
X016524Y000658D01*
X016617Y000751D01*
X016668Y000873D01*
X016668Y001005D01*
X016617Y001126D01*
X016524Y001220D01*
X016402Y001270D01*
X016270Y001270D01*
X016148Y001220D01*
X016086Y001157D01*
X016024Y001220D01*
X015902Y001270D01*
X015770Y001270D01*
X015648Y001220D01*
X015586Y001157D01*
X015524Y001220D01*
X015402Y001270D01*
X015270Y001270D01*
X015148Y001220D01*
X015086Y001157D01*
X015024Y001220D01*
X014902Y001270D01*
X014770Y001270D01*
X014648Y001220D01*
X014586Y001157D01*
X014524Y001220D01*
X014402Y001270D01*
X014270Y001270D01*
X014148Y001220D01*
X014086Y001157D01*
X014024Y001220D01*
X013902Y001270D01*
X013770Y001270D01*
X013648Y001220D01*
X013586Y001157D01*
X013524Y001220D01*
X013402Y001270D01*
X013270Y001270D01*
X013148Y001220D01*
X013086Y001157D01*
X013024Y001220D01*
X012902Y001270D01*
X012770Y001270D01*
X012648Y001220D01*
X012586Y001157D01*
X012524Y001220D01*
X012402Y001270D01*
X012270Y001270D01*
X012148Y001220D01*
X012086Y001157D01*
X012024Y001220D01*
X011902Y001270D01*
X011770Y001270D01*
X011648Y001220D01*
X011586Y001157D01*
X011524Y001220D01*
X011402Y001270D01*
X011270Y001270D01*
X011148Y001220D01*
X011086Y001157D01*
X011024Y001220D01*
X010902Y001270D01*
X010770Y001270D01*
X010648Y001220D01*
X010586Y001157D01*
X010524Y001220D01*
X010402Y001270D01*
X010270Y001270D01*
X010148Y001220D01*
X010086Y001157D01*
X010024Y001220D01*
X009902Y001270D01*
X009770Y001270D01*
X009648Y001220D01*
X009586Y001157D01*
X009524Y001220D01*
X009402Y001270D01*
X009270Y001270D01*
X009189Y001236D02*
X008984Y001236D01*
X009069Y001175D02*
X009104Y001175D01*
X009484Y001236D02*
X009689Y001236D01*
X009604Y001175D02*
X009569Y001175D01*
X009984Y001236D02*
X010189Y001236D01*
X010104Y001175D02*
X010069Y001175D01*
X010484Y001236D02*
X010689Y001236D01*
X010604Y001175D02*
X010569Y001175D01*
X010984Y001236D02*
X011189Y001236D01*
X011104Y001175D02*
X011069Y001175D01*
X011484Y001236D02*
X011689Y001236D01*
X011604Y001175D02*
X011569Y001175D01*
X011984Y001236D02*
X012189Y001236D01*
X012104Y001175D02*
X012069Y001175D01*
X012484Y001236D02*
X012689Y001236D01*
X012604Y001175D02*
X012569Y001175D01*
X012984Y001236D02*
X013189Y001236D01*
X013104Y001175D02*
X013069Y001175D01*
X013484Y001236D02*
X013689Y001236D01*
X013604Y001175D02*
X013569Y001175D01*
X013984Y001236D02*
X014189Y001236D01*
X014104Y001175D02*
X014069Y001175D01*
X014484Y001236D02*
X014689Y001236D01*
X014604Y001175D02*
X014569Y001175D01*
X014984Y001236D02*
X015189Y001236D01*
X015104Y001175D02*
X015069Y001175D01*
X015484Y001236D02*
X015689Y001236D01*
X015604Y001175D02*
X015569Y001175D01*
X015984Y001236D02*
X016189Y001236D01*
X016104Y001175D02*
X016069Y001175D01*
X016484Y001236D02*
X018643Y001236D01*
X018643Y001175D02*
X016569Y001175D01*
X016623Y001113D02*
X018643Y001113D01*
X018643Y001052D02*
X016648Y001052D01*
X016668Y000990D02*
X018643Y000990D01*
X018643Y000929D02*
X016668Y000929D01*
X016666Y000867D02*
X018643Y000867D01*
X018643Y000806D02*
X016640Y000806D01*
X016611Y000744D02*
X018643Y000744D01*
X018643Y000683D02*
X016549Y000683D01*
X016437Y000621D02*
X018643Y000621D01*
X018643Y000560D02*
X003901Y000560D01*
X003901Y000621D02*
X004236Y000621D01*
X004123Y000683D02*
X003902Y000683D01*
X003903Y000744D02*
X004062Y000744D01*
X004032Y000806D02*
X003904Y000806D01*
X003905Y000867D02*
X004007Y000867D01*
X004005Y000929D02*
X003905Y000929D01*
X003906Y000990D02*
X004005Y000990D01*
X004024Y001052D02*
X003907Y001052D01*
X003908Y001113D02*
X004050Y001113D01*
X004104Y001175D02*
X003909Y001175D01*
X003909Y001236D02*
X004189Y001236D01*
X003910Y001298D02*
X018643Y001298D01*
X018643Y001359D02*
X003911Y001359D01*
X003912Y001421D02*
X018643Y001421D01*
X018643Y001482D02*
X003912Y001482D01*
X003913Y001544D02*
X018643Y001544D01*
X018643Y001605D02*
X014589Y001605D01*
X014563Y001594D02*
X014655Y001632D01*
X014725Y001703D01*
X014763Y001794D01*
X014763Y001894D01*
X014735Y001962D01*
X014763Y002031D01*
X014763Y002130D01*
X014725Y002222D01*
X014655Y002292D01*
X014563Y002330D01*
X014464Y002330D01*
X014395Y002302D01*
X014327Y002330D01*
X014228Y002330D01*
X014159Y002302D01*
X014091Y002330D01*
X013991Y002330D01*
X013923Y002302D01*
X013854Y002330D01*
X013755Y002330D01*
X013687Y002302D01*
X013618Y002330D01*
X013519Y002330D01*
X013427Y002292D01*
X013357Y002222D01*
X013319Y002130D01*
X013319Y002031D01*
X013347Y001962D01*
X013319Y001894D01*
X013319Y001794D01*
X013357Y001703D01*
X013427Y001632D01*
X013519Y001594D01*
X013618Y001594D01*
X013687Y001623D01*
X013755Y001594D01*
X013854Y001594D01*
X013923Y001623D01*
X013991Y001594D01*
X014091Y001594D01*
X014159Y001623D01*
X014228Y001594D01*
X014327Y001594D01*
X014395Y001623D01*
X014464Y001594D01*
X014563Y001594D01*
X014438Y001605D02*
X014353Y001605D01*
X014202Y001605D02*
X014117Y001605D01*
X013965Y001605D02*
X013880Y001605D01*
X013729Y001605D02*
X013644Y001605D01*
X013493Y001605D02*
X003914Y001605D01*
X003915Y001667D02*
X013393Y001667D01*
X013346Y001728D02*
X003916Y001728D01*
X003916Y001790D02*
X011168Y001790D01*
X011078Y001851D02*
X003917Y001851D01*
X004484Y001236D02*
X004689Y001236D01*
X004604Y001175D02*
X004569Y001175D01*
X004984Y001236D02*
X005189Y001236D01*
X005104Y001175D02*
X005069Y001175D01*
X005484Y001236D02*
X005689Y001236D01*
X005604Y001175D02*
X005569Y001175D01*
X005984Y001236D02*
X006189Y001236D01*
X006104Y001175D02*
X006069Y001175D01*
X006484Y001236D02*
X006689Y001236D01*
X006604Y001175D02*
X006569Y001175D01*
X006984Y001236D02*
X007189Y001236D01*
X007104Y001175D02*
X007069Y001175D01*
X007484Y001236D02*
X007689Y001236D01*
X007604Y001175D02*
X007569Y001175D01*
X007984Y001236D02*
X008189Y001236D01*
X008104Y001175D02*
X008069Y001175D01*
X008484Y001236D02*
X008689Y001236D01*
X008604Y001175D02*
X008569Y001175D01*
X008549Y000683D02*
X008623Y000683D01*
X008736Y000621D02*
X008437Y000621D01*
X008236Y000621D02*
X007937Y000621D01*
X008049Y000683D02*
X008123Y000683D01*
X007736Y000621D02*
X007437Y000621D01*
X007549Y000683D02*
X007623Y000683D01*
X007236Y000621D02*
X006937Y000621D01*
X007049Y000683D02*
X007123Y000683D01*
X006736Y000621D02*
X006437Y000621D01*
X006549Y000683D02*
X006623Y000683D01*
X006236Y000621D02*
X005937Y000621D01*
X006049Y000683D02*
X006123Y000683D01*
X005736Y000621D02*
X005437Y000621D01*
X005549Y000683D02*
X005623Y000683D01*
X005236Y000621D02*
X004937Y000621D01*
X005049Y000683D02*
X005123Y000683D01*
X004736Y000621D02*
X004437Y000621D01*
X004549Y000683D02*
X004623Y000683D01*
X003900Y000498D02*
X016863Y000498D01*
X016236Y000621D02*
X015937Y000621D01*
X016049Y000683D02*
X016123Y000683D01*
X015736Y000621D02*
X015437Y000621D01*
X015549Y000683D02*
X015623Y000683D01*
X015236Y000621D02*
X014937Y000621D01*
X015049Y000683D02*
X015123Y000683D01*
X014736Y000621D02*
X014437Y000621D01*
X014549Y000683D02*
X014623Y000683D01*
X014236Y000621D02*
X013937Y000621D01*
X014049Y000683D02*
X014123Y000683D01*
X013736Y000621D02*
X013437Y000621D01*
X013549Y000683D02*
X013623Y000683D01*
X013236Y000621D02*
X012937Y000621D01*
X013049Y000683D02*
X013123Y000683D01*
X012736Y000621D02*
X012437Y000621D01*
X012549Y000683D02*
X012623Y000683D01*
X012236Y000621D02*
X011937Y000621D01*
X012049Y000683D02*
X012123Y000683D01*
X011736Y000621D02*
X011437Y000621D01*
X011549Y000683D02*
X011623Y000683D01*
X011236Y000621D02*
X010937Y000621D01*
X011049Y000683D02*
X011123Y000683D01*
X010736Y000621D02*
X010437Y000621D01*
X010549Y000683D02*
X010623Y000683D01*
X010236Y000621D02*
X009937Y000621D01*
X010049Y000683D02*
X010123Y000683D01*
X009736Y000621D02*
X009437Y000621D01*
X009549Y000683D02*
X009623Y000683D01*
X009236Y000621D02*
X008937Y000621D01*
X009049Y000683D02*
X009123Y000683D01*
X008202Y001974D02*
X008187Y001974D01*
X007965Y001974D02*
X007951Y001974D01*
X007729Y001974D02*
X007715Y001974D01*
X007493Y001974D02*
X007479Y001974D01*
X007257Y001974D02*
X007242Y001974D01*
X007021Y001974D02*
X007006Y001974D01*
X006784Y001974D02*
X005871Y001974D01*
X005956Y002036D02*
X006705Y002036D01*
X006667Y002097D02*
X005996Y002097D01*
X006019Y002159D02*
X006646Y002159D01*
X006646Y002220D02*
X006019Y002220D01*
X006007Y002282D02*
X006660Y002282D01*
X006663Y002343D02*
X006000Y002343D01*
X006019Y002405D02*
X006646Y002405D01*
X006646Y002466D02*
X006019Y002466D01*
X006003Y002528D02*
X006664Y002528D01*
X006659Y002589D02*
X005972Y002589D01*
X005910Y002651D02*
X006646Y002651D01*
X005668Y001974D02*
X005634Y001974D01*
X005432Y001974D02*
X005398Y001974D01*
X003940Y003634D02*
X015504Y003634D01*
X015504Y003696D02*
X003941Y003696D01*
X003941Y003757D02*
X015518Y003757D01*
X015521Y003819D02*
X003942Y003819D01*
X003943Y003880D02*
X015504Y003880D01*
X015504Y003942D02*
X003944Y003942D01*
X003945Y004003D02*
X015522Y004003D01*
X015554Y004065D02*
X003945Y004065D01*
X003946Y004126D02*
X015621Y004126D01*
X017303Y004126D02*
X018643Y004126D01*
X018643Y004065D02*
X017370Y004065D01*
X017403Y004003D02*
X018643Y004003D01*
X018643Y003942D02*
X017420Y003942D01*
X017420Y003880D02*
X018643Y003880D01*
X018643Y003819D02*
X017403Y003819D01*
X017407Y003757D02*
X018643Y003757D01*
X018643Y003696D02*
X017420Y003696D01*
X017420Y003634D02*
X018643Y003634D01*
X018643Y003573D02*
X017399Y003573D01*
X017411Y003512D02*
X018643Y003512D01*
X018643Y003450D02*
X017420Y003450D01*
X017420Y003389D02*
X018643Y003389D01*
X018643Y003327D02*
X017395Y003327D01*
X017415Y003266D02*
X018643Y003266D01*
X018643Y003204D02*
X017420Y003204D01*
X017416Y003143D02*
X018643Y003143D01*
X018643Y003081D02*
X017393Y003081D01*
X017419Y003020D02*
X018643Y003020D01*
X018643Y002958D02*
X017420Y002958D01*
X017412Y002897D02*
X018643Y002897D01*
X018643Y002835D02*
X017387Y002835D01*
X017331Y002774D02*
X018643Y002774D01*
X018643Y002466D02*
X012351Y002466D01*
X012412Y002405D02*
X018643Y002405D01*
X018643Y002343D02*
X012441Y002343D01*
X012456Y002282D02*
X013417Y002282D01*
X013356Y002220D02*
X012456Y002220D01*
X012436Y002159D02*
X013331Y002159D01*
X013319Y002097D02*
X012445Y002097D01*
X012456Y002036D02*
X013319Y002036D01*
X013342Y001974D02*
X012456Y001974D01*
X012432Y001913D02*
X013327Y001913D01*
X013319Y001851D02*
X012389Y001851D01*
X012300Y001790D02*
X013321Y001790D01*
X012113Y001790D02*
X012063Y001790D01*
X011877Y001790D02*
X011827Y001790D01*
X011641Y001790D02*
X011591Y001790D01*
X011404Y001790D02*
X011355Y001790D01*
X014689Y001667D02*
X018643Y001667D01*
X018643Y001728D02*
X014736Y001728D01*
X014761Y001790D02*
X018643Y001790D01*
X018643Y001851D02*
X014763Y001851D01*
X014755Y001913D02*
X018643Y001913D01*
X018643Y001974D02*
X014740Y001974D01*
X014763Y002036D02*
X018643Y002036D01*
X018643Y002097D02*
X014763Y002097D01*
X014751Y002159D02*
X018643Y002159D01*
X018643Y002220D02*
X014726Y002220D01*
X014665Y002282D02*
X018643Y002282D01*
X019572Y004167D02*
X020391Y004167D01*
X020832Y004608D01*
X020832Y006281D01*
X020232Y006881D01*
X019732Y006881D02*
X019726Y006876D01*
X019383Y006876D01*
X019257Y007002D01*
X015730Y007002D01*
X015604Y007128D01*
X015037Y007128D01*
X014974Y006876D02*
X019194Y006876D01*
X019572Y006498D01*
X019616Y006498D01*
X019732Y006381D01*
X019383Y006498D02*
X019383Y006230D01*
X019732Y005881D01*
X020232Y005881D02*
X020580Y005533D01*
X020580Y004734D01*
X020265Y004419D01*
X019698Y004419D01*
X019257Y004860D01*
X019257Y006435D01*
X019069Y006624D01*
X014596Y006624D01*
X013714Y007506D01*
X013399Y007506D02*
X014407Y006498D01*
X019006Y006498D01*
X019131Y006372D01*
X019131Y004797D01*
X019635Y004293D01*
X020328Y004293D01*
X020706Y004671D01*
X020706Y005907D01*
X020232Y006381D01*
X019383Y006498D02*
X019131Y006750D01*
X014785Y006750D01*
X014029Y007506D01*
X014344Y007506D02*
X014974Y006876D01*
X015037Y007506D02*
X015604Y007506D01*
X015982Y007128D01*
X019478Y007128D01*
X019732Y007381D01*
X020232Y007381D02*
X020769Y007919D01*
X020769Y010529D01*
X020454Y010844D01*
X020265Y010844D01*
X018376Y012734D01*
X017053Y012734D01*
X018502Y012293D02*
X020013Y010718D01*
X020391Y010718D01*
X020643Y010466D01*
X020643Y008135D01*
X020389Y007881D01*
X020232Y007881D01*
X019732Y008381D02*
X019389Y008381D01*
X017809Y009962D01*
X015415Y009962D01*
X015982Y010151D02*
X017809Y010151D01*
X019069Y008891D01*
X019722Y008891D01*
X019732Y008881D01*
X018439Y009962D02*
X017746Y010655D01*
X016297Y010655D01*
X015698Y010860D02*
X015383Y010860D01*
X013730Y009206D01*
X013336Y009206D01*
X012958Y008828D01*
X010628Y008828D01*
X010517Y008939D01*
X011994Y009061D02*
X012041Y009108D01*
X013021Y009108D01*
X013242Y009344D01*
X013671Y009344D01*
X015049Y010702D01*
X015324Y010998D01*
X015443Y011116D01*
X015974Y011116D01*
X015037Y010887D02*
X015037Y011773D01*
X015147Y011943D01*
X015147Y012773D01*
X014911Y012537D02*
X014911Y010970D01*
X013777Y009836D01*
X012769Y009836D01*
X012328Y010277D01*
X010529Y010277D01*
X010246Y009931D01*
X010187Y010289D02*
X010301Y010403D01*
X012391Y010403D01*
X012832Y009962D01*
X013714Y009962D01*
X014785Y011033D01*
X014785Y012041D01*
X014675Y012151D01*
X014675Y012238D01*
X014446Y012002D02*
X014439Y012002D01*
X014446Y012002D02*
X014596Y011852D01*
X014596Y011033D01*
X013651Y010088D01*
X012895Y010088D01*
X012454Y010529D01*
X010009Y010529D01*
X009895Y010415D01*
X009726Y010655D02*
X012517Y010655D01*
X012864Y010309D01*
X013025Y010309D01*
X012832Y010529D02*
X013336Y010529D01*
X013450Y010643D01*
X013494Y010643D01*
X013198Y010820D02*
X013124Y010820D01*
X013021Y010718D01*
X012832Y010718D01*
X012643Y010907D01*
X008675Y010907D01*
X008297Y010529D01*
X007927Y010529D01*
X007891Y010584D01*
X007635Y010643D02*
X007576Y010643D01*
X007565Y010655D01*
X007226Y010655D01*
X007104Y010533D01*
X007104Y010171D01*
X007163Y010112D01*
X007399Y010112D01*
X007502Y010214D01*
X008927Y010214D01*
X009238Y010525D01*
X009596Y010525D01*
X009726Y010655D01*
X010395Y011159D02*
X010006Y011549D01*
X010395Y011159D02*
X012706Y011159D01*
X012832Y011285D01*
X013840Y011285D01*
X014198Y011643D01*
X014198Y011714D01*
X015037Y010887D02*
X013860Y009710D01*
X012706Y009710D01*
X012265Y010151D01*
X010746Y010151D01*
X010655Y010061D01*
X008738Y010781D02*
X012580Y010781D01*
X012832Y010529D01*
X012903Y010998D02*
X012742Y010998D01*
X012706Y011033D01*
X008498Y011033D01*
X008403Y010939D01*
X008167Y011057D02*
X007813Y011057D01*
X007663Y010907D01*
X007289Y010907D01*
X006809Y010427D01*
X006809Y009639D01*
X006513Y009265D01*
X007407Y010340D02*
X008297Y010340D01*
X008738Y010781D01*
X008462Y011352D02*
X008167Y011057D01*
X008049Y010880D02*
X007872Y010880D01*
X007635Y010643D01*
X007340Y010407D02*
X007407Y010340D01*
X008049Y010880D02*
X008108Y010820D01*
X008462Y011352D02*
X008710Y011352D01*
X004580Y011600D02*
X004580Y007631D01*
X004454Y007506D01*
X007128Y006037D02*
X007246Y006214D01*
X008427Y006561D02*
X008549Y006561D01*
X008675Y006435D01*
X010120Y006435D01*
X010246Y006561D01*
X010006Y006773D02*
X009966Y006813D01*
X009006Y006813D01*
X008872Y006679D01*
X014281Y008135D02*
X014722Y008135D01*
X015226Y007631D01*
X015793Y007631D01*
X016108Y007317D01*
X018880Y007317D01*
X018880Y006246D02*
X019006Y006120D01*
X019006Y004734D01*
X019572Y004167D01*
X019383Y010907D02*
X018943Y010907D01*
X018754Y011096D01*
D14*
X018651Y006273D02*
X018651Y006151D01*
X018697Y006105D01*
X018643Y004383D01*
X011706Y004324D01*
X010698Y005328D01*
X003939Y005328D01*
X003939Y006273D01*
X018651Y006273D01*
X018651Y006252D02*
X003939Y006252D01*
X003939Y006154D02*
X018651Y006154D01*
X018696Y006055D02*
X003939Y006055D01*
X003939Y005957D02*
X018692Y005957D01*
X018689Y005858D02*
X003939Y005858D01*
X003939Y005760D02*
X018686Y005760D01*
X018683Y005661D02*
X003939Y005661D01*
X003939Y005563D02*
X018680Y005563D01*
X018677Y005464D02*
X003939Y005464D01*
X003939Y005366D02*
X018674Y005366D01*
X018671Y005267D02*
X010760Y005267D01*
X010858Y005169D02*
X018668Y005169D01*
X018665Y005070D02*
X010957Y005070D01*
X011056Y004972D02*
X018662Y004972D01*
X018659Y004873D02*
X011155Y004873D01*
X011254Y004775D02*
X018656Y004775D01*
X018652Y004676D02*
X011353Y004676D01*
X011452Y004578D02*
X018649Y004578D01*
X018646Y004479D02*
X011551Y004479D01*
X011649Y004381D02*
X018352Y004381D01*
X011383Y004356D02*
X009305Y004356D01*
X009305Y005112D01*
X010628Y005112D01*
X011383Y004356D01*
X011358Y004381D02*
X009305Y004381D01*
X009305Y004479D02*
X011260Y004479D01*
X011161Y004578D02*
X009305Y004578D01*
X009305Y004676D02*
X011063Y004676D01*
X010964Y004775D02*
X009305Y004775D01*
X009305Y004873D02*
X010866Y004873D01*
X010767Y004972D02*
X009305Y004972D01*
X009305Y005070D02*
X010669Y005070D01*
X009053Y005070D02*
X006763Y005070D01*
X006722Y005112D02*
X009053Y005112D01*
X009053Y004356D01*
X007478Y004356D01*
X006722Y005112D01*
X006862Y004972D02*
X009053Y004972D01*
X009053Y004873D02*
X006960Y004873D01*
X007059Y004775D02*
X009053Y004775D01*
X009053Y004676D02*
X007157Y004676D01*
X007256Y004578D02*
X009053Y004578D01*
X009053Y004479D02*
X007354Y004479D01*
X007453Y004381D02*
X009053Y004381D01*
X009880Y007159D02*
X007499Y007159D01*
X007514Y007196D01*
X007514Y007311D01*
X007470Y007417D01*
X007389Y007498D01*
X007283Y007542D01*
X007263Y007542D01*
X006700Y008105D01*
X006700Y008336D01*
X006714Y008350D01*
X006758Y008456D01*
X006758Y008571D01*
X006714Y008677D01*
X006633Y008758D01*
X006631Y008758D01*
X006631Y009002D01*
X006677Y009021D01*
X006758Y009102D01*
X006801Y009208D01*
X006801Y009305D01*
X006959Y009505D01*
X007010Y009556D01*
X007010Y009569D01*
X007019Y009580D01*
X007010Y009651D01*
X007010Y009980D01*
X007020Y009969D01*
X007080Y009910D01*
X007193Y009910D01*
X007236Y009868D01*
X007342Y009824D01*
X007457Y009824D01*
X007562Y009868D01*
X007643Y009949D01*
X007670Y010013D01*
X009010Y010013D01*
X009109Y010112D01*
X009466Y010112D01*
X010116Y009462D01*
X010116Y007395D01*
X009880Y007159D01*
X009958Y007237D02*
X007514Y007237D01*
X007504Y007336D02*
X010056Y007336D01*
X010116Y007434D02*
X007452Y007434D01*
X007304Y007533D02*
X010116Y007533D01*
X010116Y007631D02*
X007173Y007631D01*
X007075Y007730D02*
X010116Y007730D01*
X010116Y007828D02*
X006976Y007828D01*
X006878Y007927D02*
X010116Y007927D01*
X010116Y008025D02*
X006779Y008025D01*
X006700Y008124D02*
X010116Y008124D01*
X010116Y008222D02*
X006700Y008222D01*
X006700Y008321D02*
X010116Y008321D01*
X010116Y008419D02*
X006743Y008419D01*
X006758Y008518D02*
X010116Y008518D01*
X010116Y008616D02*
X006739Y008616D01*
X006676Y008715D02*
X010116Y008715D01*
X010116Y008813D02*
X006631Y008813D01*
X006631Y008912D02*
X010116Y008912D01*
X010116Y009010D02*
X006651Y009010D01*
X006760Y009109D02*
X010116Y009109D01*
X010116Y009208D02*
X006801Y009208D01*
X006802Y009306D02*
X010116Y009306D01*
X010116Y009405D02*
X006880Y009405D01*
X006958Y009503D02*
X010075Y009503D01*
X009976Y009602D02*
X007016Y009602D01*
X007010Y009700D02*
X009878Y009700D01*
X009779Y009799D02*
X007010Y009799D01*
X007010Y009897D02*
X007207Y009897D01*
X007020Y009969D02*
X007020Y009969D01*
X007592Y009897D02*
X009681Y009897D01*
X009582Y009996D02*
X007663Y009996D01*
X009092Y010094D02*
X009484Y010094D01*
D15*
X006533Y006246D02*
X003698Y006309D01*
X003698Y010655D01*
X001431Y010655D01*
X001431Y007764D01*
X002364Y007764D01*
X002380Y007757D01*
X002565Y007757D01*
X002565Y007573D01*
X002571Y007557D01*
X002571Y005813D01*
X004174Y005370D01*
X004191Y005370D01*
X004223Y005357D01*
X004258Y005347D01*
X004271Y005337D01*
X004272Y005337D01*
X006533Y005301D01*
X006533Y006246D01*
X006533Y006205D02*
X002571Y006205D01*
X002571Y006363D02*
X003698Y006363D01*
X003698Y006522D02*
X002571Y006522D01*
X002571Y006680D02*
X003698Y006680D01*
X003698Y006839D02*
X002571Y006839D01*
X002571Y006997D02*
X003698Y006997D01*
X003698Y007156D02*
X002571Y007156D01*
X002571Y007314D02*
X003698Y007314D01*
X003698Y007473D02*
X002571Y007473D01*
X002565Y007631D02*
X003698Y007631D01*
X003698Y007790D02*
X001431Y007790D01*
X001431Y007948D02*
X003698Y007948D01*
X003698Y008107D02*
X001431Y008107D01*
X001431Y008265D02*
X003698Y008265D01*
X003698Y008424D02*
X001431Y008424D01*
X001431Y008582D02*
X003698Y008582D01*
X003698Y008741D02*
X001431Y008741D01*
X001431Y008899D02*
X003698Y008899D01*
X003698Y009058D02*
X001431Y009058D01*
X001431Y009216D02*
X003698Y009216D01*
X003698Y009375D02*
X001431Y009375D01*
X001431Y009533D02*
X003698Y009533D01*
X003698Y009692D02*
X001431Y009692D01*
X001431Y009850D02*
X003698Y009850D01*
X003698Y010009D02*
X001431Y010009D01*
X001431Y010168D02*
X003698Y010168D01*
X003698Y010326D02*
X001431Y010326D01*
X001431Y010485D02*
X003698Y010485D01*
X003698Y010643D02*
X001431Y010643D01*
X001431Y007506D02*
X001514Y007506D01*
X001544Y007493D01*
X001699Y007493D01*
X001729Y007506D01*
X002014Y007506D01*
X002044Y007493D01*
X002199Y007493D01*
X002229Y007506D01*
X002313Y007506D01*
X002313Y005616D01*
X003372Y005324D01*
X003458Y005288D01*
X003502Y005288D01*
X004139Y005112D01*
X004139Y003222D01*
X001431Y004671D01*
X001431Y007506D01*
X001431Y007473D02*
X002313Y007473D01*
X002313Y007314D02*
X001431Y007314D01*
X001431Y007156D02*
X002313Y007156D01*
X002313Y006997D02*
X001431Y006997D01*
X001431Y006839D02*
X002313Y006839D01*
X002313Y006680D02*
X001431Y006680D01*
X001431Y006522D02*
X002313Y006522D01*
X002313Y006363D02*
X001431Y006363D01*
X001431Y006205D02*
X002313Y006205D01*
X002313Y006046D02*
X001431Y006046D01*
X001431Y005888D02*
X002313Y005888D01*
X002313Y005729D02*
X001431Y005729D01*
X001431Y005571D02*
X002475Y005571D01*
X002571Y005888D02*
X006533Y005888D01*
X006533Y006046D02*
X002571Y006046D01*
X002872Y005729D02*
X006533Y005729D01*
X006533Y005571D02*
X003447Y005571D01*
X003624Y005254D02*
X001431Y005254D01*
X001431Y005412D02*
X003049Y005412D01*
X004021Y005412D02*
X006533Y005412D01*
X004139Y005095D02*
X001431Y005095D01*
X001431Y004937D02*
X004139Y004937D01*
X004139Y004778D02*
X001431Y004778D01*
X001526Y004620D02*
X004139Y004620D01*
X004139Y004461D02*
X001822Y004461D01*
X002118Y004303D02*
X004139Y004303D01*
X004139Y004144D02*
X002415Y004144D01*
X002711Y003986D02*
X004139Y003986D01*
X004139Y003827D02*
X003007Y003827D01*
X003304Y003669D02*
X004139Y003669D01*
X004139Y003510D02*
X003600Y003510D01*
X003896Y003352D02*
X004139Y003352D01*
D16*
X007226Y007254D02*
X006470Y008009D01*
X006470Y008513D01*
D17*
X005273Y014561D02*
X005399Y014687D01*
X018250Y014687D01*
X018313Y014624D01*
D18*
X020179Y012356D03*
X020179Y002907D03*
X002462Y002907D03*
X002462Y012356D03*
M02*
