G75*
%MOIN*%
%OFA0B0*%
%FSLAX24Y24*%
%IPPOS*%
%LPD*%
%AMOC8*
5,1,8,0,0,1.08239X$1,22.5*
%
%ADD10C,0.0480*%
%ADD11C,0.0500*%
%ADD12C,0.1661*%
D10*
X004336Y000939D03*
X004836Y000939D03*
X005336Y000939D03*
X005836Y000939D03*
X006336Y000939D03*
X006836Y000939D03*
X007336Y000939D03*
X007836Y000939D03*
X008336Y000939D03*
X008836Y000939D03*
X009336Y000939D03*
X009836Y000939D03*
X010336Y000939D03*
X010836Y000939D03*
X011336Y000939D03*
X011836Y000939D03*
X012336Y000939D03*
X012836Y000939D03*
X013336Y000939D03*
X013836Y000939D03*
X014336Y000939D03*
X014836Y000939D03*
X015336Y000939D03*
X015836Y000939D03*
X016336Y000939D03*
D11*
X019732Y004881D03*
X020232Y004881D03*
X020232Y005381D03*
X019732Y005381D03*
X019732Y005881D03*
X020232Y005881D03*
X020232Y006381D03*
X019732Y006381D03*
X019732Y006881D03*
X020232Y006881D03*
X020232Y007381D03*
X019732Y007381D03*
X019732Y007881D03*
X020232Y007881D03*
X020232Y008381D03*
X019732Y008381D03*
X019732Y008881D03*
X020232Y008881D03*
X020232Y009381D03*
X019732Y009381D03*
X019732Y009881D03*
X020232Y009881D03*
X020232Y010381D03*
X019732Y010381D03*
X002122Y010381D03*
X001622Y010381D03*
X001622Y009881D03*
X002122Y009881D03*
X002122Y009381D03*
X001622Y009381D03*
X001622Y008881D03*
X002122Y008881D03*
X002122Y008381D03*
X001622Y008381D03*
X001622Y007881D03*
X002122Y007881D03*
X002122Y007381D03*
X001622Y007381D03*
X001622Y006881D03*
X002122Y006881D03*
X002122Y006381D03*
X001622Y006381D03*
X001622Y005881D03*
X002122Y005881D03*
X002122Y005381D03*
X001622Y005381D03*
X001622Y004881D03*
X002122Y004881D03*
D12*
X002462Y002907D03*
X002462Y012356D03*
X020179Y012356D03*
X020179Y002907D03*
M02*
