G75*
%MOIN*%
%OFA0B0*%
%FSLAX24Y24*%
%IPPOS*%
%LPD*%
%AMOC8*
5,1,8,0,0,1.08239X$1,22.5*
%
%ADD10R,0.0120X0.0320*%
%ADD11R,0.2010X0.2010*%
%ADD12R,0.0551X0.0551*%
%ADD13C,0.0138*%
%ADD14R,0.0413X0.0425*%
%ADD15R,0.0276X0.0354*%
%ADD16R,0.0291X0.0364*%
%ADD17R,0.0425X0.0413*%
%ADD18R,0.0364X0.0291*%
%ADD19R,0.0354X0.0276*%
%ADD20R,0.0209X0.0445*%
%ADD21R,0.1713X0.1457*%
%ADD22R,0.0209X0.0524*%
%ADD23R,0.0394X0.0087*%
%ADD24R,0.0087X0.0394*%
%ADD25R,0.0394X0.0433*%
%ADD26C,0.0118*%
%ADD27R,0.0630X0.0236*%
%ADD28R,0.1063X0.0630*%
%ADD29R,0.0335X0.0177*%
%ADD30R,0.0630X0.0984*%
%ADD31R,0.0787X0.0591*%
%ADD32R,0.0591X0.0787*%
%ADD33R,0.0310X0.0120*%
%ADD34R,0.0690X0.0980*%
%ADD35C,0.0400*%
%ADD36C,0.0420*%
%ADD37C,0.0063*%
%ADD38C,0.0236*%
%ADD39C,0.0102*%
%ADD40C,0.0160*%
%ADD41C,0.0120*%
%ADD42C,0.0098*%
%ADD43C,0.0079*%
%ADD44C,0.0240*%
%ADD45C,0.1581*%
D10*
G36*
X008352Y006893D02*
X008267Y006978D01*
X008492Y007203D01*
X008577Y007118D01*
X008352Y006893D01*
G37*
G36*
X008217Y007027D02*
X008132Y007112D01*
X008357Y007337D01*
X008442Y007252D01*
X008217Y007027D01*
G37*
G36*
X008076Y007169D02*
X007991Y007254D01*
X008216Y007479D01*
X008301Y007394D01*
X008076Y007169D01*
G37*
G36*
X007934Y007310D02*
X007849Y007395D01*
X008074Y007620D01*
X008159Y007535D01*
X007934Y007310D01*
G37*
G36*
X007800Y007444D02*
X007715Y007529D01*
X007940Y007754D01*
X008025Y007669D01*
X007800Y007444D01*
G37*
G36*
X007659Y007586D02*
X007574Y007671D01*
X007799Y007896D01*
X007884Y007811D01*
X007659Y007586D01*
G37*
G36*
X007517Y007727D02*
X007432Y007812D01*
X007657Y008037D01*
X007742Y007952D01*
X007517Y007727D01*
G37*
G36*
X007376Y007869D02*
X007291Y007954D01*
X007516Y008179D01*
X007601Y008094D01*
X007376Y007869D01*
G37*
G36*
X007242Y008003D02*
X007157Y008088D01*
X007382Y008313D01*
X007467Y008228D01*
X007242Y008003D01*
G37*
G36*
X007100Y008144D02*
X007015Y008229D01*
X007240Y008454D01*
X007325Y008369D01*
X007100Y008144D01*
G37*
G36*
X006959Y008286D02*
X006874Y008371D01*
X007099Y008596D01*
X007184Y008511D01*
X006959Y008286D01*
G37*
G36*
X006824Y008420D02*
X006739Y008505D01*
X006964Y008730D01*
X007049Y008645D01*
X006824Y008420D01*
G37*
G36*
X006739Y009041D02*
X006824Y009126D01*
X007049Y008901D01*
X006964Y008816D01*
X006739Y009041D01*
G37*
G36*
X006874Y009176D02*
X006959Y009261D01*
X007184Y009036D01*
X007099Y008951D01*
X006874Y009176D01*
G37*
G36*
X007015Y009317D02*
X007100Y009402D01*
X007325Y009177D01*
X007240Y009092D01*
X007015Y009317D01*
G37*
G36*
X007157Y009458D02*
X007242Y009543D01*
X007467Y009318D01*
X007382Y009233D01*
X007157Y009458D01*
G37*
G36*
X007291Y009593D02*
X007376Y009678D01*
X007601Y009453D01*
X007516Y009368D01*
X007291Y009593D01*
G37*
G36*
X007432Y009734D02*
X007517Y009819D01*
X007742Y009594D01*
X007657Y009509D01*
X007432Y009734D01*
G37*
G36*
X007574Y009876D02*
X007659Y009961D01*
X007884Y009736D01*
X007799Y009651D01*
X007574Y009876D01*
G37*
G36*
X007715Y010017D02*
X007800Y010102D01*
X008025Y009877D01*
X007940Y009792D01*
X007715Y010017D01*
G37*
G36*
X007849Y010151D02*
X007934Y010236D01*
X008159Y010011D01*
X008074Y009926D01*
X007849Y010151D01*
G37*
G36*
X007991Y010293D02*
X008076Y010378D01*
X008301Y010153D01*
X008216Y010068D01*
X007991Y010293D01*
G37*
G36*
X008132Y010434D02*
X008217Y010519D01*
X008442Y010294D01*
X008357Y010209D01*
X008132Y010434D01*
G37*
G36*
X008267Y010569D02*
X008352Y010654D01*
X008577Y010429D01*
X008492Y010344D01*
X008267Y010569D01*
G37*
G36*
X008748Y010344D02*
X008663Y010429D01*
X008888Y010654D01*
X008973Y010569D01*
X008748Y010344D01*
G37*
G36*
X008882Y010209D02*
X008797Y010294D01*
X009022Y010519D01*
X009107Y010434D01*
X008882Y010209D01*
G37*
G36*
X009023Y010068D02*
X008938Y010153D01*
X009163Y010378D01*
X009248Y010293D01*
X009023Y010068D01*
G37*
G36*
X009165Y009926D02*
X009080Y010011D01*
X009305Y010236D01*
X009390Y010151D01*
X009165Y009926D01*
G37*
G36*
X009299Y009792D02*
X009214Y009877D01*
X009439Y010102D01*
X009524Y010017D01*
X009299Y009792D01*
G37*
G36*
X009441Y009651D02*
X009356Y009736D01*
X009581Y009961D01*
X009666Y009876D01*
X009441Y009651D01*
G37*
G36*
X009582Y009509D02*
X009497Y009594D01*
X009722Y009819D01*
X009807Y009734D01*
X009582Y009509D01*
G37*
G36*
X009723Y009368D02*
X009638Y009453D01*
X009863Y009678D01*
X009948Y009593D01*
X009723Y009368D01*
G37*
G36*
X009858Y009233D02*
X009773Y009318D01*
X009998Y009543D01*
X010083Y009458D01*
X009858Y009233D01*
G37*
G36*
X009999Y009092D02*
X009914Y009177D01*
X010139Y009402D01*
X010224Y009317D01*
X009999Y009092D01*
G37*
G36*
X010141Y008951D02*
X010056Y009036D01*
X010281Y009261D01*
X010366Y009176D01*
X010141Y008951D01*
G37*
G36*
X010275Y008816D02*
X010190Y008901D01*
X010415Y009126D01*
X010500Y009041D01*
X010275Y008816D01*
G37*
G36*
X010190Y008645D02*
X010275Y008730D01*
X010500Y008505D01*
X010415Y008420D01*
X010190Y008645D01*
G37*
G36*
X010056Y008511D02*
X010141Y008596D01*
X010366Y008371D01*
X010281Y008286D01*
X010056Y008511D01*
G37*
G36*
X009914Y008369D02*
X009999Y008454D01*
X010224Y008229D01*
X010139Y008144D01*
X009914Y008369D01*
G37*
G36*
X009773Y008228D02*
X009858Y008313D01*
X010083Y008088D01*
X009998Y008003D01*
X009773Y008228D01*
G37*
G36*
X009638Y008094D02*
X009723Y008179D01*
X009948Y007954D01*
X009863Y007869D01*
X009638Y008094D01*
G37*
G36*
X009497Y007952D02*
X009582Y008037D01*
X009807Y007812D01*
X009722Y007727D01*
X009497Y007952D01*
G37*
G36*
X009356Y007811D02*
X009441Y007896D01*
X009666Y007671D01*
X009581Y007586D01*
X009356Y007811D01*
G37*
G36*
X009214Y007669D02*
X009299Y007754D01*
X009524Y007529D01*
X009439Y007444D01*
X009214Y007669D01*
G37*
G36*
X009080Y007535D02*
X009165Y007620D01*
X009390Y007395D01*
X009305Y007310D01*
X009080Y007535D01*
G37*
G36*
X008938Y007394D02*
X009023Y007479D01*
X009248Y007254D01*
X009163Y007169D01*
X008938Y007394D01*
G37*
G36*
X008797Y007252D02*
X008882Y007337D01*
X009107Y007112D01*
X009022Y007027D01*
X008797Y007252D01*
G37*
G36*
X008663Y007118D02*
X008748Y007203D01*
X008973Y006978D01*
X008888Y006893D01*
X008663Y007118D01*
G37*
D11*
G36*
X010041Y008773D02*
X008620Y007352D01*
X007199Y008773D01*
X008620Y010194D01*
X010041Y008773D01*
G37*
D12*
X006486Y009828D03*
X004990Y009828D03*
D13*
X004567Y010496D02*
X005609Y010496D01*
X004567Y010496D02*
X004567Y010908D01*
X005609Y010908D01*
X005609Y010496D01*
X005609Y010633D02*
X004567Y010633D01*
X004567Y010770D02*
X005609Y010770D01*
X005609Y010907D02*
X004567Y010907D01*
X004567Y011363D02*
X005609Y011363D01*
X004567Y011363D02*
X004567Y011775D01*
X005609Y011775D01*
X005609Y011363D01*
X005609Y011500D02*
X004567Y011500D01*
X004567Y011637D02*
X005609Y011637D01*
X005609Y011774D02*
X004567Y011774D01*
D14*
X004570Y012391D03*
X005259Y012391D03*
X006189Y010576D03*
X006878Y010576D03*
X005594Y009191D03*
X004905Y009191D03*
D15*
X004844Y007525D03*
X005356Y007525D03*
X005364Y007049D03*
X004852Y007049D03*
X010041Y011049D03*
X010553Y011049D03*
X011061Y011584D03*
X011572Y011584D03*
X014415Y014462D03*
X014927Y014462D03*
D16*
X011714Y009986D03*
X011714Y009513D03*
X011057Y009596D03*
X011057Y009124D03*
X006017Y007372D03*
X006017Y006899D03*
X017537Y009167D03*
X018029Y009151D03*
X018029Y009624D03*
X017537Y009639D03*
D17*
X008864Y011822D03*
X008344Y011826D03*
X008344Y012515D03*
X008864Y012511D03*
X006671Y007504D03*
X006671Y006815D03*
D18*
X008832Y010939D03*
X009305Y010939D03*
X013281Y013950D03*
X013754Y013950D03*
X015545Y013958D03*
X016017Y013958D03*
X016726Y008474D03*
X017198Y008474D03*
D19*
X017600Y011966D03*
X017600Y012478D03*
X011667Y011029D03*
X011151Y011029D03*
X011151Y010517D03*
X011667Y010517D03*
X010403Y011549D03*
X010403Y012061D03*
X006194Y011899D03*
X006194Y011387D03*
D20*
X015728Y004718D03*
X016228Y004718D03*
X016728Y004718D03*
X017228Y004718D03*
X014984Y002009D03*
X014484Y002009D03*
X013984Y002009D03*
X013484Y002009D03*
X012799Y002206D03*
X012299Y002206D03*
X011799Y002206D03*
X011299Y002206D03*
X010614Y003990D03*
X010114Y003990D03*
X009614Y003990D03*
X009114Y003990D03*
X008370Y003990D03*
X007870Y003990D03*
X007370Y003990D03*
X006870Y003990D03*
X006244Y002364D03*
X005744Y002364D03*
X005244Y002364D03*
X004744Y002364D03*
D21*
X005494Y003600D03*
X007620Y002754D03*
X009864Y002754D03*
X012049Y003443D03*
X014234Y003246D03*
X016478Y003482D03*
D22*
X016728Y002561D03*
X016228Y002561D03*
X015728Y002561D03*
X017228Y002561D03*
X014984Y004167D03*
X014484Y004167D03*
X013984Y004167D03*
X013484Y004167D03*
X012799Y004364D03*
X012299Y004364D03*
X011799Y004364D03*
X011299Y004364D03*
X010614Y001832D03*
X010114Y001832D03*
X009614Y001832D03*
X009114Y001832D03*
X008370Y001832D03*
X007870Y001832D03*
X007370Y001832D03*
X006870Y001832D03*
X006244Y004521D03*
X005744Y004521D03*
X005244Y004521D03*
X004744Y004521D03*
D23*
X012415Y009517D03*
X012415Y009714D03*
X012415Y009911D03*
X012415Y010108D03*
X012415Y010305D03*
X012415Y010502D03*
X012415Y010698D03*
X012415Y010895D03*
X012415Y011092D03*
X012415Y011289D03*
X012415Y011486D03*
X012415Y011683D03*
X012415Y011880D03*
X012415Y012076D03*
X012415Y012273D03*
X012415Y012470D03*
X016943Y012470D03*
X016943Y012273D03*
X016943Y012076D03*
X016943Y011880D03*
X016943Y011683D03*
X016943Y011486D03*
X016943Y011289D03*
X016943Y011092D03*
X016943Y010895D03*
X016943Y010698D03*
X016943Y010502D03*
X016943Y010305D03*
X016943Y010108D03*
X016943Y009911D03*
X016943Y009714D03*
X016943Y009517D03*
D24*
X016155Y008730D03*
X015958Y008730D03*
X015761Y008730D03*
X015565Y008730D03*
X015368Y008730D03*
X015171Y008730D03*
X014974Y008730D03*
X014777Y008730D03*
X014580Y008730D03*
X014383Y008730D03*
X014187Y008730D03*
X013990Y008730D03*
X013793Y008730D03*
X013596Y008730D03*
X013399Y008730D03*
X013202Y008730D03*
X013202Y013257D03*
X013399Y013257D03*
X013596Y013257D03*
X013793Y013257D03*
X013990Y013257D03*
X014187Y013257D03*
X014383Y013257D03*
X014580Y013257D03*
X014777Y013257D03*
X014974Y013257D03*
X015171Y013257D03*
X015368Y013257D03*
X015565Y013257D03*
X015761Y013257D03*
X015958Y013257D03*
X016155Y013257D03*
D25*
X018096Y012691D03*
X018096Y012021D03*
D26*
X016028Y014336D02*
X016028Y014612D01*
X016304Y014612D01*
X016304Y014336D01*
X016028Y014336D01*
X016028Y014453D02*
X016304Y014453D01*
X016304Y014570D02*
X016028Y014570D01*
X015337Y014612D02*
X015337Y014336D01*
X015337Y014612D02*
X015613Y014612D01*
X015613Y014336D01*
X015337Y014336D01*
X015337Y014453D02*
X015613Y014453D01*
X015613Y014570D02*
X015337Y014570D01*
X011800Y012262D02*
X011800Y011986D01*
X011524Y011986D01*
X011524Y012262D01*
X011800Y012262D01*
X011800Y012103D02*
X011524Y012103D01*
X011524Y012220D02*
X011800Y012220D01*
X011109Y012262D02*
X011109Y011986D01*
X010833Y011986D01*
X010833Y012262D01*
X011109Y012262D01*
X011109Y012103D02*
X010833Y012103D01*
X010833Y012220D02*
X011109Y012220D01*
X007312Y009388D02*
X006647Y010045D01*
X004905Y009819D02*
X004905Y009191D01*
D27*
X018076Y010383D03*
X018076Y010856D03*
X018076Y011328D03*
D28*
X010163Y005809D03*
X010163Y004706D03*
X008352Y004698D03*
X008352Y005801D03*
D29*
X007797Y011254D03*
X007797Y011647D03*
X007797Y012041D03*
X006655Y012041D03*
X006655Y011647D03*
X006655Y011254D03*
D30*
X007226Y011647D03*
D31*
X006163Y006037D03*
X005356Y006037D03*
X004529Y006037D03*
X003698Y006037D03*
X003698Y004856D03*
X004529Y004856D03*
X005356Y004856D03*
X006163Y004856D03*
X011569Y004738D03*
X012332Y004738D03*
X013915Y004679D03*
X014742Y004679D03*
X014742Y005860D03*
X013915Y005860D03*
X012332Y005919D03*
X011569Y005919D03*
X018112Y004927D03*
X018112Y003746D03*
D32*
X005801Y008450D03*
X004620Y008450D03*
D33*
X016100Y007738D03*
X016100Y007541D03*
X016100Y007344D03*
X016100Y007147D03*
X017250Y007147D03*
X017250Y007344D03*
X017250Y007541D03*
X017250Y007738D03*
D34*
X016675Y007443D03*
D35*
X016336Y000939D03*
X015836Y000939D03*
X015336Y000939D03*
X014836Y000939D03*
X014336Y000939D03*
X013836Y000939D03*
X013336Y000939D03*
X012836Y000939D03*
X012336Y000939D03*
X011836Y000939D03*
X011336Y000939D03*
X010836Y000939D03*
X010336Y000939D03*
X009836Y000939D03*
X009336Y000939D03*
X008836Y000939D03*
X008336Y000939D03*
X007836Y000939D03*
X007336Y000939D03*
X006836Y000939D03*
X006336Y000939D03*
X005836Y000939D03*
X005336Y000939D03*
X004836Y000939D03*
X004336Y000939D03*
D36*
X002122Y004881D03*
X001622Y004881D03*
X001622Y005381D03*
X002122Y005381D03*
X002122Y005881D03*
X001622Y005881D03*
X001622Y006381D03*
X002122Y006381D03*
X002122Y006881D03*
X001622Y006881D03*
X001622Y007381D03*
X002122Y007381D03*
X002122Y007881D03*
X001622Y007881D03*
X001622Y008381D03*
X002122Y008381D03*
X002122Y008881D03*
X001622Y008881D03*
X001622Y009381D03*
X002122Y009381D03*
X002122Y009881D03*
X001622Y009881D03*
X001622Y010381D03*
X002122Y010381D03*
X019732Y010381D03*
X020232Y010381D03*
X020232Y009881D03*
X019732Y009881D03*
X019732Y009381D03*
X020232Y009381D03*
X020232Y008881D03*
X019732Y008881D03*
X019732Y008381D03*
X020232Y008381D03*
X020232Y007881D03*
X019732Y007881D03*
X019732Y007381D03*
X020232Y007381D03*
X020232Y006881D03*
X019732Y006881D03*
X019732Y006381D03*
X020232Y006381D03*
X020232Y005881D03*
X019732Y005881D03*
X019732Y005381D03*
X020232Y005381D03*
X020232Y004881D03*
X019732Y004881D03*
D37*
X006323Y002789D02*
X003935Y002789D01*
X003935Y005210D01*
X006348Y005210D01*
X006348Y004409D01*
X006323Y004384D01*
X006323Y002789D01*
X006323Y002835D02*
X003935Y002835D01*
X003935Y002897D02*
X006323Y002897D01*
X006323Y002958D02*
X003935Y002958D01*
X003935Y003020D02*
X006323Y003020D01*
X006323Y003081D02*
X003935Y003081D01*
X003935Y003143D02*
X006323Y003143D01*
X006323Y003204D02*
X003935Y003204D01*
X003935Y003266D02*
X006323Y003266D01*
X006323Y003327D02*
X003935Y003327D01*
X003935Y003389D02*
X006323Y003389D01*
X006323Y003450D02*
X003935Y003450D01*
X003935Y003512D02*
X006323Y003512D01*
X006323Y003573D02*
X003935Y003573D01*
X003935Y003634D02*
X006323Y003634D01*
X006323Y003696D02*
X003935Y003696D01*
X003935Y003757D02*
X006323Y003757D01*
X006323Y003819D02*
X003935Y003819D01*
X003935Y003880D02*
X006323Y003880D01*
X006323Y003942D02*
X003935Y003942D01*
X003935Y004003D02*
X006323Y004003D01*
X006323Y004065D02*
X003935Y004065D01*
X003935Y004126D02*
X006323Y004126D01*
X006323Y004188D02*
X003935Y004188D01*
X003935Y004249D02*
X006323Y004249D01*
X006323Y004311D02*
X003935Y004311D01*
X003935Y004372D02*
X006323Y004372D01*
X006348Y004434D02*
X003935Y004434D01*
X003935Y004495D02*
X006348Y004495D01*
X006348Y004557D02*
X003935Y004557D01*
X003935Y004618D02*
X006348Y004618D01*
X006348Y004680D02*
X003935Y004680D01*
X003935Y004741D02*
X006348Y004741D01*
X006348Y004803D02*
X003935Y004803D01*
X003935Y004864D02*
X006348Y004864D01*
X006407Y004856D02*
X006163Y004856D01*
X006348Y004926D02*
X003935Y004926D01*
X003935Y004987D02*
X006348Y004987D01*
X006348Y005049D02*
X003935Y005049D01*
X003935Y005110D02*
X006348Y005110D01*
X006348Y005172D02*
X003935Y005172D01*
X003939Y005446D02*
X003939Y006324D01*
X006537Y006324D01*
X006537Y005446D01*
X003939Y005446D01*
X003939Y005479D02*
X006537Y005479D01*
X006537Y005541D02*
X003939Y005541D01*
X003939Y005602D02*
X006537Y005602D01*
X006537Y005664D02*
X003939Y005664D01*
X003939Y005725D02*
X006537Y005725D01*
X006537Y005787D02*
X003939Y005787D01*
X003939Y005848D02*
X006537Y005848D01*
X006537Y005910D02*
X003939Y005910D01*
X003939Y005971D02*
X006537Y005971D01*
X006537Y006033D02*
X003939Y006033D01*
X003939Y006094D02*
X006537Y006094D01*
X006537Y006156D02*
X003939Y006156D01*
X003939Y006217D02*
X006537Y006217D01*
X006537Y006279D02*
X003939Y006279D01*
X004450Y007076D02*
X004635Y007076D01*
X004852Y007049D01*
X005364Y007049D02*
X005364Y007517D01*
X005356Y007525D01*
X005462Y007820D01*
X006029Y007820D01*
X006407Y008198D01*
X006533Y008198D01*
X006894Y008560D01*
X006894Y008575D01*
X007029Y008441D02*
X007349Y008777D01*
X008620Y008773D01*
X008607Y010036D01*
X008952Y010364D01*
X009305Y010733D01*
X009305Y010939D01*
X008832Y010939D02*
X008805Y010912D01*
X008818Y010499D01*
X008422Y010499D02*
X008403Y010556D01*
X008403Y010939D01*
X008108Y010820D02*
X008108Y010525D01*
X008265Y010368D01*
X008287Y010364D01*
X008146Y010223D02*
X007835Y010525D01*
X007891Y010584D01*
X007576Y010643D02*
X007576Y010501D01*
X008005Y010081D01*
X007870Y009947D02*
X007402Y010407D01*
X007340Y010407D01*
X007355Y010171D02*
X007399Y010112D01*
X007355Y010171D02*
X007729Y009806D01*
X007587Y009664D02*
X008466Y008777D01*
X008620Y008773D01*
X009702Y008813D02*
X009702Y008897D01*
X010069Y009247D01*
X009928Y009388D02*
X010124Y009584D01*
X010502Y009584D01*
X011069Y010151D01*
X011320Y010151D01*
X011667Y010498D01*
X011667Y010517D01*
X011151Y010517D02*
X011151Y010423D01*
X011017Y010423D01*
X010655Y010061D01*
X010655Y009927D01*
X010439Y009710D01*
X009981Y009710D01*
X009793Y009523D01*
X009652Y009664D02*
X009824Y009836D01*
X010187Y009836D01*
X010309Y009958D01*
X010246Y009931D01*
X010187Y010214D02*
X009935Y009962D01*
X009667Y009962D01*
X009511Y009806D01*
X009369Y009947D02*
X009837Y010415D01*
X009895Y010415D01*
X010187Y010289D02*
X010187Y010214D01*
X009596Y010525D02*
X009494Y010423D01*
X009494Y010340D01*
X009235Y010081D01*
X009235Y010081D01*
X010211Y009106D02*
X010212Y009106D01*
X010722Y009616D01*
X011057Y009596D01*
X011057Y009675D01*
X011297Y009915D01*
X011714Y009986D02*
X011738Y009962D01*
X011887Y009962D01*
X012135Y009714D01*
X012415Y009714D01*
X012769Y009714D01*
X013021Y009462D01*
X013210Y009080D02*
X013840Y009710D01*
X015541Y009710D01*
X015982Y010151D01*
X015415Y009962D02*
X012466Y009962D01*
X012415Y009911D01*
X012415Y009517D02*
X011718Y009517D01*
X011714Y009513D01*
X011403Y009104D02*
X011057Y009124D01*
X011403Y009104D02*
X011423Y009084D01*
X011635Y008702D02*
X010472Y008702D01*
X010345Y008575D01*
X010069Y008299D02*
X010036Y008299D01*
X009935Y008198D01*
X009935Y008135D01*
X009928Y008158D02*
X011147Y006939D01*
X013084Y006939D01*
X013210Y006813D01*
X015415Y006813D01*
X015730Y006498D01*
X015730Y005238D01*
X015856Y005112D01*
X016143Y005112D01*
X016202Y005053D01*
X016058Y005049D02*
X018671Y005049D01*
X018671Y005110D02*
X016059Y005110D01*
X016060Y005172D02*
X018671Y005172D01*
X018671Y005233D02*
X016061Y005233D01*
X016063Y005295D02*
X018671Y005295D01*
X018671Y005342D02*
X018671Y004399D01*
X016045Y004399D01*
X016065Y005387D01*
X018625Y005387D01*
X018671Y005342D01*
X018657Y005356D02*
X016064Y005356D01*
X016057Y004987D02*
X018671Y004987D01*
X018671Y004926D02*
X016055Y004926D01*
X016054Y004864D02*
X018671Y004864D01*
X018671Y004803D02*
X016053Y004803D01*
X016052Y004741D02*
X018671Y004741D01*
X018671Y004680D02*
X016050Y004680D01*
X016049Y004618D02*
X018671Y004618D01*
X018671Y004557D02*
X016048Y004557D01*
X016047Y004495D02*
X018671Y004495D01*
X018671Y004434D02*
X016046Y004434D01*
X015728Y004718D02*
X015604Y004752D01*
X015604Y006435D01*
X015352Y006687D01*
X013147Y006687D01*
X013021Y006813D01*
X011005Y006813D01*
X009793Y008024D01*
X009928Y008158D02*
X010069Y008299D01*
X009652Y007882D02*
X010848Y006687D01*
X012958Y006687D01*
X013084Y006561D01*
X015289Y006561D01*
X015478Y006372D01*
X015478Y004072D01*
X015754Y003911D01*
X015515Y003880D02*
X017411Y003880D01*
X017411Y003819D02*
X015515Y003819D01*
X015515Y003757D02*
X017411Y003757D01*
X017411Y003696D02*
X015515Y003696D01*
X015515Y003634D02*
X017411Y003634D01*
X017411Y003573D02*
X015515Y003573D01*
X015515Y003512D02*
X017411Y003512D01*
X017411Y003450D02*
X015515Y003450D01*
X015515Y003389D02*
X017411Y003389D01*
X017411Y003327D02*
X015515Y003327D01*
X015515Y003266D02*
X017411Y003266D01*
X017411Y003204D02*
X015515Y003204D01*
X015515Y003143D02*
X017411Y003143D01*
X017411Y003081D02*
X015515Y003081D01*
X015515Y003020D02*
X017411Y003020D01*
X017411Y002958D02*
X015515Y002958D01*
X015515Y002897D02*
X017411Y002897D01*
X017411Y002835D02*
X015515Y002835D01*
X015515Y002774D02*
X017411Y002774D01*
X017411Y002712D02*
X015515Y002712D01*
X015515Y002651D02*
X017411Y002651D01*
X017411Y002589D02*
X015515Y002589D01*
X015515Y002528D02*
X017411Y002528D01*
X017411Y002466D02*
X015515Y002466D01*
X015515Y002405D02*
X017411Y002405D01*
X017411Y002343D02*
X015517Y002343D01*
X015515Y002320D02*
X015520Y002382D01*
X015515Y002387D01*
X015515Y004226D01*
X017411Y004226D01*
X017411Y000486D01*
X012643Y000486D01*
X012643Y000814D01*
X012668Y000873D01*
X012668Y001005D01*
X012643Y001063D01*
X012643Y001521D01*
X012917Y001852D01*
X012958Y001852D01*
X013035Y001929D01*
X013035Y001995D01*
X013317Y002336D01*
X014754Y002336D01*
X014754Y002292D01*
X014748Y002286D01*
X014748Y001733D01*
X014754Y001727D01*
X014754Y001588D01*
X015179Y001588D01*
X015179Y001692D01*
X015220Y001733D01*
X015220Y001997D01*
X015412Y002163D01*
X015419Y002163D01*
X015463Y002207D01*
X015509Y002247D01*
X015510Y002254D01*
X015515Y002259D01*
X015515Y002320D01*
X015515Y002282D02*
X017411Y002282D01*
X017411Y002220D02*
X015478Y002220D01*
X015407Y002159D02*
X017411Y002159D01*
X017411Y002097D02*
X015336Y002097D01*
X015264Y002036D02*
X017411Y002036D01*
X017411Y001974D02*
X015220Y001974D01*
X015220Y001913D02*
X017411Y001913D01*
X017411Y001851D02*
X015220Y001851D01*
X015220Y001790D02*
X017411Y001790D01*
X017411Y001728D02*
X015215Y001728D01*
X015179Y001667D02*
X017411Y001667D01*
X017411Y001605D02*
X015179Y001605D01*
X014754Y001605D02*
X012713Y001605D01*
X012763Y001667D02*
X014754Y001667D01*
X014752Y001728D02*
X012814Y001728D01*
X012865Y001790D02*
X014748Y001790D01*
X014748Y001851D02*
X012916Y001851D01*
X013018Y001913D02*
X014748Y001913D01*
X014748Y001974D02*
X013035Y001974D01*
X013068Y002036D02*
X014748Y002036D01*
X014748Y002097D02*
X013119Y002097D01*
X013170Y002159D02*
X014748Y002159D01*
X014748Y002220D02*
X013221Y002220D01*
X013271Y002282D02*
X014748Y002282D01*
X014984Y002009D02*
X015352Y002326D01*
X015352Y006309D01*
X015226Y006435D01*
X013021Y006435D01*
X012895Y006561D01*
X010754Y006561D01*
X010124Y007191D01*
X010061Y007191D01*
X009511Y007741D01*
X009511Y007741D01*
X009369Y007599D02*
X009904Y007065D01*
X010061Y007065D01*
X010691Y006435D01*
X012801Y006435D01*
X013131Y006120D01*
X013131Y002403D01*
X012769Y002025D01*
X012799Y002206D01*
X012545Y002220D02*
X008702Y002220D01*
X008702Y002159D02*
X012545Y002159D01*
X012545Y002097D02*
X008702Y002097D01*
X008702Y002036D02*
X012545Y002036D01*
X012545Y001974D02*
X008702Y001974D01*
X008702Y001913D02*
X012545Y001913D01*
X012545Y001851D02*
X008702Y001851D01*
X008702Y001790D02*
X012545Y001790D01*
X012545Y001728D02*
X008702Y001728D01*
X008702Y001714D02*
X008701Y001705D01*
X008703Y001702D01*
X008700Y001640D01*
X008701Y001577D01*
X008696Y001573D01*
X008688Y001418D01*
X008688Y000530D01*
X008688Y000530D01*
X008688Y000480D01*
X012480Y000480D01*
X012480Y001514D01*
X012475Y001573D01*
X012480Y001580D01*
X012480Y001589D01*
X012523Y001631D01*
X012545Y001658D01*
X012545Y002454D01*
X010750Y002454D01*
X010750Y003486D01*
X008702Y003486D01*
X008702Y001714D01*
X008701Y001667D02*
X012545Y001667D01*
X012497Y001605D02*
X008700Y001605D01*
X008695Y001544D02*
X012477Y001544D01*
X012480Y001482D02*
X008692Y001482D01*
X008688Y001421D02*
X012480Y001421D01*
X012480Y001359D02*
X008688Y001359D01*
X008688Y001298D02*
X012480Y001298D01*
X012480Y001236D02*
X008688Y001236D01*
X008688Y001175D02*
X012480Y001175D01*
X012480Y001113D02*
X008688Y001113D01*
X008688Y001052D02*
X012480Y001052D01*
X012480Y000990D02*
X008688Y000990D01*
X008688Y000929D02*
X012480Y000929D01*
X012480Y000867D02*
X008688Y000867D01*
X008688Y000806D02*
X012480Y000806D01*
X012480Y000744D02*
X008688Y000744D01*
X008688Y000683D02*
X012480Y000683D01*
X012480Y000621D02*
X008688Y000621D01*
X008688Y000560D02*
X012480Y000560D01*
X012480Y000498D02*
X008688Y000498D01*
X008525Y000498D02*
X004726Y000498D01*
X004726Y000480D02*
X004726Y002600D01*
X006008Y002600D01*
X006008Y002087D01*
X006065Y002030D01*
X006065Y002021D01*
X006073Y002021D01*
X006085Y002010D01*
X006402Y002010D01*
X006414Y002021D01*
X006643Y002021D01*
X006643Y002460D01*
X006649Y002466D01*
X008530Y002466D01*
X008530Y002405D02*
X006643Y002405D01*
X006649Y002466D02*
X006649Y002513D01*
X006660Y002559D01*
X006649Y002578D01*
X006649Y003478D01*
X008521Y003478D01*
X008537Y001643D01*
X008525Y001423D01*
X008525Y001054D01*
X008505Y001005D01*
X008505Y000873D01*
X008525Y000823D01*
X008525Y000480D01*
X004726Y000480D01*
X004726Y000560D02*
X008525Y000560D01*
X008525Y000621D02*
X004726Y000621D01*
X004726Y000683D02*
X008525Y000683D01*
X008525Y000744D02*
X004726Y000744D01*
X004726Y000806D02*
X008525Y000806D01*
X008507Y000867D02*
X004726Y000867D01*
X004726Y000929D02*
X008505Y000929D01*
X008505Y000990D02*
X004726Y000990D01*
X004726Y001052D02*
X008524Y001052D01*
X008525Y001113D02*
X004726Y001113D01*
X004726Y001175D02*
X008525Y001175D01*
X008525Y001236D02*
X004726Y001236D01*
X004726Y001298D02*
X008525Y001298D01*
X008525Y001359D02*
X004726Y001359D01*
X004726Y001421D02*
X008525Y001421D01*
X008528Y001482D02*
X004726Y001482D01*
X004726Y001544D02*
X008532Y001544D01*
X008535Y001605D02*
X004726Y001605D01*
X004726Y001667D02*
X008537Y001667D01*
X008536Y001728D02*
X004726Y001728D01*
X004726Y001790D02*
X008536Y001790D01*
X008535Y001851D02*
X004726Y001851D01*
X004726Y001913D02*
X008535Y001913D01*
X008534Y001974D02*
X004726Y001974D01*
X004726Y002036D02*
X006059Y002036D01*
X006008Y002097D02*
X004726Y002097D01*
X004726Y002159D02*
X006008Y002159D01*
X006008Y002220D02*
X004726Y002220D01*
X004726Y002282D02*
X006008Y002282D01*
X006008Y002343D02*
X004726Y002343D01*
X004726Y002405D02*
X006008Y002405D01*
X006008Y002466D02*
X004726Y002466D01*
X004726Y002528D02*
X006008Y002528D01*
X006008Y002589D02*
X004726Y002589D01*
X006244Y002364D02*
X006446Y002376D01*
X006486Y002533D01*
X006486Y004317D01*
X007163Y004994D01*
X007163Y006624D01*
X007667Y007128D01*
X007667Y007396D01*
X007870Y007599D01*
X008005Y007465D02*
X007793Y007253D01*
X007793Y007065D01*
X007289Y006561D01*
X007289Y004931D01*
X006612Y004254D01*
X006612Y003297D01*
X006824Y003261D01*
X006836Y003261D01*
X006649Y003266D02*
X008523Y003266D01*
X008523Y003327D02*
X006649Y003327D01*
X006649Y003389D02*
X008522Y003389D01*
X008521Y003450D02*
X006649Y003450D01*
X006649Y003204D02*
X008524Y003204D01*
X008524Y003143D02*
X006649Y003143D01*
X006649Y003081D02*
X008525Y003081D01*
X008525Y003020D02*
X006649Y003020D01*
X006649Y002958D02*
X008526Y002958D01*
X008526Y002897D02*
X006649Y002897D01*
X006649Y002835D02*
X008527Y002835D01*
X008527Y002774D02*
X006649Y002774D01*
X006649Y002712D02*
X008528Y002712D01*
X008528Y002651D02*
X006649Y002651D01*
X006649Y002589D02*
X008529Y002589D01*
X008529Y002528D02*
X006652Y002528D01*
X006643Y002343D02*
X008531Y002343D01*
X008532Y002282D02*
X006643Y002282D01*
X006643Y002220D02*
X008532Y002220D01*
X008533Y002159D02*
X006643Y002159D01*
X006643Y002097D02*
X008533Y002097D01*
X008534Y002036D02*
X006643Y002036D01*
X006147Y003383D02*
X006244Y004521D01*
X006470Y004714D02*
X007037Y005281D01*
X007037Y006687D01*
X007541Y007191D01*
X007541Y007569D01*
X007713Y007741D01*
X007729Y007741D01*
X007446Y008024D02*
X006926Y007504D01*
X006671Y007504D01*
X006407Y007820D02*
X006974Y007820D01*
X007312Y008158D01*
X007170Y008269D02*
X006848Y007946D01*
X006344Y007946D01*
X006092Y007694D01*
X006092Y007555D01*
X006017Y007372D01*
X006017Y006899D02*
X006259Y006791D01*
X006344Y006876D01*
X006344Y007757D01*
X006407Y007820D01*
X007170Y008269D02*
X007170Y008299D01*
X008146Y007324D02*
X008146Y007292D01*
X007919Y007065D01*
X007919Y007002D01*
X007415Y006498D01*
X007415Y004848D01*
X006891Y004324D01*
X006891Y004011D01*
X006870Y003990D01*
X007131Y004003D02*
X008844Y004003D01*
X008844Y003942D02*
X007131Y003942D01*
X007131Y003880D02*
X008844Y003880D01*
X008844Y003819D02*
X007131Y003819D01*
X007131Y003757D02*
X008844Y003757D01*
X008844Y003734D02*
X008844Y005092D01*
X007578Y005092D01*
X007578Y004781D01*
X007482Y004685D01*
X007131Y004334D01*
X007131Y003734D01*
X008844Y003734D01*
X009114Y003990D02*
X009053Y004051D01*
X009053Y006498D01*
X009368Y006813D01*
X009368Y007065D01*
X009109Y007324D01*
X009093Y007324D01*
X008998Y007182D02*
X009179Y007002D01*
X009179Y006986D01*
X008872Y006679D01*
X008818Y006952D02*
X008427Y006561D01*
X008249Y006876D02*
X008422Y007048D01*
X008287Y007181D02*
X008287Y007182D01*
X008287Y007181D02*
X007541Y006435D01*
X007541Y005364D01*
X007667Y005238D01*
X008202Y005238D01*
X008250Y005191D01*
X008250Y004738D01*
X008352Y004698D01*
X008105Y004791D01*
X008105Y004794D01*
X008105Y004791D02*
X008013Y004836D01*
X007578Y004864D02*
X008844Y004864D01*
X008844Y004803D02*
X007578Y004803D01*
X007539Y004741D02*
X008844Y004741D01*
X008844Y004680D02*
X007477Y004680D01*
X007416Y004618D02*
X008844Y004618D01*
X008844Y004557D02*
X007354Y004557D01*
X007293Y004495D02*
X008844Y004495D01*
X008844Y004434D02*
X007231Y004434D01*
X007170Y004372D02*
X008844Y004372D01*
X008844Y004311D02*
X007131Y004311D01*
X007131Y004249D02*
X008844Y004249D01*
X008844Y004188D02*
X007131Y004188D01*
X007131Y004126D02*
X008844Y004126D01*
X008844Y004065D02*
X007131Y004065D01*
X007578Y004926D02*
X008844Y004926D01*
X008844Y004987D02*
X007578Y004987D01*
X007578Y005049D02*
X008844Y005049D01*
X009305Y005238D02*
X009305Y006372D01*
X009494Y006561D01*
X009935Y006561D01*
X009998Y006624D01*
X009998Y006765D01*
X010006Y006773D01*
X010246Y006561D02*
X010246Y006557D01*
X010124Y006435D01*
X009557Y006435D01*
X009431Y006309D01*
X009431Y005364D01*
X010061Y005364D01*
X010124Y005427D01*
X010124Y005647D01*
X010246Y005643D01*
X010679Y005664D02*
X009675Y005664D01*
X009675Y005725D02*
X010679Y005725D01*
X010679Y005787D02*
X009675Y005787D01*
X009675Y005848D02*
X010679Y005848D01*
X010679Y005910D02*
X009675Y005910D01*
X009675Y005971D02*
X010679Y005971D01*
X010679Y006033D02*
X009675Y006033D01*
X009675Y006094D02*
X010679Y006094D01*
X010679Y006156D02*
X009675Y006156D01*
X009675Y006217D02*
X010679Y006217D01*
X010679Y006272D02*
X010679Y005549D01*
X009675Y005549D01*
X009675Y006273D01*
X010621Y006273D01*
X010623Y006272D01*
X010679Y006272D01*
X011033Y006273D02*
X012792Y006273D01*
X012805Y006261D01*
X012805Y005328D01*
X011033Y005328D01*
X011033Y006273D01*
X011033Y006217D02*
X012805Y006217D01*
X012805Y006156D02*
X011033Y006156D01*
X011033Y006094D02*
X012805Y006094D01*
X012805Y006033D02*
X011033Y006033D01*
X011033Y005971D02*
X012805Y005971D01*
X012805Y005910D02*
X011033Y005910D01*
X011033Y005848D02*
X012805Y005848D01*
X012805Y005787D02*
X011033Y005787D01*
X011033Y005725D02*
X012805Y005725D01*
X012805Y005664D02*
X011033Y005664D01*
X011033Y005602D02*
X012805Y005602D01*
X012805Y005541D02*
X011033Y005541D01*
X011033Y005479D02*
X012805Y005479D01*
X012805Y005418D02*
X011033Y005418D01*
X011033Y005356D02*
X012805Y005356D01*
X012919Y005100D02*
X011088Y005100D01*
X011088Y002671D01*
X012919Y002671D01*
X012919Y005100D01*
X012919Y005049D02*
X011088Y005049D01*
X011088Y004987D02*
X012919Y004987D01*
X012919Y004926D02*
X011088Y004926D01*
X011088Y004864D02*
X012919Y004864D01*
X012919Y004803D02*
X011088Y004803D01*
X011088Y004741D02*
X012919Y004741D01*
X012919Y004680D02*
X011088Y004680D01*
X011088Y004618D02*
X012919Y004618D01*
X012919Y004557D02*
X011088Y004557D01*
X011088Y004495D02*
X012919Y004495D01*
X012919Y004434D02*
X011088Y004434D01*
X011088Y004372D02*
X012919Y004372D01*
X012919Y004311D02*
X011088Y004311D01*
X011088Y004249D02*
X012919Y004249D01*
X012919Y004188D02*
X011088Y004188D01*
X011088Y004126D02*
X012919Y004126D01*
X012919Y004065D02*
X011088Y004065D01*
X011088Y004003D02*
X012919Y004003D01*
X012919Y003942D02*
X011088Y003942D01*
X011088Y003880D02*
X012919Y003880D01*
X012919Y003819D02*
X011088Y003819D01*
X011088Y003757D02*
X012919Y003757D01*
X012919Y003696D02*
X011088Y003696D01*
X011088Y003634D02*
X012919Y003634D01*
X012919Y003573D02*
X011088Y003573D01*
X011088Y003512D02*
X012919Y003512D01*
X012919Y003450D02*
X011088Y003450D01*
X011088Y003389D02*
X012919Y003389D01*
X012919Y003327D02*
X011088Y003327D01*
X011088Y003266D02*
X012919Y003266D01*
X012919Y003204D02*
X011088Y003204D01*
X011088Y003143D02*
X012919Y003143D01*
X012919Y003081D02*
X011088Y003081D01*
X011088Y003020D02*
X012919Y003020D01*
X012919Y002958D02*
X011088Y002958D01*
X011088Y002897D02*
X012919Y002897D01*
X012919Y002835D02*
X011088Y002835D01*
X011088Y002774D02*
X012919Y002774D01*
X012919Y002712D02*
X011088Y002712D01*
X010750Y002712D02*
X008702Y002712D01*
X008702Y002651D02*
X010750Y002651D01*
X010750Y002589D02*
X008702Y002589D01*
X008702Y002528D02*
X010750Y002528D01*
X010750Y002466D02*
X008702Y002466D01*
X008702Y002405D02*
X012545Y002405D01*
X012545Y002343D02*
X008702Y002343D01*
X008702Y002282D02*
X012545Y002282D01*
X013332Y002612D02*
X013332Y005100D01*
X015163Y005100D01*
X015163Y002612D01*
X013332Y002612D01*
X013332Y002651D02*
X015163Y002651D01*
X015163Y002712D02*
X013332Y002712D01*
X013332Y002774D02*
X015163Y002774D01*
X015163Y002835D02*
X013332Y002835D01*
X013332Y002897D02*
X015163Y002897D01*
X015163Y002958D02*
X013332Y002958D01*
X013332Y003020D02*
X015163Y003020D01*
X015163Y003081D02*
X013332Y003081D01*
X013332Y003143D02*
X015163Y003143D01*
X015163Y003204D02*
X013332Y003204D01*
X013332Y003266D02*
X015163Y003266D01*
X015163Y003327D02*
X013332Y003327D01*
X013332Y003389D02*
X015163Y003389D01*
X015163Y003450D02*
X013332Y003450D01*
X013332Y003512D02*
X015163Y003512D01*
X015163Y003573D02*
X013332Y003573D01*
X013332Y003634D02*
X015163Y003634D01*
X015163Y003696D02*
X013332Y003696D01*
X013332Y003757D02*
X015163Y003757D01*
X015163Y003819D02*
X013332Y003819D01*
X013332Y003880D02*
X015163Y003880D01*
X015163Y003942D02*
X013332Y003942D01*
X013332Y004003D02*
X015163Y004003D01*
X015163Y004065D02*
X013332Y004065D01*
X013332Y004126D02*
X015163Y004126D01*
X015163Y004188D02*
X013332Y004188D01*
X013332Y004249D02*
X015163Y004249D01*
X015163Y004311D02*
X013332Y004311D01*
X013332Y004372D02*
X015163Y004372D01*
X015163Y004434D02*
X013332Y004434D01*
X013332Y004495D02*
X015163Y004495D01*
X015163Y004557D02*
X013332Y004557D01*
X013332Y004618D02*
X015163Y004618D01*
X015163Y004680D02*
X013332Y004680D01*
X013332Y004741D02*
X015163Y004741D01*
X015163Y004803D02*
X013332Y004803D01*
X013332Y004864D02*
X015163Y004864D01*
X015163Y004926D02*
X013332Y004926D01*
X013332Y004987D02*
X015163Y004987D01*
X015163Y005049D02*
X013332Y005049D01*
X013269Y005328D02*
X015229Y005328D01*
X015229Y006258D01*
X015213Y006273D01*
X013269Y006273D01*
X013269Y005328D01*
X013269Y005356D02*
X015229Y005356D01*
X015229Y005418D02*
X013269Y005418D01*
X013269Y005479D02*
X015229Y005479D01*
X015229Y005541D02*
X013269Y005541D01*
X013269Y005602D02*
X015229Y005602D01*
X015229Y005664D02*
X013269Y005664D01*
X013269Y005725D02*
X015229Y005725D01*
X015229Y005787D02*
X013269Y005787D01*
X013269Y005848D02*
X015229Y005848D01*
X015229Y005910D02*
X013269Y005910D01*
X013269Y005971D02*
X015229Y005971D01*
X015229Y006033D02*
X013269Y006033D01*
X013269Y006094D02*
X015229Y006094D01*
X015229Y006156D02*
X013269Y006156D01*
X013269Y006217D02*
X015229Y006217D01*
X015037Y007128D02*
X014659Y007506D01*
X014659Y007631D01*
X014580Y007710D01*
X014580Y008730D01*
X014383Y008730D02*
X014383Y008238D01*
X014281Y008135D01*
X013990Y007860D02*
X013990Y008730D01*
X013793Y008730D02*
X013793Y007742D01*
X014029Y007506D01*
X013714Y007506D02*
X013588Y007631D01*
X013588Y008057D01*
X013596Y008065D01*
X013596Y008730D01*
X013399Y008730D02*
X013399Y007506D01*
X013990Y007860D02*
X014344Y007506D01*
X014777Y007765D02*
X015037Y007506D01*
X014777Y007765D02*
X014777Y008730D01*
X014974Y008730D02*
X014974Y007883D01*
X015513Y007344D01*
X016100Y007344D01*
X016100Y007147D02*
X016647Y007084D01*
X016647Y007781D01*
X016990Y007683D01*
X016990Y008072D01*
X017198Y008281D01*
X017198Y008474D01*
X016726Y008474D02*
X016411Y008474D01*
X016100Y008163D01*
X016100Y007738D01*
X016100Y007541D02*
X015569Y007541D01*
X015171Y007939D01*
X015171Y008730D01*
X015368Y008730D02*
X015368Y009124D01*
X015324Y009167D01*
X015958Y009521D02*
X015958Y008730D01*
X016155Y008730D02*
X016411Y008474D01*
X016155Y008730D02*
X016155Y009053D01*
X016210Y009108D01*
X015958Y009521D02*
X015982Y009545D01*
X016506Y009639D02*
X016628Y009517D01*
X016943Y009517D01*
X017537Y009517D01*
X017537Y009639D01*
X018029Y009639D01*
X018029Y009624D01*
X018439Y009962D02*
X018439Y009175D01*
X019732Y007881D01*
X018880Y007317D02*
X018880Y006246D01*
X018628Y006183D02*
X019429Y005381D01*
X019732Y005381D01*
X019383Y005238D02*
X019383Y005230D01*
X019732Y004881D01*
X019572Y004545D02*
X019895Y004545D01*
X020232Y004881D01*
X020580Y004734D02*
X020580Y005033D01*
X020232Y005381D01*
X020580Y004734D02*
X020265Y004419D01*
X019509Y004419D01*
X019131Y004797D01*
X019131Y005112D01*
X018250Y005994D01*
X018250Y006813D01*
X017935Y007128D01*
X017269Y007128D01*
X017250Y007147D01*
X017250Y007344D02*
X017970Y007344D01*
X018376Y006939D01*
X018376Y006057D01*
X019257Y005175D01*
X019257Y004860D01*
X019572Y004545D01*
X019383Y005238D02*
X018502Y006120D01*
X018502Y007065D01*
X018025Y007541D01*
X017250Y007541D01*
X017250Y007738D02*
X018017Y007738D01*
X018628Y007128D01*
X018628Y006183D01*
X016675Y007340D02*
X016675Y007443D01*
X016675Y007340D02*
X016647Y007781D01*
X018029Y009151D02*
X018029Y009167D01*
X017537Y009167D01*
X017537Y009159D01*
X016958Y009159D01*
X016943Y010305D02*
X017746Y010305D01*
X018076Y010383D01*
X018076Y010856D02*
X017679Y010919D01*
X017667Y010931D01*
X017368Y011222D02*
X017368Y010592D01*
X017277Y010502D01*
X016943Y010502D01*
X016943Y010698D02*
X016340Y010698D01*
X016297Y010655D01*
X016092Y010860D02*
X015698Y010860D01*
X015974Y011116D02*
X015998Y011092D01*
X016943Y011092D01*
X016946Y011285D02*
X016943Y011289D01*
X016946Y011285D02*
X017242Y011285D01*
X017620Y011663D01*
X018502Y011663D01*
X018754Y011411D01*
X018754Y011096D01*
X019383Y010907D02*
X019446Y010844D01*
X020328Y010844D01*
X020643Y010529D01*
X020643Y009143D01*
X020381Y008881D01*
X020232Y008881D01*
X017474Y011328D02*
X017368Y011222D01*
X017474Y011328D02*
X018076Y011328D01*
X017513Y011880D02*
X017600Y011966D01*
X018041Y011966D01*
X018096Y012021D01*
X018502Y012293D02*
X018502Y013301D01*
X018376Y013427D01*
X016324Y013427D01*
X016155Y013257D01*
X015958Y013257D02*
X015958Y013899D01*
X016017Y013958D01*
X016166Y014107D01*
X016166Y014474D01*
X015475Y014474D02*
X014939Y014474D01*
X014927Y014462D01*
X014580Y014297D02*
X014415Y014462D01*
X014580Y014297D02*
X014580Y013257D01*
X014974Y013257D02*
X014974Y012954D01*
X014911Y012891D01*
X014911Y012537D01*
X014970Y012238D02*
X014675Y012238D01*
X014911Y012002D02*
X014439Y012002D01*
X014383Y011710D02*
X014198Y011714D01*
X014383Y011710D02*
X014797Y011710D01*
X015163Y012076D01*
X016943Y012076D01*
X016943Y011880D02*
X017513Y011880D01*
X016943Y011683D02*
X016478Y011683D01*
X016383Y011588D01*
X016128Y010895D02*
X016092Y010860D01*
X016128Y010895D02*
X016943Y010895D01*
X015368Y012635D02*
X014970Y012238D01*
X014911Y012002D02*
X015565Y012655D01*
X015565Y013257D01*
X015761Y013257D02*
X015761Y013521D01*
X015541Y013742D01*
X015541Y013954D01*
X015545Y013958D01*
X015368Y013257D02*
X015368Y012635D01*
X015171Y012797D02*
X015147Y012773D01*
X015171Y012797D02*
X015171Y013257D01*
X015761Y013257D02*
X015761Y012746D01*
X015856Y012651D01*
X015958Y012962D02*
X016269Y012651D01*
X015958Y012962D02*
X015958Y013257D01*
X016943Y012624D02*
X017053Y012734D01*
X016943Y012624D02*
X016943Y012470D01*
X017600Y012478D02*
X017600Y012919D01*
X017565Y012954D01*
X017954Y013135D02*
X018096Y012899D01*
X018096Y012691D01*
X013754Y013950D02*
X013596Y013685D01*
X013596Y013257D01*
X013399Y013257D02*
X013399Y012923D01*
X013494Y012828D01*
X013202Y012931D02*
X013096Y012824D01*
X013202Y012931D02*
X013202Y013257D01*
X013202Y013858D01*
X013281Y013950D01*
X011662Y012124D02*
X011662Y011674D01*
X011572Y011584D01*
X011151Y011494D02*
X011061Y011584D01*
X011151Y011494D02*
X011151Y011029D01*
X011667Y011029D01*
X012415Y010895D02*
X012801Y010895D01*
X012903Y010998D01*
X013198Y010820D02*
X013084Y010698D01*
X012415Y010698D01*
X012415Y010502D02*
X012742Y010502D01*
X012801Y010561D01*
X013411Y010561D01*
X013494Y010643D01*
X013482Y010643D01*
X013025Y010309D02*
X012450Y010309D01*
X012431Y010289D01*
X012415Y010305D01*
X012415Y009517D02*
X012415Y009360D01*
X012431Y009344D01*
X011994Y009061D02*
X011635Y008702D01*
X010517Y008939D02*
X010485Y008971D01*
X010345Y008971D01*
X009235Y007465D02*
X009235Y007449D01*
X009494Y007191D01*
X009494Y006750D01*
X009179Y006435D01*
X009179Y004549D01*
X009376Y004352D01*
X009376Y003498D01*
X009883Y002868D01*
X009114Y001832D01*
X008702Y002774D02*
X010750Y002774D01*
X010750Y002835D02*
X008702Y002835D01*
X008702Y002897D02*
X010750Y002897D01*
X010750Y002958D02*
X008702Y002958D01*
X008702Y003020D02*
X010750Y003020D01*
X010750Y003081D02*
X008702Y003081D01*
X008702Y003143D02*
X010750Y003143D01*
X010750Y003204D02*
X008702Y003204D01*
X008702Y003266D02*
X010750Y003266D01*
X010750Y003327D02*
X008702Y003327D01*
X008702Y003389D02*
X010750Y003389D01*
X010750Y003450D02*
X008702Y003450D01*
X009549Y003793D02*
X009549Y005096D01*
X010848Y005096D01*
X010848Y003793D01*
X009549Y003793D01*
X009549Y003819D02*
X010848Y003819D01*
X010848Y003880D02*
X009549Y003880D01*
X009549Y003942D02*
X010848Y003942D01*
X010848Y004003D02*
X009549Y004003D01*
X009549Y004065D02*
X010848Y004065D01*
X010848Y004126D02*
X009549Y004126D01*
X009549Y004188D02*
X010848Y004188D01*
X010848Y004249D02*
X009549Y004249D01*
X009549Y004311D02*
X010848Y004311D01*
X010848Y004372D02*
X009549Y004372D01*
X009549Y004434D02*
X010848Y004434D01*
X010848Y004495D02*
X009549Y004495D01*
X009549Y004557D02*
X010848Y004557D01*
X010848Y004618D02*
X009549Y004618D01*
X009549Y004680D02*
X010848Y004680D01*
X010848Y004741D02*
X009549Y004741D01*
X009549Y004803D02*
X010848Y004803D01*
X010848Y004864D02*
X009549Y004864D01*
X009549Y004926D02*
X010848Y004926D01*
X010848Y004987D02*
X009549Y004987D01*
X009549Y005049D02*
X010848Y005049D01*
X010124Y005175D02*
X010100Y004820D01*
X010163Y004706D01*
X010124Y005175D02*
X010061Y005238D01*
X009305Y005238D01*
X008890Y005506D02*
X007840Y005506D01*
X007840Y006273D01*
X008890Y006273D01*
X008890Y005506D01*
X008890Y005541D02*
X007840Y005541D01*
X007840Y005602D02*
X008890Y005602D01*
X008890Y005664D02*
X007840Y005664D01*
X007840Y005725D02*
X008890Y005725D01*
X008890Y005787D02*
X007840Y005787D01*
X007840Y005848D02*
X008890Y005848D01*
X008890Y005910D02*
X007840Y005910D01*
X007840Y005971D02*
X008890Y005971D01*
X008890Y006033D02*
X007840Y006033D01*
X007840Y006094D02*
X008890Y006094D01*
X008890Y006156D02*
X007840Y006156D01*
X007840Y006217D02*
X008890Y006217D01*
X008352Y005801D02*
X008289Y005419D01*
X008234Y005364D01*
X007730Y005364D01*
X007667Y005427D01*
X007667Y006372D01*
X008171Y006876D01*
X008249Y006876D01*
X008818Y006952D02*
X008818Y007048D01*
X008952Y007182D02*
X008998Y007182D01*
X008250Y005899D02*
X008250Y005506D01*
X008352Y005801D02*
X008250Y005899D01*
X009675Y005602D02*
X010679Y005602D01*
X006671Y006815D02*
X006478Y006980D01*
X004844Y007525D02*
X004824Y007506D01*
X004454Y007506D01*
X005903Y009584D02*
X005903Y010403D01*
X004643Y010403D01*
X004643Y010970D01*
X006470Y010970D01*
X006470Y009584D01*
X005903Y009584D01*
X005903Y009599D02*
X006470Y009599D01*
X006470Y009661D02*
X005903Y009661D01*
X005903Y009722D02*
X006470Y009722D01*
X006470Y009784D02*
X005903Y009784D01*
X005903Y009845D02*
X006470Y009845D01*
X006470Y009907D02*
X005903Y009907D01*
X005903Y009968D02*
X006470Y009968D01*
X006470Y010030D02*
X005903Y010030D01*
X005903Y010091D02*
X006470Y010091D01*
X006470Y010153D02*
X005903Y010153D01*
X005903Y010214D02*
X006470Y010214D01*
X006470Y010276D02*
X005903Y010276D01*
X005903Y010337D02*
X006470Y010337D01*
X006470Y010399D02*
X005903Y010399D01*
X006470Y010460D02*
X004643Y010460D01*
X004643Y010522D02*
X006470Y010522D01*
X006470Y010583D02*
X004643Y010583D01*
X004643Y010645D02*
X006470Y010645D01*
X006470Y010706D02*
X004643Y010706D01*
X004643Y010768D02*
X006470Y010768D01*
X006470Y010829D02*
X004643Y010829D01*
X004643Y010891D02*
X006470Y010891D01*
X006470Y010952D02*
X004643Y010952D01*
X004793Y011387D02*
X004580Y011600D01*
X004793Y011387D02*
X005474Y011387D01*
X006655Y011254D02*
X006655Y011647D01*
X007104Y010716D02*
X007104Y009876D01*
X007434Y009546D01*
X007446Y009523D01*
X006878Y010576D02*
X007104Y010716D01*
X008348Y011822D02*
X008344Y011826D01*
X008348Y011822D02*
X008864Y011822D01*
X008710Y011352D02*
X008777Y011285D01*
X009872Y011285D01*
X010041Y011116D01*
X010041Y011049D01*
X010553Y011049D02*
X010553Y011399D01*
X010403Y011549D01*
X010006Y011549D01*
X010403Y012061D02*
X010403Y012454D01*
X010376Y012482D01*
X010403Y012061D02*
X010908Y012061D01*
X010971Y012124D01*
X011013Y012166D01*
X008807Y012515D02*
X008344Y012515D01*
X007952Y012515D01*
X007939Y012502D01*
X013210Y009080D02*
X013210Y008738D01*
X013202Y008730D01*
X015515Y004188D02*
X017411Y004188D01*
X017411Y004126D02*
X015515Y004126D01*
X015515Y004065D02*
X017411Y004065D01*
X017411Y004003D02*
X015515Y004003D01*
X015515Y003942D02*
X017411Y003942D01*
X017620Y003942D02*
X018628Y003942D01*
X018628Y004003D02*
X017620Y004003D01*
X017620Y004065D02*
X018628Y004065D01*
X018628Y004126D02*
X017620Y004126D01*
X017620Y004167D02*
X018628Y004167D01*
X018628Y002907D01*
X017620Y002907D01*
X017620Y004167D01*
X017620Y003880D02*
X018628Y003880D01*
X018628Y003819D02*
X017620Y003819D01*
X017620Y003757D02*
X018628Y003757D01*
X018628Y003696D02*
X017620Y003696D01*
X017620Y003634D02*
X018628Y003634D01*
X018628Y003573D02*
X017620Y003573D01*
X017620Y003512D02*
X018628Y003512D01*
X018628Y003450D02*
X017620Y003450D01*
X017620Y003389D02*
X018628Y003389D01*
X018628Y003327D02*
X017620Y003327D01*
X017620Y003266D02*
X018628Y003266D01*
X018628Y003204D02*
X017620Y003204D01*
X017620Y003143D02*
X018628Y003143D01*
X018628Y003081D02*
X017620Y003081D01*
X017620Y003020D02*
X018628Y003020D01*
X018628Y002958D02*
X017620Y002958D01*
X017411Y001544D02*
X012662Y001544D01*
X012643Y001482D02*
X017411Y001482D01*
X017411Y001421D02*
X012643Y001421D01*
X012643Y001359D02*
X017411Y001359D01*
X017411Y001298D02*
X012643Y001298D01*
X012643Y001236D02*
X017411Y001236D01*
X017411Y001175D02*
X012643Y001175D01*
X012643Y001113D02*
X017411Y001113D01*
X017411Y001052D02*
X012648Y001052D01*
X012668Y000990D02*
X017411Y000990D01*
X017411Y000929D02*
X012668Y000929D01*
X012666Y000867D02*
X017411Y000867D01*
X017411Y000806D02*
X012643Y000806D01*
X012643Y000744D02*
X017411Y000744D01*
X017411Y000683D02*
X012643Y000683D01*
X012643Y000621D02*
X017411Y000621D01*
X017411Y000560D02*
X012643Y000560D01*
X012643Y000498D02*
X017411Y000498D01*
X006478Y004856D02*
X006407Y004856D01*
D38*
X006183Y004206D03*
X005946Y004206D03*
X005710Y004206D03*
X005474Y004206D03*
X005238Y004206D03*
X005002Y004206D03*
X004765Y004206D03*
X004765Y003970D03*
X004765Y003734D03*
X005002Y003734D03*
X005238Y003734D03*
X005474Y003734D03*
X005474Y003970D03*
X005238Y003970D03*
X005002Y003970D03*
X005002Y003498D03*
X005238Y003498D03*
X005474Y003498D03*
X005710Y003498D03*
X005946Y003498D03*
X005946Y003261D03*
X005710Y003261D03*
X005474Y003261D03*
X005238Y003261D03*
X005002Y003261D03*
X004765Y003261D03*
X004765Y003498D03*
X004765Y003025D03*
X005002Y003025D03*
X005238Y003025D03*
X005474Y003025D03*
X005710Y003025D03*
X005946Y003025D03*
X006183Y003025D03*
X006183Y003261D03*
X006183Y003498D03*
X006183Y003734D03*
X006183Y003970D03*
X005946Y003970D03*
X005710Y003970D03*
X005710Y003734D03*
X005946Y003734D03*
X006895Y003380D03*
X007131Y003380D03*
X007131Y003143D03*
X006895Y003143D03*
X006895Y002907D03*
X006895Y002671D03*
X007131Y002671D03*
X007131Y002907D03*
X007368Y002907D03*
X007604Y002907D03*
X007604Y002671D03*
X007840Y002671D03*
X007840Y002907D03*
X008076Y002907D03*
X008076Y002671D03*
X008313Y002671D03*
X008313Y002907D03*
X008313Y003143D03*
X008313Y003380D03*
X008076Y003380D03*
X007840Y003380D03*
X007604Y003380D03*
X007368Y003380D03*
X007368Y003143D03*
X007604Y003143D03*
X007840Y003143D03*
X008076Y003143D03*
X007368Y002671D03*
X007368Y002435D03*
X007604Y002435D03*
X007840Y002435D03*
X008076Y002435D03*
X008076Y002198D03*
X007840Y002198D03*
X007604Y002198D03*
X007368Y002198D03*
X007131Y002198D03*
X006895Y002198D03*
X006895Y002435D03*
X007131Y002435D03*
X008313Y002435D03*
X008313Y002198D03*
X009135Y002139D03*
X009372Y002139D03*
X009608Y002139D03*
X009844Y002139D03*
X010080Y002139D03*
X010317Y002139D03*
X010553Y002139D03*
X010553Y002376D03*
X010553Y002612D03*
X010317Y002612D03*
X010317Y002376D03*
X010080Y002376D03*
X010080Y002612D03*
X009844Y002612D03*
X009608Y002612D03*
X009372Y002612D03*
X009372Y002376D03*
X009608Y002376D03*
X009844Y002376D03*
X009844Y002848D03*
X009608Y002848D03*
X009608Y003084D03*
X009844Y003084D03*
X010080Y003084D03*
X010080Y002848D03*
X010317Y002848D03*
X010553Y002848D03*
X010553Y003084D03*
X010317Y003084D03*
X010317Y003320D03*
X010553Y003320D03*
X010080Y003320D03*
X009844Y003320D03*
X009608Y003320D03*
X009372Y003320D03*
X009135Y003320D03*
X009135Y003084D03*
X009135Y002848D03*
X009372Y002848D03*
X009372Y003084D03*
X009135Y002612D03*
X009135Y002376D03*
X011261Y002257D03*
X011261Y002021D03*
X011498Y002021D03*
X011734Y002021D03*
X011970Y002021D03*
X012206Y002021D03*
X012206Y002257D03*
X011970Y002257D03*
X011734Y002257D03*
X011498Y002257D03*
X011561Y002848D03*
X011797Y002848D03*
X012033Y002848D03*
X012033Y003084D03*
X011797Y003084D03*
X011561Y003084D03*
X011324Y003084D03*
X011324Y002848D03*
X011324Y003320D03*
X011561Y003320D03*
X011797Y003320D03*
X012033Y003320D03*
X012269Y003320D03*
X012506Y003320D03*
X012742Y003320D03*
X012742Y003557D03*
X012506Y003557D03*
X012269Y003557D03*
X012033Y003557D03*
X011797Y003557D03*
X011561Y003557D03*
X011324Y003557D03*
X011324Y003793D03*
X011324Y004029D03*
X011561Y004029D03*
X011797Y004029D03*
X012033Y004029D03*
X012033Y003793D03*
X011797Y003793D03*
X011561Y003793D03*
X012269Y003793D03*
X012269Y004029D03*
X012506Y004029D03*
X012742Y004029D03*
X012742Y003793D03*
X012506Y003793D03*
X013506Y003852D03*
X013742Y003852D03*
X013978Y003852D03*
X014214Y003852D03*
X014214Y003616D03*
X013978Y003616D03*
X013742Y003616D03*
X013506Y003616D03*
X013506Y003380D03*
X013742Y003380D03*
X013978Y003380D03*
X014214Y003380D03*
X014450Y003380D03*
X014687Y003380D03*
X014923Y003380D03*
X014923Y003143D03*
X014687Y003143D03*
X014450Y003143D03*
X014214Y003143D03*
X013978Y003143D03*
X013742Y003143D03*
X013506Y003143D03*
X013506Y002907D03*
X013742Y002907D03*
X013978Y002907D03*
X013978Y002671D03*
X014214Y002671D03*
X014214Y002907D03*
X014450Y002907D03*
X014450Y002671D03*
X014687Y002671D03*
X014923Y002671D03*
X014923Y002907D03*
X014687Y002907D03*
X013742Y002671D03*
X013506Y002671D03*
X012742Y002848D03*
X012742Y003084D03*
X012506Y003084D03*
X012506Y002848D03*
X012269Y002848D03*
X012269Y003084D03*
X013569Y002080D03*
X013805Y002080D03*
X013805Y001844D03*
X013569Y001844D03*
X014041Y001844D03*
X014277Y001844D03*
X014513Y001844D03*
X014513Y002080D03*
X014277Y002080D03*
X014041Y002080D03*
X015754Y002966D03*
X015990Y002966D03*
X016226Y002966D03*
X016462Y002966D03*
X016462Y003202D03*
X016226Y003202D03*
X015990Y003202D03*
X015754Y003202D03*
X015754Y003439D03*
X015990Y003439D03*
X015990Y003675D03*
X016226Y003675D03*
X016462Y003675D03*
X016462Y003439D03*
X016226Y003439D03*
X016698Y003439D03*
X016698Y003675D03*
X016935Y003675D03*
X017171Y003675D03*
X017171Y003439D03*
X016935Y003439D03*
X016935Y003202D03*
X016935Y002966D03*
X017171Y002966D03*
X017171Y003202D03*
X016698Y003202D03*
X016698Y002966D03*
X015754Y003675D03*
X015754Y003911D03*
X015990Y003911D03*
X016226Y003911D03*
X016462Y003911D03*
X016698Y003911D03*
X016935Y003911D03*
X017171Y003911D03*
X016911Y004580D03*
X016675Y004580D03*
X016439Y004580D03*
X016202Y004580D03*
X016202Y004817D03*
X016202Y005053D03*
X016439Y005053D03*
X016675Y005053D03*
X016911Y005053D03*
X017147Y005053D03*
X017147Y004817D03*
X016911Y004817D03*
X016675Y004817D03*
X016439Y004817D03*
X016439Y005289D03*
X016675Y005289D03*
X016911Y005289D03*
X017147Y005289D03*
X016202Y005289D03*
X014970Y005584D03*
X014616Y005584D03*
X014261Y005584D03*
X013907Y005584D03*
X013553Y005584D03*
X013553Y006175D03*
X013907Y006175D03*
X014261Y006175D03*
X014616Y006175D03*
X014970Y006175D03*
X015037Y007128D03*
X015037Y007506D03*
X014344Y007506D03*
X014029Y007506D03*
X013714Y007506D03*
X013399Y007506D03*
X014281Y008135D03*
X015324Y009167D03*
X015982Y009545D03*
X016506Y009639D03*
X016958Y009159D03*
X016210Y009108D03*
X015415Y009962D03*
X015982Y010151D03*
X016297Y010655D03*
X015698Y010860D03*
X015974Y011116D03*
X016383Y011588D03*
X017667Y010931D03*
X018754Y011096D03*
X019383Y010907D03*
X018439Y009962D03*
X016647Y007781D03*
X018880Y007317D03*
X018880Y006246D03*
X014923Y003852D03*
X014923Y003616D03*
X014687Y003616D03*
X014687Y003852D03*
X014450Y003852D03*
X014450Y003616D03*
X012608Y005584D03*
X012254Y005584D03*
X011899Y005584D03*
X011545Y005584D03*
X011191Y005584D03*
X010545Y005643D03*
X010545Y005880D03*
X010309Y005880D03*
X010072Y005880D03*
X009836Y005880D03*
X009836Y005643D03*
X009836Y006116D03*
X010072Y006116D03*
X010309Y006116D03*
X010545Y006116D03*
X010246Y006561D03*
X010006Y006773D03*
X008872Y006679D03*
X008427Y006561D03*
X008411Y006116D03*
X008175Y006116D03*
X007939Y006116D03*
X007939Y005880D03*
X008175Y005880D03*
X008411Y005880D03*
X008647Y005880D03*
X008647Y005643D03*
X008647Y006116D03*
X007939Y005643D03*
X007954Y004679D03*
X007718Y004679D03*
X007718Y004443D03*
X007954Y004443D03*
X008191Y004443D03*
X008427Y004443D03*
X008663Y004443D03*
X008663Y004679D03*
X008427Y004679D03*
X008191Y004679D03*
X009726Y004679D03*
X009962Y004679D03*
X010198Y004679D03*
X010435Y004679D03*
X010671Y004679D03*
X010671Y004443D03*
X010435Y004443D03*
X010198Y004443D03*
X009962Y004443D03*
X009726Y004443D03*
X011191Y006175D03*
X011545Y006175D03*
X011899Y006175D03*
X012254Y006175D03*
X012608Y006175D03*
X009230Y008163D03*
X009820Y008754D03*
X010517Y008939D03*
X011423Y009084D03*
X011994Y009061D03*
X012431Y009344D03*
X013021Y009462D03*
X013025Y010309D03*
X013494Y010643D03*
X013198Y010820D03*
X012903Y010998D03*
X014198Y011714D03*
X014439Y012002D03*
X014675Y012238D03*
X014911Y012537D03*
X015147Y012773D03*
X015856Y012651D03*
X016269Y012651D03*
X017053Y012734D03*
X017565Y012954D03*
X017954Y013135D03*
X018502Y012293D03*
X018313Y014624D03*
X013494Y012828D03*
X013096Y012824D03*
X010907Y011588D03*
X010006Y011549D03*
X010376Y012482D03*
X008710Y011352D03*
X008403Y010939D03*
X008108Y010820D03*
X007891Y010584D03*
X007576Y010643D03*
X007340Y010407D03*
X007399Y010112D03*
X008049Y009344D03*
X008580Y009935D03*
X009171Y009344D03*
X008639Y008754D03*
X008049Y008163D03*
X008639Y007572D03*
X007226Y007254D03*
X006399Y006175D03*
X006045Y006175D03*
X005691Y006175D03*
X005336Y006175D03*
X004982Y006175D03*
X004628Y006175D03*
X004273Y006175D03*
X003895Y006175D03*
X003517Y006175D03*
X003517Y005584D03*
X003895Y005584D03*
X004273Y005584D03*
X004628Y005584D03*
X004982Y005584D03*
X005336Y005584D03*
X005691Y005584D03*
X006045Y005584D03*
X006399Y005584D03*
X004450Y007076D03*
X004454Y007506D03*
X006470Y008513D03*
X007458Y008754D03*
X006513Y009265D03*
X008072Y011317D03*
X007265Y011927D03*
X007939Y012502D03*
X009596Y010525D03*
X009895Y010415D03*
X010187Y010289D03*
X010246Y009931D03*
X010655Y010061D03*
X011297Y009915D03*
X004580Y011600D03*
X004529Y012395D03*
X005273Y014561D03*
X017757Y003285D03*
X017757Y003033D03*
X018513Y003033D03*
X018513Y003285D03*
X005769Y002439D03*
X005533Y002439D03*
X005297Y002439D03*
X005061Y002439D03*
X004824Y002439D03*
X005297Y002202D03*
X005533Y002202D03*
X005769Y002202D03*
D39*
X006407Y004856D02*
X006777Y005226D01*
X006777Y006631D01*
X006596Y006631D02*
X006604Y006757D01*
X006470Y008513D02*
X006470Y009222D01*
X006513Y009265D01*
X005840Y009265D01*
X005594Y009191D01*
X004990Y009828D02*
X004905Y009819D01*
X006189Y010576D02*
X006423Y010968D01*
X005494Y011746D02*
X005317Y011726D01*
X005088Y011569D01*
X004570Y012391D02*
X004555Y012441D01*
X006553Y010041D02*
X006486Y009828D01*
X006647Y010045D01*
X006513Y009265D02*
X006861Y009265D01*
X007029Y009106D01*
D40*
X006655Y011254D02*
X006194Y011254D01*
X006194Y011387D01*
X005474Y011387D01*
X005474Y011569D01*
X006194Y011899D02*
X006194Y012041D01*
X006655Y012041D01*
X007226Y012041D01*
X007226Y011647D01*
X007797Y011254D02*
X008072Y011254D01*
X008072Y011317D01*
X008344Y011588D01*
X008344Y011826D01*
X003698Y010655D02*
X001431Y010655D01*
X001431Y007764D01*
X002364Y007764D01*
X002380Y007757D01*
X002565Y007757D01*
X002565Y007573D01*
X002571Y007557D01*
X002571Y005813D01*
X003988Y005422D01*
X006436Y005422D01*
X006533Y005324D01*
X006533Y006246D01*
X003698Y006309D01*
X003698Y010655D01*
X003698Y010643D02*
X001431Y010643D01*
X001431Y010485D02*
X003698Y010485D01*
X003698Y010326D02*
X001431Y010326D01*
X001431Y010168D02*
X003698Y010168D01*
X003698Y010009D02*
X001431Y010009D01*
X001431Y009850D02*
X003698Y009850D01*
X003698Y009692D02*
X001431Y009692D01*
X001431Y009533D02*
X003698Y009533D01*
X003698Y009375D02*
X001431Y009375D01*
X001431Y009216D02*
X003698Y009216D01*
X003698Y009058D02*
X001431Y009058D01*
X001431Y008899D02*
X003698Y008899D01*
X003698Y008741D02*
X001431Y008741D01*
X001431Y008582D02*
X003698Y008582D01*
X003698Y008424D02*
X001431Y008424D01*
X001431Y008265D02*
X003698Y008265D01*
X003698Y008107D02*
X001431Y008107D01*
X001431Y007948D02*
X003698Y007948D01*
X003698Y007790D02*
X001431Y007790D01*
X001431Y007506D02*
X001514Y007506D01*
X001544Y007493D01*
X001699Y007493D01*
X001729Y007506D01*
X002014Y007506D01*
X002044Y007493D01*
X002199Y007493D01*
X002229Y007506D01*
X002313Y007506D01*
X002313Y005616D01*
X003372Y005324D01*
X003458Y005288D01*
X003502Y005288D01*
X004139Y005112D01*
X004139Y003222D01*
X001431Y004671D01*
X001431Y007506D01*
X001431Y007473D02*
X002313Y007473D01*
X002313Y007314D02*
X001431Y007314D01*
X001431Y007156D02*
X002313Y007156D01*
X002313Y006997D02*
X001431Y006997D01*
X001431Y006839D02*
X002313Y006839D01*
X002313Y006680D02*
X001431Y006680D01*
X001431Y006522D02*
X002313Y006522D01*
X002313Y006363D02*
X001431Y006363D01*
X001431Y006205D02*
X002313Y006205D01*
X002571Y006205D02*
X006533Y006205D01*
X006533Y006046D02*
X002571Y006046D01*
X002571Y005888D02*
X006533Y005888D01*
X006533Y005729D02*
X002872Y005729D01*
X003049Y005412D02*
X001431Y005412D01*
X001431Y005254D02*
X003624Y005254D01*
X003447Y005571D02*
X006533Y005571D01*
X006533Y005412D02*
X006445Y005412D01*
X004139Y005095D02*
X001431Y005095D01*
X001431Y004937D02*
X004139Y004937D01*
X004139Y004778D02*
X001431Y004778D01*
X001526Y004620D02*
X004139Y004620D01*
X004139Y004461D02*
X001822Y004461D01*
X002118Y004303D02*
X004139Y004303D01*
X004139Y004144D02*
X002415Y004144D01*
X002711Y003986D02*
X004139Y003986D01*
X004139Y003827D02*
X003007Y003827D01*
X003304Y003669D02*
X004139Y003669D01*
X004139Y003510D02*
X003600Y003510D01*
X003896Y003352D02*
X004139Y003352D01*
X002475Y005571D02*
X001431Y005571D01*
X001431Y005729D02*
X002313Y005729D01*
X002313Y005888D02*
X001431Y005888D01*
X001431Y006046D02*
X002313Y006046D01*
X002571Y006363D02*
X003698Y006363D01*
X003698Y006522D02*
X002571Y006522D01*
X002571Y006680D02*
X003698Y006680D01*
X003698Y006839D02*
X002571Y006839D01*
X002571Y006997D02*
X003698Y006997D01*
X003698Y007156D02*
X002571Y007156D01*
X002571Y007314D02*
X003698Y007314D01*
X003698Y007473D02*
X002571Y007473D01*
X002565Y007631D02*
X003698Y007631D01*
X016202Y005289D02*
X016222Y005387D01*
D41*
X007587Y007882D02*
X007289Y007584D01*
X007289Y007254D01*
X006667Y006631D01*
X006661Y006689D02*
X006671Y006815D01*
X006661Y006689D02*
X007226Y007254D01*
X005801Y008450D02*
X005793Y009218D01*
X005840Y009265D01*
X004905Y009191D02*
X004691Y008775D01*
X004620Y008450D01*
X004604Y009836D02*
X004391Y009836D01*
X004202Y010025D01*
X004202Y012167D01*
X004431Y012395D01*
X004529Y012395D01*
X007163Y011651D02*
X007265Y011927D01*
X004990Y009828D02*
X004604Y009836D01*
D42*
X006777Y006750D02*
X006777Y006631D01*
D43*
X005474Y011569D02*
X005317Y011726D01*
D44*
X005259Y011783D01*
X005259Y012391D01*
X005273Y012405D01*
X005273Y014561D01*
X018313Y014624D02*
X019006Y014183D01*
X019006Y009773D01*
X019397Y009381D01*
X019732Y009381D01*
X020232Y009381D01*
D45*
X020179Y012356D03*
X020179Y002907D03*
X002462Y002907D03*
X002462Y012356D03*
M02*
