%
M48
M72
T01C0.0118
T02C0.0260
T03C0.0280
T04C0.1181
%
T01
X4824Y2439
X5061Y2439
X5297Y2439
X5533Y2439
X5769Y2439
X5769Y2202
X5533Y2202
X5297Y2202
X5238Y3025
X5474Y3025
X5710Y3025
X5946Y3025
X6183Y3025
X6183Y3261
X5946Y3261
X5710Y3261
X5474Y3261
X5238Y3261
X5002Y3261
X5002Y3498
X5238Y3498
X5474Y3498
X5710Y3498
X5946Y3498
X6183Y3498
X6183Y3734
X6183Y3970
X5946Y3970
X5710Y3970
X5474Y3970
X5474Y3734
X5238Y3734
X5238Y3970
X5002Y3970
X5002Y3734
X4765Y3734
X4765Y3970
X4765Y4206
X5002Y4206
X5238Y4206
X5474Y4206
X5710Y4206
X5946Y4206
X6183Y4206
X5946Y3734
X5710Y3734
X4765Y3498
X4765Y3261
X4765Y3025
X5002Y3025
X6895Y2907
X6895Y2671
X7131Y2671
X7131Y2907
X7368Y2907
X7604Y2907
X7604Y2671
X7840Y2671
X7840Y2907
X8076Y2907
X8076Y2671
X8313Y2671
X8313Y2907
X8313Y3143
X8313Y3380
X8076Y3380
X7840Y3380
X7604Y3380
X7368Y3380
X7131Y3380
X6895Y3380
X6895Y3143
X7131Y3143
X7368Y3143
X7604Y3143
X7840Y3143
X8076Y3143
X7368Y2671
X7368Y2435
X7604Y2435
X7840Y2435
X8076Y2435
X8076Y2198
X7840Y2198
X7604Y2198
X7368Y2198
X7131Y2198
X6895Y2198
X6895Y2435
X7131Y2435
X8313Y2435
X8313Y2198
X9135Y2139
X9372Y2139
X9608Y2139
X9844Y2139
X10080Y2139
X10317Y2139
X10553Y2139
X10553Y2376
X10553Y2612
X10317Y2612
X10317Y2376
X10080Y2376
X10080Y2612
X9844Y2612
X9608Y2612
X9372Y2612
X9372Y2376
X9608Y2376
X9844Y2376
X9844Y2848
X9608Y2848
X9608Y3084
X9844Y3084
X10080Y3084
X10080Y2848
X10317Y2848
X10553Y2848
X10553Y3084
X10317Y3084
X10317Y3320
X10553Y3320
X10080Y3320
X9844Y3320
X9608Y3320
X9372Y3320
X9135Y3320
X9135Y3084
X9135Y2848
X9372Y2848
X9372Y3084
X9135Y2612
X9135Y2376
X11261Y2257
X11261Y2021
X11498Y2021
X11734Y2021
X11970Y2021
X12206Y2021
X12206Y2257
X11970Y2257
X11734Y2257
X11498Y2257
X11561Y2848
X11797Y2848
X12033Y2848
X12033Y3084
X11797Y3084
X11561Y3084
X11324Y3084
X11324Y2848
X11324Y3320
X11561Y3320
X11797Y3320
X12033Y3320
X12269Y3320
X12506Y3320
X12742Y3320
X12742Y3557
X12506Y3557
X12269Y3557
X12033Y3557
X11797Y3557
X11561Y3557
X11324Y3557
X11324Y3793
X11324Y4029
X11561Y4029
X11797Y4029
X12033Y4029
X12033Y3793
X11797Y3793
X11561Y3793
X12269Y3793
X12269Y4029
X12506Y4029
X12742Y4029
X12742Y3793
X12506Y3793
X13506Y3852
X13742Y3852
X13978Y3852
X14214Y3852
X14214Y3616
X13978Y3616
X13742Y3616
X13506Y3616
X13506Y3380
X13742Y3380
X13978Y3380
X14214Y3380
X14450Y3380
X14687Y3380
X14923Y3380
X14923Y3143
X14687Y3143
X14450Y3143
X14214Y3143
X13978Y3143
X13742Y3143
X13506Y3143
X13506Y2907
X13742Y2907
X13978Y2907
X13978Y2671
X14214Y2671
X14214Y2907
X14450Y2907
X14450Y2671
X14687Y2671
X14923Y2671
X14923Y2907
X14687Y2907
X13742Y2671
X13506Y2671
X12742Y2848
X12742Y3084
X12506Y3084
X12506Y2848
X12269Y2848
X12269Y3084
X13569Y2080
X13805Y2080
X13805Y1844
X13569Y1844
X14041Y1844
X14277Y1844
X14513Y1844
X14513Y2080
X14277Y2080
X14041Y2080
X15754Y2966
X15990Y2966
X16226Y2966
X16462Y2966
X16462Y3202
X16226Y3202
X15990Y3202
X15754Y3202
X15754Y3439
X15990Y3439
X15990Y3675
X16226Y3675
X16462Y3675
X16462Y3439
X16226Y3439
X16698Y3439
X16698Y3675
X16935Y3675
X17171Y3675
X17171Y3439
X16935Y3439
X16935Y3202
X16935Y2966
X17171Y2966
X17171Y3202
X16698Y3202
X16698Y2966
X15754Y3675
X15754Y3911
X15990Y3911
X16226Y3911
X16462Y3911
X16698Y3911
X16935Y3911
X17171Y3911
X16911Y4580
X16675Y4580
X16439Y4580
X16202Y4580
X16202Y4817
X16202Y5053
X16439Y5053
X16675Y5053
X16911Y5053
X17147Y5053
X17147Y4817
X16911Y4817
X16675Y4817
X16439Y4817
X16439Y5289
X16675Y5289
X16911Y5289
X17147Y5289
X16202Y5289
X14970Y5584
X14616Y5584
X14261Y5584
X13907Y5584
X13553Y5584
X13553Y6175
X13907Y6175
X14261Y6175
X14616Y6175
X14970Y6175
X15037Y7128
X15037Y7506
X14344Y7506
X14029Y7506
X13714Y7506
X13399Y7506
X14281Y8135
X15324Y9167
X15982Y9545
X16506Y9639
X16958Y9159
X16210Y9108
X15415Y9962
X15982Y10151
X16297Y10655
X15698Y10860
X15974Y11116
X16383Y11588
X17667Y10931
X18754Y11096
X19383Y10907
X18439Y9962
X16647Y7781
X18880Y7317
X18880Y6246
X14923Y3852
X14923Y3616
X14687Y3616
X14687Y3852
X14450Y3852
X14450Y3616
X12608Y5584
X12254Y5584
X11899Y5584
X11545Y5584
X11191Y5584
X10545Y5643
X10545Y5880
X10309Y5880
X10072Y5880
X9836Y5880
X9836Y5643
X9836Y6116
X10072Y6116
X10309Y6116
X10545Y6116
X10246Y6561
X10006Y6773
X8872Y6679
X8427Y6561
X8411Y6116
X8175Y6116
X7939Y6116
X7939Y5880
X8175Y5880
X8411Y5880
X8647Y5880
X8647Y5643
X8647Y6116
X7939Y5643
X7954Y4679
X7718Y4679
X7718Y4443
X7954Y4443
X8191Y4443
X8427Y4443
X8663Y4443
X8663Y4679
X8427Y4679
X8191Y4679
X9726Y4679
X9962Y4679
X10198Y4679
X10435Y4679
X10671Y4679
X10671Y4443
X10435Y4443
X10198Y4443
X9962Y4443
X9726Y4443
X11191Y6175
X11545Y6175
X11899Y6175
X12254Y6175
X12608Y6175
X9230Y8163
X9820Y8754
X10517Y8939
X11423Y9084
X11994Y9061
X12431Y9344
X13021Y9462
X13025Y10309
X13494Y10643
X13198Y10820
X12903Y10998
X14198Y11714
X14439Y12002
X14675Y12238
X14911Y12537
X15147Y12773
X15856Y12651
X16269Y12651
X17053Y12734
X17565Y12954
X17954Y13135
X18502Y12293
X18313Y14624
X13494Y12828
X13096Y12824
X10907Y11588
X10006Y11549
X10376Y12482
X8710Y11352
X8403Y10939
X8108Y10820
X7891Y10584
X7576Y10643
X7340Y10407
X7399Y10112
X8049Y9344
X8580Y9935
X9171Y9344
X8639Y8754
X8049Y8163
X8639Y7572
X7226Y7254
X6399Y6175
X6045Y6175
X5691Y6175
X5336Y6175
X4982Y6175
X4628Y6175
X4273Y6175
X3895Y6175
X3517Y6175
X3517Y5584
X3895Y5584
X4273Y5584
X4628Y5584
X4982Y5584
X5336Y5584
X5691Y5584
X6045Y5584
X6399Y5584
X4450Y7076
X4454Y7506
X6470Y8513
X7458Y8754
X6513Y9265
X8072Y11317
X7265Y11927
X7939Y12502
X9596Y10525
X9895Y10415
X10187Y10289
X10246Y9931
X10655Y10061
X11297Y9915
X4580Y11600
X4529Y12395
X5273Y14561
X17757Y3285
X17757Y3033
X18513Y3033
X18513Y3285
T02
X16336Y939
X15836Y939
X15336Y939
X14836Y939
X14336Y939
X13836Y939
X13336Y939
X12836Y939
X12336Y939
X11836Y939
X11336Y939
X10836Y939
X10336Y939
X9836Y939
X9336Y939
X8836Y939
X8336Y939
X7836Y939
X7336Y939
X6836Y939
X6336Y939
X5836Y939
X5336Y939
X4836Y939
X4336Y939
T03
X2122Y4881
X1622Y4881
X1622Y5381
X2122Y5381
X2122Y5881
X1622Y5881
X1622Y6381
X2122Y6381
X2122Y6881
X1622Y6881
X1622Y7381
X2122Y7381
X2122Y7881
X1622Y7881
X1622Y8381
X2122Y8381
X2122Y8881
X1622Y8881
X1622Y9381
X2122Y9381
X2122Y9881
X1622Y9881
X1622Y10381
X2122Y10381
X19732Y10381
X20232Y10381
X20232Y9881
X19732Y9881
X19732Y9381
X20232Y9381
X20232Y8881
X19732Y8881
X19732Y8381
X20232Y8381
X20232Y7881
X19732Y7881
X19732Y7381
X20232Y7381
X20232Y6881
X19732Y6881
X19732Y6381
X20232Y6381
X20232Y5881
X19732Y5881
X19732Y5381
X20232Y5381
X20232Y4881
X19732Y4881
T04
X2462Y2907
X2462Y12356
X20179Y12356
X20179Y2907
M30
