G75*
%MOIN*%
%OFA0B0*%
%FSLAX24Y24*%
%IPPOS*%
%LPD*%
%AMOC8*
5,1,8,0,0,1.08239X$1,22.5*
%
%ADD10C,0.0390*%
%ADD11C,0.0420*%
%ADD12C,0.0236*%
%ADD13C,0.0100*%
%ADD14C,0.0063*%
%ADD15C,0.0240*%
%ADD16C,0.1581*%
D10*
X004336Y000939D03*
X004836Y000939D03*
X005336Y000939D03*
X005836Y000939D03*
X006336Y000939D03*
X006836Y000939D03*
X007336Y000939D03*
X007836Y000939D03*
X008336Y000939D03*
X008836Y000939D03*
X009336Y000939D03*
X009836Y000939D03*
X010336Y000939D03*
X010836Y000939D03*
X011336Y000939D03*
X011836Y000939D03*
X012336Y000939D03*
X012836Y000939D03*
X013336Y000939D03*
X013836Y000939D03*
X014336Y000939D03*
X014836Y000939D03*
X015336Y000939D03*
X015836Y000939D03*
X016336Y000939D03*
D11*
X019732Y004881D03*
X020232Y004881D03*
X020232Y005381D03*
X019732Y005381D03*
X019732Y005881D03*
X020232Y005881D03*
X020232Y006381D03*
X019732Y006381D03*
X019732Y006881D03*
X020232Y006881D03*
X020232Y007381D03*
X019732Y007381D03*
X019732Y007881D03*
X020232Y007881D03*
X020232Y008381D03*
X019732Y008381D03*
X019732Y008881D03*
X020232Y008881D03*
X020232Y009381D03*
X019732Y009381D03*
X019732Y009881D03*
X020232Y009881D03*
X020232Y010381D03*
X019732Y010381D03*
X002122Y010381D03*
X001622Y010381D03*
X001622Y009881D03*
X002122Y009881D03*
X002122Y009381D03*
X001622Y009381D03*
X001622Y008881D03*
X002122Y008881D03*
X002122Y008381D03*
X001622Y008381D03*
X001622Y007881D03*
X002122Y007881D03*
X002122Y007381D03*
X001622Y007381D03*
X001622Y006881D03*
X002122Y006881D03*
X002122Y006381D03*
X001622Y006381D03*
X001622Y005881D03*
X002122Y005881D03*
X002122Y005381D03*
X001622Y005381D03*
X001622Y004881D03*
X002122Y004881D03*
D12*
X003517Y005584D03*
X003895Y005584D03*
X004273Y005584D03*
X004628Y005584D03*
X004982Y005584D03*
X005336Y005584D03*
X005691Y005584D03*
X006045Y005584D03*
X006399Y005584D03*
X006399Y006175D03*
X006045Y006175D03*
X005691Y006175D03*
X005336Y006175D03*
X004982Y006175D03*
X004628Y006175D03*
X004273Y006175D03*
X003895Y006175D03*
X003517Y006175D03*
X004450Y007076D03*
X004454Y007506D03*
X006470Y008513D03*
X007458Y008754D03*
X008049Y009344D03*
X008580Y009935D03*
X009171Y009344D03*
X008639Y008754D03*
X008049Y008163D03*
X008639Y007572D03*
X009230Y008163D03*
X009820Y008754D03*
X010517Y008939D03*
X011423Y009084D03*
X011994Y009061D03*
X012431Y009344D03*
X013021Y009462D03*
X013025Y010309D03*
X013494Y010643D03*
X013198Y010820D03*
X012903Y010998D03*
X014198Y011714D03*
X014439Y012002D03*
X014675Y012238D03*
X014911Y012537D03*
X015147Y012773D03*
X015856Y012651D03*
X016269Y012651D03*
X017053Y012734D03*
X017565Y012954D03*
X017954Y013135D03*
X018502Y012293D03*
X018754Y011096D03*
X019383Y010907D03*
X018439Y009962D03*
X017667Y010931D03*
X016383Y011588D03*
X015974Y011116D03*
X015698Y010860D03*
X016297Y010655D03*
X015982Y010151D03*
X015415Y009962D03*
X015982Y009545D03*
X016506Y009639D03*
X016958Y009159D03*
X016210Y009108D03*
X015324Y009167D03*
X014281Y008135D03*
X014344Y007506D03*
X014029Y007506D03*
X013714Y007506D03*
X013399Y007506D03*
X015037Y007506D03*
X015037Y007128D03*
X014970Y006175D03*
X014616Y006175D03*
X014261Y006175D03*
X013907Y006175D03*
X013553Y006175D03*
X013553Y005584D03*
X013907Y005584D03*
X014261Y005584D03*
X014616Y005584D03*
X014970Y005584D03*
X016202Y005289D03*
X016439Y005289D03*
X016675Y005289D03*
X016911Y005289D03*
X017147Y005289D03*
X017147Y005053D03*
X016911Y005053D03*
X016675Y005053D03*
X016439Y005053D03*
X016439Y004817D03*
X016675Y004817D03*
X016911Y004817D03*
X017147Y004817D03*
X016911Y004580D03*
X016675Y004580D03*
X016439Y004580D03*
X016202Y004580D03*
X016202Y004817D03*
X016202Y005053D03*
X016226Y003911D03*
X016462Y003911D03*
X016698Y003911D03*
X016935Y003911D03*
X017171Y003911D03*
X017171Y003675D03*
X016935Y003675D03*
X016935Y003439D03*
X017171Y003439D03*
X017171Y003202D03*
X017171Y002966D03*
X016935Y002966D03*
X016935Y003202D03*
X016698Y003202D03*
X016462Y003202D03*
X016462Y002966D03*
X016226Y002966D03*
X015990Y002966D03*
X015990Y003202D03*
X016226Y003202D03*
X016226Y003439D03*
X016226Y003675D03*
X016462Y003675D03*
X016462Y003439D03*
X016698Y003439D03*
X016698Y003675D03*
X015990Y003675D03*
X015990Y003439D03*
X015754Y003439D03*
X015754Y003675D03*
X015754Y003911D03*
X015990Y003911D03*
X015754Y003202D03*
X015754Y002966D03*
X014923Y002907D03*
X014923Y002671D03*
X014687Y002671D03*
X014687Y002907D03*
X014450Y002907D03*
X014214Y002907D03*
X013978Y002907D03*
X013978Y002671D03*
X014214Y002671D03*
X014450Y002671D03*
X014450Y003143D03*
X014214Y003143D03*
X013978Y003143D03*
X013742Y003143D03*
X013506Y003143D03*
X013506Y003380D03*
X013742Y003380D03*
X013978Y003380D03*
X014214Y003380D03*
X014450Y003380D03*
X014687Y003380D03*
X014923Y003380D03*
X014923Y003143D03*
X014687Y003143D03*
X014687Y003616D03*
X014923Y003616D03*
X014923Y003852D03*
X014687Y003852D03*
X014450Y003852D03*
X014214Y003852D03*
X013978Y003852D03*
X013978Y003616D03*
X014214Y003616D03*
X014450Y003616D03*
X013742Y003616D03*
X013742Y003852D03*
X013506Y003852D03*
X013506Y003616D03*
X012742Y003557D03*
X012506Y003557D03*
X012506Y003320D03*
X012742Y003320D03*
X012742Y003084D03*
X012742Y002848D03*
X012506Y002848D03*
X012506Y003084D03*
X012269Y003084D03*
X012033Y003084D03*
X012033Y002848D03*
X011797Y002848D03*
X011797Y003084D03*
X011561Y003084D03*
X011561Y002848D03*
X011324Y002848D03*
X011324Y003084D03*
X011324Y003320D03*
X011561Y003320D03*
X011797Y003320D03*
X012033Y003320D03*
X012269Y003320D03*
X012269Y003557D03*
X012033Y003557D03*
X011797Y003557D03*
X011561Y003557D03*
X011324Y003557D03*
X011324Y003793D03*
X011324Y004029D03*
X011561Y004029D03*
X011797Y004029D03*
X012033Y004029D03*
X012033Y003793D03*
X011797Y003793D03*
X011561Y003793D03*
X012269Y003793D03*
X012269Y004029D03*
X012506Y004029D03*
X012742Y004029D03*
X012742Y003793D03*
X012506Y003793D03*
X012269Y002848D03*
X012206Y002257D03*
X012206Y002021D03*
X011970Y002021D03*
X011734Y002021D03*
X011498Y002021D03*
X011498Y002257D03*
X011734Y002257D03*
X011970Y002257D03*
X011261Y002257D03*
X011261Y002021D03*
X010553Y002139D03*
X010317Y002139D03*
X010080Y002139D03*
X009844Y002139D03*
X009608Y002139D03*
X009372Y002139D03*
X009135Y002139D03*
X009135Y002376D03*
X009135Y002612D03*
X009372Y002612D03*
X009608Y002612D03*
X009844Y002612D03*
X010080Y002612D03*
X010080Y002376D03*
X009844Y002376D03*
X009608Y002376D03*
X009372Y002376D03*
X009372Y002848D03*
X009608Y002848D03*
X009844Y002848D03*
X009844Y003084D03*
X009608Y003084D03*
X009372Y003084D03*
X009135Y003084D03*
X009135Y002848D03*
X009135Y003320D03*
X009372Y003320D03*
X009608Y003320D03*
X009844Y003320D03*
X010080Y003320D03*
X010317Y003320D03*
X010553Y003320D03*
X010553Y003084D03*
X010553Y002848D03*
X010317Y002848D03*
X010317Y003084D03*
X010080Y003084D03*
X010080Y002848D03*
X010317Y002612D03*
X010553Y002612D03*
X010553Y002376D03*
X010317Y002376D03*
X008313Y002435D03*
X008313Y002198D03*
X008076Y002198D03*
X007840Y002198D03*
X007604Y002198D03*
X007368Y002198D03*
X007131Y002198D03*
X006895Y002198D03*
X006895Y002435D03*
X007131Y002435D03*
X007368Y002435D03*
X007604Y002435D03*
X007840Y002435D03*
X008076Y002435D03*
X008076Y002671D03*
X007840Y002671D03*
X007604Y002671D03*
X007604Y002907D03*
X007840Y002907D03*
X008076Y002907D03*
X008313Y002907D03*
X008313Y002671D03*
X008313Y003143D03*
X008313Y003380D03*
X008076Y003380D03*
X007840Y003380D03*
X007604Y003380D03*
X007368Y003380D03*
X007131Y003380D03*
X006895Y003380D03*
X006895Y003143D03*
X007131Y003143D03*
X007368Y003143D03*
X007604Y003143D03*
X007840Y003143D03*
X008076Y003143D03*
X007368Y002907D03*
X007368Y002671D03*
X007131Y002671D03*
X006895Y002671D03*
X006895Y002907D03*
X007131Y002907D03*
X006183Y003025D03*
X005946Y003025D03*
X005710Y003025D03*
X005474Y003025D03*
X005238Y003025D03*
X005002Y003025D03*
X004765Y003025D03*
X004765Y003261D03*
X005002Y003261D03*
X005238Y003261D03*
X005474Y003261D03*
X005710Y003261D03*
X005946Y003261D03*
X005946Y003498D03*
X005710Y003498D03*
X005474Y003498D03*
X005238Y003498D03*
X005002Y003498D03*
X004765Y003498D03*
X004765Y003734D03*
X004765Y003970D03*
X005002Y003970D03*
X005238Y003970D03*
X005474Y003970D03*
X005474Y003734D03*
X005238Y003734D03*
X005002Y003734D03*
X005002Y004206D03*
X005238Y004206D03*
X005474Y004206D03*
X005710Y004206D03*
X005946Y004206D03*
X006183Y004206D03*
X006183Y003970D03*
X006183Y003734D03*
X005946Y003734D03*
X005710Y003734D03*
X005710Y003970D03*
X005946Y003970D03*
X006183Y003498D03*
X006183Y003261D03*
X005769Y002439D03*
X005533Y002439D03*
X005297Y002439D03*
X005061Y002439D03*
X004824Y002439D03*
X005297Y002202D03*
X005533Y002202D03*
X005769Y002202D03*
X004765Y004206D03*
X007718Y004443D03*
X007954Y004443D03*
X008191Y004443D03*
X008427Y004443D03*
X008663Y004443D03*
X008663Y004679D03*
X008427Y004679D03*
X008191Y004679D03*
X007954Y004679D03*
X007718Y004679D03*
X007939Y005643D03*
X007939Y005880D03*
X008175Y005880D03*
X008411Y005880D03*
X008647Y005880D03*
X008647Y005643D03*
X008647Y006116D03*
X008411Y006116D03*
X008175Y006116D03*
X007939Y006116D03*
X008427Y006561D03*
X008872Y006679D03*
X009836Y006116D03*
X010072Y006116D03*
X010309Y006116D03*
X010545Y006116D03*
X010545Y005880D03*
X010309Y005880D03*
X010072Y005880D03*
X009836Y005880D03*
X009836Y005643D03*
X010545Y005643D03*
X011191Y005584D03*
X011545Y005584D03*
X011899Y005584D03*
X012254Y005584D03*
X012608Y005584D03*
X012608Y006175D03*
X012254Y006175D03*
X011899Y006175D03*
X011545Y006175D03*
X011191Y006175D03*
X010246Y006561D03*
X010006Y006773D03*
X009962Y004679D03*
X010198Y004679D03*
X010435Y004679D03*
X010671Y004679D03*
X010671Y004443D03*
X010435Y004443D03*
X010198Y004443D03*
X009962Y004443D03*
X009726Y004443D03*
X009726Y004679D03*
X007226Y007254D03*
X006513Y009265D03*
X007399Y010112D03*
X007340Y010407D03*
X007576Y010643D03*
X007891Y010584D03*
X008108Y010820D03*
X008403Y010939D03*
X008072Y011317D03*
X008710Y011352D03*
X009596Y010525D03*
X009895Y010415D03*
X010187Y010289D03*
X010246Y009931D03*
X010655Y010061D03*
X011297Y009915D03*
X010907Y011588D03*
X010006Y011549D03*
X010376Y012482D03*
X007939Y012502D03*
X007265Y011927D03*
X004580Y011600D03*
X004529Y012395D03*
X005273Y014561D03*
X013096Y012824D03*
X013494Y012828D03*
X018313Y014624D03*
X016647Y007781D03*
X018880Y007317D03*
X018880Y006246D03*
X018513Y003285D03*
X018513Y003033D03*
X017757Y003033D03*
X017757Y003285D03*
X016698Y002966D03*
X014513Y002080D03*
X014277Y002080D03*
X014041Y002080D03*
X014041Y001844D03*
X014277Y001844D03*
X014513Y001844D03*
X013805Y001844D03*
X013569Y001844D03*
X013569Y002080D03*
X013805Y002080D03*
X013742Y002671D03*
X013742Y002907D03*
X013506Y002907D03*
X013506Y002671D03*
D13*
X010912Y004324D02*
X010939Y004389D01*
X010939Y004496D01*
X010912Y004561D01*
X010939Y004625D01*
X010939Y004732D01*
X010898Y004831D01*
X010823Y004906D01*
X010724Y004947D01*
X010618Y004947D01*
X010553Y004920D01*
X010488Y004947D01*
X010381Y004947D01*
X010317Y004920D01*
X010252Y004947D01*
X010145Y004947D01*
X010080Y004920D01*
X010016Y004947D01*
X009909Y004947D01*
X009844Y004920D01*
X009779Y004947D01*
X009673Y004947D01*
X009574Y004906D01*
X009499Y004831D01*
X009458Y004732D01*
X009458Y004625D01*
X009485Y004561D01*
X009458Y004496D01*
X009458Y004389D01*
X009485Y004324D01*
X008904Y004324D01*
X008931Y004389D01*
X008931Y004496D01*
X008904Y004561D01*
X008931Y004625D01*
X008931Y004732D01*
X008890Y004831D01*
X008815Y004906D01*
X008716Y004947D01*
X008610Y004947D01*
X008545Y004920D01*
X008480Y004947D01*
X008373Y004947D01*
X008309Y004920D01*
X008244Y004947D01*
X008137Y004947D01*
X008072Y004920D01*
X008008Y004947D01*
X007901Y004947D01*
X007836Y004920D01*
X007771Y004947D01*
X007665Y004947D01*
X007566Y004906D01*
X007491Y004831D01*
X007450Y004732D01*
X007450Y004625D01*
X007477Y004561D01*
X007450Y004496D01*
X007450Y004389D01*
X007477Y004324D01*
X006424Y004324D01*
X006410Y004358D01*
X006335Y004434D01*
X006236Y004474D01*
X006129Y004474D01*
X006065Y004448D01*
X006000Y004474D01*
X005893Y004474D01*
X005828Y004448D01*
X005764Y004474D01*
X005657Y004474D01*
X005592Y004448D01*
X005527Y004474D01*
X005421Y004474D01*
X005356Y004448D01*
X005291Y004474D01*
X005184Y004474D01*
X005120Y004448D01*
X005055Y004474D01*
X004948Y004474D01*
X004883Y004448D01*
X004819Y004474D01*
X004712Y004474D01*
X004613Y004434D01*
X004538Y004358D01*
X004524Y004324D01*
X004116Y004324D01*
X004116Y006273D01*
X018525Y006273D01*
X018525Y004324D01*
X010912Y004324D01*
X010936Y004381D02*
X018525Y004381D01*
X018525Y004479D02*
X010939Y004479D01*
X010919Y004578D02*
X018525Y004578D01*
X018525Y004676D02*
X010939Y004676D01*
X010921Y004775D02*
X018525Y004775D01*
X018525Y004873D02*
X010855Y004873D01*
X009542Y004873D02*
X008847Y004873D01*
X008913Y004775D02*
X009476Y004775D01*
X009458Y004676D02*
X008931Y004676D01*
X008911Y004578D02*
X009478Y004578D01*
X009458Y004479D02*
X008931Y004479D01*
X008928Y004381D02*
X009461Y004381D01*
X007534Y004873D02*
X004116Y004873D01*
X004116Y004775D02*
X007468Y004775D01*
X007450Y004676D02*
X004116Y004676D01*
X004116Y004578D02*
X007470Y004578D01*
X007450Y004479D02*
X004116Y004479D01*
X004116Y004381D02*
X004561Y004381D01*
X004116Y004972D02*
X018525Y004972D01*
X018525Y005070D02*
X004116Y005070D01*
X004116Y005169D02*
X018525Y005169D01*
X018525Y005267D02*
X004116Y005267D01*
X004116Y005366D02*
X018525Y005366D01*
X018525Y005464D02*
X004116Y005464D01*
X004116Y005563D02*
X018525Y005563D01*
X018525Y005661D02*
X004116Y005661D01*
X004116Y005760D02*
X018525Y005760D01*
X018525Y005858D02*
X004116Y005858D01*
X004116Y005957D02*
X018525Y005957D01*
X018525Y006055D02*
X004116Y006055D01*
X004116Y006154D02*
X018525Y006154D01*
X018525Y006252D02*
X004116Y006252D01*
X006387Y004381D02*
X007453Y004381D01*
D14*
X003907Y002663D02*
X003907Y000482D01*
X003955Y000480D01*
X004009Y000480D01*
X004009Y000480D01*
X004947Y000480D01*
X008494Y000525D01*
X008513Y003545D01*
X006710Y003545D01*
X006710Y002663D01*
X003907Y002663D01*
X003907Y002651D02*
X008508Y002651D01*
X008508Y002712D02*
X006710Y002712D01*
X006710Y002774D02*
X008508Y002774D01*
X008509Y002835D02*
X006710Y002835D01*
X006710Y002897D02*
X008509Y002897D01*
X008510Y002958D02*
X006710Y002958D01*
X006710Y003020D02*
X008510Y003020D01*
X008510Y003081D02*
X006710Y003081D01*
X006710Y003143D02*
X008511Y003143D01*
X008511Y003204D02*
X006710Y003204D01*
X006710Y003266D02*
X008512Y003266D01*
X008512Y003327D02*
X006710Y003327D01*
X006710Y003389D02*
X008512Y003389D01*
X008513Y003450D02*
X006710Y003450D01*
X006710Y003512D02*
X008513Y003512D01*
X008903Y003512D02*
X010809Y003512D01*
X010809Y003545D02*
X010809Y002462D01*
X012524Y002462D01*
X012524Y001037D01*
X012510Y001004D01*
X012510Y000874D01*
X012524Y000840D01*
X012524Y000480D01*
X011727Y000480D01*
X008694Y000529D01*
X008694Y001903D01*
X008903Y001903D01*
X008903Y003545D01*
X010809Y003545D01*
X010809Y003450D02*
X008903Y003450D01*
X008903Y003389D02*
X010809Y003389D01*
X010809Y003327D02*
X008903Y003327D01*
X008903Y003266D02*
X010809Y003266D01*
X010809Y003204D02*
X008903Y003204D01*
X008903Y003143D02*
X010809Y003143D01*
X010809Y003081D02*
X008903Y003081D01*
X008903Y003020D02*
X010809Y003020D01*
X010809Y002958D02*
X008903Y002958D01*
X008903Y002897D02*
X010809Y002897D01*
X010809Y002835D02*
X008903Y002835D01*
X008903Y002774D02*
X010809Y002774D01*
X010809Y002712D02*
X008903Y002712D01*
X008903Y002651D02*
X010809Y002651D01*
X010809Y002589D02*
X008903Y002589D01*
X008903Y002528D02*
X010809Y002528D01*
X010809Y002466D02*
X008903Y002466D01*
X008903Y002405D02*
X012524Y002405D01*
X012524Y002343D02*
X008903Y002343D01*
X008903Y002282D02*
X012524Y002282D01*
X012524Y002220D02*
X008903Y002220D01*
X008903Y002159D02*
X012524Y002159D01*
X012524Y002097D02*
X008903Y002097D01*
X008903Y002036D02*
X012524Y002036D01*
X012524Y001974D02*
X008903Y001974D01*
X008903Y001913D02*
X012524Y001913D01*
X012524Y001851D02*
X008694Y001851D01*
X008694Y001790D02*
X012524Y001790D01*
X012524Y001728D02*
X008694Y001728D01*
X008694Y001667D02*
X012524Y001667D01*
X012524Y001605D02*
X008694Y001605D01*
X008694Y001544D02*
X012524Y001544D01*
X012524Y001482D02*
X008694Y001482D01*
X008694Y001421D02*
X012524Y001421D01*
X012524Y001359D02*
X008694Y001359D01*
X008694Y001298D02*
X012524Y001298D01*
X012524Y001236D02*
X008694Y001236D01*
X008694Y001175D02*
X012524Y001175D01*
X012524Y001113D02*
X008694Y001113D01*
X008694Y001052D02*
X012524Y001052D01*
X012510Y000990D02*
X008694Y000990D01*
X008694Y000929D02*
X012510Y000929D01*
X012512Y000867D02*
X008694Y000867D01*
X008694Y000806D02*
X012524Y000806D01*
X012524Y000744D02*
X008694Y000744D01*
X008694Y000683D02*
X012524Y000683D01*
X012524Y000621D02*
X008694Y000621D01*
X008694Y000560D02*
X012524Y000560D01*
X012524Y000498D02*
X010574Y000498D01*
X008494Y000560D02*
X003907Y000560D01*
X003907Y000621D02*
X008494Y000621D01*
X008495Y000683D02*
X003907Y000683D01*
X003907Y000744D02*
X008495Y000744D01*
X008496Y000806D02*
X003907Y000806D01*
X003907Y000867D02*
X008496Y000867D01*
X008496Y000929D02*
X003907Y000929D01*
X003907Y000990D02*
X008497Y000990D01*
X008497Y001052D02*
X003907Y001052D01*
X003907Y001113D02*
X008498Y001113D01*
X008498Y001175D02*
X003907Y001175D01*
X003907Y001236D02*
X008498Y001236D01*
X008499Y001298D02*
X003907Y001298D01*
X003907Y001359D02*
X008499Y001359D01*
X008500Y001421D02*
X003907Y001421D01*
X003907Y001482D02*
X008500Y001482D01*
X008500Y001544D02*
X003907Y001544D01*
X003907Y001605D02*
X008501Y001605D01*
X008501Y001667D02*
X003907Y001667D01*
X003907Y001728D02*
X008502Y001728D01*
X008502Y001790D02*
X003907Y001790D01*
X003907Y001851D02*
X008502Y001851D01*
X008503Y001913D02*
X003907Y001913D01*
X003907Y001974D02*
X008503Y001974D01*
X008504Y002036D02*
X003907Y002036D01*
X003907Y002097D02*
X008504Y002097D01*
X008504Y002159D02*
X003907Y002159D01*
X003907Y002220D02*
X008505Y002220D01*
X008505Y002282D02*
X003907Y002282D01*
X003907Y002343D02*
X008506Y002343D01*
X008506Y002405D02*
X003907Y002405D01*
X003907Y002466D02*
X008506Y002466D01*
X008507Y002528D02*
X003907Y002528D01*
X003907Y002589D02*
X008507Y002589D01*
X006411Y000498D02*
X003907Y000498D01*
X003966Y006667D02*
X003966Y014783D01*
X005159Y014783D01*
X005132Y014772D01*
X005062Y014702D01*
X005024Y014610D01*
X005024Y014511D01*
X005062Y014419D01*
X005132Y014349D01*
X005224Y014311D01*
X005323Y014311D01*
X005415Y014349D01*
X005485Y014419D01*
X005523Y014511D01*
X005523Y014610D01*
X005485Y014702D01*
X005415Y014772D01*
X005388Y014783D01*
X018119Y014783D01*
X018101Y014765D01*
X018063Y014673D01*
X018063Y014574D01*
X018101Y014482D01*
X018171Y014412D01*
X018263Y014374D01*
X018362Y014374D01*
X018454Y014412D01*
X018524Y014482D01*
X018562Y014574D01*
X018562Y014673D01*
X018524Y014765D01*
X018506Y014783D01*
X018631Y014783D01*
X018686Y014783D01*
X018801Y014778D01*
X018801Y011346D01*
X018704Y011346D01*
X018612Y011308D01*
X018542Y011237D01*
X018504Y011146D01*
X018504Y011046D01*
X018542Y010955D01*
X018612Y010884D01*
X018704Y010846D01*
X018801Y010846D01*
X018801Y007554D01*
X018738Y007528D01*
X018668Y007458D01*
X018630Y007366D01*
X018630Y007267D01*
X018668Y007175D01*
X018738Y007105D01*
X018801Y007079D01*
X018801Y006667D01*
X010472Y006667D01*
X010457Y006702D01*
X010387Y006772D01*
X010295Y006810D01*
X010255Y006810D01*
X010255Y006823D01*
X010217Y006915D01*
X010147Y006985D01*
X010055Y007023D01*
X009956Y007023D01*
X009864Y006985D01*
X009794Y006915D01*
X009756Y006823D01*
X009756Y006724D01*
X009779Y006667D01*
X009121Y006667D01*
X009121Y006728D01*
X009083Y006820D01*
X009013Y006890D01*
X008921Y006928D01*
X008822Y006928D01*
X008730Y006890D01*
X008660Y006820D01*
X008622Y006728D01*
X008622Y006718D01*
X008568Y006772D01*
X008476Y006810D01*
X008377Y006810D01*
X008285Y006772D01*
X008215Y006702D01*
X008201Y006667D01*
X003966Y006667D01*
X003966Y006709D02*
X008222Y006709D01*
X008284Y006771D02*
X003966Y006771D01*
X003966Y006832D02*
X004388Y006832D01*
X004401Y006827D02*
X004500Y006827D01*
X004592Y006865D01*
X004662Y006935D01*
X004700Y007027D01*
X004700Y007126D01*
X004662Y007218D01*
X004592Y007288D01*
X004587Y007290D01*
X004596Y007294D01*
X004666Y007364D01*
X004704Y007456D01*
X004704Y007555D01*
X004666Y007647D01*
X004596Y007717D01*
X004504Y007755D01*
X004405Y007755D01*
X004313Y007717D01*
X004243Y007647D01*
X004205Y007555D01*
X004205Y007456D01*
X004243Y007364D01*
X004313Y007294D01*
X004318Y007292D01*
X004309Y007288D01*
X004239Y007218D01*
X004201Y007126D01*
X004201Y007027D01*
X004239Y006935D01*
X004309Y006865D01*
X004401Y006827D01*
X004513Y006832D02*
X008672Y006832D01*
X008640Y006771D02*
X008570Y006771D01*
X008738Y006894D02*
X004621Y006894D01*
X004670Y006955D02*
X009834Y006955D01*
X009785Y006894D02*
X009005Y006894D01*
X009071Y006832D02*
X009760Y006832D01*
X009756Y006771D02*
X009104Y006771D01*
X009121Y006709D02*
X009762Y006709D01*
X010177Y006955D02*
X014856Y006955D01*
X014825Y006986D02*
X014896Y006916D01*
X014987Y006878D01*
X015087Y006878D01*
X015178Y006916D01*
X015249Y006986D01*
X015287Y007078D01*
X018801Y007078D01*
X018801Y007017D02*
X015261Y007017D01*
X015287Y007078D02*
X015287Y007177D01*
X015249Y007269D01*
X015201Y007317D01*
X015249Y007364D01*
X015287Y007456D01*
X015287Y007555D01*
X015249Y007647D01*
X015178Y007717D01*
X015087Y007755D01*
X014987Y007755D01*
X014896Y007717D01*
X014825Y007647D01*
X014787Y007555D01*
X014787Y007456D01*
X014825Y007364D01*
X014873Y007317D01*
X014825Y007269D01*
X014787Y007177D01*
X014787Y007078D01*
X007404Y007078D01*
X007438Y007112D02*
X007476Y007204D01*
X007476Y007303D01*
X007438Y007395D01*
X007367Y007465D01*
X007276Y007503D01*
X007176Y007503D01*
X007085Y007465D01*
X007014Y007395D01*
X006976Y007303D01*
X006976Y007204D01*
X007014Y007112D01*
X007085Y007042D01*
X007176Y007004D01*
X007276Y007004D01*
X007367Y007042D01*
X007438Y007112D01*
X007449Y007140D02*
X014787Y007140D01*
X014797Y007201D02*
X007474Y007201D01*
X007476Y007263D02*
X013334Y007263D01*
X013350Y007256D02*
X013449Y007256D01*
X013541Y007294D01*
X013557Y007310D01*
X013573Y007294D01*
X013665Y007256D01*
X013764Y007256D01*
X013856Y007294D01*
X013872Y007310D01*
X013888Y007294D01*
X013979Y007256D01*
X014079Y007256D01*
X014171Y007294D01*
X014187Y007310D01*
X014203Y007294D01*
X014294Y007256D01*
X014394Y007256D01*
X014485Y007294D01*
X014556Y007364D01*
X014594Y007456D01*
X014594Y007555D01*
X014556Y007647D01*
X014485Y007717D01*
X014394Y007755D01*
X014294Y007755D01*
X014203Y007717D01*
X014187Y007701D01*
X014171Y007717D01*
X014079Y007755D01*
X013979Y007755D01*
X013888Y007717D01*
X013872Y007701D01*
X013856Y007717D01*
X013764Y007755D01*
X013665Y007755D01*
X013573Y007717D01*
X013557Y007701D01*
X013541Y007717D01*
X013449Y007755D01*
X013350Y007755D01*
X013258Y007717D01*
X013188Y007647D01*
X013150Y007555D01*
X013150Y007456D01*
X013188Y007364D01*
X013258Y007294D01*
X013350Y007256D01*
X013465Y007263D02*
X013648Y007263D01*
X013780Y007263D02*
X013963Y007263D01*
X014095Y007263D02*
X014278Y007263D01*
X014410Y007263D02*
X014823Y007263D01*
X014865Y007324D02*
X014516Y007324D01*
X014565Y007386D02*
X014817Y007386D01*
X014791Y007447D02*
X014590Y007447D01*
X014594Y007509D02*
X014787Y007509D01*
X014794Y007570D02*
X014588Y007570D01*
X014562Y007631D02*
X014819Y007631D01*
X014871Y007693D02*
X014510Y007693D01*
X014395Y007754D02*
X014986Y007754D01*
X015088Y007754D02*
X016398Y007754D01*
X016398Y007731D02*
X016436Y007640D01*
X016506Y007569D01*
X016598Y007531D01*
X016697Y007531D01*
X016789Y007569D01*
X016859Y007640D01*
X016897Y007731D01*
X016897Y007831D01*
X016859Y007922D01*
X016789Y007993D01*
X016697Y008031D01*
X016598Y008031D01*
X016506Y007993D01*
X016436Y007922D01*
X016398Y007831D01*
X016398Y007731D01*
X016414Y007693D02*
X015203Y007693D01*
X015255Y007631D02*
X016444Y007631D01*
X016505Y007570D02*
X015280Y007570D01*
X015287Y007509D02*
X018719Y007509D01*
X018663Y007447D02*
X015283Y007447D01*
X015257Y007386D02*
X018638Y007386D01*
X018630Y007324D02*
X015209Y007324D01*
X015251Y007263D02*
X018632Y007263D01*
X018657Y007201D02*
X015277Y007201D01*
X015287Y007140D02*
X018704Y007140D01*
X018801Y006955D02*
X015218Y006955D01*
X015124Y006894D02*
X018801Y006894D01*
X018801Y006832D02*
X010251Y006832D01*
X010226Y006894D02*
X014950Y006894D01*
X014825Y006986D02*
X014787Y007078D01*
X014813Y007017D02*
X010070Y007017D01*
X009941Y007017D02*
X007306Y007017D01*
X007146Y007017D02*
X004696Y007017D01*
X004700Y007078D02*
X007048Y007078D01*
X007003Y007140D02*
X004694Y007140D01*
X004669Y007201D02*
X006978Y007201D01*
X006976Y007263D02*
X004617Y007263D01*
X004626Y007324D02*
X006985Y007324D01*
X007010Y007386D02*
X004675Y007386D01*
X004700Y007447D02*
X007066Y007447D01*
X007386Y007447D02*
X008421Y007447D01*
X008428Y007431D02*
X008390Y007523D01*
X008390Y007622D01*
X008428Y007714D01*
X008498Y007784D01*
X008590Y007822D01*
X008689Y007822D01*
X008781Y007784D01*
X008851Y007714D01*
X008889Y007622D01*
X008889Y007523D01*
X008851Y007431D01*
X008781Y007361D01*
X008689Y007323D01*
X008590Y007323D01*
X008498Y007361D01*
X008428Y007431D01*
X008473Y007386D02*
X007441Y007386D01*
X007467Y007324D02*
X008587Y007324D01*
X008692Y007324D02*
X013228Y007324D01*
X013179Y007386D02*
X008805Y007386D01*
X008858Y007447D02*
X013153Y007447D01*
X013150Y007509D02*
X008883Y007509D01*
X008889Y007570D02*
X013156Y007570D01*
X013181Y007631D02*
X008885Y007631D01*
X008860Y007693D02*
X013234Y007693D01*
X013348Y007754D02*
X008810Y007754D01*
X008704Y007816D02*
X016398Y007816D01*
X016417Y007877D02*
X003966Y007877D01*
X003966Y007816D02*
X008575Y007816D01*
X008468Y007754D02*
X004506Y007754D01*
X004403Y007754D02*
X003966Y007754D01*
X003966Y007693D02*
X004289Y007693D01*
X004236Y007631D02*
X003966Y007631D01*
X003966Y007570D02*
X004211Y007570D01*
X004205Y007509D02*
X003966Y007509D01*
X003966Y007447D02*
X004208Y007447D01*
X004234Y007386D02*
X003966Y007386D01*
X003966Y007324D02*
X004283Y007324D01*
X004284Y007263D02*
X003966Y007263D01*
X003966Y007201D02*
X004232Y007201D01*
X004206Y007140D02*
X003966Y007140D01*
X003966Y007078D02*
X004201Y007078D01*
X004205Y007017D02*
X003966Y007017D01*
X003966Y006955D02*
X004230Y006955D01*
X004280Y006894D02*
X003966Y006894D01*
X004704Y007509D02*
X008396Y007509D01*
X008390Y007570D02*
X004698Y007570D01*
X004672Y007631D02*
X008394Y007631D01*
X008419Y007693D02*
X004620Y007693D01*
X003966Y007939D02*
X007937Y007939D01*
X007907Y007951D02*
X007999Y007913D01*
X008098Y007913D01*
X008190Y007951D01*
X008260Y008022D01*
X008298Y008113D01*
X008298Y008213D01*
X008260Y008304D01*
X008190Y008375D01*
X008098Y008413D01*
X007999Y008413D01*
X007907Y008375D01*
X007837Y008304D01*
X007799Y008213D01*
X007799Y008113D01*
X007837Y008022D01*
X007907Y007951D01*
X007858Y008000D02*
X003966Y008000D01*
X003966Y008062D02*
X007820Y008062D01*
X007799Y008123D02*
X003966Y008123D01*
X003966Y008185D02*
X007799Y008185D01*
X007813Y008246D02*
X003966Y008246D01*
X003966Y008308D02*
X006323Y008308D01*
X006329Y008302D02*
X006420Y008264D01*
X006520Y008264D01*
X006611Y008302D01*
X006682Y008372D01*
X006720Y008464D01*
X006720Y008563D01*
X006682Y008655D01*
X006611Y008725D01*
X006520Y008763D01*
X006420Y008763D01*
X006329Y008725D01*
X006258Y008655D01*
X006220Y008563D01*
X006220Y008464D01*
X006258Y008372D01*
X006329Y008302D01*
X006261Y008369D02*
X003966Y008369D01*
X003966Y008431D02*
X006234Y008431D01*
X006220Y008492D02*
X003966Y008492D01*
X003966Y008554D02*
X006220Y008554D01*
X006242Y008615D02*
X003966Y008615D01*
X003966Y008677D02*
X006281Y008677D01*
X006361Y008738D02*
X003966Y008738D01*
X003966Y008800D02*
X007209Y008800D01*
X007209Y008803D02*
X007209Y008704D01*
X007247Y008612D01*
X007317Y008542D01*
X007409Y008504D01*
X007508Y008504D01*
X007600Y008542D01*
X007670Y008612D01*
X007708Y008704D01*
X007708Y008803D01*
X007670Y008895D01*
X007600Y008965D01*
X007508Y009003D01*
X007409Y009003D01*
X007317Y008965D01*
X007247Y008895D01*
X007209Y008803D01*
X007233Y008861D02*
X003966Y008861D01*
X003966Y008923D02*
X007275Y008923D01*
X007363Y008984D02*
X003966Y008984D01*
X003966Y009046D02*
X006391Y009046D01*
X006372Y009054D02*
X006464Y009016D01*
X006563Y009016D01*
X006655Y009054D01*
X006725Y009124D01*
X006763Y009216D01*
X006763Y009315D01*
X006725Y009407D01*
X006655Y009477D01*
X006563Y009515D01*
X006464Y009515D01*
X006372Y009477D01*
X006302Y009407D01*
X006264Y009315D01*
X006264Y009216D01*
X006302Y009124D01*
X006372Y009054D01*
X006318Y009107D02*
X003966Y009107D01*
X003966Y009169D02*
X006283Y009169D01*
X006264Y009230D02*
X003966Y009230D01*
X003966Y009292D02*
X006264Y009292D01*
X006280Y009353D02*
X003966Y009353D01*
X003966Y009415D02*
X006310Y009415D01*
X006371Y009476D02*
X003966Y009476D01*
X003966Y009538D02*
X007889Y009538D01*
X007907Y009556D02*
X007837Y009485D01*
X007799Y009394D01*
X007799Y009294D01*
X007837Y009203D01*
X007907Y009132D01*
X007999Y009094D01*
X008098Y009094D01*
X008190Y009132D01*
X008260Y009203D01*
X008298Y009294D01*
X008298Y009394D01*
X008260Y009485D01*
X008190Y009556D01*
X008098Y009594D01*
X007999Y009594D01*
X007907Y009556D01*
X007833Y009476D02*
X006655Y009476D01*
X006717Y009415D02*
X007808Y009415D01*
X007799Y009353D02*
X006747Y009353D01*
X006763Y009292D02*
X007800Y009292D01*
X007826Y009230D02*
X006763Y009230D01*
X006744Y009169D02*
X007871Y009169D01*
X007968Y009107D02*
X006708Y009107D01*
X006636Y009046D02*
X010292Y009046D01*
X010306Y009080D02*
X010268Y008988D01*
X010268Y008889D01*
X010306Y008797D01*
X010376Y008727D01*
X010468Y008689D01*
X010567Y008689D01*
X010659Y008727D01*
X010729Y008797D01*
X010767Y008889D01*
X010767Y008988D01*
X010729Y009080D01*
X010659Y009150D01*
X010567Y009188D01*
X010468Y009188D01*
X010376Y009150D01*
X010306Y009080D01*
X010333Y009107D02*
X009251Y009107D01*
X009221Y009094D02*
X009312Y009132D01*
X009382Y009203D01*
X009420Y009294D01*
X009420Y009394D01*
X009382Y009485D01*
X009312Y009556D01*
X009221Y009594D01*
X009121Y009594D01*
X009029Y009556D01*
X008959Y009485D01*
X008921Y009394D01*
X008921Y009294D01*
X008959Y009203D01*
X009029Y009132D01*
X009121Y009094D01*
X009221Y009094D01*
X009090Y009107D02*
X008129Y009107D01*
X008227Y009169D02*
X008993Y009169D01*
X008948Y009230D02*
X008272Y009230D01*
X008297Y009292D02*
X008922Y009292D01*
X008921Y009353D02*
X008298Y009353D01*
X008290Y009415D02*
X008930Y009415D01*
X008955Y009476D02*
X008264Y009476D01*
X008208Y009538D02*
X009012Y009538D01*
X008792Y009793D02*
X008722Y009723D01*
X008630Y009685D01*
X008531Y009685D01*
X008439Y009723D01*
X008369Y009793D01*
X008331Y009885D01*
X008331Y009984D01*
X008369Y010076D01*
X008439Y010146D01*
X008531Y010184D01*
X008630Y010184D01*
X008722Y010146D01*
X008792Y010076D01*
X008830Y009984D01*
X008830Y009885D01*
X008792Y009793D01*
X008782Y009784D02*
X010040Y009784D01*
X010034Y009789D02*
X010104Y009719D01*
X010196Y009681D01*
X010295Y009681D01*
X010387Y009719D01*
X010457Y009789D01*
X010491Y009871D01*
X010514Y009849D01*
X010605Y009811D01*
X010705Y009811D01*
X010797Y009849D01*
X010867Y009919D01*
X010905Y010011D01*
X010905Y010110D01*
X010867Y010202D01*
X010797Y010272D01*
X010705Y010310D01*
X010605Y010310D01*
X010514Y010272D01*
X010444Y010202D01*
X010409Y010120D01*
X010390Y010139D01*
X010398Y010148D01*
X010436Y010239D01*
X010436Y010339D01*
X010398Y010430D01*
X010328Y010501D01*
X010236Y010539D01*
X010137Y010539D01*
X010118Y010531D01*
X010107Y010556D01*
X010037Y010627D01*
X009945Y010665D01*
X009846Y010665D01*
X009814Y010651D01*
X009808Y010667D01*
X009737Y010737D01*
X009646Y010775D01*
X009546Y010775D01*
X009455Y010737D01*
X009384Y010667D01*
X009346Y010575D01*
X009346Y010476D01*
X009384Y010384D01*
X009455Y010314D01*
X009546Y010276D01*
X007588Y010276D01*
X007565Y010299D02*
X007590Y010357D01*
X007590Y010394D01*
X007626Y010394D01*
X007699Y010424D01*
X007750Y010373D01*
X007842Y010335D01*
X007941Y010335D01*
X008033Y010373D01*
X008103Y010443D01*
X008141Y010535D01*
X008141Y010571D01*
X008158Y010571D01*
X008249Y010609D01*
X008319Y010679D01*
X008328Y010700D01*
X008353Y010689D01*
X008453Y010689D01*
X008545Y010727D01*
X008615Y010797D01*
X008653Y010889D01*
X008653Y010988D01*
X008615Y011080D01*
X008545Y011150D01*
X008453Y011188D01*
X008353Y011188D01*
X008262Y011150D01*
X008192Y011080D01*
X008183Y011059D01*
X008158Y011070D01*
X008058Y011070D01*
X007966Y011032D01*
X007896Y010962D01*
X007858Y010870D01*
X007858Y010834D01*
X007842Y010834D01*
X007769Y010804D01*
X007718Y010855D01*
X007626Y010893D01*
X007527Y010893D01*
X007435Y010855D01*
X007365Y010785D01*
X007327Y010693D01*
X007327Y010657D01*
X007291Y010657D01*
X007199Y010619D01*
X007129Y010548D01*
X007091Y010457D01*
X007091Y010357D01*
X007129Y010266D01*
X007174Y010220D01*
X007150Y010161D01*
X007150Y010062D01*
X007188Y009970D01*
X007258Y009900D01*
X007350Y009862D01*
X007449Y009862D01*
X007541Y009900D01*
X007611Y009970D01*
X007649Y010062D01*
X007649Y010161D01*
X007611Y010253D01*
X007565Y010299D01*
X007581Y010337D02*
X007836Y010337D01*
X007947Y010337D02*
X009431Y010337D01*
X009378Y010399D02*
X008059Y010399D01*
X008110Y010460D02*
X009353Y010460D01*
X009346Y010522D02*
X008136Y010522D01*
X008187Y010583D02*
X009350Y010583D01*
X009375Y010645D02*
X008285Y010645D01*
X008494Y010706D02*
X009424Y010706D01*
X009529Y010768D02*
X008585Y010768D01*
X008628Y010829D02*
X012719Y010829D01*
X012692Y010856D02*
X012762Y010786D01*
X012853Y010748D01*
X012953Y010748D01*
X012957Y010750D01*
X012987Y010679D01*
X013057Y010609D01*
X013149Y010571D01*
X013248Y010571D01*
X013253Y010573D01*
X013282Y010502D01*
X013352Y010432D01*
X013444Y010394D01*
X013543Y010394D01*
X013635Y010432D01*
X013705Y010502D01*
X013743Y010594D01*
X013743Y010693D01*
X013705Y010785D01*
X013635Y010855D01*
X013543Y010893D01*
X013444Y010893D01*
X013439Y010891D01*
X013410Y010962D01*
X013340Y011032D01*
X013248Y011070D01*
X013149Y011070D01*
X013144Y011068D01*
X013115Y011139D01*
X013045Y011209D01*
X012953Y011247D01*
X012853Y011247D01*
X012762Y011209D01*
X012692Y011139D01*
X012654Y011047D01*
X012654Y010948D01*
X012692Y010856D01*
X012677Y010891D02*
X008653Y010891D01*
X008653Y010952D02*
X012654Y010952D01*
X012654Y011014D02*
X008642Y011014D01*
X008617Y011075D02*
X012665Y011075D01*
X012691Y011137D02*
X008842Y011137D01*
X008852Y011140D02*
X008922Y011211D01*
X008960Y011302D01*
X008960Y011402D01*
X008922Y011493D01*
X008852Y011564D01*
X008760Y011602D01*
X008661Y011602D01*
X008569Y011564D01*
X008499Y011493D01*
X008461Y011402D01*
X008461Y011302D01*
X008499Y011211D01*
X008569Y011140D01*
X008661Y011102D01*
X008760Y011102D01*
X008852Y011140D01*
X008909Y011198D02*
X012751Y011198D01*
X013056Y011198D02*
X015738Y011198D01*
X015724Y011165D02*
X015762Y011257D01*
X015833Y011327D01*
X015924Y011365D01*
X016024Y011365D01*
X016115Y011327D01*
X016186Y011257D01*
X016224Y011165D01*
X016224Y011066D01*
X016186Y010974D01*
X016115Y010904D01*
X016024Y010866D01*
X015948Y010866D01*
X015948Y010810D01*
X015910Y010718D01*
X015840Y010648D01*
X015748Y010610D01*
X015649Y010610D01*
X015557Y010648D01*
X015487Y010718D01*
X015449Y010810D01*
X015449Y010909D01*
X015487Y011001D01*
X015557Y011071D01*
X015649Y011109D01*
X015724Y011109D01*
X015724Y011165D01*
X015724Y011137D02*
X013116Y011137D01*
X013141Y011075D02*
X015566Y011075D01*
X015499Y011014D02*
X013358Y011014D01*
X013414Y010952D02*
X015466Y010952D01*
X015449Y010891D02*
X013549Y010891D01*
X013661Y010829D02*
X015449Y010829D01*
X015466Y010768D02*
X013712Y010768D01*
X013738Y010706D02*
X015499Y010706D01*
X015566Y010645D02*
X013743Y010645D01*
X013739Y010583D02*
X016056Y010583D01*
X016047Y010605D02*
X016085Y010514D01*
X016155Y010444D01*
X016247Y010406D01*
X016346Y010406D01*
X016438Y010444D01*
X016508Y010514D01*
X016546Y010605D01*
X016546Y010705D01*
X016508Y010797D01*
X016438Y010867D01*
X016346Y010905D01*
X016247Y010905D01*
X016155Y010867D01*
X016085Y010797D01*
X016047Y010705D01*
X016047Y010605D01*
X016047Y010645D02*
X015831Y010645D01*
X015898Y010706D02*
X016048Y010706D01*
X016073Y010768D02*
X015930Y010768D01*
X015948Y010829D02*
X016118Y010829D01*
X016083Y010891D02*
X016213Y010891D01*
X016163Y010952D02*
X017417Y010952D01*
X017417Y010980D02*
X017417Y010881D01*
X017455Y010789D01*
X017526Y010719D01*
X017617Y010681D01*
X017717Y010681D01*
X017808Y010719D01*
X017879Y010789D01*
X017917Y010881D01*
X017917Y010980D01*
X017879Y011072D01*
X017808Y011142D01*
X017717Y011180D01*
X017617Y011180D01*
X017526Y011142D01*
X017455Y011072D01*
X017417Y010980D01*
X017431Y011014D02*
X016202Y011014D01*
X016224Y011075D02*
X017458Y011075D01*
X017520Y011137D02*
X016224Y011137D01*
X016210Y011198D02*
X018526Y011198D01*
X018504Y011137D02*
X017814Y011137D01*
X017876Y011075D02*
X018504Y011075D01*
X018518Y011014D02*
X017903Y011014D01*
X017917Y010952D02*
X018545Y010952D01*
X018606Y010891D02*
X017917Y010891D01*
X017895Y010829D02*
X018801Y010829D01*
X018801Y010768D02*
X017857Y010768D01*
X017777Y010706D02*
X018801Y010706D01*
X018801Y010645D02*
X016546Y010645D01*
X016546Y010706D02*
X017557Y010706D01*
X017477Y010768D02*
X016520Y010768D01*
X016476Y010829D02*
X017439Y010829D01*
X017417Y010891D02*
X016381Y010891D01*
X016537Y010583D02*
X018801Y010583D01*
X018801Y010522D02*
X016512Y010522D01*
X016455Y010460D02*
X018801Y010460D01*
X018801Y010399D02*
X016037Y010399D01*
X016032Y010401D02*
X015932Y010401D01*
X015840Y010363D01*
X015770Y010293D01*
X015732Y010201D01*
X015732Y010102D01*
X015770Y010010D01*
X015840Y009940D01*
X015932Y009902D01*
X016032Y009902D01*
X016123Y009940D01*
X016193Y010010D01*
X016231Y010102D01*
X016231Y010201D01*
X016193Y010293D01*
X016123Y010363D01*
X016032Y010401D01*
X015927Y010399D02*
X013555Y010399D01*
X013432Y010399D02*
X013258Y010399D01*
X013275Y010358D02*
X013237Y010450D01*
X013167Y010520D01*
X013075Y010558D01*
X012976Y010558D01*
X012884Y010520D01*
X012814Y010450D01*
X012776Y010358D01*
X012776Y010259D01*
X012814Y010167D01*
X012884Y010097D01*
X012976Y010059D01*
X013075Y010059D01*
X013167Y010097D01*
X013237Y010167D01*
X013275Y010259D01*
X013275Y010358D01*
X013275Y010337D02*
X015815Y010337D01*
X015763Y010276D02*
X013275Y010276D01*
X013256Y010214D02*
X015738Y010214D01*
X015732Y010153D02*
X015577Y010153D01*
X015556Y010174D02*
X015465Y010212D01*
X015365Y010212D01*
X015274Y010174D01*
X015203Y010104D01*
X015165Y010012D01*
X015165Y009913D01*
X015203Y009821D01*
X015274Y009751D01*
X015365Y009713D01*
X015465Y009713D01*
X015556Y009751D01*
X015627Y009821D01*
X015665Y009913D01*
X015665Y010012D01*
X015627Y010104D01*
X015556Y010174D01*
X015632Y010091D02*
X015737Y010091D01*
X015762Y010030D02*
X015657Y010030D01*
X015665Y009968D02*
X015812Y009968D01*
X015920Y009907D02*
X015662Y009907D01*
X015637Y009845D02*
X018217Y009845D01*
X018227Y009821D02*
X018297Y009751D01*
X018389Y009713D01*
X018488Y009713D01*
X018580Y009751D01*
X018650Y009821D01*
X018688Y009913D01*
X018688Y010012D01*
X018650Y010104D01*
X018580Y010174D01*
X018488Y010212D01*
X018389Y010212D01*
X018297Y010174D01*
X018227Y010104D01*
X018189Y010012D01*
X018189Y009913D01*
X018227Y009821D01*
X018264Y009784D02*
X016058Y009784D01*
X016032Y009794D02*
X015932Y009794D01*
X015840Y009756D01*
X015770Y009686D01*
X015732Y009595D01*
X015732Y009495D01*
X015770Y009403D01*
X015840Y009333D01*
X015932Y009295D01*
X016032Y009295D01*
X016123Y009333D01*
X016193Y009403D01*
X016231Y009495D01*
X016231Y009595D01*
X016193Y009686D01*
X016123Y009756D01*
X016032Y009794D01*
X016044Y009907D02*
X018191Y009907D01*
X018189Y009968D02*
X016152Y009968D01*
X016202Y010030D02*
X018196Y010030D01*
X018222Y010091D02*
X016227Y010091D01*
X016231Y010153D02*
X018276Y010153D01*
X018601Y010153D02*
X018801Y010153D01*
X018801Y010214D02*
X016226Y010214D01*
X016200Y010276D02*
X018801Y010276D01*
X018801Y010337D02*
X016149Y010337D01*
X016139Y010460D02*
X013664Y010460D01*
X013713Y010522D02*
X016082Y010522D01*
X015906Y009784D02*
X015589Y009784D01*
X015488Y009722D02*
X015806Y009722D01*
X015760Y009661D02*
X013176Y009661D01*
X013163Y009674D02*
X013071Y009712D01*
X012972Y009712D01*
X012880Y009674D01*
X012810Y009604D01*
X012772Y009512D01*
X012772Y009413D01*
X012810Y009321D01*
X012880Y009251D01*
X012972Y009213D01*
X013071Y009213D01*
X013163Y009251D01*
X013233Y009321D01*
X013271Y009413D01*
X013271Y009512D01*
X013233Y009604D01*
X013163Y009674D01*
X013235Y009599D02*
X015734Y009599D01*
X015732Y009538D02*
X013260Y009538D01*
X013271Y009476D02*
X015740Y009476D01*
X015766Y009415D02*
X015378Y009415D01*
X015374Y009417D02*
X015275Y009417D01*
X015183Y009379D01*
X015113Y009308D01*
X015075Y009217D01*
X015075Y009117D01*
X015113Y009026D01*
X015183Y008955D01*
X015275Y008917D01*
X015374Y008917D01*
X015466Y008955D01*
X015536Y009026D01*
X015574Y009117D01*
X015574Y009217D01*
X015536Y009308D01*
X015466Y009379D01*
X015374Y009417D01*
X015271Y009415D02*
X013271Y009415D01*
X013246Y009353D02*
X015158Y009353D01*
X015106Y009292D02*
X013204Y009292D01*
X013114Y009230D02*
X015080Y009230D01*
X015075Y009169D02*
X012219Y009169D01*
X012205Y009202D02*
X012135Y009272D01*
X012043Y009310D01*
X011944Y009310D01*
X011852Y009272D01*
X011782Y009202D01*
X011744Y009110D01*
X011744Y009011D01*
X011782Y008919D01*
X011852Y008849D01*
X011944Y008811D01*
X012043Y008811D01*
X012135Y008849D01*
X012205Y008919D01*
X012243Y009011D01*
X012243Y009110D01*
X012205Y009202D01*
X012177Y009230D02*
X012929Y009230D01*
X012839Y009292D02*
X012088Y009292D01*
X011900Y009292D02*
X011568Y009292D01*
X011564Y009296D02*
X011472Y009334D01*
X011373Y009334D01*
X011281Y009296D01*
X011211Y009226D01*
X011173Y009134D01*
X011173Y009035D01*
X011211Y008943D01*
X011281Y008873D01*
X011373Y008835D01*
X011472Y008835D01*
X011564Y008873D01*
X011634Y008943D01*
X011672Y009035D01*
X011672Y009134D01*
X011634Y009226D01*
X011564Y009296D01*
X011630Y009230D02*
X011810Y009230D01*
X011768Y009169D02*
X011658Y009169D01*
X011672Y009107D02*
X011744Y009107D01*
X011744Y009046D02*
X011672Y009046D01*
X011652Y008984D02*
X011755Y008984D01*
X011781Y008923D02*
X011614Y008923D01*
X011537Y008861D02*
X011840Y008861D01*
X012147Y008861D02*
X018801Y008861D01*
X018801Y008800D02*
X010730Y008800D01*
X010755Y008861D02*
X011309Y008861D01*
X011231Y008923D02*
X010767Y008923D01*
X010767Y008984D02*
X011194Y008984D01*
X011173Y009046D02*
X010743Y009046D01*
X010702Y009107D02*
X011173Y009107D01*
X011188Y009169D02*
X010614Y009169D01*
X010421Y009169D02*
X009349Y009169D01*
X009394Y009230D02*
X011216Y009230D01*
X011277Y009292D02*
X009419Y009292D01*
X009420Y009353D02*
X012796Y009353D01*
X012772Y009415D02*
X009412Y009415D01*
X009386Y009476D02*
X012772Y009476D01*
X012782Y009538D02*
X009330Y009538D01*
X008813Y009845D02*
X010011Y009845D01*
X009996Y009881D02*
X010034Y009789D01*
X010101Y009722D02*
X008720Y009722D01*
X008830Y009907D02*
X009996Y009907D01*
X009996Y009881D02*
X009996Y009980D01*
X010034Y010072D01*
X010042Y010080D01*
X009975Y010148D01*
X009964Y010173D01*
X009945Y010165D01*
X009846Y010165D01*
X009754Y010203D01*
X009684Y010274D01*
X009677Y010289D01*
X009646Y010276D01*
X009683Y010276D01*
X009646Y010276D02*
X009546Y010276D01*
X009743Y010214D02*
X007627Y010214D01*
X007649Y010153D02*
X008454Y010153D01*
X008384Y010091D02*
X007649Y010091D01*
X007635Y010030D02*
X008350Y010030D01*
X008331Y009968D02*
X007609Y009968D01*
X007547Y009907D02*
X008331Y009907D01*
X008347Y009845D02*
X003966Y009845D01*
X003966Y009784D02*
X008378Y009784D01*
X008441Y009722D02*
X003966Y009722D01*
X003966Y009661D02*
X012867Y009661D01*
X012808Y009599D02*
X003966Y009599D01*
X003966Y009907D02*
X007251Y009907D01*
X007190Y009968D02*
X003966Y009968D01*
X003966Y010030D02*
X007163Y010030D01*
X007150Y010091D02*
X003966Y010091D01*
X003966Y010153D02*
X007150Y010153D01*
X007171Y010214D02*
X003966Y010214D01*
X003966Y010276D02*
X007124Y010276D01*
X007099Y010337D02*
X003966Y010337D01*
X003966Y010399D02*
X007091Y010399D01*
X007092Y010460D02*
X003966Y010460D01*
X003966Y010522D02*
X007117Y010522D01*
X007163Y010583D02*
X003966Y010583D01*
X003966Y010645D02*
X007261Y010645D01*
X007332Y010706D02*
X003966Y010706D01*
X003966Y010768D02*
X007358Y010768D01*
X007409Y010829D02*
X003966Y010829D01*
X003966Y010891D02*
X007521Y010891D01*
X007632Y010891D02*
X007867Y010891D01*
X007892Y010952D02*
X003966Y010952D01*
X003966Y011014D02*
X007948Y011014D01*
X008190Y011075D02*
X003966Y011075D01*
X003966Y011137D02*
X008248Y011137D01*
X008478Y011260D02*
X003966Y011260D01*
X003966Y011321D02*
X008461Y011321D01*
X008461Y011383D02*
X004708Y011383D01*
X004722Y011388D02*
X004792Y011459D01*
X004830Y011550D01*
X004830Y011650D01*
X004792Y011741D01*
X004722Y011812D01*
X004630Y011850D01*
X004531Y011850D01*
X004439Y011812D01*
X004369Y011741D01*
X004331Y011650D01*
X004331Y011550D01*
X004369Y011459D01*
X004439Y011388D01*
X004531Y011350D01*
X004630Y011350D01*
X004722Y011388D01*
X004777Y011444D02*
X008478Y011444D01*
X008511Y011506D02*
X004811Y011506D01*
X004830Y011567D02*
X008577Y011567D01*
X008843Y011567D02*
X009756Y011567D01*
X009756Y011598D02*
X009756Y011499D01*
X009794Y011407D01*
X009864Y011337D01*
X009956Y011299D01*
X010055Y011299D01*
X010147Y011337D01*
X010217Y011407D01*
X010255Y011499D01*
X010255Y011598D01*
X010217Y011690D01*
X013949Y011690D01*
X013949Y011665D02*
X013987Y011573D01*
X014057Y011503D01*
X014149Y011465D01*
X014248Y011465D01*
X014340Y011503D01*
X014410Y011573D01*
X014448Y011665D01*
X014448Y011752D01*
X014488Y011752D01*
X014580Y011790D01*
X014650Y011860D01*
X014688Y011952D01*
X014688Y011988D01*
X014724Y011988D01*
X014816Y012026D01*
X014886Y012096D01*
X014924Y012188D01*
X014924Y012287D01*
X014961Y012287D01*
X015052Y012325D01*
X015123Y012396D01*
X015161Y012487D01*
X015161Y012524D01*
X015197Y012524D01*
X015289Y012562D01*
X015359Y012632D01*
X015397Y012724D01*
X015397Y012823D01*
X015359Y012915D01*
X015289Y012985D01*
X015197Y013023D01*
X015098Y013023D01*
X015006Y012985D01*
X014936Y012915D01*
X014898Y012823D01*
X014898Y012787D01*
X014861Y012787D01*
X014770Y012749D01*
X014699Y012678D01*
X014661Y012587D01*
X014661Y012487D01*
X014625Y012487D01*
X014533Y012449D01*
X014463Y012379D01*
X014425Y012287D01*
X014425Y012251D01*
X014389Y012251D01*
X014297Y012213D01*
X014227Y012143D01*
X014189Y012051D01*
X014189Y011964D01*
X014149Y011964D01*
X014057Y011926D01*
X013987Y011856D01*
X013949Y011764D01*
X013949Y011665D01*
X013964Y011629D02*
X010243Y011629D01*
X010255Y011567D02*
X013993Y011567D01*
X014054Y011506D02*
X010255Y011506D01*
X010232Y011444D02*
X016175Y011444D01*
X016172Y011447D02*
X016242Y011377D01*
X016334Y011339D01*
X016433Y011339D01*
X016525Y011377D01*
X016595Y011447D01*
X016633Y011539D01*
X016633Y011638D01*
X016595Y011730D01*
X016525Y011800D01*
X016433Y011838D01*
X016334Y011838D01*
X016242Y011800D01*
X016172Y011730D01*
X016134Y011638D01*
X016134Y011539D01*
X016172Y011447D01*
X016148Y011506D02*
X014343Y011506D01*
X014404Y011567D02*
X016134Y011567D01*
X016134Y011629D02*
X014433Y011629D01*
X014448Y011690D02*
X016155Y011690D01*
X016194Y011751D02*
X014448Y011751D01*
X014603Y011813D02*
X016274Y011813D01*
X016493Y011813D02*
X018801Y011813D01*
X018801Y011874D02*
X014656Y011874D01*
X014682Y011936D02*
X018801Y011936D01*
X018801Y011997D02*
X014747Y011997D01*
X014849Y012059D02*
X018414Y012059D01*
X018452Y012043D02*
X018551Y012043D01*
X018643Y012081D01*
X018713Y012152D01*
X018751Y012243D01*
X018751Y012343D01*
X018713Y012434D01*
X018643Y012505D01*
X018551Y012543D01*
X018452Y012543D01*
X018360Y012505D01*
X018290Y012434D01*
X018252Y012343D01*
X018252Y012243D01*
X018290Y012152D01*
X018360Y012081D01*
X018452Y012043D01*
X018589Y012059D02*
X018801Y012059D01*
X018801Y012120D02*
X018682Y012120D01*
X018726Y012182D02*
X018801Y012182D01*
X018801Y012243D02*
X018751Y012243D01*
X018751Y012305D02*
X018801Y012305D01*
X018801Y012366D02*
X018741Y012366D01*
X018716Y012428D02*
X018801Y012428D01*
X018801Y012489D02*
X018658Y012489D01*
X018801Y012551D02*
X017223Y012551D01*
X017194Y012522D02*
X017264Y012592D01*
X017302Y012684D01*
X017302Y012784D01*
X017264Y012875D01*
X017194Y012945D01*
X017102Y012983D01*
X017003Y012983D01*
X016911Y012945D01*
X016841Y012875D01*
X016803Y012784D01*
X016803Y012684D01*
X016841Y012592D01*
X016911Y012522D01*
X017003Y012484D01*
X017102Y012484D01*
X017194Y012522D01*
X017115Y012489D02*
X018345Y012489D01*
X018287Y012428D02*
X016382Y012428D01*
X016411Y012440D02*
X016481Y012510D01*
X016519Y012602D01*
X016519Y012701D01*
X016481Y012793D01*
X016411Y012863D01*
X016319Y012901D01*
X016220Y012901D01*
X016128Y012863D01*
X016058Y012793D01*
X016020Y012701D01*
X016020Y012602D01*
X016058Y012510D01*
X016128Y012440D01*
X016220Y012402D01*
X016319Y012402D01*
X016411Y012440D01*
X016460Y012489D02*
X016991Y012489D01*
X016883Y012551D02*
X016498Y012551D01*
X016519Y012612D02*
X016833Y012612D01*
X016807Y012674D02*
X016519Y012674D01*
X016505Y012735D02*
X016803Y012735D01*
X016809Y012797D02*
X016477Y012797D01*
X016415Y012858D02*
X016834Y012858D01*
X016886Y012920D02*
X015354Y012920D01*
X015382Y012858D02*
X016123Y012858D01*
X016062Y012797D02*
X015397Y012797D01*
X015397Y012735D02*
X016034Y012735D01*
X016020Y012674D02*
X015376Y012674D01*
X015339Y012612D02*
X016020Y012612D01*
X016041Y012551D02*
X015263Y012551D01*
X015161Y012489D02*
X016078Y012489D01*
X016156Y012428D02*
X015136Y012428D01*
X015093Y012366D02*
X018262Y012366D01*
X018252Y012305D02*
X015003Y012305D01*
X014924Y012243D02*
X018252Y012243D01*
X018277Y012182D02*
X014922Y012182D01*
X014896Y012120D02*
X018321Y012120D01*
X018801Y011751D02*
X016573Y011751D01*
X016611Y011690D02*
X018801Y011690D01*
X018801Y011629D02*
X016633Y011629D01*
X016633Y011567D02*
X018801Y011567D01*
X018801Y011506D02*
X016619Y011506D01*
X016592Y011444D02*
X018801Y011444D01*
X018801Y011383D02*
X016531Y011383D01*
X016236Y011383D02*
X010192Y011383D01*
X010108Y011321D02*
X015826Y011321D01*
X015765Y011260D02*
X008942Y011260D01*
X008960Y011321D02*
X009903Y011321D01*
X009819Y011383D02*
X008960Y011383D01*
X008942Y011444D02*
X009779Y011444D01*
X009756Y011506D02*
X008910Y011506D01*
X008511Y011198D02*
X003966Y011198D01*
X003966Y011383D02*
X004453Y011383D01*
X004383Y011444D02*
X003966Y011444D01*
X003966Y011506D02*
X004349Y011506D01*
X004331Y011567D02*
X003966Y011567D01*
X003966Y011629D02*
X004331Y011629D01*
X004347Y011690D02*
X003966Y011690D01*
X003966Y011751D02*
X004379Y011751D01*
X004442Y011813D02*
X003966Y011813D01*
X003966Y011874D02*
X007017Y011874D01*
X007016Y011877D02*
X007054Y011785D01*
X007124Y011715D01*
X007216Y011677D01*
X007315Y011677D01*
X007407Y011715D01*
X007477Y011785D01*
X007515Y011877D01*
X007515Y011976D01*
X007477Y012068D01*
X007407Y012138D01*
X007315Y012176D01*
X007216Y012176D01*
X007124Y012138D01*
X007054Y012068D01*
X007016Y011976D01*
X007016Y011877D01*
X007016Y011936D02*
X003966Y011936D01*
X003966Y011997D02*
X007024Y011997D01*
X007050Y012059D02*
X003966Y012059D01*
X003966Y012120D02*
X007106Y012120D01*
X007425Y012120D02*
X014218Y012120D01*
X014192Y012059D02*
X007481Y012059D01*
X007506Y011997D02*
X014189Y011997D01*
X014082Y011936D02*
X007515Y011936D01*
X007514Y011874D02*
X014006Y011874D01*
X013969Y011813D02*
X007488Y011813D01*
X007443Y011751D02*
X009855Y011751D01*
X009864Y011760D02*
X009794Y011690D01*
X007346Y011690D01*
X007185Y011690D02*
X004813Y011690D01*
X004830Y011629D02*
X009768Y011629D01*
X009756Y011598D02*
X009794Y011690D01*
X009864Y011760D02*
X009956Y011798D01*
X010055Y011798D01*
X010147Y011760D01*
X010217Y011690D01*
X010156Y011751D02*
X013949Y011751D01*
X014266Y012182D02*
X004666Y012182D01*
X004671Y012184D02*
X004741Y012254D01*
X004779Y012346D01*
X004779Y012445D01*
X004741Y012537D01*
X004671Y012607D01*
X004579Y012645D01*
X004479Y012645D01*
X004388Y012607D01*
X004318Y012537D01*
X004280Y012445D01*
X004280Y012346D01*
X004318Y012254D01*
X004388Y012184D01*
X004479Y012146D01*
X004579Y012146D01*
X004671Y012184D01*
X004730Y012243D02*
X010299Y012243D01*
X010326Y012232D02*
X010425Y012232D01*
X010517Y012270D01*
X010587Y012340D01*
X010625Y012432D01*
X010625Y012532D01*
X010587Y012623D01*
X010517Y012693D01*
X010425Y012731D01*
X010326Y012731D01*
X010234Y012693D01*
X010164Y012623D01*
X010126Y012532D01*
X010126Y012432D01*
X010164Y012340D01*
X010234Y012270D01*
X010326Y012232D01*
X010452Y012243D02*
X014370Y012243D01*
X014432Y012305D02*
X010552Y012305D01*
X010598Y012366D02*
X014458Y012366D01*
X014512Y012428D02*
X010623Y012428D01*
X010625Y012489D02*
X014661Y012489D01*
X014661Y012551D02*
X010617Y012551D01*
X010592Y012612D02*
X013363Y012612D01*
X013352Y012617D02*
X013444Y012579D01*
X013543Y012579D01*
X013635Y012617D01*
X013705Y012687D01*
X013743Y012779D01*
X013743Y012878D01*
X013705Y012970D01*
X013635Y013040D01*
X013543Y013078D01*
X013444Y013078D01*
X013352Y013040D01*
X013282Y012970D01*
X013244Y012878D01*
X013244Y012779D01*
X013282Y012687D01*
X013352Y012617D01*
X013295Y012674D02*
X010537Y012674D01*
X010215Y012674D02*
X008119Y012674D01*
X008150Y012643D02*
X008080Y012713D01*
X007988Y012751D01*
X007889Y012751D01*
X007797Y012713D01*
X007727Y012643D01*
X007689Y012551D01*
X004727Y012551D01*
X004760Y012489D02*
X007689Y012489D01*
X007689Y012452D02*
X007727Y012360D01*
X007797Y012290D01*
X007889Y012252D01*
X007988Y012252D01*
X008080Y012290D01*
X008150Y012360D01*
X008188Y012452D01*
X008188Y012551D01*
X010134Y012551D01*
X010126Y012489D02*
X008188Y012489D01*
X008178Y012428D02*
X010128Y012428D01*
X010153Y012366D02*
X008153Y012366D01*
X008095Y012305D02*
X010200Y012305D01*
X010159Y012612D02*
X008163Y012612D01*
X008150Y012643D02*
X008188Y012551D01*
X008026Y012735D02*
X013262Y012735D01*
X013244Y012797D02*
X003966Y012797D01*
X003966Y012858D02*
X013244Y012858D01*
X013261Y012920D02*
X003966Y012920D01*
X003966Y012981D02*
X013294Y012981D01*
X013359Y013043D02*
X003966Y013043D01*
X003966Y013104D02*
X017362Y013104D01*
X017353Y013096D02*
X017315Y013004D01*
X017315Y012905D01*
X017353Y012813D01*
X017423Y012743D01*
X017515Y012705D01*
X017614Y012705D01*
X017706Y012743D01*
X017776Y012813D01*
X017814Y012905D01*
X017814Y013004D01*
X017776Y013096D01*
X017706Y013166D01*
X017614Y013204D01*
X017515Y013204D01*
X017423Y013166D01*
X017353Y013096D01*
X017331Y013043D02*
X013628Y013043D01*
X013694Y012981D02*
X015002Y012981D01*
X014941Y012920D02*
X013726Y012920D01*
X013743Y012858D02*
X014912Y012858D01*
X014898Y012797D02*
X013743Y012797D01*
X013725Y012735D02*
X014756Y012735D01*
X014698Y012674D02*
X013692Y012674D01*
X013625Y012612D02*
X014672Y012612D01*
X015292Y012981D02*
X016998Y012981D01*
X017108Y012981D02*
X017315Y012981D01*
X017315Y012920D02*
X017220Y012920D01*
X017271Y012858D02*
X017334Y012858D01*
X017369Y012797D02*
X017297Y012797D01*
X017302Y012735D02*
X017441Y012735D01*
X017298Y012674D02*
X018801Y012674D01*
X018801Y012735D02*
X017688Y012735D01*
X017760Y012797D02*
X018801Y012797D01*
X018801Y012858D02*
X017795Y012858D01*
X017814Y012920D02*
X018801Y012920D01*
X018801Y012981D02*
X017814Y012981D01*
X017798Y013043D02*
X018801Y013043D01*
X018801Y013104D02*
X017768Y013104D01*
X017706Y013166D02*
X018801Y013166D01*
X018801Y013227D02*
X003966Y013227D01*
X003966Y013166D02*
X017423Y013166D01*
X017273Y012612D02*
X018801Y012612D01*
X018801Y013289D02*
X003966Y013289D01*
X003966Y013350D02*
X018801Y013350D01*
X018801Y013412D02*
X003966Y013412D01*
X003966Y013473D02*
X018801Y013473D01*
X018801Y013535D02*
X003966Y013535D01*
X003966Y013596D02*
X018801Y013596D01*
X018801Y013658D02*
X003966Y013658D01*
X003966Y013719D02*
X018801Y013719D01*
X018801Y013781D02*
X003966Y013781D01*
X003966Y013842D02*
X018801Y013842D01*
X018801Y013904D02*
X003966Y013904D01*
X003966Y013965D02*
X018801Y013965D01*
X018801Y014027D02*
X003966Y014027D01*
X003966Y014088D02*
X018801Y014088D01*
X018801Y014150D02*
X003966Y014150D01*
X003966Y014211D02*
X018801Y014211D01*
X018801Y014273D02*
X003966Y014273D01*
X003966Y014334D02*
X005168Y014334D01*
X005085Y014396D02*
X003966Y014396D01*
X003966Y014457D02*
X005046Y014457D01*
X005024Y014519D02*
X003966Y014519D01*
X003966Y014580D02*
X005024Y014580D01*
X005037Y014642D02*
X003966Y014642D01*
X003966Y014703D02*
X005063Y014703D01*
X005124Y014765D02*
X003966Y014765D01*
X005422Y014765D02*
X018101Y014765D01*
X018075Y014703D02*
X005484Y014703D01*
X005510Y014642D02*
X018063Y014642D01*
X018063Y014580D02*
X005523Y014580D01*
X005523Y014519D02*
X018086Y014519D01*
X018126Y014457D02*
X005501Y014457D01*
X005461Y014396D02*
X018211Y014396D01*
X018414Y014396D02*
X018801Y014396D01*
X018801Y014457D02*
X018499Y014457D01*
X018539Y014519D02*
X018801Y014519D01*
X018801Y014580D02*
X018562Y014580D01*
X018562Y014642D02*
X018801Y014642D01*
X018801Y014703D02*
X018550Y014703D01*
X018524Y014765D02*
X018801Y014765D01*
X018631Y014783D02*
X018631Y014783D01*
X018801Y014334D02*
X005379Y014334D01*
X003966Y012735D02*
X007851Y012735D01*
X007758Y012674D02*
X003966Y012674D01*
X003966Y012612D02*
X004401Y012612D01*
X004332Y012551D02*
X003966Y012551D01*
X003966Y012489D02*
X004298Y012489D01*
X004280Y012428D02*
X003966Y012428D01*
X003966Y012366D02*
X004280Y012366D01*
X004296Y012305D02*
X003966Y012305D01*
X003966Y012243D02*
X004328Y012243D01*
X004392Y012182D02*
X003966Y012182D01*
X004657Y012612D02*
X007714Y012612D01*
X007689Y012551D02*
X007689Y012452D01*
X007699Y012428D02*
X004779Y012428D01*
X004779Y012366D02*
X007724Y012366D01*
X007782Y012305D02*
X004762Y012305D01*
X004718Y011813D02*
X007042Y011813D01*
X007088Y011751D02*
X004782Y011751D01*
X007638Y010399D02*
X007724Y010399D01*
X007744Y010829D02*
X007830Y010829D01*
X008558Y011137D02*
X008578Y011137D01*
X009663Y010768D02*
X012806Y010768D01*
X012976Y010706D02*
X009768Y010706D01*
X009993Y010645D02*
X013021Y010645D01*
X013119Y010583D02*
X010080Y010583D01*
X010277Y010522D02*
X012887Y010522D01*
X012824Y010460D02*
X010368Y010460D01*
X010411Y010399D02*
X012792Y010399D01*
X012776Y010337D02*
X010436Y010337D01*
X010436Y010276D02*
X010522Y010276D01*
X010456Y010214D02*
X010426Y010214D01*
X010423Y010153D02*
X010400Y010153D01*
X010031Y010091D02*
X008777Y010091D01*
X008811Y010030D02*
X010016Y010030D01*
X009996Y009968D02*
X008830Y009968D01*
X008706Y010153D02*
X009973Y010153D01*
X010480Y009845D02*
X010523Y009845D01*
X010452Y009784D02*
X015240Y009784D01*
X015193Y009845D02*
X010787Y009845D01*
X010854Y009907D02*
X015168Y009907D01*
X015165Y009968D02*
X010887Y009968D01*
X010905Y010030D02*
X015173Y010030D01*
X015198Y010091D02*
X013152Y010091D01*
X013222Y010153D02*
X015252Y010153D01*
X015342Y009722D02*
X010390Y009722D01*
X010905Y010091D02*
X012898Y010091D01*
X012828Y010153D02*
X010887Y010153D01*
X010855Y010214D02*
X012794Y010214D01*
X012776Y010276D02*
X010788Y010276D01*
X012431Y009344D02*
X012490Y009344D01*
X012549Y009285D01*
X012243Y009107D02*
X015079Y009107D01*
X015104Y009046D02*
X012243Y009046D01*
X012232Y008984D02*
X015154Y008984D01*
X015261Y008923D02*
X012207Y008923D01*
X010670Y008738D02*
X018801Y008738D01*
X018801Y008677D02*
X010059Y008677D01*
X010070Y008704D02*
X010032Y008612D01*
X009962Y008542D01*
X009870Y008504D01*
X009771Y008504D01*
X009679Y008542D01*
X009609Y008612D01*
X009571Y008704D01*
X009571Y008803D01*
X009609Y008895D01*
X009679Y008965D01*
X009771Y009003D01*
X009870Y009003D01*
X009962Y008965D01*
X010032Y008895D01*
X010070Y008803D01*
X010070Y008704D01*
X010070Y008738D02*
X010365Y008738D01*
X010305Y008800D02*
X010070Y008800D01*
X010046Y008861D02*
X010279Y008861D01*
X010268Y008923D02*
X010004Y008923D01*
X009916Y008984D02*
X010268Y008984D01*
X010033Y008615D02*
X018801Y008615D01*
X018801Y008554D02*
X009974Y008554D01*
X009667Y008554D02*
X008793Y008554D01*
X008781Y008542D02*
X008851Y008612D01*
X008889Y008704D01*
X008889Y008803D01*
X008851Y008895D01*
X008781Y008965D01*
X008689Y009003D01*
X008590Y009003D01*
X008498Y008965D01*
X008428Y008895D01*
X008390Y008803D01*
X008390Y008704D01*
X008428Y008612D01*
X008498Y008542D01*
X008590Y008504D01*
X008689Y008504D01*
X008781Y008542D01*
X008852Y008615D02*
X009608Y008615D01*
X009582Y008677D02*
X008878Y008677D01*
X008889Y008738D02*
X009571Y008738D01*
X009571Y008800D02*
X008889Y008800D01*
X008865Y008861D02*
X009595Y008861D01*
X009637Y008923D02*
X008823Y008923D01*
X008734Y008984D02*
X009725Y008984D01*
X009371Y008375D02*
X009280Y008413D01*
X009180Y008413D01*
X009089Y008375D01*
X009018Y008304D01*
X008980Y008213D01*
X008980Y008113D01*
X009018Y008022D01*
X009089Y007951D01*
X009180Y007913D01*
X009280Y007913D01*
X009371Y007951D01*
X009442Y008022D01*
X009480Y008113D01*
X009480Y008213D01*
X009442Y008304D01*
X009371Y008375D01*
X009377Y008369D02*
X014194Y008369D01*
X014231Y008385D02*
X014140Y008347D01*
X014069Y008277D01*
X014031Y008185D01*
X009480Y008185D01*
X009480Y008123D02*
X014031Y008123D01*
X014031Y008086D02*
X014069Y007994D01*
X014140Y007924D01*
X014231Y007886D01*
X014331Y007886D01*
X014422Y007924D01*
X014493Y007994D01*
X014531Y008086D01*
X014531Y008185D01*
X018801Y008185D01*
X018801Y008246D02*
X014505Y008246D01*
X014493Y008277D02*
X014422Y008347D01*
X014331Y008385D01*
X014231Y008385D01*
X014368Y008369D02*
X018801Y008369D01*
X018801Y008308D02*
X014462Y008308D01*
X014493Y008277D02*
X014531Y008185D01*
X014531Y008123D02*
X018801Y008123D01*
X018801Y008062D02*
X014521Y008062D01*
X014495Y008000D02*
X016525Y008000D01*
X016452Y007939D02*
X014438Y007939D01*
X014125Y007939D02*
X009341Y007939D01*
X009420Y008000D02*
X014067Y008000D01*
X014041Y008062D02*
X009458Y008062D01*
X009119Y007939D02*
X008160Y007939D01*
X008239Y008000D02*
X009039Y008000D01*
X009002Y008062D02*
X008277Y008062D01*
X008298Y008123D02*
X008980Y008123D01*
X008980Y008185D02*
X008298Y008185D01*
X008284Y008246D02*
X008994Y008246D01*
X009022Y008308D02*
X008257Y008308D01*
X008195Y008369D02*
X009083Y008369D01*
X009438Y008308D02*
X014101Y008308D01*
X014057Y008246D02*
X009466Y008246D01*
X008486Y008554D02*
X007612Y008554D01*
X007671Y008615D02*
X008426Y008615D01*
X008401Y008677D02*
X007697Y008677D01*
X007708Y008738D02*
X008390Y008738D01*
X008390Y008800D02*
X007708Y008800D01*
X007684Y008861D02*
X008414Y008861D01*
X008456Y008923D02*
X007642Y008923D01*
X007553Y008984D02*
X008544Y008984D01*
X007902Y008369D02*
X006679Y008369D01*
X006706Y008431D02*
X018801Y008431D01*
X018801Y008492D02*
X006720Y008492D01*
X006720Y008554D02*
X007305Y008554D01*
X007245Y008615D02*
X006698Y008615D01*
X006660Y008677D02*
X007220Y008677D01*
X007209Y008738D02*
X006579Y008738D01*
X006618Y008308D02*
X007841Y008308D01*
X010389Y006771D02*
X018801Y006771D01*
X018801Y006709D02*
X010450Y006709D01*
X013450Y007754D02*
X013663Y007754D01*
X013765Y007754D02*
X013978Y007754D01*
X014080Y007754D02*
X014293Y007754D01*
X014031Y008086D02*
X014031Y008185D01*
X015387Y008923D02*
X016876Y008923D01*
X016909Y008909D02*
X017008Y008909D01*
X017100Y008947D01*
X017170Y009018D01*
X017208Y009109D01*
X017208Y009209D01*
X017170Y009300D01*
X017100Y009371D01*
X017008Y009409D01*
X016909Y009409D01*
X016817Y009371D01*
X016747Y009300D01*
X016709Y009209D01*
X016709Y009109D01*
X016747Y009018D01*
X016817Y008947D01*
X016909Y008909D01*
X017040Y008923D02*
X018801Y008923D01*
X018801Y008984D02*
X017137Y008984D01*
X017182Y009046D02*
X018801Y009046D01*
X018801Y009107D02*
X017207Y009107D01*
X017208Y009169D02*
X018801Y009169D01*
X018801Y009230D02*
X017199Y009230D01*
X017173Y009292D02*
X018801Y009292D01*
X018801Y009353D02*
X017117Y009353D01*
X016799Y009353D02*
X016143Y009353D01*
X016198Y009415D02*
X018801Y009415D01*
X018801Y009476D02*
X016224Y009476D01*
X016231Y009538D02*
X018801Y009538D01*
X018801Y009599D02*
X016230Y009599D01*
X016204Y009661D02*
X018801Y009661D01*
X018801Y009722D02*
X018511Y009722D01*
X018613Y009784D02*
X018801Y009784D01*
X018801Y009845D02*
X018660Y009845D01*
X018686Y009907D02*
X018801Y009907D01*
X018801Y009968D02*
X018688Y009968D01*
X018681Y010030D02*
X018801Y010030D01*
X018801Y010091D02*
X018655Y010091D01*
X018366Y009722D02*
X016158Y009722D01*
X016506Y009698D02*
X016506Y009639D01*
X016743Y009292D02*
X015543Y009292D01*
X015568Y009230D02*
X016718Y009230D01*
X016709Y009169D02*
X015574Y009169D01*
X015570Y009107D02*
X016710Y009107D01*
X016735Y009046D02*
X015544Y009046D01*
X015495Y008984D02*
X016780Y008984D01*
X016269Y009167D02*
X016210Y009108D01*
X015820Y009353D02*
X015491Y009353D01*
X016770Y008000D02*
X018801Y008000D01*
X018801Y007939D02*
X016842Y007939D01*
X016877Y007877D02*
X018801Y007877D01*
X018801Y007816D02*
X016897Y007816D01*
X016897Y007754D02*
X018801Y007754D01*
X018801Y007693D02*
X016881Y007693D01*
X016851Y007631D02*
X018801Y007631D01*
X018801Y007570D02*
X016789Y007570D01*
X013324Y010460D02*
X013227Y010460D01*
X013274Y010522D02*
X013163Y010522D01*
X016122Y011321D02*
X018644Y011321D01*
X018564Y011260D02*
X016183Y011260D01*
X015915Y012592D02*
X015856Y012651D01*
X015494Y004112D02*
X017411Y004112D01*
X017411Y000486D01*
X012687Y000486D01*
X012687Y002403D01*
X015494Y002403D01*
X015494Y004112D01*
X015494Y004065D02*
X017411Y004065D01*
X017411Y004003D02*
X015494Y004003D01*
X015494Y003942D02*
X017411Y003942D01*
X017411Y003880D02*
X015494Y003880D01*
X015494Y003819D02*
X017411Y003819D01*
X017411Y003757D02*
X015494Y003757D01*
X015494Y003696D02*
X017411Y003696D01*
X017411Y003634D02*
X015494Y003634D01*
X015494Y003573D02*
X017411Y003573D01*
X017411Y003512D02*
X015494Y003512D01*
X015494Y003450D02*
X017411Y003450D01*
X017411Y003389D02*
X015494Y003389D01*
X015494Y003327D02*
X017411Y003327D01*
X017411Y003266D02*
X015494Y003266D01*
X015494Y003204D02*
X017411Y003204D01*
X017411Y003143D02*
X015494Y003143D01*
X015494Y003081D02*
X017411Y003081D01*
X017411Y003020D02*
X015494Y003020D01*
X015494Y002958D02*
X017411Y002958D01*
X017411Y002897D02*
X015494Y002897D01*
X015494Y002835D02*
X017411Y002835D01*
X017411Y002774D02*
X015494Y002774D01*
X015494Y002712D02*
X017411Y002712D01*
X017411Y002651D02*
X015494Y002651D01*
X015494Y002589D02*
X017411Y002589D01*
X017411Y002528D02*
X015494Y002528D01*
X015494Y002466D02*
X017411Y002466D01*
X017411Y002405D02*
X015494Y002405D01*
X017411Y002343D02*
X012687Y002343D01*
X012687Y002282D02*
X017411Y002282D01*
X017411Y002220D02*
X012687Y002220D01*
X012687Y002159D02*
X017411Y002159D01*
X017411Y002097D02*
X012687Y002097D01*
X012687Y002036D02*
X017411Y002036D01*
X017411Y001974D02*
X012687Y001974D01*
X012687Y001913D02*
X017411Y001913D01*
X017411Y001851D02*
X012687Y001851D01*
X012687Y001790D02*
X017411Y001790D01*
X017411Y001728D02*
X012687Y001728D01*
X012687Y001667D02*
X017411Y001667D01*
X017411Y001605D02*
X012687Y001605D01*
X012687Y001544D02*
X017411Y001544D01*
X017411Y001482D02*
X012687Y001482D01*
X012687Y001421D02*
X017411Y001421D01*
X017411Y001359D02*
X012687Y001359D01*
X012687Y001298D02*
X017411Y001298D01*
X017411Y001236D02*
X012687Y001236D01*
X012687Y001175D02*
X017411Y001175D01*
X017411Y001113D02*
X012687Y001113D01*
X012687Y001052D02*
X017411Y001052D01*
X017411Y000990D02*
X012687Y000990D01*
X012687Y000929D02*
X017411Y000929D01*
X017411Y000867D02*
X012687Y000867D01*
X012687Y000806D02*
X017411Y000806D01*
X017411Y000744D02*
X012687Y000744D01*
X012687Y000683D02*
X017411Y000683D01*
X017411Y000621D02*
X012687Y000621D01*
X012687Y000560D02*
X017411Y000560D01*
X017411Y000498D02*
X012687Y000498D01*
D15*
X018565Y009521D02*
X018925Y009881D01*
X019732Y009881D01*
X020232Y009881D01*
D16*
X020179Y012356D03*
X020179Y002907D03*
X002462Y002907D03*
X002462Y012356D03*
M02*
