G75*
%MOIN*%
%OFA0B0*%
%FSLAX24Y24*%
%IPPOS*%
%LPD*%
%AMOC8*
5,1,8,0,0,1.08239X$1,22.5*
%
%ADD10C,0.0390*%
%ADD11C,0.0420*%
%ADD12C,0.0236*%
%ADD13C,0.0063*%
%ADD14C,0.0100*%
%ADD15C,0.0320*%
%ADD16C,0.0240*%
%ADD17C,0.1581*%
D10*
X004336Y000939D03*
X004836Y000939D03*
X005336Y000939D03*
X005836Y000939D03*
X006336Y000939D03*
X006836Y000939D03*
X007336Y000939D03*
X007836Y000939D03*
X008336Y000939D03*
X008836Y000939D03*
X009336Y000939D03*
X009836Y000939D03*
X010336Y000939D03*
X010836Y000939D03*
X011336Y000939D03*
X011836Y000939D03*
X012336Y000939D03*
X012836Y000939D03*
X013336Y000939D03*
X013836Y000939D03*
X014336Y000939D03*
X014836Y000939D03*
X015336Y000939D03*
X015836Y000939D03*
X016336Y000939D03*
D11*
X019732Y004881D03*
X020232Y004881D03*
X020232Y005381D03*
X019732Y005381D03*
X019732Y005881D03*
X020232Y005881D03*
X020232Y006381D03*
X019732Y006381D03*
X019732Y006881D03*
X020232Y006881D03*
X020232Y007381D03*
X019732Y007381D03*
X019732Y007881D03*
X020232Y007881D03*
X020232Y008381D03*
X019732Y008381D03*
X019732Y008881D03*
X020232Y008881D03*
X020232Y009381D03*
X019732Y009381D03*
X019732Y009881D03*
X020232Y009881D03*
X020232Y010381D03*
X019732Y010381D03*
X002122Y010381D03*
X001622Y010381D03*
X001622Y009881D03*
X002122Y009881D03*
X002122Y009381D03*
X001622Y009381D03*
X001622Y008881D03*
X002122Y008881D03*
X002122Y008381D03*
X001622Y008381D03*
X001622Y007881D03*
X002122Y007881D03*
X002122Y007381D03*
X001622Y007381D03*
X001622Y006881D03*
X002122Y006881D03*
X002122Y006381D03*
X001622Y006381D03*
X001622Y005881D03*
X002122Y005881D03*
X002122Y005381D03*
X001622Y005381D03*
X001622Y004881D03*
X002122Y004881D03*
D12*
X003517Y005584D03*
X003895Y005584D03*
X004273Y005584D03*
X004628Y005584D03*
X004982Y005584D03*
X005336Y005584D03*
X005691Y005584D03*
X006045Y005584D03*
X006399Y005584D03*
X006399Y006175D03*
X006045Y006175D03*
X005691Y006175D03*
X005336Y006175D03*
X004982Y006175D03*
X004628Y006175D03*
X004273Y006175D03*
X003895Y006175D03*
X003517Y006175D03*
X004450Y007076D03*
X004454Y007506D03*
X006470Y008513D03*
X007458Y008754D03*
X008049Y009344D03*
X008580Y009935D03*
X009171Y009344D03*
X008639Y008754D03*
X008049Y008163D03*
X008639Y007572D03*
X009230Y008163D03*
X009820Y008754D03*
X010517Y008939D03*
X011423Y009084D03*
X011994Y009061D03*
X012431Y009344D03*
X013021Y009462D03*
X013025Y010309D03*
X013494Y010643D03*
X013198Y010820D03*
X012903Y010998D03*
X014198Y011714D03*
X014439Y012002D03*
X014675Y012238D03*
X014911Y012537D03*
X015147Y012773D03*
X015856Y012651D03*
X016269Y012651D03*
X017053Y012734D03*
X017565Y012954D03*
X017954Y013135D03*
X018502Y012293D03*
X018754Y011096D03*
X019383Y010907D03*
X018439Y009962D03*
X017667Y010931D03*
X016383Y011588D03*
X015974Y011116D03*
X015698Y010860D03*
X016297Y010655D03*
X015982Y010151D03*
X015415Y009962D03*
X015982Y009545D03*
X016506Y009639D03*
X016958Y009159D03*
X016210Y009108D03*
X015324Y009167D03*
X014281Y008135D03*
X014344Y007506D03*
X014029Y007506D03*
X013714Y007506D03*
X013399Y007506D03*
X015037Y007506D03*
X015037Y007128D03*
X014970Y006175D03*
X014616Y006175D03*
X014261Y006175D03*
X013907Y006175D03*
X013553Y006175D03*
X013553Y005584D03*
X013907Y005584D03*
X014261Y005584D03*
X014616Y005584D03*
X014970Y005584D03*
X016202Y005289D03*
X016439Y005289D03*
X016675Y005289D03*
X016911Y005289D03*
X017147Y005289D03*
X017147Y005053D03*
X016911Y005053D03*
X016675Y005053D03*
X016439Y005053D03*
X016439Y004817D03*
X016675Y004817D03*
X016911Y004817D03*
X017147Y004817D03*
X016911Y004580D03*
X016675Y004580D03*
X016439Y004580D03*
X016202Y004580D03*
X016202Y004817D03*
X016202Y005053D03*
X016226Y003911D03*
X016462Y003911D03*
X016698Y003911D03*
X016935Y003911D03*
X017171Y003911D03*
X017171Y003675D03*
X016935Y003675D03*
X016935Y003439D03*
X017171Y003439D03*
X017171Y003202D03*
X017171Y002966D03*
X016935Y002966D03*
X016935Y003202D03*
X016698Y003202D03*
X016462Y003202D03*
X016462Y002966D03*
X016226Y002966D03*
X015990Y002966D03*
X015990Y003202D03*
X016226Y003202D03*
X016226Y003439D03*
X016226Y003675D03*
X016462Y003675D03*
X016462Y003439D03*
X016698Y003439D03*
X016698Y003675D03*
X015990Y003675D03*
X015990Y003439D03*
X015754Y003439D03*
X015754Y003675D03*
X015754Y003911D03*
X015990Y003911D03*
X015754Y003202D03*
X015754Y002966D03*
X014923Y002907D03*
X014923Y002671D03*
X014687Y002671D03*
X014687Y002907D03*
X014450Y002907D03*
X014214Y002907D03*
X013978Y002907D03*
X013978Y002671D03*
X014214Y002671D03*
X014450Y002671D03*
X014450Y003143D03*
X014214Y003143D03*
X013978Y003143D03*
X013742Y003143D03*
X013506Y003143D03*
X013506Y003380D03*
X013742Y003380D03*
X013978Y003380D03*
X014214Y003380D03*
X014450Y003380D03*
X014687Y003380D03*
X014923Y003380D03*
X014923Y003143D03*
X014687Y003143D03*
X014687Y003616D03*
X014923Y003616D03*
X014923Y003852D03*
X014687Y003852D03*
X014450Y003852D03*
X014214Y003852D03*
X013978Y003852D03*
X013978Y003616D03*
X014214Y003616D03*
X014450Y003616D03*
X013742Y003616D03*
X013742Y003852D03*
X013506Y003852D03*
X013506Y003616D03*
X012742Y003557D03*
X012506Y003557D03*
X012506Y003320D03*
X012742Y003320D03*
X012742Y003084D03*
X012742Y002848D03*
X012506Y002848D03*
X012506Y003084D03*
X012269Y003084D03*
X012033Y003084D03*
X012033Y002848D03*
X011797Y002848D03*
X011797Y003084D03*
X011561Y003084D03*
X011561Y002848D03*
X011324Y002848D03*
X011324Y003084D03*
X011324Y003320D03*
X011561Y003320D03*
X011797Y003320D03*
X012033Y003320D03*
X012269Y003320D03*
X012269Y003557D03*
X012033Y003557D03*
X011797Y003557D03*
X011561Y003557D03*
X011324Y003557D03*
X011324Y003793D03*
X011324Y004029D03*
X011561Y004029D03*
X011797Y004029D03*
X012033Y004029D03*
X012033Y003793D03*
X011797Y003793D03*
X011561Y003793D03*
X012269Y003793D03*
X012269Y004029D03*
X012506Y004029D03*
X012742Y004029D03*
X012742Y003793D03*
X012506Y003793D03*
X012269Y002848D03*
X012206Y002257D03*
X012206Y002021D03*
X011970Y002021D03*
X011734Y002021D03*
X011498Y002021D03*
X011498Y002257D03*
X011734Y002257D03*
X011970Y002257D03*
X011261Y002257D03*
X011261Y002021D03*
X010553Y002139D03*
X010317Y002139D03*
X010080Y002139D03*
X009844Y002139D03*
X009608Y002139D03*
X009372Y002139D03*
X009135Y002139D03*
X009135Y002376D03*
X009135Y002612D03*
X009372Y002612D03*
X009608Y002612D03*
X009844Y002612D03*
X010080Y002612D03*
X010080Y002376D03*
X009844Y002376D03*
X009608Y002376D03*
X009372Y002376D03*
X009372Y002848D03*
X009608Y002848D03*
X009844Y002848D03*
X009844Y003084D03*
X009608Y003084D03*
X009372Y003084D03*
X009135Y003084D03*
X009135Y002848D03*
X009135Y003320D03*
X009372Y003320D03*
X009608Y003320D03*
X009844Y003320D03*
X010080Y003320D03*
X010317Y003320D03*
X010553Y003320D03*
X010553Y003084D03*
X010553Y002848D03*
X010317Y002848D03*
X010317Y003084D03*
X010080Y003084D03*
X010080Y002848D03*
X010317Y002612D03*
X010553Y002612D03*
X010553Y002376D03*
X010317Y002376D03*
X008313Y002435D03*
X008313Y002198D03*
X008076Y002198D03*
X007840Y002198D03*
X007604Y002198D03*
X007368Y002198D03*
X007131Y002198D03*
X006895Y002198D03*
X006895Y002435D03*
X007131Y002435D03*
X007368Y002435D03*
X007604Y002435D03*
X007840Y002435D03*
X008076Y002435D03*
X008076Y002671D03*
X007840Y002671D03*
X007604Y002671D03*
X007604Y002907D03*
X007840Y002907D03*
X008076Y002907D03*
X008313Y002907D03*
X008313Y002671D03*
X008313Y003143D03*
X008313Y003380D03*
X008076Y003380D03*
X007840Y003380D03*
X007604Y003380D03*
X007368Y003380D03*
X007131Y003380D03*
X006895Y003380D03*
X006895Y003143D03*
X007131Y003143D03*
X007368Y003143D03*
X007604Y003143D03*
X007840Y003143D03*
X008076Y003143D03*
X007368Y002907D03*
X007368Y002671D03*
X007131Y002671D03*
X006895Y002671D03*
X006895Y002907D03*
X007131Y002907D03*
X006183Y003025D03*
X005946Y003025D03*
X005710Y003025D03*
X005474Y003025D03*
X005238Y003025D03*
X005002Y003025D03*
X004765Y003025D03*
X004765Y003261D03*
X005002Y003261D03*
X005238Y003261D03*
X005474Y003261D03*
X005710Y003261D03*
X005946Y003261D03*
X005946Y003498D03*
X005710Y003498D03*
X005474Y003498D03*
X005238Y003498D03*
X005002Y003498D03*
X004765Y003498D03*
X004765Y003734D03*
X004765Y003970D03*
X005002Y003970D03*
X005238Y003970D03*
X005474Y003970D03*
X005474Y003734D03*
X005238Y003734D03*
X005002Y003734D03*
X005002Y004206D03*
X005238Y004206D03*
X005474Y004206D03*
X005710Y004206D03*
X005946Y004206D03*
X006183Y004206D03*
X006183Y003970D03*
X006183Y003734D03*
X005946Y003734D03*
X005710Y003734D03*
X005710Y003970D03*
X005946Y003970D03*
X006183Y003498D03*
X006183Y003261D03*
X005769Y002439D03*
X005533Y002439D03*
X005297Y002439D03*
X005061Y002439D03*
X004824Y002439D03*
X005297Y002202D03*
X005533Y002202D03*
X005769Y002202D03*
X004765Y004206D03*
X007718Y004443D03*
X007954Y004443D03*
X008191Y004443D03*
X008427Y004443D03*
X008663Y004443D03*
X008663Y004679D03*
X008427Y004679D03*
X008191Y004679D03*
X007954Y004679D03*
X007718Y004679D03*
X007939Y005643D03*
X007939Y005880D03*
X008175Y005880D03*
X008411Y005880D03*
X008647Y005880D03*
X008647Y005643D03*
X008647Y006116D03*
X008411Y006116D03*
X008175Y006116D03*
X007939Y006116D03*
X008427Y006561D03*
X008872Y006679D03*
X009836Y006116D03*
X010072Y006116D03*
X010309Y006116D03*
X010545Y006116D03*
X010545Y005880D03*
X010309Y005880D03*
X010072Y005880D03*
X009836Y005880D03*
X009836Y005643D03*
X010545Y005643D03*
X011191Y005584D03*
X011545Y005584D03*
X011899Y005584D03*
X012254Y005584D03*
X012608Y005584D03*
X012608Y006175D03*
X012254Y006175D03*
X011899Y006175D03*
X011545Y006175D03*
X011191Y006175D03*
X010246Y006561D03*
X010006Y006773D03*
X009962Y004679D03*
X010198Y004679D03*
X010435Y004679D03*
X010671Y004679D03*
X010671Y004443D03*
X010435Y004443D03*
X010198Y004443D03*
X009962Y004443D03*
X009726Y004443D03*
X009726Y004679D03*
X007226Y007254D03*
X006513Y009265D03*
X007399Y010112D03*
X007340Y010407D03*
X007576Y010643D03*
X007891Y010584D03*
X008108Y010820D03*
X008403Y010939D03*
X008072Y011317D03*
X008710Y011352D03*
X009596Y010525D03*
X009895Y010415D03*
X010187Y010289D03*
X010246Y009931D03*
X010655Y010061D03*
X011297Y009915D03*
X010907Y011588D03*
X010006Y011549D03*
X010376Y012482D03*
X007939Y012502D03*
X007265Y011927D03*
X004580Y011600D03*
X004529Y012395D03*
X005273Y014561D03*
X013096Y012824D03*
X013494Y012828D03*
X018313Y014624D03*
X016647Y007781D03*
X018880Y007317D03*
X018880Y006246D03*
X018513Y003285D03*
X018513Y003033D03*
X017757Y003033D03*
X017757Y003285D03*
X016698Y002966D03*
X014513Y002080D03*
X014277Y002080D03*
X014041Y002080D03*
X014041Y001844D03*
X014277Y001844D03*
X014513Y001844D03*
X013805Y001844D03*
X013569Y001844D03*
X013569Y002080D03*
X013805Y002080D03*
X013742Y002671D03*
X013742Y002907D03*
X013506Y002907D03*
X013506Y002671D03*
D13*
X003939Y000480D02*
X003939Y005092D01*
X006444Y005092D01*
X007179Y004256D01*
X007179Y004248D01*
X007228Y004200D01*
X007273Y004148D01*
X007280Y004148D01*
X007286Y004143D01*
X007354Y004143D01*
X007423Y004138D01*
X007429Y004143D01*
X018641Y004202D01*
X018713Y004200D01*
X018716Y004202D01*
X018719Y004202D01*
X018761Y004245D01*
X018761Y000483D01*
X018686Y000480D01*
X004009Y000480D01*
X003955Y000480D01*
X003939Y000480D01*
X003939Y000498D02*
X018761Y000498D01*
X018761Y000560D02*
X003939Y000560D01*
X003939Y000621D02*
X004249Y000621D01*
X004271Y000612D02*
X004151Y000662D01*
X004059Y000754D01*
X004010Y000874D01*
X004010Y001004D01*
X004059Y001124D01*
X004151Y001215D01*
X004271Y001265D01*
X004401Y001265D01*
X004521Y001215D01*
X004586Y001150D01*
X004651Y001215D01*
X004771Y001265D01*
X004901Y001265D01*
X005021Y001215D01*
X005086Y001150D01*
X005151Y001215D01*
X005271Y001265D01*
X005401Y001265D01*
X005521Y001215D01*
X005586Y001150D01*
X005651Y001215D01*
X005771Y001265D01*
X005901Y001265D01*
X006021Y001215D01*
X006086Y001150D01*
X006151Y001215D01*
X006271Y001265D01*
X006401Y001265D01*
X006521Y001215D01*
X006586Y001150D01*
X006651Y001215D01*
X006771Y001265D01*
X006901Y001265D01*
X007021Y001215D01*
X007086Y001150D01*
X007151Y001215D01*
X007271Y001265D01*
X007401Y001265D01*
X007521Y001215D01*
X007586Y001150D01*
X007651Y001215D01*
X007771Y001265D01*
X007901Y001265D01*
X008021Y001215D01*
X008086Y001150D01*
X008151Y001215D01*
X008271Y001265D01*
X008401Y001265D01*
X008521Y001215D01*
X008586Y001150D01*
X008651Y001215D01*
X008771Y001265D01*
X008901Y001265D01*
X009021Y001215D01*
X009086Y001150D01*
X009151Y001215D01*
X009271Y001265D01*
X009401Y001265D01*
X009521Y001215D01*
X009586Y001150D01*
X009651Y001215D01*
X009771Y001265D01*
X009901Y001265D01*
X010021Y001215D01*
X010086Y001150D01*
X010151Y001215D01*
X010271Y001265D01*
X010401Y001265D01*
X010521Y001215D01*
X010586Y001150D01*
X010651Y001215D01*
X010771Y001265D01*
X010901Y001265D01*
X011021Y001215D01*
X011086Y001150D01*
X011151Y001215D01*
X011271Y001265D01*
X011401Y001265D01*
X011521Y001215D01*
X011586Y001150D01*
X011651Y001215D01*
X011771Y001265D01*
X011901Y001265D01*
X012021Y001215D01*
X012086Y001150D01*
X012151Y001215D01*
X012271Y001265D01*
X012401Y001265D01*
X012521Y001215D01*
X012586Y001150D01*
X012651Y001215D01*
X012771Y001265D01*
X012901Y001265D01*
X013021Y001215D01*
X013086Y001150D01*
X013151Y001215D01*
X013271Y001265D01*
X013401Y001265D01*
X013521Y001215D01*
X013586Y001150D01*
X013651Y001215D01*
X013771Y001265D01*
X013901Y001265D01*
X014021Y001215D01*
X014086Y001150D01*
X014151Y001215D01*
X014271Y001265D01*
X014401Y001265D01*
X014521Y001215D01*
X014586Y001150D01*
X014651Y001215D01*
X014771Y001265D01*
X014901Y001265D01*
X015021Y001215D01*
X015086Y001150D01*
X015151Y001215D01*
X015271Y001265D01*
X015401Y001265D01*
X015521Y001215D01*
X015586Y001150D01*
X015651Y001215D01*
X015771Y001265D01*
X015901Y001265D01*
X016021Y001215D01*
X016086Y001150D01*
X016151Y001215D01*
X016271Y001265D01*
X016401Y001265D01*
X016521Y001215D01*
X016613Y001124D01*
X016663Y001004D01*
X016663Y000874D01*
X016613Y000754D01*
X016521Y000662D01*
X016401Y000612D01*
X016271Y000612D01*
X016151Y000662D01*
X016086Y000727D01*
X016021Y000662D01*
X015901Y000612D01*
X015771Y000612D01*
X015651Y000662D01*
X015586Y000727D01*
X015521Y000662D01*
X015401Y000612D01*
X015271Y000612D01*
X015151Y000662D01*
X015086Y000727D01*
X015021Y000662D01*
X014901Y000612D01*
X014771Y000612D01*
X014651Y000662D01*
X014586Y000727D01*
X014521Y000662D01*
X014401Y000612D01*
X014271Y000612D01*
X014151Y000662D01*
X014086Y000727D01*
X014021Y000662D01*
X013901Y000612D01*
X013771Y000612D01*
X013651Y000662D01*
X013586Y000727D01*
X013521Y000662D01*
X013401Y000612D01*
X013271Y000612D01*
X013151Y000662D01*
X013086Y000727D01*
X013021Y000662D01*
X012901Y000612D01*
X012771Y000612D01*
X012651Y000662D01*
X012586Y000727D01*
X012521Y000662D01*
X012401Y000612D01*
X012271Y000612D01*
X012151Y000662D01*
X012086Y000727D01*
X012021Y000662D01*
X011901Y000612D01*
X011771Y000612D01*
X011651Y000662D01*
X011586Y000727D01*
X011521Y000662D01*
X011401Y000612D01*
X011271Y000612D01*
X011151Y000662D01*
X011086Y000727D01*
X011021Y000662D01*
X010901Y000612D01*
X010771Y000612D01*
X010651Y000662D01*
X010586Y000727D01*
X010521Y000662D01*
X010401Y000612D01*
X010271Y000612D01*
X010151Y000662D01*
X010086Y000727D01*
X010021Y000662D01*
X009901Y000612D01*
X009771Y000612D01*
X009651Y000662D01*
X009586Y000727D01*
X009521Y000662D01*
X009401Y000612D01*
X009271Y000612D01*
X009151Y000662D01*
X009086Y000727D01*
X009021Y000662D01*
X008901Y000612D01*
X008771Y000612D01*
X008651Y000662D01*
X008586Y000727D01*
X008521Y000662D01*
X008401Y000612D01*
X008271Y000612D01*
X008151Y000662D01*
X008086Y000727D01*
X008021Y000662D01*
X007901Y000612D01*
X007771Y000612D01*
X007651Y000662D01*
X007586Y000727D01*
X007521Y000662D01*
X007401Y000612D01*
X007271Y000612D01*
X007151Y000662D01*
X007086Y000727D01*
X007021Y000662D01*
X006901Y000612D01*
X006771Y000612D01*
X006651Y000662D01*
X006586Y000727D01*
X006521Y000662D01*
X006401Y000612D01*
X006271Y000612D01*
X006151Y000662D01*
X006086Y000727D01*
X006021Y000662D01*
X005901Y000612D01*
X005771Y000612D01*
X005651Y000662D01*
X005586Y000727D01*
X005521Y000662D01*
X005401Y000612D01*
X005271Y000612D01*
X005151Y000662D01*
X005086Y000727D01*
X005021Y000662D01*
X004901Y000612D01*
X004771Y000612D01*
X004651Y000662D01*
X004586Y000727D01*
X004521Y000662D01*
X004401Y000612D01*
X004271Y000612D01*
X004424Y000621D02*
X004749Y000621D01*
X004630Y000683D02*
X004542Y000683D01*
X004924Y000621D02*
X005249Y000621D01*
X005130Y000683D02*
X005042Y000683D01*
X005424Y000621D02*
X005749Y000621D01*
X005630Y000683D02*
X005542Y000683D01*
X005924Y000621D02*
X006249Y000621D01*
X006130Y000683D02*
X006042Y000683D01*
X006424Y000621D02*
X006749Y000621D01*
X006630Y000683D02*
X006542Y000683D01*
X006924Y000621D02*
X007249Y000621D01*
X007130Y000683D02*
X007042Y000683D01*
X007424Y000621D02*
X007749Y000621D01*
X007630Y000683D02*
X007542Y000683D01*
X007924Y000621D02*
X008249Y000621D01*
X008130Y000683D02*
X008042Y000683D01*
X008424Y000621D02*
X008749Y000621D01*
X008630Y000683D02*
X008542Y000683D01*
X008924Y000621D02*
X009249Y000621D01*
X009130Y000683D02*
X009042Y000683D01*
X009424Y000621D02*
X009749Y000621D01*
X009630Y000683D02*
X009542Y000683D01*
X009924Y000621D02*
X010249Y000621D01*
X010130Y000683D02*
X010042Y000683D01*
X010424Y000621D02*
X010749Y000621D01*
X010630Y000683D02*
X010542Y000683D01*
X010924Y000621D02*
X011249Y000621D01*
X011130Y000683D02*
X011042Y000683D01*
X011424Y000621D02*
X011749Y000621D01*
X011630Y000683D02*
X011542Y000683D01*
X011924Y000621D02*
X012249Y000621D01*
X012130Y000683D02*
X012042Y000683D01*
X012424Y000621D02*
X012749Y000621D01*
X012630Y000683D02*
X012542Y000683D01*
X012924Y000621D02*
X013249Y000621D01*
X013130Y000683D02*
X013042Y000683D01*
X013424Y000621D02*
X013749Y000621D01*
X013630Y000683D02*
X013542Y000683D01*
X013924Y000621D02*
X014249Y000621D01*
X014130Y000683D02*
X014042Y000683D01*
X014424Y000621D02*
X014749Y000621D01*
X014630Y000683D02*
X014542Y000683D01*
X014924Y000621D02*
X015249Y000621D01*
X015130Y000683D02*
X015042Y000683D01*
X015424Y000621D02*
X015749Y000621D01*
X015630Y000683D02*
X015542Y000683D01*
X015924Y000621D02*
X016249Y000621D01*
X016130Y000683D02*
X016042Y000683D01*
X016424Y000621D02*
X018761Y000621D01*
X018761Y000683D02*
X016542Y000683D01*
X016604Y000744D02*
X018761Y000744D01*
X018761Y000806D02*
X016635Y000806D01*
X016660Y000867D02*
X018761Y000867D01*
X018761Y000929D02*
X016663Y000929D01*
X016663Y000990D02*
X018761Y000990D01*
X018761Y001052D02*
X016643Y001052D01*
X016617Y001113D02*
X018761Y001113D01*
X018761Y001175D02*
X016562Y001175D01*
X016471Y001236D02*
X018761Y001236D01*
X018761Y001298D02*
X003939Y001298D01*
X003939Y001359D02*
X018761Y001359D01*
X018761Y001421D02*
X003939Y001421D01*
X003939Y001482D02*
X018761Y001482D01*
X018761Y001544D02*
X003939Y001544D01*
X003939Y001605D02*
X013493Y001605D01*
X013519Y001594D02*
X013618Y001594D01*
X013687Y001623D01*
X013755Y001594D01*
X013854Y001594D01*
X013923Y001623D01*
X013991Y001594D01*
X014091Y001594D01*
X014159Y001623D01*
X014228Y001594D01*
X014327Y001594D01*
X014395Y001623D01*
X014464Y001594D01*
X014563Y001594D01*
X014655Y001632D01*
X014725Y001703D01*
X014763Y001794D01*
X014763Y001894D01*
X014735Y001962D01*
X014763Y002031D01*
X014763Y002130D01*
X014725Y002222D01*
X014655Y002292D01*
X014563Y002330D01*
X014464Y002330D01*
X014395Y002302D01*
X014327Y002330D01*
X014228Y002330D01*
X014159Y002302D01*
X014091Y002330D01*
X013991Y002330D01*
X013923Y002302D01*
X013854Y002330D01*
X013755Y002330D01*
X013687Y002302D01*
X013618Y002330D01*
X013519Y002330D01*
X013427Y002292D01*
X013357Y002222D01*
X013319Y002130D01*
X013319Y002031D01*
X013347Y001962D01*
X013319Y001894D01*
X013319Y001794D01*
X013357Y001703D01*
X013427Y001632D01*
X013519Y001594D01*
X013644Y001605D02*
X013729Y001605D01*
X013880Y001605D02*
X013965Y001605D01*
X014117Y001605D02*
X014202Y001605D01*
X014353Y001605D02*
X014438Y001605D01*
X014589Y001605D02*
X018761Y001605D01*
X018761Y001667D02*
X014689Y001667D01*
X014736Y001728D02*
X018761Y001728D01*
X018761Y001790D02*
X014761Y001790D01*
X014763Y001851D02*
X018761Y001851D01*
X018761Y001913D02*
X014755Y001913D01*
X014740Y001974D02*
X018761Y001974D01*
X018761Y002036D02*
X014763Y002036D01*
X014763Y002097D02*
X018761Y002097D01*
X018761Y002159D02*
X014751Y002159D01*
X014726Y002220D02*
X018761Y002220D01*
X018761Y002282D02*
X014665Y002282D01*
X015542Y002825D02*
X015612Y002755D01*
X015704Y002717D01*
X015803Y002717D01*
X015872Y002745D01*
X015940Y002717D01*
X016039Y002717D01*
X016108Y002745D01*
X016176Y002717D01*
X016276Y002717D01*
X016344Y002745D01*
X016413Y002717D01*
X016512Y002717D01*
X016580Y002745D01*
X016649Y002717D01*
X016748Y002717D01*
X016817Y002745D01*
X016885Y002717D01*
X016984Y002717D01*
X017053Y002745D01*
X017121Y002717D01*
X017221Y002717D01*
X017312Y002755D01*
X017382Y002825D01*
X017420Y002916D01*
X017420Y003016D01*
X017392Y003084D01*
X017420Y003153D01*
X017420Y003252D01*
X017392Y003320D01*
X017420Y003389D01*
X017420Y003488D01*
X017392Y003557D01*
X017420Y003625D01*
X017420Y003724D01*
X017392Y003793D01*
X017420Y003861D01*
X017420Y003961D01*
X017382Y004052D01*
X017312Y004123D01*
X017221Y004161D01*
X017121Y004161D01*
X017053Y004132D01*
X016984Y004161D01*
X016885Y004161D01*
X016817Y004132D01*
X016748Y004161D01*
X016649Y004161D01*
X016580Y004132D01*
X016512Y004161D01*
X016413Y004161D01*
X016344Y004132D01*
X016276Y004161D01*
X016176Y004161D01*
X016108Y004132D01*
X016039Y004161D01*
X015940Y004161D01*
X015872Y004132D01*
X015803Y004161D01*
X015704Y004161D01*
X015612Y004123D01*
X015542Y004052D01*
X015504Y003961D01*
X015504Y003861D01*
X015532Y003793D01*
X015504Y003724D01*
X015504Y003625D01*
X015532Y003557D01*
X015504Y003488D01*
X015504Y003389D01*
X015532Y003320D01*
X015504Y003252D01*
X015504Y003153D01*
X015532Y003084D01*
X015504Y003016D01*
X015504Y002916D01*
X015542Y002825D01*
X015538Y002835D02*
X010802Y002835D01*
X010802Y002798D02*
X010802Y002898D01*
X010774Y002966D01*
X010802Y003035D01*
X010802Y003134D01*
X010774Y003202D01*
X010802Y003271D01*
X010802Y003370D01*
X010764Y003462D01*
X010694Y003532D01*
X010602Y003570D01*
X010503Y003570D01*
X010435Y003542D01*
X010366Y003570D01*
X010267Y003570D01*
X010198Y003542D01*
X010130Y003570D01*
X010031Y003570D01*
X009962Y003542D01*
X009894Y003570D01*
X009794Y003570D01*
X009726Y003542D01*
X009658Y003570D01*
X009558Y003570D01*
X009490Y003542D01*
X009421Y003570D01*
X009322Y003570D01*
X009254Y003542D01*
X009185Y003570D01*
X009086Y003570D01*
X008994Y003532D01*
X008924Y003462D01*
X008886Y003370D01*
X008886Y003271D01*
X008914Y003202D01*
X008886Y003134D01*
X008886Y003035D01*
X008914Y002966D01*
X008886Y002898D01*
X008886Y002798D01*
X008914Y002730D01*
X008886Y002661D01*
X008886Y002562D01*
X008914Y002494D01*
X008886Y002425D01*
X008886Y002326D01*
X008914Y002257D01*
X008886Y002189D01*
X008886Y002090D01*
X008924Y001998D01*
X008994Y001928D01*
X009086Y001890D01*
X009185Y001890D01*
X009254Y001918D01*
X009322Y001890D01*
X009421Y001890D01*
X009490Y001918D01*
X009558Y001890D01*
X009658Y001890D01*
X009726Y001918D01*
X009794Y001890D01*
X009894Y001890D01*
X009962Y001918D01*
X010031Y001890D01*
X010130Y001890D01*
X010198Y001918D01*
X010267Y001890D01*
X010366Y001890D01*
X010435Y001918D01*
X010503Y001890D01*
X010602Y001890D01*
X010694Y001928D01*
X010764Y001998D01*
X010802Y002090D01*
X010802Y002189D01*
X010774Y002257D01*
X010802Y002326D01*
X010802Y002425D01*
X010774Y002494D01*
X010802Y002562D01*
X010802Y002661D01*
X010774Y002730D01*
X010802Y002798D01*
X010792Y002774D02*
X015593Y002774D01*
X015512Y002897D02*
X010802Y002897D01*
X010777Y002958D02*
X015504Y002958D01*
X015505Y003020D02*
X010796Y003020D01*
X010802Y003081D02*
X015531Y003081D01*
X015508Y003143D02*
X010799Y003143D01*
X010775Y003204D02*
X015504Y003204D01*
X015510Y003266D02*
X010800Y003266D01*
X010802Y003327D02*
X015530Y003327D01*
X015504Y003389D02*
X010795Y003389D01*
X010769Y003450D02*
X015504Y003450D01*
X015514Y003512D02*
X010715Y003512D01*
X010781Y002712D02*
X018761Y002712D01*
X018761Y002651D02*
X010802Y002651D01*
X010802Y002589D02*
X018761Y002589D01*
X018761Y002528D02*
X010788Y002528D01*
X010785Y002466D02*
X011117Y002466D01*
X011120Y002469D02*
X011050Y002399D01*
X011012Y002307D01*
X011012Y002208D01*
X011040Y002139D01*
X011012Y002071D01*
X011012Y001972D01*
X011050Y001880D01*
X011120Y001810D01*
X011212Y001772D01*
X011311Y001772D01*
X011380Y001800D01*
X011448Y001772D01*
X011547Y001772D01*
X011616Y001800D01*
X011684Y001772D01*
X011784Y001772D01*
X011852Y001800D01*
X011920Y001772D01*
X012020Y001772D01*
X012088Y001800D01*
X012157Y001772D01*
X012256Y001772D01*
X012348Y001810D01*
X012418Y001880D01*
X012456Y001972D01*
X012456Y002071D01*
X012428Y002139D01*
X012456Y002208D01*
X012456Y002307D01*
X012418Y002399D01*
X012348Y002469D01*
X012256Y002507D01*
X012157Y002507D01*
X012088Y002479D01*
X012020Y002507D01*
X011920Y002507D01*
X011852Y002479D01*
X011784Y002507D01*
X011684Y002507D01*
X011616Y002479D01*
X011547Y002507D01*
X011448Y002507D01*
X011380Y002479D01*
X011311Y002507D01*
X011212Y002507D01*
X011120Y002469D01*
X011056Y002405D02*
X010802Y002405D01*
X010802Y002343D02*
X011027Y002343D01*
X011012Y002282D02*
X010784Y002282D01*
X010789Y002220D02*
X011012Y002220D01*
X011032Y002159D02*
X010802Y002159D01*
X010802Y002097D02*
X011023Y002097D01*
X011012Y002036D02*
X010780Y002036D01*
X010741Y001974D02*
X011012Y001974D01*
X011036Y001913D02*
X010658Y001913D01*
X010448Y001913D02*
X010422Y001913D01*
X010211Y001913D02*
X010185Y001913D01*
X009975Y001913D02*
X009949Y001913D01*
X009739Y001913D02*
X009713Y001913D01*
X009503Y001913D02*
X009477Y001913D01*
X009267Y001913D02*
X009240Y001913D01*
X009030Y001913D02*
X003939Y001913D01*
X003939Y001974D02*
X005195Y001974D01*
X005155Y001991D02*
X005247Y001953D01*
X005346Y001953D01*
X005415Y001981D01*
X005483Y001953D01*
X005583Y001953D01*
X005651Y001981D01*
X005720Y001953D01*
X005819Y001953D01*
X005911Y001991D01*
X005981Y002061D01*
X006019Y002153D01*
X006019Y002252D01*
X005991Y002320D01*
X006019Y002389D01*
X006019Y002488D01*
X005981Y002580D01*
X005911Y002650D01*
X005819Y002688D01*
X005720Y002688D01*
X005651Y002660D01*
X005583Y002688D01*
X005483Y002688D01*
X005415Y002660D01*
X005346Y002688D01*
X005247Y002688D01*
X005179Y002660D01*
X005110Y002688D01*
X005011Y002688D01*
X004943Y002660D01*
X004874Y002688D01*
X004775Y002688D01*
X004683Y002650D01*
X004613Y002580D01*
X004575Y002488D01*
X004575Y002389D01*
X004613Y002297D01*
X004683Y002227D01*
X004775Y002189D01*
X004874Y002189D01*
X004943Y002217D01*
X005011Y002189D01*
X005047Y002189D01*
X005047Y002153D01*
X005085Y002061D01*
X005155Y001991D01*
X005111Y002036D02*
X003939Y002036D01*
X003939Y002097D02*
X005070Y002097D01*
X005047Y002159D02*
X003939Y002159D01*
X003939Y002220D02*
X004699Y002220D01*
X004628Y002282D02*
X003939Y002282D01*
X003939Y002343D02*
X004594Y002343D01*
X004575Y002405D02*
X003939Y002405D01*
X003939Y002466D02*
X004575Y002466D01*
X004591Y002528D02*
X003939Y002528D01*
X003939Y002589D02*
X004622Y002589D01*
X004684Y002651D02*
X003939Y002651D01*
X003939Y002712D02*
X006646Y002712D01*
X006646Y002721D02*
X006646Y002621D01*
X006674Y002553D01*
X006646Y002484D01*
X006646Y002385D01*
X006674Y002317D01*
X006646Y002248D01*
X006646Y002149D01*
X006684Y002057D01*
X006754Y001987D01*
X006846Y001949D01*
X006945Y001949D01*
X007013Y001977D01*
X007082Y001949D01*
X007181Y001949D01*
X007250Y001977D01*
X007318Y001949D01*
X007417Y001949D01*
X007486Y001977D01*
X007554Y001949D01*
X007654Y001949D01*
X007722Y001977D01*
X007791Y001949D01*
X007890Y001949D01*
X007958Y001977D01*
X008027Y001949D01*
X008126Y001949D01*
X008194Y001977D01*
X008263Y001949D01*
X008362Y001949D01*
X008454Y001987D01*
X008524Y002057D01*
X008562Y002149D01*
X008562Y002248D01*
X008534Y002317D01*
X008562Y002385D01*
X008562Y002484D01*
X008534Y002553D01*
X008562Y002621D01*
X008562Y002721D01*
X008534Y002789D01*
X008562Y002857D01*
X008562Y002957D01*
X008534Y003025D01*
X008562Y003094D01*
X008562Y003193D01*
X008534Y003261D01*
X008562Y003330D01*
X008562Y003429D01*
X008524Y003521D01*
X008454Y003591D01*
X008362Y003629D01*
X008263Y003629D01*
X008194Y003601D01*
X008126Y003629D01*
X008027Y003629D01*
X007958Y003601D01*
X007890Y003629D01*
X007791Y003629D01*
X007722Y003601D01*
X007654Y003629D01*
X007554Y003629D01*
X007486Y003601D01*
X007417Y003629D01*
X007318Y003629D01*
X007250Y003601D01*
X007181Y003629D01*
X007082Y003629D01*
X007013Y003601D01*
X006945Y003629D01*
X006846Y003629D01*
X006754Y003591D01*
X006684Y003521D01*
X006646Y003429D01*
X006646Y003330D01*
X006674Y003261D01*
X006646Y003193D01*
X006646Y003094D01*
X006674Y003025D01*
X006646Y002957D01*
X006646Y002857D01*
X006674Y002789D01*
X006646Y002721D01*
X006668Y002774D02*
X003939Y002774D01*
X003939Y002835D02*
X006655Y002835D01*
X006646Y002897D02*
X003939Y002897D01*
X003939Y002958D02*
X006646Y002958D01*
X006672Y003020D02*
X003939Y003020D01*
X003939Y003081D02*
X006651Y003081D01*
X006646Y003143D02*
X003939Y003143D01*
X003939Y003204D02*
X006650Y003204D01*
X006672Y003266D02*
X003939Y003266D01*
X003939Y003327D02*
X006647Y003327D01*
X006646Y003389D02*
X003939Y003389D01*
X003939Y003450D02*
X006654Y003450D01*
X006680Y003512D02*
X003939Y003512D01*
X003939Y003573D02*
X006736Y003573D01*
X007238Y004188D02*
X003939Y004188D01*
X003939Y004249D02*
X007179Y004249D01*
X007130Y004311D02*
X003939Y004311D01*
X003939Y004372D02*
X007076Y004372D01*
X007022Y004434D02*
X003939Y004434D01*
X003939Y004495D02*
X006968Y004495D01*
X006914Y004557D02*
X003939Y004557D01*
X003939Y004618D02*
X006860Y004618D01*
X006806Y004680D02*
X003939Y004680D01*
X003939Y004741D02*
X006752Y004741D01*
X006698Y004803D02*
X003939Y004803D01*
X003939Y004864D02*
X006644Y004864D01*
X006590Y004926D02*
X003939Y004926D01*
X003939Y004987D02*
X006536Y004987D01*
X006482Y005049D02*
X003939Y005049D01*
X003939Y004126D02*
X015621Y004126D01*
X015554Y004065D02*
X003939Y004065D01*
X003939Y004003D02*
X015522Y004003D01*
X015504Y003942D02*
X003939Y003942D01*
X003939Y003880D02*
X015504Y003880D01*
X015521Y003819D02*
X003939Y003819D01*
X003939Y003757D02*
X015518Y003757D01*
X015504Y003696D02*
X003939Y003696D01*
X003939Y003634D02*
X015504Y003634D01*
X015526Y003573D02*
X008472Y003573D01*
X008528Y003512D02*
X008973Y003512D01*
X008919Y003450D02*
X008554Y003450D01*
X008562Y003389D02*
X008893Y003389D01*
X008886Y003327D02*
X008561Y003327D01*
X008536Y003266D02*
X008888Y003266D01*
X008913Y003204D02*
X008558Y003204D01*
X008562Y003143D02*
X008889Y003143D01*
X008886Y003081D02*
X008557Y003081D01*
X008536Y003020D02*
X008892Y003020D01*
X008911Y002958D02*
X008562Y002958D01*
X008562Y002897D02*
X008886Y002897D01*
X008886Y002835D02*
X008553Y002835D01*
X008540Y002774D02*
X008896Y002774D01*
X008907Y002712D02*
X008562Y002712D01*
X008562Y002651D02*
X008886Y002651D01*
X008886Y002589D02*
X008549Y002589D01*
X008544Y002528D02*
X008900Y002528D01*
X008903Y002466D02*
X008562Y002466D01*
X008562Y002405D02*
X008886Y002405D01*
X008886Y002343D02*
X008545Y002343D01*
X008548Y002282D02*
X008904Y002282D01*
X008899Y002220D02*
X008562Y002220D01*
X008562Y002159D02*
X008886Y002159D01*
X008886Y002097D02*
X008541Y002097D01*
X008503Y002036D02*
X008908Y002036D01*
X008948Y001974D02*
X008424Y001974D01*
X008202Y001974D02*
X008187Y001974D01*
X007965Y001974D02*
X007951Y001974D01*
X007729Y001974D02*
X007715Y001974D01*
X007493Y001974D02*
X007479Y001974D01*
X007257Y001974D02*
X007242Y001974D01*
X007021Y001974D02*
X007006Y001974D01*
X006784Y001974D02*
X005871Y001974D01*
X005956Y002036D02*
X006705Y002036D01*
X006667Y002097D02*
X005996Y002097D01*
X006019Y002159D02*
X006646Y002159D01*
X006646Y002220D02*
X006019Y002220D01*
X006007Y002282D02*
X006660Y002282D01*
X006663Y002343D02*
X006000Y002343D01*
X006019Y002405D02*
X006646Y002405D01*
X006646Y002466D02*
X006019Y002466D01*
X006003Y002528D02*
X006664Y002528D01*
X006659Y002589D02*
X005972Y002589D01*
X005910Y002651D02*
X006646Y002651D01*
X005668Y001974D02*
X005634Y001974D01*
X005432Y001974D02*
X005398Y001974D01*
X005471Y001236D02*
X005702Y001236D01*
X005611Y001175D02*
X005562Y001175D01*
X005202Y001236D02*
X004971Y001236D01*
X005062Y001175D02*
X005111Y001175D01*
X004702Y001236D02*
X004471Y001236D01*
X004562Y001175D02*
X004611Y001175D01*
X004202Y001236D02*
X003939Y001236D01*
X003939Y001175D02*
X004111Y001175D01*
X004055Y001113D02*
X003939Y001113D01*
X003939Y001052D02*
X004030Y001052D01*
X004010Y000990D02*
X003939Y000990D01*
X003939Y000929D02*
X004010Y000929D01*
X004012Y000867D02*
X003939Y000867D01*
X003939Y000806D02*
X004038Y000806D01*
X004069Y000744D02*
X003939Y000744D01*
X003939Y000683D02*
X004130Y000683D01*
X004009Y000480D02*
X004009Y000480D01*
X003939Y001667D02*
X013393Y001667D01*
X013346Y001728D02*
X003939Y001728D01*
X003939Y001790D02*
X011168Y001790D01*
X011078Y001851D02*
X003939Y001851D01*
X005971Y001236D02*
X006202Y001236D01*
X006111Y001175D02*
X006062Y001175D01*
X006471Y001236D02*
X006702Y001236D01*
X006611Y001175D02*
X006562Y001175D01*
X006971Y001236D02*
X007202Y001236D01*
X007111Y001175D02*
X007062Y001175D01*
X007471Y001236D02*
X007702Y001236D01*
X007611Y001175D02*
X007562Y001175D01*
X007971Y001236D02*
X008202Y001236D01*
X008111Y001175D02*
X008062Y001175D01*
X008471Y001236D02*
X008702Y001236D01*
X008611Y001175D02*
X008562Y001175D01*
X008971Y001236D02*
X009202Y001236D01*
X009111Y001175D02*
X009062Y001175D01*
X009471Y001236D02*
X009702Y001236D01*
X009611Y001175D02*
X009562Y001175D01*
X009971Y001236D02*
X010202Y001236D01*
X010111Y001175D02*
X010062Y001175D01*
X010471Y001236D02*
X010702Y001236D01*
X010611Y001175D02*
X010562Y001175D01*
X010971Y001236D02*
X011202Y001236D01*
X011111Y001175D02*
X011062Y001175D01*
X011471Y001236D02*
X011702Y001236D01*
X011611Y001175D02*
X011562Y001175D01*
X011971Y001236D02*
X012202Y001236D01*
X012111Y001175D02*
X012062Y001175D01*
X012471Y001236D02*
X012702Y001236D01*
X012611Y001175D02*
X012562Y001175D01*
X012971Y001236D02*
X013202Y001236D01*
X013111Y001175D02*
X013062Y001175D01*
X013471Y001236D02*
X013702Y001236D01*
X013611Y001175D02*
X013562Y001175D01*
X013971Y001236D02*
X014202Y001236D01*
X014111Y001175D02*
X014062Y001175D01*
X014471Y001236D02*
X014702Y001236D01*
X014611Y001175D02*
X014562Y001175D01*
X014971Y001236D02*
X015202Y001236D01*
X015111Y001175D02*
X015062Y001175D01*
X015471Y001236D02*
X015702Y001236D01*
X015611Y001175D02*
X015562Y001175D01*
X015971Y001236D02*
X016202Y001236D01*
X016111Y001175D02*
X016062Y001175D01*
X017331Y002774D02*
X018761Y002774D01*
X018761Y002835D02*
X017387Y002835D01*
X017412Y002897D02*
X018761Y002897D01*
X018761Y002958D02*
X017420Y002958D01*
X017419Y003020D02*
X018761Y003020D01*
X018761Y003081D02*
X017393Y003081D01*
X017416Y003143D02*
X018761Y003143D01*
X018761Y003204D02*
X017420Y003204D01*
X017415Y003266D02*
X018761Y003266D01*
X018761Y003327D02*
X017395Y003327D01*
X017420Y003389D02*
X018761Y003389D01*
X018761Y003450D02*
X017420Y003450D01*
X017411Y003512D02*
X018761Y003512D01*
X018761Y003573D02*
X017399Y003573D01*
X017420Y003634D02*
X018761Y003634D01*
X018761Y003696D02*
X017420Y003696D01*
X017407Y003757D02*
X018761Y003757D01*
X018761Y003819D02*
X017403Y003819D01*
X017420Y003880D02*
X018761Y003880D01*
X018761Y003942D02*
X017420Y003942D01*
X017403Y004003D02*
X018761Y004003D01*
X018761Y004065D02*
X017370Y004065D01*
X017303Y004126D02*
X018761Y004126D01*
X018761Y004188D02*
X015960Y004188D01*
X013417Y002282D02*
X012456Y002282D01*
X012456Y002220D02*
X013356Y002220D01*
X013331Y002159D02*
X012436Y002159D01*
X012445Y002097D02*
X013319Y002097D01*
X013319Y002036D02*
X012456Y002036D01*
X012456Y001974D02*
X013342Y001974D01*
X013327Y001913D02*
X012432Y001913D01*
X012389Y001851D02*
X013319Y001851D01*
X013321Y001790D02*
X012300Y001790D01*
X012113Y001790D02*
X012063Y001790D01*
X011877Y001790D02*
X011827Y001790D01*
X011641Y001790D02*
X011591Y001790D01*
X011404Y001790D02*
X011355Y001790D01*
X012351Y002466D02*
X018761Y002466D01*
X018761Y002405D02*
X012412Y002405D01*
X012441Y002343D02*
X018761Y002343D01*
X018801Y006608D02*
X010537Y006628D01*
X010537Y007041D01*
X008131Y007041D01*
X008131Y006608D01*
X003966Y006671D01*
X003966Y014783D01*
X005159Y014783D01*
X005132Y014772D01*
X005062Y014702D01*
X005024Y014610D01*
X005024Y014511D01*
X005062Y014419D01*
X005132Y014349D01*
X005224Y014311D01*
X005323Y014311D01*
X005415Y014349D01*
X005485Y014419D01*
X005523Y014511D01*
X005523Y014610D01*
X005485Y014702D01*
X005415Y014772D01*
X005388Y014783D01*
X018119Y014783D01*
X018101Y014765D01*
X018063Y014673D01*
X018063Y014574D01*
X018101Y014482D01*
X018171Y014412D01*
X018263Y014374D01*
X018362Y014374D01*
X018454Y014412D01*
X018524Y014482D01*
X018562Y014574D01*
X018562Y014673D01*
X018524Y014765D01*
X018506Y014783D01*
X018631Y014783D01*
X018686Y014783D01*
X018801Y014778D01*
X018801Y011346D01*
X018704Y011346D01*
X018612Y011308D01*
X018542Y011237D01*
X018504Y011146D01*
X018504Y011046D01*
X018542Y010955D01*
X018612Y010884D01*
X018704Y010846D01*
X018801Y010846D01*
X018801Y007554D01*
X018738Y007528D01*
X018668Y007458D01*
X018630Y007366D01*
X018630Y007267D01*
X018668Y007175D01*
X018738Y007105D01*
X018801Y007079D01*
X018801Y006608D01*
X018801Y006648D02*
X010537Y006648D01*
X010537Y006709D02*
X018801Y006709D01*
X018801Y006771D02*
X010537Y006771D01*
X010537Y006832D02*
X018801Y006832D01*
X018801Y006894D02*
X015124Y006894D01*
X015087Y006878D02*
X015178Y006916D01*
X015249Y006986D01*
X015287Y007078D01*
X018801Y007078D01*
X018801Y007017D02*
X015261Y007017D01*
X015287Y007078D02*
X015287Y007177D01*
X015249Y007269D01*
X015201Y007317D01*
X015249Y007364D01*
X015287Y007456D01*
X015287Y007555D01*
X015249Y007647D01*
X015178Y007717D01*
X015087Y007755D01*
X014987Y007755D01*
X014896Y007717D01*
X014825Y007647D01*
X014787Y007555D01*
X014787Y007456D01*
X014825Y007364D01*
X014873Y007317D01*
X014825Y007269D01*
X014787Y007177D01*
X014787Y007078D01*
X007404Y007078D01*
X007438Y007112D02*
X007476Y007204D01*
X007476Y007303D01*
X007438Y007395D01*
X007367Y007465D01*
X007276Y007503D01*
X007176Y007503D01*
X007085Y007465D01*
X007014Y007395D01*
X006976Y007303D01*
X006976Y007204D01*
X007014Y007112D01*
X007085Y007042D01*
X007176Y007004D01*
X007276Y007004D01*
X007367Y007042D01*
X007438Y007112D01*
X007449Y007140D02*
X014787Y007140D01*
X014797Y007201D02*
X007474Y007201D01*
X007476Y007263D02*
X013334Y007263D01*
X013350Y007256D02*
X013449Y007256D01*
X013541Y007294D01*
X013557Y007310D01*
X013573Y007294D01*
X013665Y007256D01*
X013764Y007256D01*
X013856Y007294D01*
X013872Y007310D01*
X013888Y007294D01*
X013979Y007256D01*
X014079Y007256D01*
X014171Y007294D01*
X014187Y007310D01*
X014203Y007294D01*
X014294Y007256D01*
X014394Y007256D01*
X014485Y007294D01*
X014556Y007364D01*
X014594Y007456D01*
X014594Y007555D01*
X014556Y007647D01*
X014485Y007717D01*
X014394Y007755D01*
X014294Y007755D01*
X014203Y007717D01*
X014187Y007701D01*
X014171Y007717D01*
X014079Y007755D01*
X013979Y007755D01*
X013888Y007717D01*
X013872Y007701D01*
X013856Y007717D01*
X013764Y007755D01*
X013665Y007755D01*
X013573Y007717D01*
X013557Y007701D01*
X013541Y007717D01*
X013449Y007755D01*
X013350Y007755D01*
X013258Y007717D01*
X013188Y007647D01*
X013150Y007555D01*
X013150Y007456D01*
X013188Y007364D01*
X013258Y007294D01*
X013350Y007256D01*
X013465Y007263D02*
X013648Y007263D01*
X013780Y007263D02*
X013963Y007263D01*
X014095Y007263D02*
X014278Y007263D01*
X014410Y007263D02*
X014823Y007263D01*
X014865Y007324D02*
X014516Y007324D01*
X014565Y007386D02*
X014817Y007386D01*
X014791Y007447D02*
X014590Y007447D01*
X014594Y007509D02*
X014787Y007509D01*
X014794Y007570D02*
X014588Y007570D01*
X014562Y007631D02*
X014819Y007631D01*
X014871Y007693D02*
X014510Y007693D01*
X014395Y007754D02*
X014986Y007754D01*
X015088Y007754D02*
X018801Y007754D01*
X018801Y007693D02*
X015203Y007693D01*
X015255Y007631D02*
X018801Y007631D01*
X018801Y007570D02*
X015280Y007570D01*
X015287Y007509D02*
X018719Y007509D01*
X018663Y007447D02*
X015283Y007447D01*
X015257Y007386D02*
X018638Y007386D01*
X018630Y007324D02*
X015209Y007324D01*
X015251Y007263D02*
X018632Y007263D01*
X018657Y007201D02*
X015277Y007201D01*
X015287Y007140D02*
X018704Y007140D01*
X018801Y006955D02*
X015218Y006955D01*
X015087Y006878D02*
X014987Y006878D01*
X014896Y006916D01*
X014825Y006986D01*
X014787Y007078D01*
X014813Y007017D02*
X010537Y007017D01*
X010537Y006955D02*
X014856Y006955D01*
X014950Y006894D02*
X010537Y006894D01*
X008131Y006894D02*
X003966Y006894D01*
X003966Y006955D02*
X008131Y006955D01*
X008131Y007017D02*
X007306Y007017D01*
X007146Y007017D02*
X003966Y007017D01*
X003966Y007078D02*
X007048Y007078D01*
X007003Y007140D02*
X003966Y007140D01*
X003966Y007201D02*
X006978Y007201D01*
X006976Y007263D02*
X004520Y007263D01*
X004504Y007256D02*
X004596Y007294D01*
X004666Y007364D01*
X004704Y007456D01*
X004704Y007555D01*
X004666Y007647D01*
X004596Y007717D01*
X004504Y007755D01*
X004405Y007755D01*
X004313Y007717D01*
X004243Y007647D01*
X004205Y007555D01*
X004205Y007456D01*
X004243Y007364D01*
X004313Y007294D01*
X004405Y007256D01*
X004504Y007256D01*
X004389Y007263D02*
X003966Y007263D01*
X003966Y007324D02*
X004283Y007324D01*
X004234Y007386D02*
X003966Y007386D01*
X003966Y007447D02*
X004208Y007447D01*
X004205Y007509D02*
X003966Y007509D01*
X003966Y007570D02*
X004211Y007570D01*
X004236Y007631D02*
X003966Y007631D01*
X003966Y007693D02*
X004289Y007693D01*
X004403Y007754D02*
X003966Y007754D01*
X003966Y007816D02*
X018801Y007816D01*
X018801Y007877D02*
X003966Y007877D01*
X003966Y007939D02*
X014125Y007939D01*
X014140Y007924D02*
X014231Y007886D01*
X014331Y007886D01*
X014422Y007924D01*
X014493Y007994D01*
X014531Y008086D01*
X014531Y008185D01*
X018801Y008185D01*
X018801Y008246D02*
X014505Y008246D01*
X014493Y008277D02*
X014422Y008347D01*
X014331Y008385D01*
X014231Y008385D01*
X014140Y008347D01*
X014069Y008277D01*
X014031Y008185D01*
X003966Y008185D01*
X003966Y008246D02*
X014057Y008246D01*
X014031Y008185D02*
X014031Y008086D01*
X014069Y007994D01*
X014140Y007924D01*
X014067Y008000D02*
X003966Y008000D01*
X003966Y008062D02*
X014041Y008062D01*
X014031Y008123D02*
X003966Y008123D01*
X003966Y008308D02*
X006323Y008308D01*
X006329Y008302D02*
X006420Y008264D01*
X006520Y008264D01*
X006611Y008302D01*
X006682Y008372D01*
X006720Y008464D01*
X006720Y008563D01*
X006682Y008655D01*
X006611Y008725D01*
X006520Y008763D01*
X006420Y008763D01*
X006329Y008725D01*
X006258Y008655D01*
X006220Y008563D01*
X006220Y008464D01*
X006258Y008372D01*
X006329Y008302D01*
X006261Y008369D02*
X003966Y008369D01*
X003966Y008431D02*
X006234Y008431D01*
X006220Y008492D02*
X003966Y008492D01*
X003966Y008554D02*
X006220Y008554D01*
X006242Y008615D02*
X003966Y008615D01*
X003966Y008677D02*
X006281Y008677D01*
X006361Y008738D02*
X003966Y008738D01*
X003966Y008800D02*
X010305Y008800D01*
X010306Y008797D02*
X010376Y008727D01*
X010468Y008689D01*
X010567Y008689D01*
X010659Y008727D01*
X010729Y008797D01*
X010767Y008889D01*
X010767Y008988D01*
X010729Y009080D01*
X010659Y009150D01*
X010567Y009188D01*
X010468Y009188D01*
X010376Y009150D01*
X010306Y009080D01*
X010268Y008988D01*
X010268Y008889D01*
X010306Y008797D01*
X010279Y008861D02*
X003966Y008861D01*
X003966Y008923D02*
X010268Y008923D01*
X010268Y008984D02*
X003966Y008984D01*
X003966Y009046D02*
X006391Y009046D01*
X006372Y009054D02*
X006464Y009016D01*
X006563Y009016D01*
X006655Y009054D01*
X006725Y009124D01*
X006763Y009216D01*
X006763Y009315D01*
X006725Y009407D01*
X006655Y009477D01*
X006563Y009515D01*
X006464Y009515D01*
X006372Y009477D01*
X006302Y009407D01*
X006264Y009315D01*
X006264Y009216D01*
X006302Y009124D01*
X006372Y009054D01*
X006318Y009107D02*
X003966Y009107D01*
X003966Y009169D02*
X006283Y009169D01*
X006264Y009230D02*
X003966Y009230D01*
X003966Y009292D02*
X006264Y009292D01*
X006280Y009353D02*
X003966Y009353D01*
X003966Y009415D02*
X006310Y009415D01*
X006371Y009476D02*
X003966Y009476D01*
X003966Y009538D02*
X012271Y009538D01*
X012289Y009556D02*
X012219Y009485D01*
X012181Y009394D01*
X012181Y009294D01*
X012219Y009203D01*
X012289Y009132D01*
X012381Y009094D01*
X012480Y009094D01*
X012572Y009132D01*
X012642Y009203D01*
X012680Y009294D01*
X012680Y009394D01*
X012642Y009485D01*
X012572Y009556D01*
X012480Y009594D01*
X012381Y009594D01*
X012289Y009556D01*
X012215Y009476D02*
X006655Y009476D01*
X006717Y009415D02*
X012190Y009415D01*
X012181Y009353D02*
X006747Y009353D01*
X006763Y009292D02*
X011900Y009292D01*
X011944Y009310D02*
X011852Y009272D01*
X011782Y009202D01*
X011744Y009110D01*
X011744Y009011D01*
X011782Y008919D01*
X011852Y008849D01*
X011944Y008811D01*
X012043Y008811D01*
X012135Y008849D01*
X012205Y008919D01*
X012243Y009011D01*
X012243Y009110D01*
X012205Y009202D01*
X012135Y009272D01*
X012043Y009310D01*
X011944Y009310D01*
X012088Y009292D02*
X012182Y009292D01*
X012177Y009230D02*
X012208Y009230D01*
X012219Y009169D02*
X012253Y009169D01*
X012243Y009107D02*
X012350Y009107D01*
X012243Y009046D02*
X015966Y009046D01*
X015961Y009058D02*
X015999Y008966D01*
X016069Y008896D01*
X016161Y008858D01*
X016260Y008858D01*
X016352Y008896D01*
X016422Y008966D01*
X016460Y009058D01*
X016460Y009158D01*
X016422Y009249D01*
X016352Y009319D01*
X016260Y009357D01*
X016161Y009357D01*
X016069Y009319D01*
X015999Y009249D01*
X015961Y009158D01*
X015961Y009058D01*
X015961Y009107D02*
X012511Y009107D01*
X012608Y009169D02*
X015965Y009169D01*
X015991Y009230D02*
X012654Y009230D01*
X012679Y009292D02*
X016041Y009292D01*
X016150Y009353D02*
X012680Y009353D01*
X012672Y009415D02*
X016395Y009415D01*
X016364Y009428D02*
X016456Y009390D01*
X016555Y009390D01*
X016647Y009428D01*
X016717Y009498D01*
X016755Y009590D01*
X016755Y009689D01*
X016717Y009781D01*
X016647Y009851D01*
X016555Y009889D01*
X016456Y009889D01*
X016364Y009851D01*
X016294Y009781D01*
X016256Y009689D01*
X016256Y009590D01*
X016294Y009498D01*
X016364Y009428D01*
X016316Y009476D02*
X012646Y009476D01*
X012590Y009538D02*
X016277Y009538D01*
X016256Y009599D02*
X003966Y009599D01*
X003966Y009661D02*
X016256Y009661D01*
X016270Y009722D02*
X015488Y009722D01*
X015465Y009713D02*
X015556Y009751D01*
X015627Y009821D01*
X015665Y009913D01*
X015665Y010012D01*
X015627Y010104D01*
X015556Y010174D01*
X015465Y010212D01*
X015365Y010212D01*
X015274Y010174D01*
X015203Y010104D01*
X015165Y010012D01*
X015165Y009913D01*
X015203Y009821D01*
X015274Y009751D01*
X015365Y009713D01*
X015465Y009713D01*
X015342Y009722D02*
X011457Y009722D01*
X011438Y009703D02*
X011508Y009774D01*
X011546Y009865D01*
X011546Y009965D01*
X011508Y010056D01*
X011438Y010127D01*
X011346Y010165D01*
X011247Y010165D01*
X011155Y010127D01*
X011085Y010056D01*
X011047Y009965D01*
X011047Y009865D01*
X011085Y009774D01*
X011155Y009703D01*
X011247Y009665D01*
X011346Y009665D01*
X011438Y009703D01*
X011513Y009784D02*
X015240Y009784D01*
X015193Y009845D02*
X011538Y009845D01*
X011546Y009907D02*
X015168Y009907D01*
X015165Y009968D02*
X011545Y009968D01*
X011519Y010030D02*
X015173Y010030D01*
X015198Y010091D02*
X013152Y010091D01*
X013167Y010097D02*
X013237Y010167D01*
X013275Y010259D01*
X013275Y010358D01*
X013237Y010450D01*
X013167Y010520D01*
X013075Y010558D01*
X012976Y010558D01*
X012884Y010520D01*
X012814Y010450D01*
X012776Y010358D01*
X012776Y010259D01*
X012814Y010167D01*
X012884Y010097D01*
X012976Y010059D01*
X013075Y010059D01*
X013167Y010097D01*
X013222Y010153D02*
X015252Y010153D01*
X015577Y010153D02*
X015732Y010153D01*
X015732Y010201D02*
X015732Y010102D01*
X015770Y010010D01*
X015840Y009940D01*
X015932Y009902D01*
X016032Y009902D01*
X016123Y009940D01*
X016193Y010010D01*
X016231Y010102D01*
X016231Y010201D01*
X016193Y010293D01*
X016123Y010363D01*
X016032Y010401D01*
X015932Y010401D01*
X015840Y010363D01*
X015770Y010293D01*
X015732Y010201D01*
X015738Y010214D02*
X013256Y010214D01*
X013275Y010276D02*
X015763Y010276D01*
X015815Y010337D02*
X013275Y010337D01*
X013258Y010399D02*
X013432Y010399D01*
X013444Y010394D02*
X013543Y010394D01*
X013635Y010432D01*
X013705Y010502D01*
X013743Y010594D01*
X013743Y010693D01*
X013705Y010785D01*
X013635Y010855D01*
X013543Y010893D01*
X013444Y010893D01*
X013439Y010891D01*
X013410Y010962D01*
X013340Y011032D01*
X013248Y011070D01*
X013149Y011070D01*
X013144Y011068D01*
X013115Y011139D01*
X013045Y011209D01*
X012953Y011247D01*
X012853Y011247D01*
X012762Y011209D01*
X012692Y011139D01*
X012654Y011047D01*
X012654Y010948D01*
X012692Y010856D01*
X012762Y010786D01*
X012853Y010748D01*
X012953Y010748D01*
X012957Y010750D01*
X012987Y010679D01*
X013057Y010609D01*
X013149Y010571D01*
X013248Y010571D01*
X013253Y010573D01*
X013282Y010502D01*
X013352Y010432D01*
X013444Y010394D01*
X013555Y010399D02*
X015927Y010399D01*
X016037Y010399D02*
X018801Y010399D01*
X018801Y010460D02*
X016455Y010460D01*
X016438Y010444D02*
X016508Y010514D01*
X016546Y010605D01*
X016546Y010705D01*
X016508Y010797D01*
X016438Y010867D01*
X016346Y010905D01*
X016247Y010905D01*
X016155Y010867D01*
X016085Y010797D01*
X016047Y010705D01*
X016047Y010605D01*
X016085Y010514D01*
X016155Y010444D01*
X016247Y010406D01*
X016346Y010406D01*
X016438Y010444D01*
X016512Y010522D02*
X018801Y010522D01*
X018801Y010583D02*
X016537Y010583D01*
X016546Y010645D02*
X018801Y010645D01*
X018801Y010706D02*
X016546Y010706D01*
X016520Y010768D02*
X018801Y010768D01*
X018801Y010829D02*
X016476Y010829D01*
X016381Y010891D02*
X018606Y010891D01*
X018545Y010952D02*
X016163Y010952D01*
X016186Y010974D02*
X016224Y011066D01*
X016224Y011165D01*
X016186Y011257D01*
X016115Y011327D01*
X016024Y011365D01*
X015924Y011365D01*
X015833Y011327D01*
X015762Y011257D01*
X015724Y011165D01*
X015724Y011109D01*
X015649Y011109D01*
X015557Y011071D01*
X015487Y011001D01*
X015449Y010909D01*
X015449Y010810D01*
X015487Y010718D01*
X015557Y010648D01*
X015649Y010610D01*
X015748Y010610D01*
X015840Y010648D01*
X015910Y010718D01*
X015948Y010810D01*
X015948Y010866D01*
X016024Y010866D01*
X016115Y010904D01*
X016186Y010974D01*
X016202Y011014D02*
X018518Y011014D01*
X018504Y011075D02*
X016224Y011075D01*
X016224Y011137D02*
X018504Y011137D01*
X018526Y011198D02*
X016210Y011198D01*
X016183Y011260D02*
X018564Y011260D01*
X018644Y011321D02*
X016122Y011321D01*
X015826Y011321D02*
X010108Y011321D01*
X010147Y011337D02*
X010055Y011299D01*
X009956Y011299D01*
X009864Y011337D01*
X009794Y011407D01*
X009756Y011499D01*
X009756Y011598D01*
X009794Y011690D01*
X004813Y011690D01*
X004830Y011650D02*
X004792Y011741D01*
X004722Y011812D01*
X004630Y011850D01*
X004531Y011850D01*
X004439Y011812D01*
X004369Y011741D01*
X004331Y011650D01*
X004331Y011550D01*
X004369Y011459D01*
X004439Y011388D01*
X004531Y011350D01*
X004630Y011350D01*
X004722Y011388D01*
X004792Y011459D01*
X004830Y011550D01*
X004830Y011650D01*
X004830Y011629D02*
X009768Y011629D01*
X009756Y011567D02*
X008843Y011567D01*
X008852Y011564D02*
X008760Y011602D01*
X008661Y011602D01*
X008569Y011564D01*
X008499Y011493D01*
X008461Y011402D01*
X008461Y011302D01*
X008499Y011211D01*
X008569Y011140D01*
X008661Y011102D01*
X008760Y011102D01*
X008852Y011140D01*
X008922Y011211D01*
X008960Y011302D01*
X008960Y011402D01*
X008922Y011493D01*
X008852Y011564D01*
X008910Y011506D02*
X009756Y011506D01*
X009779Y011444D02*
X008942Y011444D01*
X008960Y011383D02*
X009819Y011383D01*
X009903Y011321D02*
X008960Y011321D01*
X008942Y011260D02*
X015765Y011260D01*
X015738Y011198D02*
X013056Y011198D01*
X013116Y011137D02*
X015724Y011137D01*
X015566Y011075D02*
X013141Y011075D01*
X013358Y011014D02*
X015499Y011014D01*
X015466Y010952D02*
X013414Y010952D01*
X013549Y010891D02*
X015449Y010891D01*
X015449Y010829D02*
X013661Y010829D01*
X013712Y010768D02*
X015466Y010768D01*
X015499Y010706D02*
X013738Y010706D01*
X013743Y010645D02*
X015566Y010645D01*
X015831Y010645D02*
X016047Y010645D01*
X016048Y010706D02*
X015898Y010706D01*
X015930Y010768D02*
X016073Y010768D01*
X016118Y010829D02*
X015948Y010829D01*
X016083Y010891D02*
X016213Y010891D01*
X016056Y010583D02*
X013739Y010583D01*
X013713Y010522D02*
X016082Y010522D01*
X016139Y010460D02*
X013664Y010460D01*
X013324Y010460D02*
X013227Y010460D01*
X013274Y010522D02*
X013163Y010522D01*
X013119Y010583D02*
X010080Y010583D01*
X010107Y010556D02*
X010037Y010627D01*
X009945Y010665D01*
X009846Y010665D01*
X009814Y010651D01*
X009808Y010667D01*
X009737Y010737D01*
X009646Y010775D01*
X009546Y010775D01*
X009455Y010737D01*
X009384Y010667D01*
X009346Y010575D01*
X009346Y010476D01*
X009384Y010384D01*
X009455Y010314D01*
X009546Y010276D01*
X007588Y010276D01*
X007565Y010299D02*
X007590Y010357D01*
X007590Y010394D01*
X007626Y010394D01*
X007699Y010424D01*
X007750Y010373D01*
X007842Y010335D01*
X007941Y010335D01*
X008033Y010373D01*
X008103Y010443D01*
X008141Y010535D01*
X008141Y010571D01*
X008158Y010571D01*
X008249Y010609D01*
X008319Y010679D01*
X008328Y010700D01*
X008353Y010689D01*
X008453Y010689D01*
X008545Y010727D01*
X008615Y010797D01*
X008653Y010889D01*
X008653Y010988D01*
X008615Y011080D01*
X008545Y011150D01*
X008453Y011188D01*
X008353Y011188D01*
X008262Y011150D01*
X008192Y011080D01*
X008183Y011059D01*
X008158Y011070D01*
X008130Y011070D01*
X008214Y011105D01*
X008284Y011175D01*
X008322Y011267D01*
X008322Y011366D01*
X008284Y011458D01*
X008214Y011528D01*
X008122Y011566D01*
X008023Y011566D01*
X007931Y011528D01*
X007861Y011458D01*
X007823Y011366D01*
X007823Y011267D01*
X007861Y011175D01*
X007931Y011105D01*
X008023Y011067D01*
X008051Y011067D01*
X007966Y011032D01*
X007896Y010962D01*
X007858Y010870D01*
X007858Y010834D01*
X007842Y010834D01*
X007769Y010804D01*
X007718Y010855D01*
X007626Y010893D01*
X007527Y010893D01*
X007435Y010855D01*
X007365Y010785D01*
X007327Y010693D01*
X007327Y010657D01*
X007291Y010657D01*
X007199Y010619D01*
X007129Y010548D01*
X007091Y010457D01*
X007091Y010357D01*
X007129Y010266D01*
X007174Y010220D01*
X007150Y010161D01*
X007150Y010062D01*
X007188Y009970D01*
X007258Y009900D01*
X007350Y009862D01*
X007449Y009862D01*
X007541Y009900D01*
X007611Y009970D01*
X007649Y010062D01*
X007649Y010161D01*
X007611Y010253D01*
X007565Y010299D01*
X007581Y010337D02*
X007836Y010337D01*
X007947Y010337D02*
X009431Y010337D01*
X009378Y010399D02*
X008059Y010399D01*
X008110Y010460D02*
X009353Y010460D01*
X009346Y010522D02*
X008136Y010522D01*
X008187Y010583D02*
X009350Y010583D01*
X009375Y010645D02*
X008285Y010645D01*
X008494Y010706D02*
X009424Y010706D01*
X009529Y010768D02*
X008585Y010768D01*
X008628Y010829D02*
X012719Y010829D01*
X012677Y010891D02*
X008653Y010891D01*
X008653Y010952D02*
X012654Y010952D01*
X012654Y011014D02*
X008642Y011014D01*
X008617Y011075D02*
X012665Y011075D01*
X012691Y011137D02*
X008842Y011137D01*
X008909Y011198D02*
X012751Y011198D01*
X012806Y010768D02*
X009663Y010768D01*
X009768Y010706D02*
X012976Y010706D01*
X013021Y010645D02*
X009993Y010645D01*
X010107Y010556D02*
X010118Y010531D01*
X010137Y010539D01*
X010236Y010539D01*
X010328Y010501D01*
X010398Y010430D01*
X010436Y010339D01*
X010436Y010239D01*
X010398Y010148D01*
X010390Y010139D01*
X010409Y010120D01*
X010444Y010202D01*
X010514Y010272D01*
X010605Y010310D01*
X010705Y010310D01*
X010797Y010272D01*
X010867Y010202D01*
X010905Y010110D01*
X010905Y010011D01*
X010867Y009919D01*
X010797Y009849D01*
X010705Y009811D01*
X010605Y009811D01*
X010514Y009849D01*
X010491Y009871D01*
X010457Y009789D01*
X010387Y009719D01*
X010295Y009681D01*
X010196Y009681D01*
X010104Y009719D01*
X010034Y009789D01*
X009996Y009881D01*
X009996Y009980D01*
X010034Y010072D01*
X010042Y010080D01*
X009975Y010148D01*
X009964Y010173D01*
X009945Y010165D01*
X009846Y010165D01*
X009754Y010203D01*
X009684Y010274D01*
X009677Y010289D01*
X009646Y010276D01*
X009683Y010276D01*
X009646Y010276D02*
X009546Y010276D01*
X009743Y010214D02*
X007627Y010214D01*
X007649Y010153D02*
X009973Y010153D01*
X010031Y010091D02*
X007649Y010091D01*
X007635Y010030D02*
X010016Y010030D01*
X009996Y009968D02*
X007609Y009968D01*
X007547Y009907D02*
X009996Y009907D01*
X010011Y009845D02*
X003966Y009845D01*
X003966Y009784D02*
X010040Y009784D01*
X010101Y009722D02*
X003966Y009722D01*
X003966Y009907D02*
X007251Y009907D01*
X007190Y009968D02*
X003966Y009968D01*
X003966Y010030D02*
X007163Y010030D01*
X007150Y010091D02*
X003966Y010091D01*
X003966Y010153D02*
X007150Y010153D01*
X007171Y010214D02*
X003966Y010214D01*
X003966Y010276D02*
X007124Y010276D01*
X007099Y010337D02*
X003966Y010337D01*
X003966Y010399D02*
X007091Y010399D01*
X007092Y010460D02*
X003966Y010460D01*
X003966Y010522D02*
X007117Y010522D01*
X007163Y010583D02*
X003966Y010583D01*
X003966Y010645D02*
X007261Y010645D01*
X007332Y010706D02*
X003966Y010706D01*
X003966Y010768D02*
X007358Y010768D01*
X007409Y010829D02*
X003966Y010829D01*
X003966Y010891D02*
X007521Y010891D01*
X007632Y010891D02*
X007867Y010891D01*
X007892Y010952D02*
X003966Y010952D01*
X003966Y011014D02*
X007948Y011014D01*
X008003Y011075D02*
X003966Y011075D01*
X003966Y011137D02*
X007899Y011137D01*
X007851Y011198D02*
X003966Y011198D01*
X003966Y011260D02*
X007826Y011260D01*
X007823Y011321D02*
X003966Y011321D01*
X003966Y011383D02*
X004453Y011383D01*
X004383Y011444D02*
X003966Y011444D01*
X003966Y011506D02*
X004349Y011506D01*
X004331Y011567D02*
X003966Y011567D01*
X003966Y011629D02*
X004331Y011629D01*
X004347Y011690D02*
X003966Y011690D01*
X003966Y011751D02*
X004379Y011751D01*
X004442Y011813D02*
X003966Y011813D01*
X003966Y011874D02*
X014006Y011874D01*
X013987Y011856D02*
X013949Y011764D01*
X013949Y011665D01*
X013987Y011573D01*
X014057Y011503D01*
X014149Y011465D01*
X014248Y011465D01*
X014340Y011503D01*
X014410Y011573D01*
X014448Y011665D01*
X014448Y011752D01*
X014488Y011752D01*
X014580Y011790D01*
X014650Y011860D01*
X014688Y011952D01*
X014688Y011988D01*
X014724Y011988D01*
X014816Y012026D01*
X014886Y012096D01*
X014924Y012188D01*
X014924Y012287D01*
X014961Y012287D01*
X015052Y012325D01*
X015123Y012396D01*
X015161Y012487D01*
X015161Y012524D01*
X015197Y012524D01*
X015289Y012562D01*
X015359Y012632D01*
X015397Y012724D01*
X015397Y012823D01*
X015359Y012915D01*
X015289Y012985D01*
X015197Y013023D01*
X015098Y013023D01*
X015006Y012985D01*
X014936Y012915D01*
X014898Y012823D01*
X014898Y012787D01*
X014861Y012787D01*
X014770Y012749D01*
X014699Y012678D01*
X014661Y012587D01*
X014661Y012487D01*
X014625Y012487D01*
X014533Y012449D01*
X014463Y012379D01*
X014425Y012287D01*
X014425Y012251D01*
X014389Y012251D01*
X014297Y012213D01*
X014227Y012143D01*
X014189Y012051D01*
X014189Y011964D01*
X014149Y011964D01*
X014057Y011926D01*
X013987Y011856D01*
X013969Y011813D02*
X011017Y011813D01*
X011048Y011800D02*
X010957Y011838D01*
X010857Y011838D01*
X010766Y011800D01*
X010695Y011730D01*
X010657Y011638D01*
X010657Y011539D01*
X010695Y011447D01*
X010766Y011377D01*
X010857Y011339D01*
X010957Y011339D01*
X011048Y011377D01*
X011119Y011447D01*
X011157Y011539D01*
X011157Y011638D01*
X011119Y011730D01*
X011048Y011800D01*
X011097Y011751D02*
X013949Y011751D01*
X013949Y011690D02*
X011135Y011690D01*
X011157Y011629D02*
X013964Y011629D01*
X013993Y011567D02*
X011157Y011567D01*
X011143Y011506D02*
X014054Y011506D01*
X014343Y011506D02*
X018801Y011506D01*
X018801Y011567D02*
X014404Y011567D01*
X014433Y011629D02*
X018801Y011629D01*
X018801Y011690D02*
X014448Y011690D01*
X014448Y011751D02*
X018801Y011751D01*
X018801Y011813D02*
X014603Y011813D01*
X014656Y011874D02*
X018801Y011874D01*
X018801Y011936D02*
X014682Y011936D01*
X014747Y011997D02*
X018801Y011997D01*
X018801Y012059D02*
X018589Y012059D01*
X018551Y012043D02*
X018643Y012081D01*
X018713Y012152D01*
X018751Y012243D01*
X018751Y012343D01*
X018713Y012434D01*
X018643Y012505D01*
X018551Y012543D01*
X018452Y012543D01*
X018360Y012505D01*
X018290Y012434D01*
X018252Y012343D01*
X018252Y012243D01*
X018290Y012152D01*
X018360Y012081D01*
X018452Y012043D01*
X018551Y012043D01*
X018414Y012059D02*
X014849Y012059D01*
X014896Y012120D02*
X018321Y012120D01*
X018277Y012182D02*
X014922Y012182D01*
X014924Y012243D02*
X018252Y012243D01*
X018252Y012305D02*
X015003Y012305D01*
X015093Y012366D02*
X018262Y012366D01*
X018287Y012428D02*
X015969Y012428D01*
X015997Y012440D02*
X016068Y012510D01*
X016106Y012602D01*
X016106Y012701D01*
X016068Y012793D01*
X015997Y012863D01*
X015906Y012901D01*
X015806Y012901D01*
X015715Y012863D01*
X015644Y012793D01*
X015606Y012701D01*
X015606Y012602D01*
X015644Y012510D01*
X015715Y012440D01*
X015806Y012402D01*
X015906Y012402D01*
X015997Y012440D01*
X016047Y012489D02*
X016991Y012489D01*
X017003Y012484D02*
X017102Y012484D01*
X017194Y012522D01*
X017264Y012592D01*
X017302Y012684D01*
X017302Y012784D01*
X017264Y012875D01*
X017194Y012945D01*
X017102Y012983D01*
X017003Y012983D01*
X016911Y012945D01*
X016841Y012875D01*
X016803Y012784D01*
X016803Y012684D01*
X016841Y012592D01*
X016911Y012522D01*
X017003Y012484D01*
X017115Y012489D02*
X018345Y012489D01*
X018658Y012489D02*
X018801Y012489D01*
X018801Y012428D02*
X018716Y012428D01*
X018741Y012366D02*
X018801Y012366D01*
X018801Y012305D02*
X018751Y012305D01*
X018751Y012243D02*
X018801Y012243D01*
X018801Y012182D02*
X018726Y012182D01*
X018682Y012120D02*
X018801Y012120D01*
X018801Y012551D02*
X017223Y012551D01*
X017273Y012612D02*
X018801Y012612D01*
X018801Y012674D02*
X017298Y012674D01*
X017302Y012735D02*
X018801Y012735D01*
X018801Y012797D02*
X017297Y012797D01*
X017271Y012858D02*
X018801Y012858D01*
X018801Y012920D02*
X018086Y012920D01*
X018096Y012924D02*
X018166Y012994D01*
X018204Y013086D01*
X018204Y013185D01*
X018166Y013277D01*
X018096Y013347D01*
X018004Y013385D01*
X017905Y013385D01*
X017813Y013347D01*
X017743Y013277D01*
X017705Y013185D01*
X017705Y013086D01*
X017743Y012994D01*
X017813Y012924D01*
X017905Y012886D01*
X018004Y012886D01*
X018096Y012924D01*
X018153Y012981D02*
X018801Y012981D01*
X018801Y013043D02*
X018186Y013043D01*
X018204Y013104D02*
X018801Y013104D01*
X018801Y013166D02*
X018204Y013166D01*
X018186Y013227D02*
X018801Y013227D01*
X018801Y013289D02*
X018154Y013289D01*
X018088Y013350D02*
X018801Y013350D01*
X018801Y013412D02*
X003966Y013412D01*
X003966Y013473D02*
X018801Y013473D01*
X018801Y013535D02*
X003966Y013535D01*
X003966Y013596D02*
X018801Y013596D01*
X018801Y013658D02*
X003966Y013658D01*
X003966Y013719D02*
X018801Y013719D01*
X018801Y013781D02*
X003966Y013781D01*
X003966Y013842D02*
X018801Y013842D01*
X018801Y013904D02*
X003966Y013904D01*
X003966Y013965D02*
X018801Y013965D01*
X018801Y014027D02*
X003966Y014027D01*
X003966Y014088D02*
X018801Y014088D01*
X018801Y014150D02*
X003966Y014150D01*
X003966Y014211D02*
X018801Y014211D01*
X018801Y014273D02*
X003966Y014273D01*
X003966Y014334D02*
X005168Y014334D01*
X005085Y014396D02*
X003966Y014396D01*
X003966Y014457D02*
X005046Y014457D01*
X005024Y014519D02*
X003966Y014519D01*
X003966Y014580D02*
X005024Y014580D01*
X005037Y014642D02*
X003966Y014642D01*
X003966Y014703D02*
X005063Y014703D01*
X005124Y014765D02*
X003966Y014765D01*
X005422Y014765D02*
X018101Y014765D01*
X018075Y014703D02*
X005484Y014703D01*
X005510Y014642D02*
X018063Y014642D01*
X018063Y014580D02*
X005523Y014580D01*
X005523Y014519D02*
X018086Y014519D01*
X018126Y014457D02*
X005501Y014457D01*
X005461Y014396D02*
X018211Y014396D01*
X018414Y014396D02*
X018801Y014396D01*
X018801Y014457D02*
X018499Y014457D01*
X018539Y014519D02*
X018801Y014519D01*
X018801Y014580D02*
X018562Y014580D01*
X018562Y014642D02*
X018801Y014642D01*
X018801Y014703D02*
X018550Y014703D01*
X018524Y014765D02*
X018801Y014765D01*
X018631Y014783D02*
X018631Y014783D01*
X018801Y014334D02*
X005379Y014334D01*
X003966Y013350D02*
X017821Y013350D01*
X017755Y013289D02*
X003966Y013289D01*
X003966Y013227D02*
X017722Y013227D01*
X017705Y013166D02*
X003966Y013166D01*
X003966Y013104D02*
X017705Y013104D01*
X017723Y013043D02*
X013221Y013043D01*
X013237Y013036D02*
X013146Y013074D01*
X013046Y013074D01*
X012955Y013036D01*
X012884Y012966D01*
X012846Y012874D01*
X012846Y012775D01*
X012884Y012683D01*
X012955Y012613D01*
X013046Y012575D01*
X013146Y012575D01*
X013237Y012613D01*
X013308Y012683D01*
X013346Y012775D01*
X013346Y012874D01*
X013308Y012966D01*
X013237Y013036D01*
X013292Y012981D02*
X015002Y012981D01*
X014941Y012920D02*
X013327Y012920D01*
X013346Y012858D02*
X014912Y012858D01*
X014898Y012797D02*
X013346Y012797D01*
X013329Y012735D02*
X014756Y012735D01*
X014698Y012674D02*
X013299Y012674D01*
X013236Y012612D02*
X014672Y012612D01*
X014661Y012551D02*
X003966Y012551D01*
X003966Y012612D02*
X012956Y012612D01*
X012894Y012674D02*
X003966Y012674D01*
X003966Y012735D02*
X012863Y012735D01*
X012846Y012797D02*
X003966Y012797D01*
X003966Y012858D02*
X012846Y012858D01*
X012865Y012920D02*
X003966Y012920D01*
X003966Y012981D02*
X012900Y012981D01*
X012971Y013043D02*
X003966Y013043D01*
X003966Y012489D02*
X014661Y012489D01*
X014512Y012428D02*
X003966Y012428D01*
X003966Y012366D02*
X014458Y012366D01*
X014432Y012305D02*
X003966Y012305D01*
X003966Y012243D02*
X014370Y012243D01*
X014266Y012182D02*
X003966Y012182D01*
X003966Y012120D02*
X014218Y012120D01*
X014192Y012059D02*
X003966Y012059D01*
X003966Y011997D02*
X014189Y011997D01*
X014082Y011936D02*
X003966Y011936D01*
X004718Y011813D02*
X010798Y011813D01*
X010717Y011751D02*
X010156Y011751D01*
X010147Y011760D02*
X010055Y011798D01*
X009956Y011798D01*
X009864Y011760D01*
X009794Y011690D01*
X009855Y011751D02*
X004782Y011751D01*
X004830Y011567D02*
X008577Y011567D01*
X008511Y011506D02*
X008236Y011506D01*
X008290Y011444D02*
X008478Y011444D01*
X008461Y011383D02*
X008315Y011383D01*
X008322Y011321D02*
X008461Y011321D01*
X008478Y011260D02*
X008319Y011260D01*
X008294Y011198D02*
X008511Y011198D01*
X008558Y011137D02*
X008578Y011137D01*
X008248Y011137D02*
X008245Y011137D01*
X008190Y011075D02*
X008142Y011075D01*
X007830Y010829D02*
X007744Y010829D01*
X007724Y010399D02*
X007638Y010399D01*
X007830Y011383D02*
X004708Y011383D01*
X004777Y011444D02*
X007855Y011444D01*
X007908Y011506D02*
X004811Y011506D01*
X006763Y009230D02*
X011810Y009230D01*
X011768Y009169D02*
X010614Y009169D01*
X010702Y009107D02*
X011744Y009107D01*
X011744Y009046D02*
X010743Y009046D01*
X010767Y008984D02*
X011755Y008984D01*
X011781Y008923D02*
X010767Y008923D01*
X010755Y008861D02*
X011840Y008861D01*
X012147Y008861D02*
X016153Y008861D01*
X016267Y008861D02*
X018801Y008861D01*
X018801Y008800D02*
X010730Y008800D01*
X010670Y008738D02*
X018801Y008738D01*
X018801Y008677D02*
X006660Y008677D01*
X006698Y008615D02*
X018801Y008615D01*
X018801Y008554D02*
X006720Y008554D01*
X006720Y008492D02*
X018801Y008492D01*
X018801Y008431D02*
X006706Y008431D01*
X006679Y008369D02*
X014194Y008369D01*
X014101Y008308D02*
X006618Y008308D01*
X006579Y008738D02*
X010365Y008738D01*
X010292Y009046D02*
X006636Y009046D01*
X006708Y009107D02*
X010333Y009107D01*
X010421Y009169D02*
X006744Y009169D01*
X004672Y007631D02*
X013181Y007631D01*
X013156Y007570D02*
X004698Y007570D01*
X004704Y007509D02*
X013150Y007509D01*
X013153Y007447D02*
X007386Y007447D01*
X007441Y007386D02*
X013179Y007386D01*
X013228Y007324D02*
X007467Y007324D01*
X007066Y007447D02*
X004700Y007447D01*
X004675Y007386D02*
X007010Y007386D01*
X006985Y007324D02*
X004626Y007324D01*
X004620Y007693D02*
X013234Y007693D01*
X013348Y007754D02*
X004506Y007754D01*
X003966Y006832D02*
X008131Y006832D01*
X008131Y006771D02*
X003966Y006771D01*
X003966Y006709D02*
X008131Y006709D01*
X008131Y006648D02*
X005503Y006648D01*
X010390Y009722D02*
X011137Y009722D01*
X011081Y009784D02*
X010452Y009784D01*
X010480Y009845D02*
X010523Y009845D01*
X010787Y009845D02*
X011056Y009845D01*
X011047Y009907D02*
X010854Y009907D01*
X010887Y009968D02*
X011049Y009968D01*
X011074Y010030D02*
X010905Y010030D01*
X010905Y010091D02*
X011120Y010091D01*
X011219Y010153D02*
X010887Y010153D01*
X010855Y010214D02*
X012794Y010214D01*
X012776Y010276D02*
X010788Y010276D01*
X010522Y010276D02*
X010436Y010276D01*
X010436Y010337D02*
X012776Y010337D01*
X012792Y010399D02*
X010411Y010399D01*
X010368Y010460D02*
X012824Y010460D01*
X012887Y010522D02*
X010277Y010522D01*
X010426Y010214D02*
X010456Y010214D01*
X010423Y010153D02*
X010400Y010153D01*
X011375Y010153D02*
X012828Y010153D01*
X012898Y010091D02*
X011474Y010091D01*
X012962Y009462D02*
X013021Y009403D01*
X013021Y009462D02*
X012962Y009462D01*
X012232Y008984D02*
X015991Y008984D01*
X016042Y008923D02*
X012207Y008923D01*
X013450Y007754D02*
X013663Y007754D01*
X013765Y007754D02*
X013978Y007754D01*
X014080Y007754D02*
X014293Y007754D01*
X014438Y007939D02*
X018801Y007939D01*
X018801Y008000D02*
X014495Y008000D01*
X014521Y008062D02*
X018801Y008062D01*
X018801Y008123D02*
X014531Y008123D01*
X014531Y008185D02*
X014493Y008277D01*
X014462Y008308D02*
X018801Y008308D01*
X018801Y008369D02*
X014368Y008369D01*
X015265Y009226D02*
X015324Y009167D01*
X015923Y009604D02*
X015982Y009545D01*
X016270Y009353D02*
X018801Y009353D01*
X018801Y009292D02*
X016379Y009292D01*
X016430Y009230D02*
X018801Y009230D01*
X018801Y009169D02*
X016455Y009169D01*
X016460Y009107D02*
X018801Y009107D01*
X018801Y009046D02*
X016455Y009046D01*
X016429Y008984D02*
X018801Y008984D01*
X018801Y008923D02*
X016378Y008923D01*
X016958Y009159D02*
X017080Y009069D01*
X016616Y009415D02*
X018801Y009415D01*
X018801Y009476D02*
X016695Y009476D01*
X016734Y009538D02*
X018801Y009538D01*
X018801Y009599D02*
X016755Y009599D01*
X016755Y009661D02*
X018801Y009661D01*
X018801Y009722D02*
X018511Y009722D01*
X018488Y009713D02*
X018580Y009751D01*
X018650Y009821D01*
X018688Y009913D01*
X018688Y010012D01*
X018650Y010104D01*
X018580Y010174D01*
X018488Y010212D01*
X018389Y010212D01*
X018297Y010174D01*
X018227Y010104D01*
X018189Y010012D01*
X018189Y009913D01*
X018227Y009821D01*
X018297Y009751D01*
X018389Y009713D01*
X018488Y009713D01*
X018366Y009722D02*
X016741Y009722D01*
X016714Y009784D02*
X018264Y009784D01*
X018217Y009845D02*
X016653Y009845D01*
X016358Y009845D02*
X015637Y009845D01*
X015662Y009907D02*
X015920Y009907D01*
X016044Y009907D02*
X018191Y009907D01*
X018189Y009968D02*
X016152Y009968D01*
X016202Y010030D02*
X018196Y010030D01*
X018222Y010091D02*
X016227Y010091D01*
X016231Y010153D02*
X018276Y010153D01*
X018601Y010153D02*
X018801Y010153D01*
X018801Y010214D02*
X016226Y010214D01*
X016200Y010276D02*
X018801Y010276D01*
X018801Y010337D02*
X016149Y010337D01*
X015737Y010091D02*
X015632Y010091D01*
X015657Y010030D02*
X015762Y010030D01*
X015812Y009968D02*
X015665Y009968D01*
X015589Y009784D02*
X016297Y009784D01*
X018613Y009784D02*
X018801Y009784D01*
X018801Y009845D02*
X018660Y009845D01*
X018686Y009907D02*
X018801Y009907D01*
X018801Y009968D02*
X018688Y009968D01*
X018681Y010030D02*
X018801Y010030D01*
X018801Y010091D02*
X018655Y010091D01*
X018801Y011383D02*
X011054Y011383D01*
X011116Y011444D02*
X018801Y011444D01*
X016883Y012551D02*
X016085Y012551D01*
X016106Y012612D02*
X016833Y012612D01*
X016807Y012674D02*
X016106Y012674D01*
X016091Y012735D02*
X016803Y012735D01*
X016809Y012797D02*
X016063Y012797D01*
X016002Y012858D02*
X016834Y012858D01*
X016886Y012920D02*
X015354Y012920D01*
X015382Y012858D02*
X015710Y012858D01*
X015649Y012797D02*
X015397Y012797D01*
X015397Y012735D02*
X015621Y012735D01*
X015606Y012674D02*
X015376Y012674D01*
X015339Y012612D02*
X015606Y012612D01*
X015627Y012551D02*
X015263Y012551D01*
X015161Y012489D02*
X015665Y012489D01*
X015743Y012428D02*
X015136Y012428D01*
X015292Y012981D02*
X016998Y012981D01*
X017108Y012981D02*
X017755Y012981D01*
X017823Y012920D02*
X017220Y012920D01*
X016387Y012592D02*
X016269Y012651D01*
X013553Y012828D02*
X013494Y012828D01*
X010679Y011690D02*
X010217Y011690D01*
X010147Y011760D01*
X010217Y011690D02*
X010255Y011598D01*
X010255Y011499D01*
X010217Y011407D01*
X010147Y011337D01*
X010192Y011383D02*
X010760Y011383D01*
X010698Y011444D02*
X010232Y011444D01*
X010255Y011506D02*
X010671Y011506D01*
X010657Y011567D02*
X010255Y011567D01*
X010243Y011629D02*
X010657Y011629D01*
X010376Y012419D02*
X010376Y012482D01*
D14*
X003939Y006273D02*
X018651Y006273D01*
X018651Y006151D01*
X018697Y006105D01*
X018643Y004383D01*
X010894Y004343D01*
X010899Y004348D01*
X010899Y004537D01*
X010875Y004561D01*
X010899Y004584D01*
X010899Y004773D01*
X010765Y004907D01*
X010576Y004907D01*
X010553Y004883D01*
X010529Y004907D01*
X010340Y004907D01*
X010317Y004883D01*
X010293Y004907D01*
X010104Y004907D01*
X010080Y004883D01*
X010057Y004907D01*
X009868Y004907D01*
X009844Y004883D01*
X009820Y004907D01*
X009631Y004907D01*
X009498Y004773D01*
X009498Y004584D01*
X009521Y004561D01*
X009498Y004537D01*
X009498Y004348D01*
X009510Y004336D01*
X008875Y004332D01*
X008891Y004348D01*
X008891Y004537D01*
X008867Y004561D01*
X008891Y004584D01*
X008891Y004773D01*
X008757Y004907D01*
X008569Y004907D01*
X008545Y004883D01*
X008521Y004907D01*
X008332Y004907D01*
X008309Y004883D01*
X008285Y004907D01*
X008096Y004907D01*
X008072Y004883D01*
X008049Y004907D01*
X007860Y004907D01*
X007836Y004883D01*
X007813Y004907D01*
X007624Y004907D01*
X007490Y004773D01*
X007490Y004584D01*
X007514Y004561D01*
X007490Y004537D01*
X007490Y004348D01*
X007513Y004325D01*
X007360Y004324D01*
X006478Y005328D01*
X003939Y005328D01*
X003939Y006273D01*
X003939Y006252D02*
X018651Y006252D01*
X018651Y006154D02*
X003939Y006154D01*
X003939Y006055D02*
X018696Y006055D01*
X018692Y005957D02*
X003939Y005957D01*
X003939Y005858D02*
X018689Y005858D01*
X018686Y005760D02*
X003939Y005760D01*
X003939Y005661D02*
X018683Y005661D01*
X018680Y005563D02*
X003939Y005563D01*
X003939Y005464D02*
X018677Y005464D01*
X018674Y005366D02*
X003939Y005366D01*
X006531Y005267D02*
X018671Y005267D01*
X018668Y005169D02*
X006618Y005169D01*
X006704Y005070D02*
X018665Y005070D01*
X018662Y004972D02*
X006791Y004972D01*
X006878Y004873D02*
X007590Y004873D01*
X007492Y004775D02*
X006964Y004775D01*
X007051Y004676D02*
X007490Y004676D01*
X007496Y004578D02*
X007137Y004578D01*
X007224Y004479D02*
X007490Y004479D01*
X007490Y004381D02*
X007310Y004381D01*
X008791Y004873D02*
X009598Y004873D01*
X009500Y004775D02*
X008889Y004775D01*
X008891Y004676D02*
X009498Y004676D01*
X009504Y004578D02*
X008885Y004578D01*
X008891Y004479D02*
X009498Y004479D01*
X009498Y004381D02*
X008891Y004381D01*
X010799Y004873D02*
X018659Y004873D01*
X018656Y004775D02*
X010897Y004775D01*
X010899Y004676D02*
X018652Y004676D01*
X018649Y004578D02*
X010893Y004578D01*
X010899Y004479D02*
X018646Y004479D01*
X018170Y004381D02*
X010899Y004381D01*
D15*
X006683Y006057D02*
X006683Y006939D01*
D16*
X018565Y010529D02*
X018712Y010381D01*
X019732Y010381D01*
X020232Y010381D01*
D17*
X020179Y012356D03*
X020179Y002907D03*
X002462Y002907D03*
X002462Y012356D03*
M02*
