%
M48
M72
T01C0.01181
T02C0.03543
T03C0.04016
T04C0.05906
T05C0.06102
T06C0.07087
T07C0.07480
T08C0.07874
T09C0.11811
%
T01
X171709Y69242
X186197Y88770
X193756Y91289
X184307Y100738
X176748Y101998
X165409Y112707
X164150Y118376
X195646Y101368
X215173Y103258
X200685Y131604
X179898Y145463
X169189Y146722
X179898Y155541
X227772Y144203
X230921Y141683
X234071Y139163
X237220Y136644
X240370Y134124
X243520Y132234
X243520Y140423
X240370Y147352
X237220Y154911
X234071Y162470
X230921Y166880
X230291Y178848
T02
X197890Y72392
X184110Y72392
T03
X147969Y154557
X136157Y154557
T04
X46118Y56250
X66118Y56250
X101984Y89124
X122457Y89124
X135843Y89124
X74618Y106250
X56118Y106250
X37618Y106250
X277776Y106250
X296276Y106250
X314776Y106250
X306276Y56250
X286276Y56250
T05
X205370Y59400
X176630Y59400
X176630Y80266
X205370Y80266
T06
X122850Y64321
T07
X137417Y60384
X98441Y60384
T08
X158480Y59006
X12811Y59006
X12811Y181053
X339583Y181053
X339583Y59006
T09
X142063Y171565
M30
