G75*
%MOIN*%
%OFA0B0*%
%FSLAX24Y24*%
%IPPOS*%
%LPD*%
%AMOC8*
5,1,8,0,0,1.08239X$1,22.5*
%
%ADD10R,0.0602X0.0602*%
%ADD11C,0.0602*%
%ADD12C,0.0515*%
%ADD13R,0.0197X0.0787*%
%ADD14R,0.0236X0.0610*%
%ADD15R,0.0472X0.0709*%
%ADD16R,0.0291X0.0364*%
%ADD17R,0.0120X0.0310*%
%ADD18R,0.0980X0.0690*%
%ADD19R,0.0098X0.0472*%
%ADD20R,0.0472X0.0098*%
%ADD21R,0.0354X0.0276*%
%ADD22R,0.0551X0.0748*%
%ADD23R,0.0364X0.0291*%
%ADD24R,0.0394X0.0433*%
%ADD25R,0.0315X0.0315*%
%ADD26C,0.1095*%
%ADD27C,0.0063*%
%ADD28C,0.0160*%
%ADD29C,0.0278*%
%ADD30C,0.1581*%
D10*
X013616Y015456D03*
D11*
X014797Y015456D03*
D12*
X014025Y009170D02*
X014025Y008655D01*
X012687Y008655D02*
X012687Y009170D01*
X010639Y009170D02*
X010639Y008655D01*
X010285Y006296D02*
X010285Y005781D01*
X014183Y005781D02*
X014183Y006296D01*
X017663Y006197D02*
X017663Y005682D01*
X020537Y005682D02*
X020537Y006197D01*
X020537Y007769D02*
X020537Y008284D01*
X017663Y008284D02*
X017663Y007769D01*
D13*
X018470Y008125D03*
X018785Y008125D03*
X019100Y008125D03*
X019415Y008125D03*
X019730Y008125D03*
D14*
X022541Y006777D03*
X022935Y006777D03*
X023328Y006777D03*
X023722Y006777D03*
X024116Y006777D03*
X024509Y006777D03*
X024903Y006777D03*
X023155Y017249D03*
X022761Y017249D03*
X022368Y017249D03*
X021974Y017249D03*
X021580Y017249D03*
X021187Y017249D03*
X020793Y017249D03*
X018943Y017249D03*
X018549Y017249D03*
X018155Y017249D03*
X017761Y017249D03*
X025557Y017599D03*
X025950Y017599D03*
D15*
X026580Y018712D03*
X024927Y018712D03*
X023667Y018775D03*
X020281Y018775D03*
X019454Y018775D03*
X017250Y018775D03*
X022029Y005251D03*
X025415Y005251D03*
D16*
X016458Y012216D03*
X016458Y012688D03*
X016506Y013782D03*
X016887Y013790D03*
X016887Y014263D03*
X016506Y014255D03*
X017143Y015420D03*
X017143Y015893D03*
D17*
X017880Y016279D03*
X018076Y016279D03*
X018273Y016279D03*
X018470Y016279D03*
X018470Y015129D03*
X018273Y015129D03*
X018076Y015129D03*
X017880Y015129D03*
D18*
X018175Y015704D03*
D19*
X018124Y014117D03*
X018320Y014117D03*
X018517Y014117D03*
X018714Y014117D03*
X018911Y014117D03*
X019108Y014117D03*
X019305Y014117D03*
X019502Y014117D03*
X019698Y014117D03*
X019895Y014117D03*
X020092Y014117D03*
X017927Y014117D03*
X017927Y010574D03*
X018124Y010574D03*
X018320Y010574D03*
X018517Y010574D03*
X018714Y010574D03*
X018911Y010574D03*
X019108Y010574D03*
X019305Y010574D03*
X019502Y010574D03*
X019698Y010574D03*
X019895Y010574D03*
X020092Y010574D03*
D20*
X020781Y011263D03*
X020781Y011460D03*
X020781Y011656D03*
X020781Y011853D03*
X020781Y012050D03*
X020781Y012247D03*
X020781Y012444D03*
X020781Y012641D03*
X020781Y012838D03*
X020781Y013034D03*
X020781Y013231D03*
X020781Y013428D03*
X017238Y013428D03*
X017238Y013231D03*
X017238Y013034D03*
X017238Y012838D03*
X017238Y012641D03*
X017238Y012444D03*
X017238Y012247D03*
X017238Y012050D03*
X017238Y011853D03*
X017238Y011656D03*
X017238Y011460D03*
X017238Y011263D03*
D21*
X018620Y009653D03*
X018620Y009141D03*
X008742Y006727D03*
X008742Y006216D03*
D22*
X015824Y007881D03*
X016769Y007881D03*
X016769Y009613D03*
X015824Y009613D03*
D23*
X016502Y010338D03*
X016502Y010763D03*
X016974Y010763D03*
X016974Y010338D03*
X017380Y009735D03*
X017852Y009735D03*
X018045Y009141D03*
X017572Y009141D03*
X020596Y010306D03*
X021069Y010306D03*
X021265Y009570D03*
X020793Y009570D03*
X020793Y009050D03*
X021265Y009050D03*
D24*
X020163Y009137D03*
X020163Y009806D03*
X015824Y012133D03*
X015824Y012802D03*
D25*
X008702Y005101D03*
X009293Y005101D03*
D26*
X006612Y005625D03*
X004612Y005625D03*
X003762Y010625D03*
X005612Y010625D03*
X007462Y010625D03*
X027778Y010625D03*
X029628Y010625D03*
X031478Y010625D03*
X030628Y005625D03*
X028628Y005625D03*
D27*
X024903Y006777D02*
X024856Y006824D01*
X024856Y007050D01*
X024100Y007806D01*
X024100Y012594D01*
X024604Y013097D01*
X024604Y013286D01*
X022336Y015554D01*
X021706Y015554D01*
X020793Y016468D01*
X020793Y017249D01*
X021187Y017249D02*
X021187Y016263D01*
X021769Y015680D01*
X022714Y015680D01*
X024352Y014042D01*
X023722Y013664D02*
X023722Y006777D01*
X023328Y006777D02*
X023281Y006666D01*
X023281Y007050D01*
X023596Y007365D01*
X023596Y013286D01*
X023407Y013475D01*
X023407Y013916D01*
X023092Y014168D02*
X023092Y013601D01*
X023470Y013223D01*
X023470Y007554D01*
X022903Y006987D01*
X022903Y006808D01*
X022935Y006777D01*
X022541Y006777D02*
X022525Y006792D01*
X022525Y006987D01*
X023344Y007806D01*
X023344Y013160D01*
X022777Y013727D01*
X022777Y014420D01*
X024037Y014735D02*
X022966Y015806D01*
X021895Y015806D01*
X021580Y016121D01*
X021580Y017249D01*
X021580Y017444D01*
X021974Y017249D02*
X021974Y016168D01*
X022210Y015932D01*
X023281Y015932D01*
X023722Y015491D01*
X023407Y016247D02*
X023155Y016247D01*
X022368Y017034D01*
X022368Y017249D01*
X022368Y017727D01*
X022777Y018137D01*
X024037Y018137D01*
X024793Y017381D01*
X025338Y017381D01*
X025557Y017599D01*
X025950Y017599D02*
X025887Y015153D01*
X029580Y011460D01*
X029580Y010672D01*
X029628Y010625D01*
X029328Y009822D02*
X028824Y010326D01*
X028824Y012027D01*
X025738Y015113D01*
X025738Y016247D01*
X024100Y017885D01*
X023029Y017885D01*
X023155Y017696D01*
X023155Y017249D01*
X022761Y017249D02*
X022761Y017019D01*
X023092Y016688D01*
X023407Y016247D02*
X025234Y016247D01*
X025612Y015869D01*
X025612Y015050D01*
X027778Y012884D01*
X027778Y010625D01*
X029328Y009822D02*
X030210Y009822D01*
X031013Y010625D01*
X031478Y010625D01*
X024352Y013223D02*
X023974Y012845D01*
X023974Y007554D01*
X024541Y006987D01*
X024541Y006808D01*
X024509Y006777D01*
X024163Y006824D02*
X024163Y006987D01*
X023848Y007302D01*
X023848Y013223D01*
X024037Y013412D01*
X021328Y014420D02*
X021328Y011460D01*
X021139Y011271D01*
X020789Y011271D01*
X020781Y011263D01*
X020781Y011460D02*
X021076Y011460D01*
X021202Y011586D01*
X021202Y014357D01*
X020950Y014609D01*
X018305Y014609D01*
X018053Y014861D01*
X018053Y015105D01*
X018076Y015129D01*
X017880Y015129D02*
X017525Y015168D01*
X017143Y015420D01*
X017143Y015893D02*
X017923Y015893D01*
X018175Y015704D01*
X018029Y015515D01*
X017990Y015554D01*
X018305Y015239D01*
X018431Y015239D01*
X018470Y015200D01*
X018470Y015129D01*
X018273Y015129D02*
X018273Y014893D01*
X018431Y014735D01*
X021013Y014735D01*
X021328Y014420D01*
X020781Y013428D02*
X019958Y013428D01*
X019817Y013286D01*
X019817Y011271D01*
X019785Y011239D01*
X020069Y010956D01*
X020069Y010597D01*
X020092Y010574D01*
X020069Y010550D01*
X020069Y010326D01*
X020088Y010306D01*
X020596Y010306D01*
X020163Y010168D02*
X020069Y010263D01*
X020069Y010326D01*
X020163Y010168D02*
X020163Y009806D01*
X020793Y009570D02*
X020793Y009050D01*
X020706Y009137D01*
X020163Y009137D01*
X020155Y009129D01*
X019880Y009129D01*
X019305Y009704D01*
X019305Y010574D01*
X019502Y010574D02*
X019502Y010137D01*
X019502Y010574D02*
X019698Y010574D01*
X019895Y010574D01*
X019108Y010574D02*
X019100Y010566D01*
X019100Y008125D01*
X018809Y008149D02*
X018785Y008125D01*
X018809Y008149D02*
X018809Y008499D01*
X018935Y008625D01*
X018935Y010074D01*
X018911Y010097D01*
X018911Y010574D01*
X018714Y010574D02*
X018714Y009621D01*
X018620Y009653D01*
X018179Y009444D02*
X018179Y009885D01*
X018116Y010011D01*
X018116Y010251D01*
X018124Y010574D01*
X018320Y010574D02*
X018320Y010877D01*
X018242Y010956D01*
X017167Y010956D01*
X016974Y010763D01*
X016974Y010338D01*
X016502Y010338D02*
X016502Y010763D01*
X017002Y011263D01*
X017238Y011263D01*
X016801Y011263D01*
X016793Y011271D01*
X017238Y011263D02*
X017238Y011460D01*
X017238Y011656D02*
X019368Y011656D01*
X019785Y011239D01*
X018517Y010574D02*
X018517Y010160D01*
X018431Y010074D01*
X017927Y010263D02*
X017486Y009822D01*
X017423Y009629D01*
X017380Y009735D01*
X017336Y009735D01*
X017234Y009633D01*
X017234Y009192D01*
X017108Y009066D01*
X016435Y009066D01*
X015824Y009613D01*
X016856Y008751D02*
X017183Y008751D01*
X017572Y009141D01*
X017509Y009153D01*
X017675Y009444D01*
X018179Y009444D01*
X017966Y009609D02*
X017864Y009822D01*
X017852Y009735D02*
X017966Y009609D01*
X018045Y009141D02*
X018631Y009141D01*
X018620Y009066D01*
X018620Y009141D01*
X016856Y008751D02*
X016856Y007905D01*
X016769Y007881D01*
X017108Y007050D02*
X017234Y006861D01*
X017108Y007050D02*
X009990Y007050D01*
X009612Y006672D01*
X009612Y005420D01*
X009293Y005101D01*
X008702Y005101D02*
X008702Y006176D01*
X008742Y006216D01*
X009020Y007365D02*
X007155Y007365D01*
X006462Y008121D01*
X006462Y012027D01*
X006651Y012216D01*
X012446Y012216D01*
X013958Y010704D01*
X013958Y009557D01*
X013948Y009557D01*
X013806Y009498D01*
X013697Y009389D01*
X013638Y009247D01*
X013638Y008578D01*
X013697Y008435D01*
X013806Y008326D01*
X013948Y008268D01*
X013958Y008268D01*
X013958Y007449D01*
X009270Y007449D01*
X009264Y007454D01*
X009184Y007449D01*
X009104Y007449D01*
X009098Y007443D01*
X009090Y007443D01*
X009037Y007383D01*
X009020Y007365D01*
X009074Y007425D02*
X007100Y007425D01*
X007044Y007487D02*
X013958Y007487D01*
X013958Y007548D02*
X006987Y007548D01*
X006931Y007610D02*
X013958Y007610D01*
X013958Y007671D02*
X006875Y007671D01*
X006818Y007733D02*
X013958Y007733D01*
X013958Y007794D02*
X006762Y007794D01*
X006706Y007856D02*
X013958Y007856D01*
X013958Y007917D02*
X006649Y007917D01*
X006593Y007979D02*
X013958Y007979D01*
X013958Y008040D02*
X006536Y008040D01*
X006480Y008102D02*
X013958Y008102D01*
X013958Y008163D02*
X006462Y008163D01*
X006462Y008225D02*
X013958Y008225D01*
X013903Y008286D02*
X010761Y008286D01*
X010716Y008268D02*
X010859Y008326D01*
X010968Y008435D01*
X011027Y008578D01*
X011027Y009247D01*
X010968Y009389D01*
X010859Y009498D01*
X010716Y009557D01*
X010562Y009557D01*
X010420Y009498D01*
X010311Y009389D01*
X010252Y009247D01*
X010252Y008578D01*
X010311Y008435D01*
X010420Y008326D01*
X010562Y008268D01*
X010716Y008268D01*
X010880Y008348D02*
X013785Y008348D01*
X013723Y008409D02*
X010941Y008409D01*
X010982Y008471D02*
X013682Y008471D01*
X013657Y008532D02*
X011008Y008532D01*
X011027Y008594D02*
X013638Y008594D01*
X013638Y008655D02*
X011027Y008655D01*
X011027Y008716D02*
X013638Y008716D01*
X013638Y008778D02*
X011027Y008778D01*
X011027Y008839D02*
X013638Y008839D01*
X013638Y008901D02*
X011027Y008901D01*
X011027Y008962D02*
X013638Y008962D01*
X013638Y009024D02*
X011027Y009024D01*
X011027Y009085D02*
X013638Y009085D01*
X013638Y009147D02*
X011027Y009147D01*
X011027Y009208D02*
X013638Y009208D01*
X013647Y009270D02*
X011017Y009270D01*
X010992Y009331D02*
X013673Y009331D01*
X013700Y009393D02*
X010964Y009393D01*
X010903Y009454D02*
X013762Y009454D01*
X013848Y009516D02*
X010816Y009516D01*
X010462Y009516D02*
X006462Y009516D01*
X006462Y009577D02*
X013958Y009577D01*
X013958Y009639D02*
X006462Y009639D01*
X006462Y009700D02*
X013958Y009700D01*
X013958Y009762D02*
X006462Y009762D01*
X006462Y009823D02*
X013958Y009823D01*
X013958Y009885D02*
X006462Y009885D01*
X006462Y009946D02*
X013958Y009946D01*
X013958Y010008D02*
X006462Y010008D01*
X006462Y010069D02*
X013958Y010069D01*
X013958Y010131D02*
X006462Y010131D01*
X006462Y010192D02*
X013958Y010192D01*
X013958Y010254D02*
X006462Y010254D01*
X006462Y010315D02*
X013958Y010315D01*
X013958Y010377D02*
X006462Y010377D01*
X006462Y010438D02*
X013958Y010438D01*
X013958Y010500D02*
X006462Y010500D01*
X006462Y010561D02*
X013958Y010561D01*
X013958Y010623D02*
X006462Y010623D01*
X006462Y010684D02*
X013958Y010684D01*
X013916Y010746D02*
X006462Y010746D01*
X006462Y010807D02*
X013855Y010807D01*
X013793Y010869D02*
X006462Y010869D01*
X006462Y010930D02*
X013732Y010930D01*
X013670Y010992D02*
X006462Y010992D01*
X006462Y011053D02*
X013609Y011053D01*
X013547Y011115D02*
X006462Y011115D01*
X006462Y011176D02*
X013486Y011176D01*
X013424Y011238D02*
X006462Y011238D01*
X006462Y011299D02*
X013363Y011299D01*
X013301Y011361D02*
X006462Y011361D01*
X006462Y011422D02*
X013240Y011422D01*
X013178Y011484D02*
X006462Y011484D01*
X006462Y011545D02*
X013117Y011545D01*
X013055Y011607D02*
X006462Y011607D01*
X006462Y011668D02*
X012994Y011668D01*
X012932Y011730D02*
X006462Y011730D01*
X006462Y011791D02*
X012871Y011791D01*
X012809Y011853D02*
X006462Y011853D01*
X006462Y011914D02*
X012748Y011914D01*
X012686Y011976D02*
X006462Y011976D01*
X006473Y012037D02*
X012625Y012037D01*
X012563Y012099D02*
X006534Y012099D01*
X006596Y012160D02*
X012502Y012160D01*
X015824Y012802D02*
X015860Y012838D01*
X016478Y012838D01*
X016478Y012708D01*
X016458Y012688D01*
X016478Y012838D02*
X017238Y012838D01*
X017238Y013034D02*
X017675Y013034D01*
X018305Y013664D01*
X018305Y014101D01*
X018320Y014117D01*
X018124Y014117D02*
X017927Y014117D01*
X017927Y014483D01*
X017990Y014546D01*
X016919Y014672D02*
X016887Y014641D01*
X016887Y014263D01*
X016513Y014263D01*
X016506Y014255D01*
X016506Y013782D02*
X016541Y013747D01*
X016541Y013538D01*
X016848Y013231D01*
X017238Y013231D01*
X017238Y013428D02*
X016887Y013779D01*
X016887Y013790D01*
X016840Y012641D02*
X016793Y012594D01*
X016793Y012216D01*
X016458Y012216D01*
X016840Y012641D02*
X017238Y012641D01*
X017238Y012444D01*
X019998Y013231D02*
X020069Y013160D01*
X019998Y013231D02*
X020781Y013231D01*
X020781Y013034D01*
X017927Y010574D02*
X017927Y010263D01*
X021069Y010306D02*
X021498Y010306D01*
X021517Y010326D01*
X021391Y010200D02*
X021391Y009696D01*
X021265Y009570D01*
X021265Y009050D01*
X021391Y010200D02*
X021285Y010306D01*
X021069Y010306D01*
X024163Y006824D02*
X024116Y006777D01*
X010518Y008286D02*
X006462Y008286D01*
X006462Y008348D02*
X010399Y008348D01*
X010337Y008409D02*
X006462Y008409D01*
X006462Y008471D02*
X010296Y008471D01*
X010271Y008532D02*
X006462Y008532D01*
X006462Y008594D02*
X010252Y008594D01*
X010252Y008655D02*
X006462Y008655D01*
X006462Y008716D02*
X010252Y008716D01*
X010252Y008778D02*
X006462Y008778D01*
X006462Y008839D02*
X010252Y008839D01*
X010252Y008901D02*
X006462Y008901D01*
X006462Y008962D02*
X010252Y008962D01*
X010252Y009024D02*
X006462Y009024D01*
X006462Y009085D02*
X010252Y009085D01*
X010252Y009147D02*
X006462Y009147D01*
X006462Y009208D02*
X010252Y009208D01*
X010261Y009270D02*
X006462Y009270D01*
X006462Y009331D02*
X010287Y009331D01*
X010315Y009393D02*
X006462Y009393D01*
X006462Y009454D02*
X010376Y009454D01*
X006301Y009912D02*
X006084Y009696D01*
X003061Y009696D01*
X003061Y016058D01*
X005139Y017948D01*
X013552Y017948D01*
X013388Y017784D01*
X013254Y017551D01*
X013184Y017291D01*
X013184Y017022D01*
X013254Y016762D01*
X013388Y016529D01*
X013579Y016339D01*
X013812Y016204D01*
X014072Y016134D01*
X014341Y016134D01*
X014601Y016204D01*
X014834Y016339D01*
X015024Y016529D01*
X015159Y016762D01*
X015228Y017022D01*
X015228Y017291D01*
X015159Y017551D01*
X015024Y017784D01*
X014860Y017948D01*
X015659Y017948D01*
X016163Y017444D01*
X016163Y015806D01*
X015470Y015113D01*
X014047Y015113D01*
X014047Y015811D01*
X013971Y015887D01*
X013261Y015887D01*
X013185Y015811D01*
X013185Y015113D01*
X009360Y015113D01*
X006624Y012377D01*
X006584Y012377D01*
X006490Y012282D01*
X006301Y012093D01*
X006301Y009912D01*
X006301Y009946D02*
X003061Y009946D01*
X003061Y009885D02*
X006273Y009885D01*
X006212Y009823D02*
X003061Y009823D01*
X003061Y009762D02*
X006150Y009762D01*
X006089Y009700D02*
X003061Y009700D01*
X003061Y010008D02*
X003482Y010008D01*
X003378Y010051D02*
X003627Y009948D01*
X003897Y009948D01*
X004146Y010051D01*
X004336Y010241D01*
X004439Y010490D01*
X004439Y010760D01*
X004336Y011009D01*
X004146Y011199D01*
X003897Y011302D01*
X003627Y011302D01*
X003378Y011199D01*
X003188Y011009D01*
X003084Y010760D01*
X003084Y010490D01*
X003188Y010241D01*
X003378Y010051D01*
X003359Y010069D02*
X003061Y010069D01*
X003061Y010131D02*
X003298Y010131D01*
X003236Y010192D02*
X003061Y010192D01*
X003061Y010254D02*
X003182Y010254D01*
X003157Y010315D02*
X003061Y010315D01*
X003061Y010377D02*
X003131Y010377D01*
X003106Y010438D02*
X003061Y010438D01*
X003061Y010500D02*
X003084Y010500D01*
X003084Y010561D02*
X003061Y010561D01*
X003061Y010623D02*
X003084Y010623D01*
X003084Y010684D02*
X003061Y010684D01*
X003061Y010746D02*
X003084Y010746D01*
X003104Y010807D02*
X003061Y010807D01*
X003061Y010869D02*
X003130Y010869D01*
X003155Y010930D02*
X003061Y010930D01*
X003061Y010992D02*
X003180Y010992D01*
X003232Y011053D02*
X003061Y011053D01*
X003061Y011115D02*
X003293Y011115D01*
X003355Y011176D02*
X003061Y011176D01*
X003061Y011238D02*
X003471Y011238D01*
X003619Y011299D02*
X003061Y011299D01*
X003061Y011361D02*
X006301Y011361D01*
X006301Y011422D02*
X003061Y011422D01*
X003061Y011484D02*
X006301Y011484D01*
X006301Y011545D02*
X003061Y011545D01*
X003061Y011607D02*
X006301Y011607D01*
X006301Y011668D02*
X003061Y011668D01*
X003061Y011730D02*
X006301Y011730D01*
X006301Y011791D02*
X003061Y011791D01*
X003061Y011853D02*
X006301Y011853D01*
X006301Y011914D02*
X003061Y011914D01*
X003061Y011976D02*
X006301Y011976D01*
X006301Y012037D02*
X003061Y012037D01*
X003061Y012099D02*
X006306Y012099D01*
X006367Y012160D02*
X003061Y012160D01*
X003061Y012222D02*
X006429Y012222D01*
X006490Y012283D02*
X003061Y012283D01*
X003061Y012345D02*
X006552Y012345D01*
X006653Y012406D02*
X003061Y012406D01*
X003061Y012468D02*
X006714Y012468D01*
X006776Y012529D02*
X003061Y012529D01*
X003061Y012591D02*
X006837Y012591D01*
X006899Y012652D02*
X003061Y012652D01*
X003061Y012713D02*
X006960Y012713D01*
X007022Y012775D02*
X003061Y012775D01*
X003061Y012836D02*
X007083Y012836D01*
X007145Y012898D02*
X003061Y012898D01*
X003061Y012959D02*
X007206Y012959D01*
X007268Y013021D02*
X003061Y013021D01*
X003061Y013082D02*
X007329Y013082D01*
X007391Y013144D02*
X003061Y013144D01*
X003061Y013205D02*
X007452Y013205D01*
X007514Y013267D02*
X003061Y013267D01*
X003061Y013328D02*
X007575Y013328D01*
X007637Y013390D02*
X003061Y013390D01*
X003061Y013451D02*
X007698Y013451D01*
X007760Y013513D02*
X003061Y013513D01*
X003061Y013574D02*
X007821Y013574D01*
X007883Y013636D02*
X003061Y013636D01*
X003061Y013697D02*
X007944Y013697D01*
X008006Y013759D02*
X003061Y013759D01*
X003061Y013820D02*
X008067Y013820D01*
X008129Y013882D02*
X003061Y013882D01*
X003061Y013943D02*
X008190Y013943D01*
X008251Y014005D02*
X003061Y014005D01*
X003061Y014066D02*
X008313Y014066D01*
X008374Y014128D02*
X003061Y014128D01*
X003061Y014189D02*
X008436Y014189D01*
X008497Y014251D02*
X003061Y014251D01*
X003061Y014312D02*
X008559Y014312D01*
X008620Y014374D02*
X003061Y014374D01*
X003061Y014435D02*
X008682Y014435D01*
X008743Y014497D02*
X003061Y014497D01*
X003061Y014558D02*
X008805Y014558D01*
X008866Y014620D02*
X003061Y014620D01*
X003061Y014681D02*
X008928Y014681D01*
X008989Y014743D02*
X003061Y014743D01*
X003061Y014804D02*
X009051Y014804D01*
X009112Y014866D02*
X003061Y014866D01*
X003061Y014927D02*
X009174Y014927D01*
X009235Y014989D02*
X003061Y014989D01*
X003061Y015050D02*
X009297Y015050D01*
X009358Y015112D02*
X003061Y015112D01*
X003061Y015173D02*
X013185Y015173D01*
X013185Y015235D02*
X003061Y015235D01*
X003061Y015296D02*
X013185Y015296D01*
X013185Y015358D02*
X003061Y015358D01*
X003061Y015419D02*
X013185Y015419D01*
X013185Y015481D02*
X003061Y015481D01*
X003061Y015542D02*
X013185Y015542D01*
X013185Y015604D02*
X003061Y015604D01*
X003061Y015665D02*
X013185Y015665D01*
X013185Y015727D02*
X003061Y015727D01*
X003061Y015788D02*
X013185Y015788D01*
X013224Y015850D02*
X003061Y015850D01*
X003061Y015911D02*
X016163Y015911D01*
X016163Y015850D02*
X014008Y015850D01*
X014047Y015788D02*
X016145Y015788D01*
X016084Y015727D02*
X014047Y015727D01*
X014047Y015665D02*
X016022Y015665D01*
X015961Y015604D02*
X014047Y015604D01*
X014047Y015542D02*
X015899Y015542D01*
X015838Y015481D02*
X014047Y015481D01*
X014047Y015419D02*
X015776Y015419D01*
X015715Y015358D02*
X014047Y015358D01*
X014047Y015296D02*
X015653Y015296D01*
X015592Y015235D02*
X014047Y015235D01*
X014047Y015173D02*
X015530Y015173D01*
X016163Y015973D02*
X003061Y015973D01*
X003061Y016034D02*
X016163Y016034D01*
X016163Y016096D02*
X003102Y016096D01*
X003170Y016157D02*
X013987Y016157D01*
X013787Y016219D02*
X003237Y016219D01*
X003305Y016280D02*
X013680Y016280D01*
X013576Y016342D02*
X003372Y016342D01*
X003440Y016403D02*
X013514Y016403D01*
X013453Y016465D02*
X003508Y016465D01*
X003575Y016526D02*
X013391Y016526D01*
X013355Y016588D02*
X003643Y016588D01*
X003711Y016649D02*
X013319Y016649D01*
X013284Y016711D02*
X003778Y016711D01*
X003846Y016772D02*
X013251Y016772D01*
X013235Y016833D02*
X003914Y016833D01*
X003981Y016895D02*
X013218Y016895D01*
X013202Y016956D02*
X004049Y016956D01*
X004117Y017018D02*
X013185Y017018D01*
X013184Y017079D02*
X004184Y017079D01*
X004252Y017141D02*
X013184Y017141D01*
X013184Y017202D02*
X004319Y017202D01*
X004387Y017264D02*
X013184Y017264D01*
X013193Y017325D02*
X004455Y017325D01*
X004522Y017387D02*
X013210Y017387D01*
X013226Y017448D02*
X004590Y017448D01*
X004658Y017510D02*
X013243Y017510D01*
X013266Y017571D02*
X004725Y017571D01*
X004793Y017633D02*
X013301Y017633D01*
X013337Y017694D02*
X004861Y017694D01*
X004928Y017756D02*
X013372Y017756D01*
X013422Y017817D02*
X004996Y017817D01*
X005063Y017879D02*
X013483Y017879D01*
X013545Y017940D02*
X005131Y017940D01*
X014425Y016157D02*
X016163Y016157D01*
X016163Y016219D02*
X014626Y016219D01*
X014732Y016280D02*
X016163Y016280D01*
X016163Y016342D02*
X014837Y016342D01*
X014898Y016403D02*
X016163Y016403D01*
X016163Y016465D02*
X014960Y016465D01*
X015021Y016526D02*
X016163Y016526D01*
X016163Y016588D02*
X015058Y016588D01*
X015093Y016649D02*
X016163Y016649D01*
X016163Y016711D02*
X015129Y016711D01*
X015161Y016772D02*
X016163Y016772D01*
X016163Y016833D02*
X015178Y016833D01*
X015194Y016895D02*
X016163Y016895D01*
X016163Y016956D02*
X015211Y016956D01*
X015227Y017018D02*
X016163Y017018D01*
X016163Y017079D02*
X015228Y017079D01*
X015228Y017141D02*
X016163Y017141D01*
X016163Y017202D02*
X015228Y017202D01*
X015228Y017264D02*
X016163Y017264D01*
X016163Y017325D02*
X015219Y017325D01*
X015203Y017387D02*
X016163Y017387D01*
X016158Y017448D02*
X015186Y017448D01*
X015170Y017510D02*
X016097Y017510D01*
X016035Y017571D02*
X015147Y017571D01*
X015111Y017633D02*
X015974Y017633D01*
X015913Y017694D02*
X015076Y017694D01*
X015040Y017756D02*
X015851Y017756D01*
X015790Y017817D02*
X014991Y017817D01*
X014929Y017879D02*
X015728Y017879D01*
X015667Y017940D02*
X014868Y017940D01*
X017761Y017249D02*
X017761Y016397D01*
X017880Y016279D01*
X018076Y016279D02*
X018076Y017170D01*
X018155Y017249D01*
X018549Y017249D02*
X018557Y017725D01*
X018620Y017948D01*
X018943Y017249D02*
X018935Y017241D01*
X018935Y016877D01*
X018746Y016688D01*
X018431Y016688D01*
X018273Y016531D01*
X018273Y016279D01*
X018470Y016279D02*
X018777Y016279D01*
X018935Y016121D01*
X021974Y017239D02*
X021974Y017249D01*
X006301Y011299D02*
X003904Y011299D01*
X004053Y011238D02*
X006301Y011238D01*
X006301Y011176D02*
X004169Y011176D01*
X004230Y011115D02*
X006301Y011115D01*
X006301Y011053D02*
X004292Y011053D01*
X004343Y010992D02*
X006301Y010992D01*
X006301Y010930D02*
X004369Y010930D01*
X004394Y010869D02*
X006301Y010869D01*
X006301Y010807D02*
X004420Y010807D01*
X004439Y010746D02*
X006301Y010746D01*
X006301Y010684D02*
X004439Y010684D01*
X004439Y010623D02*
X006301Y010623D01*
X006301Y010561D02*
X004439Y010561D01*
X004439Y010500D02*
X006301Y010500D01*
X006301Y010438D02*
X004418Y010438D01*
X004392Y010377D02*
X006301Y010377D01*
X006301Y010315D02*
X004367Y010315D01*
X004341Y010254D02*
X006301Y010254D01*
X006301Y010192D02*
X004287Y010192D01*
X004226Y010131D02*
X006301Y010131D01*
X006301Y010069D02*
X004164Y010069D01*
X004042Y010008D02*
X006301Y010008D01*
D28*
X009191Y007239D02*
X008742Y006727D01*
X009191Y007239D02*
X015596Y007239D01*
X015218Y007302D01*
X015218Y010263D01*
X015824Y010869D01*
X015824Y012133D01*
X019415Y008979D02*
X019439Y009003D01*
X019415Y008979D02*
X019415Y008125D01*
X018470Y008125D02*
X018470Y008460D01*
X018242Y008751D01*
X017486Y008751D01*
X017234Y008499D01*
X017234Y007302D01*
X017171Y007239D01*
X015596Y007239D01*
D29*
X017234Y006861D03*
X018620Y009066D03*
X019439Y009003D03*
X018431Y010074D03*
X017864Y009822D03*
X019502Y010137D03*
X021517Y010326D03*
X020069Y013160D03*
X017990Y014546D03*
X016919Y014672D03*
X017990Y015554D03*
X018935Y016121D03*
X018620Y017948D03*
X023029Y017885D03*
X023092Y016688D03*
X023407Y016247D03*
X023722Y015491D03*
X024037Y014735D03*
X024352Y014042D03*
X023722Y013664D03*
X023407Y013916D03*
X023092Y014168D03*
X022777Y014420D03*
X024037Y013412D03*
X024352Y013223D03*
X016793Y011271D03*
X016478Y012090D03*
D30*
X015848Y005901D03*
X001281Y005901D03*
X001281Y018105D03*
X033958Y018105D03*
X033958Y005901D03*
M02*
