G75*
%MOIN*%
%OFA0B0*%
%FSLAX24Y24*%
%IPPOS*%
%LPD*%
%AMOC8*
5,1,8,0,0,1.08239X$1,22.5*
%
%ADD10R,0.0682X0.0682*%
%ADD11C,0.0682*%
%ADD12C,0.1261*%
%ADD13C,0.0595*%
%ADD14C,0.0434*%
%ADD15C,0.0789*%
%ADD16C,0.1175*%
%ADD17C,0.0358*%
%ADD18C,0.1661*%
D10*
X013616Y015456D03*
D11*
X014797Y015456D03*
D12*
X014206Y017156D03*
D13*
X014025Y009170D02*
X014025Y008655D01*
X012687Y008655D02*
X012687Y009170D01*
X010639Y009170D02*
X010639Y008655D01*
X010285Y006296D02*
X010285Y005781D01*
X014183Y005781D02*
X014183Y006296D01*
X017663Y006197D02*
X017663Y005682D01*
X020537Y005682D02*
X020537Y006197D01*
X020537Y007769D02*
X020537Y008284D01*
X017663Y008284D02*
X017663Y007769D01*
D14*
X018411Y007239D03*
X019789Y007239D03*
D15*
X012726Y006432D03*
D16*
X004612Y005625D03*
X006612Y005625D03*
X007462Y010625D03*
X005612Y010625D03*
X003762Y010625D03*
X027778Y010625D03*
X029628Y010625D03*
X031478Y010625D03*
X030628Y005625D03*
X028628Y005625D03*
D17*
X021517Y010326D03*
X019502Y010137D03*
X018431Y010074D03*
X017864Y009822D03*
X018620Y009066D03*
X019439Y009003D03*
X017234Y006861D03*
X016793Y011271D03*
X016478Y012090D03*
X020069Y013160D03*
X017990Y014546D03*
X016919Y014672D03*
X017990Y015554D03*
X018935Y016121D03*
X018620Y017948D03*
X023029Y017885D03*
X023092Y016688D03*
X023407Y016247D03*
X023722Y015491D03*
X024037Y014735D03*
X024352Y014042D03*
X023722Y013664D03*
X023407Y013916D03*
X023092Y014168D03*
X022777Y014420D03*
X024037Y013412D03*
X024352Y013223D03*
D18*
X033958Y018105D03*
X033958Y005901D03*
X015848Y005901D03*
X001281Y005901D03*
X001281Y018105D03*
M02*
