G75*
%MOIN*%
%OFA0B0*%
%FSLAX25Y25*%
%IPPOS*%
%LPD*%
%AMOC8*
5,1,8,0,0,1.08239X$1,22.5*
%
%ADD10R,0.06024X0.06024*%
%ADD11C,0.06024*%
%ADD12C,0.09154*%
%ADD13C,0.08858*%
%ADD14C,0.11220*%
%ADD15C,0.08858*%
%ADD16C,0.00630*%
%ADD17C,0.02381*%
%ADD18C,0.11811*%
D10*
X0136157Y0154557D03*
D11*
X0147969Y0154557D03*
D12*
X0176630Y0084843D02*
X0176630Y0075689D01*
X0176630Y0063976D02*
X0176630Y0054823D01*
X0205370Y0054823D02*
X0205370Y0063976D01*
X0205370Y0075689D02*
X0205370Y0084843D01*
D13*
X0135843Y0084695D02*
X0135843Y0093553D01*
X0122457Y0093553D02*
X0122457Y0084695D01*
X0101984Y0084695D02*
X0101984Y0093553D01*
D14*
X0098441Y0065994D02*
X0098441Y0054774D01*
X0137417Y0054774D02*
X0137417Y0065994D01*
D15*
X0046118Y0056250D03*
X0066118Y0056250D03*
X0074618Y0106250D03*
X0056118Y0106250D03*
X0037618Y0106250D03*
X0277776Y0106250D03*
X0296276Y0106250D03*
X0314776Y0106250D03*
X0306276Y0056250D03*
X0286276Y0056250D03*
D16*
X0218323Y0088140D02*
X0209882Y0088140D01*
X0208498Y0089524D01*
X0206468Y0090364D01*
X0204272Y0090364D01*
X0202242Y0089524D01*
X0200859Y0088140D01*
X0181141Y0088140D01*
X0179758Y0089524D01*
X0177728Y0090364D01*
X0175532Y0090364D01*
X0173502Y0089524D01*
X0172118Y0088140D01*
X0162890Y0088140D01*
X0162890Y0164990D01*
X0218323Y0164990D01*
X0218323Y0088140D01*
X0218323Y0088671D02*
X0209350Y0088671D01*
X0208722Y0089300D02*
X0218323Y0089300D01*
X0218323Y0089928D02*
X0207521Y0089928D01*
X0203219Y0089928D02*
X0178781Y0089928D01*
X0179981Y0089300D02*
X0202019Y0089300D01*
X0201390Y0088671D02*
X0180610Y0088671D01*
X0184307Y0090030D02*
X0185252Y0089715D01*
X0186197Y0088770D01*
X0174479Y0089928D02*
X0162890Y0089928D01*
X0162890Y0089300D02*
X0173278Y0089300D01*
X0172650Y0088671D02*
X0162890Y0088671D01*
X0162890Y0090557D02*
X0218323Y0090557D01*
X0218323Y0091185D02*
X0162890Y0091185D01*
X0162890Y0091814D02*
X0218323Y0091814D01*
X0218323Y0092442D02*
X0162890Y0092442D01*
X0162890Y0093070D02*
X0218323Y0093070D01*
X0218323Y0093699D02*
X0162890Y0093699D01*
X0162890Y0094327D02*
X0218323Y0094327D01*
X0218323Y0094956D02*
X0162890Y0094956D01*
X0162890Y0095584D02*
X0218323Y0095584D01*
X0218323Y0096213D02*
X0162890Y0096213D01*
X0162890Y0096841D02*
X0218323Y0096841D01*
X0218323Y0097469D02*
X0162890Y0097469D01*
X0162890Y0098098D02*
X0218323Y0098098D01*
X0218323Y0098726D02*
X0162890Y0098726D01*
X0162890Y0099355D02*
X0218323Y0099355D01*
X0218323Y0099983D02*
X0162890Y0099983D01*
X0162890Y0100612D02*
X0218323Y0100612D01*
X0218323Y0101240D02*
X0162890Y0101240D01*
X0162890Y0101869D02*
X0218323Y0101869D01*
X0218323Y0102497D02*
X0162890Y0102497D01*
X0162890Y0103125D02*
X0218323Y0103125D01*
X0218323Y0103754D02*
X0162890Y0103754D01*
X0162890Y0104382D02*
X0218323Y0104382D01*
X0218323Y0105011D02*
X0162890Y0105011D01*
X0162890Y0105639D02*
X0218323Y0105639D01*
X0218323Y0106268D02*
X0162890Y0106268D01*
X0162890Y0106896D02*
X0218323Y0106896D01*
X0218323Y0107524D02*
X0162890Y0107524D01*
X0162890Y0108153D02*
X0218323Y0108153D01*
X0218323Y0108781D02*
X0162890Y0108781D01*
X0162890Y0109410D02*
X0218323Y0109410D01*
X0218323Y0110038D02*
X0162890Y0110038D01*
X0162890Y0110667D02*
X0218323Y0110667D01*
X0218323Y0111295D02*
X0162890Y0111295D01*
X0162890Y0111923D02*
X0218323Y0111923D01*
X0218323Y0112552D02*
X0162890Y0112552D01*
X0162890Y0113180D02*
X0218323Y0113180D01*
X0218323Y0113809D02*
X0162890Y0113809D01*
X0162890Y0114437D02*
X0218323Y0114437D01*
X0218323Y0115066D02*
X0162890Y0115066D01*
X0162890Y0115694D02*
X0218323Y0115694D01*
X0218323Y0116322D02*
X0162890Y0116322D01*
X0162890Y0116951D02*
X0218323Y0116951D01*
X0218323Y0117579D02*
X0162890Y0117579D01*
X0162890Y0118208D02*
X0218323Y0118208D01*
X0218323Y0118836D02*
X0162890Y0118836D01*
X0162890Y0119465D02*
X0218323Y0119465D01*
X0218323Y0120093D02*
X0162890Y0120093D01*
X0162890Y0120721D02*
X0218323Y0120721D01*
X0218323Y0121350D02*
X0162890Y0121350D01*
X0162890Y0121978D02*
X0218323Y0121978D01*
X0218323Y0122607D02*
X0162890Y0122607D01*
X0162890Y0123235D02*
X0218323Y0123235D01*
X0218323Y0123864D02*
X0162890Y0123864D01*
X0162890Y0124492D02*
X0218323Y0124492D01*
X0218323Y0125121D02*
X0162890Y0125121D01*
X0162890Y0125749D02*
X0218323Y0125749D01*
X0218323Y0126377D02*
X0162890Y0126377D01*
X0162890Y0127006D02*
X0218323Y0127006D01*
X0218323Y0127634D02*
X0162890Y0127634D01*
X0162890Y0128263D02*
X0218323Y0128263D01*
X0218323Y0128891D02*
X0162890Y0128891D01*
X0162890Y0129520D02*
X0218323Y0129520D01*
X0218323Y0130148D02*
X0162890Y0130148D01*
X0162890Y0130776D02*
X0218323Y0130776D01*
X0218323Y0131405D02*
X0162890Y0131405D01*
X0162890Y0132033D02*
X0218323Y0132033D01*
X0218323Y0132662D02*
X0162890Y0132662D01*
X0162890Y0133290D02*
X0218323Y0133290D01*
X0218323Y0133919D02*
X0162890Y0133919D01*
X0162890Y0134547D02*
X0218323Y0134547D01*
X0218323Y0135175D02*
X0162890Y0135175D01*
X0162890Y0135804D02*
X0218323Y0135804D01*
X0218323Y0136432D02*
X0162890Y0136432D01*
X0162890Y0137061D02*
X0218323Y0137061D01*
X0218323Y0137689D02*
X0162890Y0137689D01*
X0162890Y0138318D02*
X0218323Y0138318D01*
X0218323Y0138946D02*
X0162890Y0138946D01*
X0162890Y0139574D02*
X0218323Y0139574D01*
X0218323Y0140203D02*
X0162890Y0140203D01*
X0162890Y0140831D02*
X0218323Y0140831D01*
X0218323Y0141460D02*
X0162890Y0141460D01*
X0162890Y0142088D02*
X0218323Y0142088D01*
X0218323Y0142717D02*
X0162890Y0142717D01*
X0162890Y0143345D02*
X0218323Y0143345D01*
X0218323Y0143973D02*
X0162890Y0143973D01*
X0162890Y0144602D02*
X0218323Y0144602D01*
X0218323Y0145230D02*
X0162890Y0145230D01*
X0162890Y0145859D02*
X0218323Y0145859D01*
X0218323Y0146487D02*
X0162890Y0146487D01*
X0162890Y0147116D02*
X0218323Y0147116D01*
X0218323Y0147744D02*
X0162890Y0147744D01*
X0162890Y0148373D02*
X0218323Y0148373D01*
X0218323Y0149001D02*
X0162890Y0149001D01*
X0162890Y0149629D02*
X0218323Y0149629D01*
X0218323Y0150258D02*
X0162890Y0150258D01*
X0162890Y0150886D02*
X0218323Y0150886D01*
X0218323Y0151515D02*
X0162890Y0151515D01*
X0162890Y0152143D02*
X0218323Y0152143D01*
X0218323Y0152772D02*
X0162890Y0152772D01*
X0162890Y0153400D02*
X0218323Y0153400D01*
X0218323Y0154028D02*
X0162890Y0154028D01*
X0162890Y0154657D02*
X0218323Y0154657D01*
X0218323Y0155285D02*
X0162890Y0155285D01*
X0162890Y0155914D02*
X0218323Y0155914D01*
X0218323Y0156542D02*
X0162890Y0156542D01*
X0162890Y0157171D02*
X0218323Y0157171D01*
X0218323Y0157799D02*
X0162890Y0157799D01*
X0162890Y0158427D02*
X0218323Y0158427D01*
X0218323Y0159056D02*
X0162890Y0159056D01*
X0162890Y0159684D02*
X0218323Y0159684D01*
X0218323Y0160313D02*
X0162890Y0160313D01*
X0162890Y0160941D02*
X0218323Y0160941D01*
X0218323Y0161570D02*
X0162890Y0161570D01*
X0162890Y0162198D02*
X0218323Y0162198D01*
X0218323Y0162826D02*
X0162890Y0162826D01*
X0162890Y0163455D02*
X0218323Y0163455D01*
X0218323Y0164083D02*
X0162890Y0164083D01*
X0162890Y0164712D02*
X0218323Y0164712D01*
X0227772Y0173179D02*
X0227772Y0144203D01*
X0230921Y0141683D02*
X0230921Y0166880D01*
X0234071Y0162470D02*
X0234071Y0139163D01*
X0237220Y0136644D02*
X0237220Y0154911D01*
X0240370Y0147352D02*
X0240370Y0134124D01*
X0243520Y0132234D02*
X0243520Y0140423D01*
X0213283Y0131604D02*
X0200685Y0131604D01*
X0181157Y0146722D02*
X0179898Y0145463D01*
X0169189Y0146722D02*
X0169189Y0147982D01*
X0178008Y0156171D02*
X0178638Y0155541D01*
X0179898Y0155541D01*
X0154701Y0155285D02*
X0152280Y0155285D01*
X0152280Y0155415D02*
X0151623Y0156999D01*
X0150410Y0158212D01*
X0148826Y0158868D01*
X0147111Y0158868D01*
X0145527Y0158212D01*
X0144314Y0156999D01*
X0143657Y0155415D01*
X0143657Y0153700D01*
X0144314Y0152115D01*
X0145527Y0150902D01*
X0147111Y0150246D01*
X0148826Y0150246D01*
X0150410Y0150902D01*
X0151623Y0152115D01*
X0152280Y0153700D01*
X0152280Y0155415D01*
X0152073Y0155914D02*
X0154701Y0155914D01*
X0154701Y0156542D02*
X0151812Y0156542D01*
X0151452Y0157171D02*
X0154701Y0157171D01*
X0154701Y0157799D02*
X0150823Y0157799D01*
X0149890Y0158427D02*
X0154701Y0158427D01*
X0154701Y0159056D02*
X0110341Y0159056D01*
X0109713Y0158427D02*
X0146047Y0158427D01*
X0145114Y0157799D02*
X0109084Y0157799D01*
X0108456Y0157171D02*
X0144485Y0157171D01*
X0144125Y0156542D02*
X0107828Y0156542D01*
X0107199Y0155914D02*
X0143864Y0155914D01*
X0143657Y0155285D02*
X0106571Y0155285D01*
X0105942Y0154657D02*
X0143657Y0154657D01*
X0143657Y0154028D02*
X0105314Y0154028D01*
X0104685Y0153400D02*
X0143782Y0153400D01*
X0144042Y0152772D02*
X0104057Y0152772D01*
X0103429Y0152143D02*
X0144302Y0152143D01*
X0144914Y0151515D02*
X0102800Y0151515D01*
X0102172Y0150886D02*
X0145565Y0150886D01*
X0147083Y0150258D02*
X0101543Y0150258D01*
X0100915Y0149629D02*
X0153777Y0149629D01*
X0153111Y0149001D02*
X0100286Y0149001D01*
X0099658Y0148373D02*
X0152446Y0148373D01*
X0151781Y0147744D02*
X0099030Y0147744D01*
X0098401Y0147116D02*
X0151115Y0147116D01*
X0150450Y0146487D02*
X0097773Y0146487D01*
X0097144Y0145859D02*
X0149784Y0145859D01*
X0149119Y0145230D02*
X0096516Y0145230D01*
X0095887Y0144602D02*
X0148454Y0144602D01*
X0147788Y0143973D02*
X0095259Y0143973D01*
X0094630Y0143345D02*
X0147123Y0143345D01*
X0146457Y0142717D02*
X0094002Y0142717D01*
X0093374Y0142088D02*
X0145792Y0142088D01*
X0145127Y0141460D02*
X0092745Y0141460D01*
X0092117Y0140831D02*
X0144461Y0140831D01*
X0143796Y0140203D02*
X0091488Y0140203D01*
X0090860Y0139574D02*
X0143362Y0139574D01*
X0143362Y0139793D02*
X0154701Y0150502D01*
X0154701Y0180108D01*
X0147706Y0180108D01*
X0148338Y0179743D01*
X0150241Y0177840D01*
X0151587Y0175510D01*
X0152283Y0172911D01*
X0152283Y0170219D01*
X0151587Y0167620D01*
X0150241Y0165289D01*
X0148338Y0163387D01*
X0146008Y0162041D01*
X0143409Y0161344D01*
X0140717Y0161344D01*
X0138118Y0162041D01*
X0135787Y0163387D01*
X0133885Y0165289D01*
X0132539Y0167620D01*
X0131843Y0170219D01*
X0131843Y0172911D01*
X0132539Y0175510D01*
X0133885Y0177840D01*
X0135787Y0179743D01*
X0136420Y0180108D01*
X0131394Y0180108D01*
X0075331Y0124045D01*
X0075331Y0111978D01*
X0075758Y0111978D01*
X0077863Y0111106D01*
X0079474Y0109495D01*
X0080346Y0107389D01*
X0080346Y0105111D01*
X0079474Y0103005D01*
X0077863Y0101394D01*
X0075758Y0100522D01*
X0075331Y0100522D01*
X0075331Y0073652D01*
X0143362Y0073652D01*
X0143362Y0139793D01*
X0143362Y0138946D02*
X0090231Y0138946D01*
X0089603Y0138318D02*
X0143362Y0138318D01*
X0143362Y0137689D02*
X0088975Y0137689D01*
X0088346Y0137061D02*
X0143362Y0137061D01*
X0143362Y0136432D02*
X0087718Y0136432D01*
X0087089Y0135804D02*
X0143362Y0135804D01*
X0143362Y0135175D02*
X0086461Y0135175D01*
X0085832Y0134547D02*
X0143362Y0134547D01*
X0143362Y0133919D02*
X0085204Y0133919D01*
X0084576Y0133290D02*
X0143362Y0133290D01*
X0143362Y0132662D02*
X0083947Y0132662D01*
X0083319Y0132033D02*
X0143362Y0132033D01*
X0143362Y0131405D02*
X0082690Y0131405D01*
X0082062Y0130776D02*
X0143362Y0130776D01*
X0143362Y0130148D02*
X0081433Y0130148D01*
X0080805Y0129520D02*
X0143362Y0129520D01*
X0143362Y0128891D02*
X0080177Y0128891D01*
X0079548Y0128263D02*
X0143362Y0128263D01*
X0143362Y0127634D02*
X0078920Y0127634D01*
X0078291Y0127006D02*
X0143362Y0127006D01*
X0143362Y0126377D02*
X0077663Y0126377D01*
X0077034Y0125749D02*
X0143362Y0125749D01*
X0143362Y0125121D02*
X0076406Y0125121D01*
X0075778Y0124492D02*
X0143362Y0124492D01*
X0143362Y0123864D02*
X0075331Y0123864D01*
X0075331Y0123235D02*
X0143362Y0123235D01*
X0143362Y0122607D02*
X0075331Y0122607D01*
X0075331Y0121978D02*
X0143362Y0121978D01*
X0143362Y0121350D02*
X0075331Y0121350D01*
X0075331Y0120721D02*
X0143362Y0120721D01*
X0143362Y0120093D02*
X0075331Y0120093D01*
X0075331Y0119465D02*
X0143362Y0119465D01*
X0143362Y0118836D02*
X0075331Y0118836D01*
X0075331Y0118208D02*
X0143362Y0118208D01*
X0143362Y0117579D02*
X0075331Y0117579D01*
X0075331Y0116951D02*
X0143362Y0116951D01*
X0143362Y0116322D02*
X0075331Y0116322D01*
X0075331Y0115694D02*
X0143362Y0115694D01*
X0143362Y0115066D02*
X0075331Y0115066D01*
X0075331Y0114437D02*
X0143362Y0114437D01*
X0143362Y0113809D02*
X0075331Y0113809D01*
X0075331Y0113180D02*
X0143362Y0113180D01*
X0143362Y0112552D02*
X0075331Y0112552D01*
X0075890Y0111923D02*
X0143362Y0111923D01*
X0143362Y0111295D02*
X0077407Y0111295D01*
X0078303Y0110667D02*
X0143362Y0110667D01*
X0143362Y0110038D02*
X0078931Y0110038D01*
X0079510Y0109410D02*
X0143362Y0109410D01*
X0143362Y0108781D02*
X0079770Y0108781D01*
X0080030Y0108153D02*
X0143362Y0108153D01*
X0143362Y0107524D02*
X0080291Y0107524D01*
X0080346Y0106896D02*
X0143362Y0106896D01*
X0143362Y0106268D02*
X0080346Y0106268D01*
X0080346Y0105639D02*
X0143362Y0105639D01*
X0143362Y0105011D02*
X0080305Y0105011D01*
X0080045Y0104382D02*
X0143362Y0104382D01*
X0143362Y0103754D02*
X0079784Y0103754D01*
X0079524Y0103125D02*
X0143362Y0103125D01*
X0143362Y0102497D02*
X0078966Y0102497D01*
X0078338Y0101869D02*
X0143362Y0101869D01*
X0143362Y0101240D02*
X0077492Y0101240D01*
X0075975Y0100612D02*
X0143362Y0100612D01*
X0143362Y0099983D02*
X0075331Y0099983D01*
X0075331Y0099355D02*
X0143362Y0099355D01*
X0143362Y0098726D02*
X0138322Y0098726D01*
X0139087Y0098409D02*
X0136982Y0099281D01*
X0134703Y0099281D01*
X0132598Y0098409D01*
X0130986Y0096798D01*
X0130114Y0094693D01*
X0130114Y0083555D01*
X0130986Y0081450D01*
X0132598Y0079839D01*
X0134703Y0078967D01*
X0136982Y0078967D01*
X0139087Y0079839D01*
X0140699Y0081450D01*
X0141571Y0083555D01*
X0141571Y0094693D01*
X0140699Y0096798D01*
X0139087Y0098409D01*
X0139399Y0098098D02*
X0143362Y0098098D01*
X0143362Y0097469D02*
X0140027Y0097469D01*
X0140656Y0096841D02*
X0143362Y0096841D01*
X0143362Y0096213D02*
X0140941Y0096213D01*
X0141202Y0095584D02*
X0143362Y0095584D01*
X0143362Y0094956D02*
X0141462Y0094956D01*
X0141571Y0094327D02*
X0143362Y0094327D01*
X0143362Y0093699D02*
X0141571Y0093699D01*
X0141571Y0093070D02*
X0143362Y0093070D01*
X0143362Y0092442D02*
X0141571Y0092442D01*
X0141571Y0091814D02*
X0143362Y0091814D01*
X0143362Y0091185D02*
X0141571Y0091185D01*
X0141571Y0090557D02*
X0143362Y0090557D01*
X0143362Y0089928D02*
X0141571Y0089928D01*
X0141571Y0089300D02*
X0143362Y0089300D01*
X0143362Y0088671D02*
X0141571Y0088671D01*
X0141571Y0088043D02*
X0143362Y0088043D01*
X0143362Y0087415D02*
X0141571Y0087415D01*
X0141571Y0086786D02*
X0143362Y0086786D01*
X0143362Y0086158D02*
X0141571Y0086158D01*
X0141571Y0085529D02*
X0143362Y0085529D01*
X0143362Y0084901D02*
X0141571Y0084901D01*
X0141571Y0084272D02*
X0143362Y0084272D01*
X0143362Y0083644D02*
X0141571Y0083644D01*
X0141347Y0083016D02*
X0143362Y0083016D01*
X0143362Y0082387D02*
X0141087Y0082387D01*
X0140827Y0081759D02*
X0143362Y0081759D01*
X0143362Y0081130D02*
X0140379Y0081130D01*
X0139751Y0080502D02*
X0143362Y0080502D01*
X0143362Y0079873D02*
X0139122Y0079873D01*
X0137654Y0079245D02*
X0143362Y0079245D01*
X0143362Y0078617D02*
X0075331Y0078617D01*
X0075331Y0079245D02*
X0134031Y0079245D01*
X0132563Y0079873D02*
X0075331Y0079873D01*
X0075331Y0080502D02*
X0131934Y0080502D01*
X0131306Y0081130D02*
X0075331Y0081130D01*
X0075331Y0081759D02*
X0130858Y0081759D01*
X0130598Y0082387D02*
X0075331Y0082387D01*
X0075331Y0083016D02*
X0130338Y0083016D01*
X0130114Y0083644D02*
X0075331Y0083644D01*
X0075331Y0084272D02*
X0130114Y0084272D01*
X0130114Y0084901D02*
X0075331Y0084901D01*
X0075331Y0085529D02*
X0130114Y0085529D01*
X0130114Y0086158D02*
X0075331Y0086158D01*
X0075331Y0086786D02*
X0130114Y0086786D01*
X0130114Y0087415D02*
X0075331Y0087415D01*
X0075331Y0088043D02*
X0130114Y0088043D01*
X0130114Y0088671D02*
X0075331Y0088671D01*
X0075331Y0089300D02*
X0130114Y0089300D01*
X0130114Y0089928D02*
X0075331Y0089928D01*
X0075331Y0090557D02*
X0130114Y0090557D01*
X0130114Y0091185D02*
X0075331Y0091185D01*
X0075331Y0091814D02*
X0130114Y0091814D01*
X0130114Y0092442D02*
X0075331Y0092442D01*
X0075331Y0093070D02*
X0130114Y0093070D01*
X0130114Y0093699D02*
X0075331Y0093699D01*
X0075331Y0094327D02*
X0130114Y0094327D01*
X0130223Y0094956D02*
X0075331Y0094956D01*
X0075331Y0095584D02*
X0130483Y0095584D01*
X0130744Y0096213D02*
X0075331Y0096213D01*
X0075331Y0096841D02*
X0131029Y0096841D01*
X0131658Y0097469D02*
X0075331Y0097469D01*
X0075331Y0098098D02*
X0132286Y0098098D01*
X0133363Y0098726D02*
X0075331Y0098726D01*
X0075331Y0077988D02*
X0143362Y0077988D01*
X0143362Y0077360D02*
X0075331Y0077360D01*
X0075331Y0076731D02*
X0143362Y0076731D01*
X0143362Y0076103D02*
X0075331Y0076103D01*
X0075331Y0075474D02*
X0143362Y0075474D01*
X0143362Y0074846D02*
X0075331Y0074846D01*
X0075331Y0074217D02*
X0143362Y0074217D01*
X0169819Y0071132D02*
X0171709Y0069242D01*
X0169819Y0071132D02*
X0169819Y0089400D01*
X0183677Y0100108D02*
X0184307Y0100738D01*
X0195646Y0101368D02*
X0195646Y0100108D01*
X0215173Y0103258D02*
X0215803Y0103888D01*
X0170449Y0128455D02*
X0166669Y0120896D01*
X0164150Y0118376D01*
X0166039Y0113337D02*
X0165409Y0112707D01*
X0166039Y0113337D02*
X0166669Y0113337D01*
X0154442Y0150258D02*
X0148854Y0150258D01*
X0150372Y0150886D02*
X0154701Y0150886D01*
X0154701Y0151515D02*
X0151023Y0151515D01*
X0151635Y0152143D02*
X0154701Y0152143D01*
X0154701Y0152772D02*
X0151895Y0152772D01*
X0152155Y0153400D02*
X0154701Y0153400D01*
X0154701Y0154028D02*
X0152280Y0154028D01*
X0152280Y0154657D02*
X0154701Y0154657D01*
X0154701Y0159684D02*
X0110970Y0159684D01*
X0111598Y0160313D02*
X0154701Y0160313D01*
X0154701Y0160941D02*
X0112227Y0160941D01*
X0112855Y0161570D02*
X0139877Y0161570D01*
X0137846Y0162198D02*
X0113483Y0162198D01*
X0114112Y0162826D02*
X0136758Y0162826D01*
X0135719Y0163455D02*
X0114740Y0163455D01*
X0115369Y0164083D02*
X0135091Y0164083D01*
X0134462Y0164712D02*
X0115997Y0164712D01*
X0116626Y0165340D02*
X0133855Y0165340D01*
X0133492Y0165969D02*
X0117254Y0165969D01*
X0117883Y0166597D02*
X0133130Y0166597D01*
X0132767Y0167226D02*
X0118511Y0167226D01*
X0119139Y0167854D02*
X0132476Y0167854D01*
X0132308Y0168482D02*
X0119768Y0168482D01*
X0120396Y0169111D02*
X0132140Y0169111D01*
X0131971Y0169739D02*
X0121025Y0169739D01*
X0121653Y0170368D02*
X0131843Y0170368D01*
X0131843Y0170996D02*
X0122282Y0170996D01*
X0122910Y0171625D02*
X0131843Y0171625D01*
X0131843Y0172253D02*
X0123538Y0172253D01*
X0124167Y0172881D02*
X0131843Y0172881D01*
X0132003Y0173510D02*
X0124795Y0173510D01*
X0125424Y0174138D02*
X0132172Y0174138D01*
X0132340Y0174767D02*
X0126052Y0174767D01*
X0126681Y0175395D02*
X0132508Y0175395D01*
X0132836Y0176024D02*
X0127309Y0176024D01*
X0127937Y0176652D02*
X0133198Y0176652D01*
X0133561Y0177280D02*
X0128566Y0177280D01*
X0129194Y0177909D02*
X0133953Y0177909D01*
X0134581Y0178537D02*
X0129823Y0178537D01*
X0130451Y0179166D02*
X0135210Y0179166D01*
X0135875Y0179794D02*
X0131080Y0179794D01*
X0148251Y0179794D02*
X0154701Y0179794D01*
X0154701Y0179166D02*
X0148916Y0179166D01*
X0149545Y0178537D02*
X0154701Y0178537D01*
X0154701Y0177909D02*
X0150173Y0177909D01*
X0150565Y0177280D02*
X0154701Y0177280D01*
X0154701Y0176652D02*
X0150928Y0176652D01*
X0151290Y0176024D02*
X0154701Y0176024D01*
X0154701Y0175395D02*
X0151618Y0175395D01*
X0151786Y0174767D02*
X0154701Y0174767D01*
X0154701Y0174138D02*
X0151954Y0174138D01*
X0152123Y0173510D02*
X0154701Y0173510D01*
X0154701Y0172881D02*
X0152283Y0172881D01*
X0152283Y0172253D02*
X0154701Y0172253D01*
X0154701Y0171625D02*
X0152283Y0171625D01*
X0152283Y0170996D02*
X0154701Y0170996D01*
X0154701Y0170368D02*
X0152283Y0170368D01*
X0152155Y0169739D02*
X0154701Y0169739D01*
X0154701Y0169111D02*
X0151986Y0169111D01*
X0151818Y0168482D02*
X0154701Y0168482D01*
X0154701Y0167854D02*
X0151650Y0167854D01*
X0151359Y0167226D02*
X0154701Y0167226D01*
X0154701Y0166597D02*
X0150996Y0166597D01*
X0150634Y0165969D02*
X0154701Y0165969D01*
X0154701Y0165340D02*
X0150271Y0165340D01*
X0149664Y0164712D02*
X0154701Y0164712D01*
X0154701Y0164083D02*
X0149035Y0164083D01*
X0148407Y0163455D02*
X0154701Y0163455D01*
X0154701Y0162826D02*
X0147368Y0162826D01*
X0146280Y0162198D02*
X0154701Y0162198D01*
X0154701Y0161570D02*
X0144249Y0161570D01*
X0227772Y0173179D02*
X0230291Y0178848D01*
D17*
X0230291Y0178848D03*
X0230921Y0166880D03*
X0234071Y0162470D03*
X0237220Y0154911D03*
X0240370Y0147352D03*
X0243520Y0140423D03*
X0237220Y0136644D03*
X0234071Y0139163D03*
X0230921Y0141683D03*
X0227772Y0144203D03*
X0240370Y0134124D03*
X0243520Y0132234D03*
X0200685Y0131604D03*
X0179898Y0145463D03*
X0169189Y0146722D03*
X0179898Y0155541D03*
X0164150Y0118376D03*
X0165409Y0112707D03*
X0176748Y0101998D03*
X0184307Y0100738D03*
X0195646Y0101368D03*
X0193756Y0091289D03*
X0186197Y0088770D03*
X0215173Y0103258D03*
X0171709Y0069242D03*
D18*
X0158480Y0059006D03*
X0012811Y0059006D03*
X0012811Y0181053D03*
X0339583Y0181053D03*
X0339583Y0059006D03*
M02*
