G75*
%MOIN*%
%OFA0B0*%
%FSLAX24Y24*%
%IPPOS*%
%LPD*%
%AMOC8*
5,1,8,0,0,1.08239X$1,22.5*
%
%ADD10R,0.0682X0.0682*%
%ADD11C,0.0682*%
%ADD12C,0.1261*%
%ADD13C,0.0595*%
%ADD14R,0.0277X0.0867*%
%ADD15C,0.0434*%
%ADD16R,0.0316X0.0690*%
%ADD17R,0.0552X0.0789*%
%ADD18R,0.0371X0.0444*%
%ADD19R,0.0200X0.0390*%
%ADD20R,0.1060X0.0770*%
%ADD21R,0.0178X0.0552*%
%ADD22R,0.0552X0.0178*%
%ADD23R,0.0434X0.0356*%
%ADD24R,0.0631X0.0828*%
%ADD25R,0.0444X0.0371*%
%ADD26R,0.0474X0.0513*%
%ADD27C,0.0789*%
%ADD28R,0.0395X0.0395*%
%ADD29C,0.1175*%
%ADD30C,0.0358*%
%ADD31C,0.1661*%
D10*
X013616Y015456D03*
D11*
X014797Y015456D03*
D12*
X014206Y017156D03*
D13*
X014025Y009170D02*
X014025Y008655D01*
X012687Y008655D02*
X012687Y009170D01*
X010639Y009170D02*
X010639Y008655D01*
X010285Y006296D02*
X010285Y005781D01*
X014183Y005781D02*
X014183Y006296D01*
X017663Y006197D02*
X017663Y005682D01*
X020537Y005682D02*
X020537Y006197D01*
X020537Y007769D02*
X020537Y008284D01*
X017663Y008284D02*
X017663Y007769D01*
D14*
X018470Y008125D03*
X018785Y008125D03*
X019100Y008125D03*
X019415Y008125D03*
X019730Y008125D03*
D15*
X019789Y007239D03*
X018411Y007239D03*
D16*
X022541Y006777D03*
X022935Y006777D03*
X023328Y006777D03*
X023722Y006777D03*
X024116Y006777D03*
X024509Y006777D03*
X024903Y006777D03*
X023155Y017249D03*
X022761Y017249D03*
X022368Y017249D03*
X021974Y017249D03*
X021580Y017249D03*
X021187Y017249D03*
X020793Y017249D03*
X018943Y017249D03*
X018549Y017249D03*
X018155Y017249D03*
X017761Y017249D03*
X025557Y017599D03*
X025950Y017599D03*
D17*
X026580Y018712D03*
X024927Y018712D03*
X023667Y018775D03*
X020281Y018775D03*
X019454Y018775D03*
X017250Y018775D03*
X022029Y005251D03*
X025415Y005251D03*
D18*
X016458Y012216D03*
X016458Y012688D03*
X016506Y013782D03*
X016887Y013790D03*
X016887Y014263D03*
X016506Y014255D03*
X017143Y015420D03*
X017143Y015893D03*
D19*
X017880Y016279D03*
X018076Y016279D03*
X018273Y016279D03*
X018470Y016279D03*
X018470Y015129D03*
X018273Y015129D03*
X018076Y015129D03*
X017880Y015129D03*
D20*
X018175Y015704D03*
D21*
X018124Y014117D03*
X018320Y014117D03*
X018517Y014117D03*
X018714Y014117D03*
X018911Y014117D03*
X019108Y014117D03*
X019305Y014117D03*
X019502Y014117D03*
X019698Y014117D03*
X019895Y014117D03*
X020092Y014117D03*
X017927Y014117D03*
X017927Y010574D03*
X018124Y010574D03*
X018320Y010574D03*
X018517Y010574D03*
X018714Y010574D03*
X018911Y010574D03*
X019108Y010574D03*
X019305Y010574D03*
X019502Y010574D03*
X019698Y010574D03*
X019895Y010574D03*
X020092Y010574D03*
D22*
X020781Y011263D03*
X020781Y011460D03*
X020781Y011656D03*
X020781Y011853D03*
X020781Y012050D03*
X020781Y012247D03*
X020781Y012444D03*
X020781Y012641D03*
X020781Y012838D03*
X020781Y013034D03*
X020781Y013231D03*
X020781Y013428D03*
X017238Y013428D03*
X017238Y013231D03*
X017238Y013034D03*
X017238Y012838D03*
X017238Y012641D03*
X017238Y012444D03*
X017238Y012247D03*
X017238Y012050D03*
X017238Y011853D03*
X017238Y011656D03*
X017238Y011460D03*
X017238Y011263D03*
D23*
X018620Y009653D03*
X018620Y009141D03*
X008742Y006727D03*
X008742Y006216D03*
D24*
X015824Y007881D03*
X016769Y007881D03*
X016769Y009613D03*
X015824Y009613D03*
D25*
X016502Y010338D03*
X016502Y010763D03*
X016974Y010763D03*
X016974Y010338D03*
X017380Y009735D03*
X017852Y009735D03*
X018045Y009141D03*
X017572Y009141D03*
X020596Y010306D03*
X021069Y010306D03*
X021265Y009570D03*
X020793Y009570D03*
X020793Y009050D03*
X021265Y009050D03*
D26*
X020163Y009137D03*
X020163Y009806D03*
X015824Y012133D03*
X015824Y012802D03*
D27*
X012726Y006432D03*
D28*
X008702Y005101D03*
X009293Y005101D03*
D29*
X006612Y005625D03*
X004612Y005625D03*
X003762Y010625D03*
X005612Y010625D03*
X007462Y010625D03*
X027778Y010625D03*
X029628Y010625D03*
X031478Y010625D03*
X030628Y005625D03*
X028628Y005625D03*
D30*
X021517Y010326D03*
X019502Y010137D03*
X018431Y010074D03*
X017864Y009822D03*
X018620Y009066D03*
X019439Y009003D03*
X017234Y006861D03*
X016793Y011271D03*
X016478Y012090D03*
X020069Y013160D03*
X017990Y014546D03*
X016919Y014672D03*
X017990Y015554D03*
X018935Y016121D03*
X018620Y017948D03*
X023029Y017885D03*
X023092Y016688D03*
X023407Y016247D03*
X023722Y015491D03*
X024037Y014735D03*
X024352Y014042D03*
X023722Y013664D03*
X023407Y013916D03*
X023092Y014168D03*
X022777Y014420D03*
X024037Y013412D03*
X024352Y013223D03*
D31*
X033958Y018105D03*
X033958Y005901D03*
X015848Y005901D03*
X001281Y005901D03*
X001281Y018105D03*
M02*
