G75*
%MOIN*%
%OFA0B0*%
%FSLAX25Y25*%
%IPPOS*%
%LPD*%
%AMOC8*
5,1,8,0,0,1.08239X$1,22.5*
%
%ADD10R,0.06824X0.06824*%
%ADD11C,0.06824*%
%ADD12C,0.12611*%
%ADD13C,0.09954*%
%ADD14R,0.02769X0.08674*%
%ADD15C,0.04343*%
%ADD16R,0.03162X0.06902*%
%ADD17R,0.05524X0.07887*%
%ADD18R,0.03713X0.04442*%
%ADD19R,0.02000X0.03900*%
%ADD20R,0.10600X0.07700*%
%ADD21R,0.01784X0.05524*%
%ADD22R,0.05524X0.01784*%
%ADD23R,0.04343X0.03556*%
%ADD24R,0.06312X0.08280*%
%ADD25R,0.04442X0.03713*%
%ADD26R,0.04737X0.05131*%
%ADD27C,0.09658*%
%ADD28C,0.12020*%
%ADD29C,0.07887*%
%ADD30R,0.03950X0.03950*%
%ADD31C,0.09658*%
%ADD32C,0.03181*%
D10*
X0136157Y0154557D03*
D11*
X0147969Y0154557D03*
D12*
X0142063Y0171565D03*
X0012811Y0181053D03*
X0012811Y0059006D03*
X0158480Y0059006D03*
X0339583Y0059006D03*
X0339583Y0181053D03*
D13*
X0205370Y0084843D02*
X0205370Y0075689D01*
X0205370Y0063976D02*
X0205370Y0054823D01*
X0176630Y0054823D02*
X0176630Y0063976D01*
X0176630Y0075689D02*
X0176630Y0084843D01*
D14*
X0184701Y0081250D03*
X0187850Y0081250D03*
X0191000Y0081250D03*
X0194150Y0081250D03*
X0197299Y0081250D03*
D15*
X0197890Y0072392D03*
X0184110Y0072392D03*
D16*
X0225409Y0067766D03*
X0229346Y0067766D03*
X0233283Y0067766D03*
X0237220Y0067766D03*
X0241157Y0067766D03*
X0245094Y0067766D03*
X0249031Y0067766D03*
X0255567Y0171860D03*
X0259504Y0171860D03*
X0231551Y0172490D03*
X0227614Y0172490D03*
X0223677Y0172490D03*
X0219740Y0172490D03*
X0215803Y0172490D03*
X0211866Y0172490D03*
X0207929Y0172490D03*
X0189425Y0172490D03*
X0185488Y0172490D03*
X0181551Y0172490D03*
X0177614Y0172490D03*
D17*
X0172496Y0187746D03*
X0194543Y0187746D03*
X0202811Y0187746D03*
X0236669Y0187746D03*
X0250449Y0187116D03*
X0264622Y0187116D03*
X0254150Y0052510D03*
X0220291Y0052510D03*
D18*
X0164583Y0122156D03*
X0164583Y0126880D03*
X0165055Y0137825D03*
X0168874Y0137904D03*
X0168874Y0142628D03*
X0165055Y0142549D03*
X0171433Y0154203D03*
X0171433Y0158927D03*
D19*
X0178795Y0162787D03*
X0180764Y0162787D03*
X0182732Y0162787D03*
X0184701Y0162787D03*
X0184701Y0151287D03*
X0182732Y0151287D03*
X0180764Y0151287D03*
X0178795Y0151287D03*
D20*
X0181748Y0157037D03*
D21*
X0181236Y0141171D03*
X0179268Y0141171D03*
X0183205Y0141171D03*
X0185173Y0141171D03*
X0187142Y0141171D03*
X0189110Y0141171D03*
X0191079Y0141171D03*
X0193047Y0141171D03*
X0195016Y0141171D03*
X0196984Y0141171D03*
X0198953Y0141171D03*
X0200921Y0141171D03*
X0200921Y0105738D03*
X0198953Y0105738D03*
X0196984Y0105738D03*
X0195016Y0105738D03*
X0193047Y0105738D03*
X0191079Y0105738D03*
X0189110Y0105738D03*
X0187142Y0105738D03*
X0185173Y0105738D03*
X0183205Y0105738D03*
X0181236Y0105738D03*
X0179268Y0105738D03*
D22*
X0172378Y0112628D03*
X0172378Y0114596D03*
X0172378Y0116565D03*
X0172378Y0118533D03*
X0172378Y0120502D03*
X0172378Y0122470D03*
X0172378Y0124439D03*
X0172378Y0126407D03*
X0172378Y0128376D03*
X0172378Y0130344D03*
X0172378Y0132313D03*
X0172378Y0134281D03*
X0207811Y0134281D03*
X0207811Y0132313D03*
X0207811Y0130344D03*
X0207811Y0128376D03*
X0207811Y0126407D03*
X0207811Y0124439D03*
X0207811Y0122470D03*
X0207811Y0120502D03*
X0207811Y0118533D03*
X0207811Y0116565D03*
X0207811Y0114596D03*
X0207811Y0112628D03*
D23*
X0186197Y0097156D03*
X0186197Y0092037D03*
X0084268Y0067274D03*
X0084268Y0062156D03*
D24*
X0153835Y0080699D03*
X0163283Y0080699D03*
X0163283Y0098022D03*
X0153835Y0098022D03*
D25*
X0164386Y0105266D03*
X0169110Y0105266D03*
X0169110Y0109518D03*
X0164386Y0109518D03*
X0169386Y0098612D03*
X0174110Y0098612D03*
X0175724Y0094557D03*
X0180449Y0094557D03*
X0205961Y0103061D03*
X0210685Y0103061D03*
X0208559Y0098219D03*
X0213283Y0098219D03*
X0213283Y0094281D03*
X0208559Y0094281D03*
D26*
X0199740Y0092628D03*
X0199740Y0099321D03*
X0157850Y0106841D03*
X0157850Y0113533D03*
X0158244Y0121329D03*
X0158244Y0128022D03*
D27*
X0135843Y0093553D02*
X0135843Y0084695D01*
X0122457Y0084695D02*
X0122457Y0093553D01*
X0101984Y0093553D02*
X0101984Y0084695D01*
D28*
X0098441Y0065994D02*
X0098441Y0054774D01*
X0137417Y0054774D02*
X0137417Y0065994D01*
D29*
X0122850Y0064321D03*
D30*
X0083244Y0051014D03*
X0089150Y0051014D03*
D31*
X0066118Y0056250D03*
X0046118Y0056250D03*
X0037618Y0106250D03*
X0056118Y0106250D03*
X0074618Y0106250D03*
X0277776Y0106250D03*
X0296276Y0106250D03*
X0314776Y0106250D03*
X0306276Y0056250D03*
X0286276Y0056250D03*
D32*
X0215173Y0103258D03*
X0195646Y0101368D03*
X0184307Y0100738D03*
X0176748Y0101998D03*
X0165409Y0112707D03*
X0164150Y0118376D03*
X0200685Y0131604D03*
X0179898Y0145463D03*
X0169189Y0146722D03*
X0179898Y0155541D03*
X0227772Y0144203D03*
X0230921Y0141683D03*
X0234071Y0139163D03*
X0237220Y0136644D03*
X0240370Y0134124D03*
X0243520Y0132234D03*
X0243520Y0140423D03*
X0240370Y0147352D03*
X0237220Y0154911D03*
X0234071Y0162470D03*
X0230921Y0166880D03*
X0230291Y0178848D03*
X0193756Y0091289D03*
X0186197Y0088770D03*
X0171709Y0069242D03*
M02*
