%
M48
M72
T01C0.0118
T02C0.0315
T03C0.0354
T04C0.0402
T05C0.0709
T06C0.0730
T07C0.1181
%
T01
X17234Y6861
X18620Y9066
X19439Y9003
X18431Y10074
X17864Y9822
X19502Y10137
X21517Y10326
X20069Y13160
X17990Y14546
X16919Y14672
X17990Y15554
X18935Y16121
X18620Y17948
X23029Y17885
X23092Y16688
X23407Y16247
X23722Y15491
X24037Y14735
X24352Y14042
X23722Y13664
X23407Y13916
X23092Y14168
X22777Y14420
X24037Y13412
X24352Y13223
X16793Y11271
X16478Y12090
T02
X14025Y8912
X12687Y8912
X10639Y8912
X10285Y6038
X14183Y6038
X17663Y5940
X20537Y5940
X20537Y8027
X17663Y8027
T03
X18411Y7239
X19789Y7239
T04
X14797Y15456
X13616Y15456
T05
X12726Y6432
T06
X4612Y5625
X6612Y5625
X7462Y10625
X5612Y10625
X3762Y10625
X27778Y10625
X29628Y10625
X31478Y10625
X30628Y5625
X28628Y5625
T07
X33958Y5901
X15848Y5901
X1281Y5901
X14206Y17156
X1281Y18105
X33958Y18105
M30
