G75*
%MOIN*%
%OFA0B0*%
%FSLAX25Y25*%
%IPPOS*%
%LPD*%
%AMOC8*
5,1,8,0,0,1.08239X$1,22.5*
%
%ADD10R,0.06024X0.06024*%
%ADD11C,0.06024*%
%ADD12C,0.09154*%
%ADD13R,0.01969X0.07874*%
%ADD14R,0.02362X0.06102*%
%ADD15R,0.04724X0.07087*%
%ADD16R,0.02913X0.03642*%
%ADD17R,0.01200X0.03100*%
%ADD18R,0.09800X0.06900*%
%ADD19R,0.00984X0.04724*%
%ADD20R,0.04724X0.00984*%
%ADD21R,0.03543X0.02756*%
%ADD22R,0.05512X0.07480*%
%ADD23R,0.03642X0.02913*%
%ADD24R,0.03937X0.04331*%
%ADD25C,0.08858*%
%ADD26C,0.11220*%
%ADD27R,0.03150X0.03150*%
%ADD28C,0.08858*%
%ADD29C,0.00630*%
%ADD30C,0.02381*%
%ADD31C,0.01000*%
%ADD32C,0.00600*%
%ADD33C,0.01600*%
%ADD34C,0.01593*%
%ADD35C,0.11811*%
D10*
X0136157Y0154557D03*
D11*
X0147969Y0154557D03*
D12*
X0176630Y0084843D02*
X0176630Y0075689D01*
X0176630Y0063976D02*
X0176630Y0054823D01*
X0205370Y0054823D02*
X0205370Y0063976D01*
X0205370Y0075689D02*
X0205370Y0084843D01*
D13*
X0197299Y0081250D03*
X0194150Y0081250D03*
X0191000Y0081250D03*
X0187850Y0081250D03*
X0184701Y0081250D03*
D14*
X0225409Y0067766D03*
X0229346Y0067766D03*
X0233283Y0067766D03*
X0237220Y0067766D03*
X0241157Y0067766D03*
X0245094Y0067766D03*
X0249031Y0067766D03*
X0255567Y0171860D03*
X0259504Y0171860D03*
X0231551Y0172490D03*
X0227614Y0172490D03*
X0223677Y0172490D03*
X0219740Y0172490D03*
X0215803Y0172490D03*
X0211866Y0172490D03*
X0207929Y0172490D03*
X0189425Y0172490D03*
X0185488Y0172490D03*
X0181551Y0172490D03*
X0177614Y0172490D03*
D15*
X0172496Y0187746D03*
X0194543Y0187746D03*
X0202811Y0187746D03*
X0236669Y0187746D03*
X0250449Y0187116D03*
X0264622Y0187116D03*
X0254150Y0052510D03*
X0220291Y0052510D03*
D16*
X0164583Y0122156D03*
X0164583Y0126880D03*
X0165055Y0137825D03*
X0168874Y0137904D03*
X0168874Y0142628D03*
X0165055Y0142549D03*
X0171433Y0154203D03*
X0171433Y0158927D03*
D17*
X0178795Y0162787D03*
X0180764Y0162787D03*
X0182732Y0162787D03*
X0184701Y0162787D03*
X0184701Y0151287D03*
X0182732Y0151287D03*
X0180764Y0151287D03*
X0178795Y0151287D03*
D18*
X0181748Y0157037D03*
D19*
X0181236Y0141171D03*
X0179268Y0141171D03*
X0183205Y0141171D03*
X0185173Y0141171D03*
X0187142Y0141171D03*
X0189110Y0141171D03*
X0191079Y0141171D03*
X0193047Y0141171D03*
X0195016Y0141171D03*
X0196984Y0141171D03*
X0198953Y0141171D03*
X0200921Y0141171D03*
X0200921Y0105738D03*
X0198953Y0105738D03*
X0196984Y0105738D03*
X0195016Y0105738D03*
X0193047Y0105738D03*
X0191079Y0105738D03*
X0189110Y0105738D03*
X0187142Y0105738D03*
X0185173Y0105738D03*
X0183205Y0105738D03*
X0181236Y0105738D03*
X0179268Y0105738D03*
D20*
X0172378Y0112628D03*
X0172378Y0114596D03*
X0172378Y0116565D03*
X0172378Y0118533D03*
X0172378Y0120502D03*
X0172378Y0122470D03*
X0172378Y0124439D03*
X0172378Y0126407D03*
X0172378Y0128376D03*
X0172378Y0130344D03*
X0172378Y0132313D03*
X0172378Y0134281D03*
X0207811Y0134281D03*
X0207811Y0132313D03*
X0207811Y0130344D03*
X0207811Y0128376D03*
X0207811Y0126407D03*
X0207811Y0124439D03*
X0207811Y0122470D03*
X0207811Y0120502D03*
X0207811Y0118533D03*
X0207811Y0116565D03*
X0207811Y0114596D03*
X0207811Y0112628D03*
D21*
X0186197Y0097156D03*
X0186197Y0092037D03*
X0084268Y0067274D03*
X0084268Y0062156D03*
D22*
X0153835Y0080699D03*
X0163283Y0080699D03*
X0163283Y0098022D03*
X0153835Y0098022D03*
D23*
X0164386Y0105266D03*
X0169110Y0105266D03*
X0169110Y0109518D03*
X0164386Y0109518D03*
X0169386Y0098612D03*
X0174110Y0098612D03*
X0175724Y0094557D03*
X0180449Y0094557D03*
X0205961Y0103061D03*
X0210685Y0103061D03*
X0208559Y0098219D03*
X0213283Y0098219D03*
X0213283Y0094281D03*
X0208559Y0094281D03*
D24*
X0199740Y0092628D03*
X0199740Y0099321D03*
X0157850Y0106841D03*
X0157850Y0113533D03*
X0158244Y0121329D03*
X0158244Y0128022D03*
D25*
X0135843Y0093553D02*
X0135843Y0084695D01*
X0122457Y0084695D02*
X0122457Y0093553D01*
X0101984Y0093553D02*
X0101984Y0084695D01*
D26*
X0098441Y0065994D02*
X0098441Y0054774D01*
X0137417Y0054774D02*
X0137417Y0065994D01*
D27*
X0083244Y0051014D03*
X0089150Y0051014D03*
D28*
X0066118Y0056250D03*
X0046118Y0056250D03*
X0037618Y0106250D03*
X0056118Y0106250D03*
X0074618Y0106250D03*
X0277776Y0106250D03*
X0296276Y0106250D03*
X0314776Y0106250D03*
X0306276Y0056250D03*
X0286276Y0056250D03*
D29*
X0249031Y0067766D02*
X0248559Y0068238D01*
X0248559Y0070502D01*
X0241000Y0078061D01*
X0241000Y0125935D01*
X0246039Y0130974D01*
X0246039Y0132864D01*
X0223362Y0155541D01*
X0217063Y0155541D01*
X0207929Y0164675D01*
X0207929Y0172490D01*
X0211866Y0172490D02*
X0211866Y0162628D01*
X0217693Y0156801D01*
X0227142Y0156801D01*
X0243520Y0140423D01*
X0237220Y0136644D02*
X0237220Y0067766D01*
X0233283Y0067766D02*
X0232811Y0066663D01*
X0232811Y0070502D01*
X0235961Y0073652D01*
X0235961Y0132864D01*
X0234071Y0134754D01*
X0234071Y0139163D01*
X0230921Y0141683D02*
X0230921Y0136014D01*
X0234701Y0132234D01*
X0234701Y0075541D01*
X0229031Y0069872D01*
X0229031Y0068081D01*
X0229346Y0067766D01*
X0225409Y0067766D02*
X0225252Y0067923D01*
X0225252Y0069872D01*
X0233441Y0078061D01*
X0233441Y0131604D01*
X0227772Y0137274D01*
X0227772Y0144203D01*
X0240370Y0147352D02*
X0229661Y0158061D01*
X0218953Y0158061D01*
X0215803Y0161211D01*
X0215803Y0172490D01*
X0215803Y0174439D01*
X0219740Y0172490D02*
X0219740Y0161683D01*
X0222102Y0159321D01*
X0232811Y0159321D01*
X0237220Y0154911D01*
X0234071Y0162470D02*
X0231551Y0162470D01*
X0223677Y0170344D01*
X0223677Y0172490D01*
X0223677Y0177274D01*
X0227772Y0181368D01*
X0240370Y0181368D01*
X0247929Y0173809D01*
X0253382Y0173809D01*
X0255567Y0171860D01*
X0259504Y0171860D02*
X0258874Y0151526D01*
X0295803Y0114596D01*
X0295803Y0106722D01*
X0296276Y0106250D01*
X0293283Y0098219D02*
X0288244Y0103258D01*
X0288244Y0120266D01*
X0257378Y0151132D01*
X0257378Y0162470D01*
X0241000Y0178848D01*
X0230291Y0178848D01*
X0231551Y0176959D01*
X0231551Y0172490D01*
X0227614Y0172490D02*
X0227614Y0170187D01*
X0230921Y0166880D01*
X0234071Y0162470D02*
X0252339Y0162470D01*
X0256118Y0158691D01*
X0256118Y0150502D01*
X0277776Y0128844D01*
X0277776Y0106250D01*
X0293283Y0098219D02*
X0302102Y0098219D01*
X0310134Y0106250D01*
X0314776Y0106250D01*
X0243520Y0132234D02*
X0239740Y0128455D01*
X0239740Y0075541D01*
X0245409Y0069872D01*
X0245409Y0068081D01*
X0245094Y0067766D01*
X0241630Y0068238D02*
X0241630Y0069872D01*
X0238480Y0073022D01*
X0238480Y0132234D01*
X0240370Y0134124D01*
X0213283Y0144203D02*
X0213283Y0114596D01*
X0211394Y0112707D01*
X0207890Y0112707D01*
X0207811Y0112628D01*
X0207811Y0114596D02*
X0210764Y0114596D01*
X0212024Y0115856D01*
X0212024Y0143573D01*
X0209504Y0146093D01*
X0183047Y0146093D01*
X0180528Y0148612D01*
X0180528Y0151051D01*
X0180764Y0151287D01*
X0182732Y0151287D02*
X0182732Y0148927D01*
X0184307Y0147352D01*
X0210134Y0147352D01*
X0213283Y0144203D01*
X0207811Y0134281D02*
X0199583Y0134281D01*
X0198165Y0132864D01*
X0198165Y0112707D01*
X0197850Y0112392D01*
X0200685Y0109557D01*
X0200685Y0105974D01*
X0200921Y0105738D01*
X0200685Y0105502D01*
X0200685Y0103258D01*
X0200882Y0103061D01*
X0205961Y0103061D01*
X0210685Y0103061D02*
X0214976Y0103061D01*
X0215173Y0103258D01*
X0213913Y0101998D02*
X0213913Y0098848D01*
X0213283Y0098219D01*
X0213283Y0094281D01*
X0208559Y0094281D02*
X0208559Y0098219D01*
X0208559Y0094281D02*
X0206906Y0092628D01*
X0199740Y0092628D01*
X0198598Y0091486D01*
X0193047Y0097037D01*
X0193047Y0105738D01*
X0191079Y0105738D02*
X0191000Y0105659D01*
X0191000Y0081250D01*
X0188087Y0081486D02*
X0187850Y0081250D01*
X0188087Y0081486D02*
X0188087Y0084990D01*
X0189346Y0086250D01*
X0189346Y0100738D01*
X0189110Y0100974D01*
X0189110Y0105738D01*
X0187142Y0105738D02*
X0187142Y0096841D01*
X0186197Y0097156D01*
X0184307Y0100738D02*
X0185173Y0101604D01*
X0185173Y0105738D01*
X0183205Y0105738D02*
X0183205Y0108770D01*
X0182417Y0109557D01*
X0169150Y0109557D01*
X0169110Y0109518D01*
X0169110Y0105266D01*
X0168957Y0105266D01*
X0166586Y0102894D01*
X0161797Y0102894D01*
X0157850Y0106841D01*
X0164386Y0105266D02*
X0164386Y0109518D01*
X0164386Y0111407D01*
X0165606Y0112628D01*
X0172378Y0112628D01*
X0165488Y0112628D01*
X0165409Y0112707D01*
X0163259Y0113533D02*
X0165729Y0116004D01*
X0171817Y0116004D01*
X0172378Y0116565D01*
X0176748Y0116565D01*
X0176748Y0129414D01*
X0175818Y0130344D01*
X0172378Y0130344D01*
X0176748Y0130344D01*
X0179898Y0133494D01*
X0183047Y0136644D01*
X0183047Y0141014D01*
X0183205Y0141171D01*
X0181236Y0141171D02*
X0179268Y0141171D01*
X0179268Y0144833D01*
X0179898Y0145463D01*
X0178795Y0151287D02*
X0175250Y0151683D01*
X0171433Y0154203D01*
X0171433Y0158927D02*
X0179228Y0158927D01*
X0181748Y0157037D01*
X0180291Y0155148D01*
X0179898Y0155541D01*
X0183047Y0155541D01*
X0184701Y0153888D01*
X0184701Y0151287D01*
X0169189Y0146722D02*
X0168874Y0146407D01*
X0168874Y0142628D01*
X0165134Y0142628D01*
X0165055Y0142549D01*
X0165055Y0137825D02*
X0165409Y0137470D01*
X0165409Y0135384D01*
X0168480Y0132313D01*
X0172378Y0132313D01*
X0172378Y0134281D02*
X0168874Y0137785D01*
X0168874Y0137904D01*
X0172378Y0128376D02*
X0164780Y0128376D01*
X0164780Y0127077D01*
X0164583Y0126880D01*
X0164780Y0128376D02*
X0158598Y0128376D01*
X0158244Y0128022D01*
X0164583Y0122156D02*
X0167929Y0122156D01*
X0167929Y0125935D01*
X0168402Y0126407D01*
X0172378Y0126407D01*
X0172378Y0124439D01*
X0176748Y0116565D02*
X0193677Y0116565D01*
X0197850Y0112392D01*
X0196984Y0105738D02*
X0198953Y0105738D01*
X0196984Y0105738D02*
X0195016Y0105738D01*
X0195016Y0101959D01*
X0195606Y0101368D01*
X0195646Y0101368D01*
X0199740Y0099321D02*
X0200685Y0100266D01*
X0200685Y0103258D01*
X0210685Y0103061D02*
X0212850Y0103061D01*
X0213913Y0101998D01*
X0186197Y0092037D02*
X0186197Y0088770D01*
X0176748Y0094439D02*
X0176389Y0093806D01*
X0175724Y0094557D01*
X0174110Y0098612D02*
X0176748Y0101250D01*
X0176748Y0101998D01*
X0181157Y0102510D02*
X0181236Y0105738D01*
X0172378Y0112628D02*
X0172378Y0114596D01*
X0163259Y0113533D02*
X0157850Y0113533D01*
X0140981Y0105639D02*
X0064622Y0105639D01*
X0064622Y0105011D02*
X0141609Y0105011D01*
X0142238Y0104382D02*
X0064622Y0104382D01*
X0064622Y0103754D02*
X0142866Y0103754D01*
X0143495Y0103125D02*
X0064622Y0103125D01*
X0064622Y0102497D02*
X0143992Y0102497D01*
X0143992Y0102628D02*
X0143992Y0078270D01*
X0088405Y0078270D01*
X0083786Y0073652D01*
X0071551Y0073652D01*
X0064622Y0081211D01*
X0064622Y0120266D01*
X0066512Y0122156D01*
X0124465Y0122156D01*
X0143992Y0102628D01*
X0143992Y0101869D02*
X0064622Y0101869D01*
X0064622Y0101240D02*
X0143992Y0101240D01*
X0143992Y0100612D02*
X0064622Y0100612D01*
X0064622Y0099983D02*
X0143992Y0099983D01*
X0143992Y0099355D02*
X0064622Y0099355D01*
X0064622Y0098726D02*
X0099505Y0098726D01*
X0098739Y0098409D02*
X0097128Y0096798D01*
X0096256Y0094693D01*
X0096256Y0083555D01*
X0097128Y0081450D01*
X0098739Y0079839D01*
X0100845Y0078967D01*
X0103124Y0078967D01*
X0105229Y0079839D01*
X0106841Y0081450D01*
X0107713Y0083555D01*
X0107713Y0094693D01*
X0106841Y0096798D01*
X0105229Y0098409D01*
X0103124Y0099281D01*
X0100845Y0099281D01*
X0098739Y0098409D01*
X0098428Y0098098D02*
X0064622Y0098098D01*
X0064622Y0097469D02*
X0097799Y0097469D01*
X0097171Y0096841D02*
X0064622Y0096841D01*
X0064622Y0096213D02*
X0096886Y0096213D01*
X0096625Y0095584D02*
X0064622Y0095584D01*
X0064622Y0094956D02*
X0096365Y0094956D01*
X0096256Y0094327D02*
X0064622Y0094327D01*
X0064622Y0093699D02*
X0096256Y0093699D01*
X0096256Y0093070D02*
X0064622Y0093070D01*
X0064622Y0092442D02*
X0096256Y0092442D01*
X0096256Y0091814D02*
X0064622Y0091814D01*
X0064622Y0091185D02*
X0096256Y0091185D01*
X0096256Y0090557D02*
X0064622Y0090557D01*
X0064622Y0089928D02*
X0096256Y0089928D01*
X0096256Y0089300D02*
X0064622Y0089300D01*
X0064622Y0088671D02*
X0096256Y0088671D01*
X0096256Y0088043D02*
X0064622Y0088043D01*
X0064622Y0087415D02*
X0096256Y0087415D01*
X0096256Y0086786D02*
X0064622Y0086786D01*
X0064622Y0086158D02*
X0096256Y0086158D01*
X0096256Y0085529D02*
X0064622Y0085529D01*
X0064622Y0084901D02*
X0096256Y0084901D01*
X0096256Y0084272D02*
X0064622Y0084272D01*
X0064622Y0083644D02*
X0096256Y0083644D01*
X0096480Y0083016D02*
X0064622Y0083016D01*
X0064622Y0082387D02*
X0096740Y0082387D01*
X0097000Y0081759D02*
X0064622Y0081759D01*
X0064696Y0081130D02*
X0097448Y0081130D01*
X0098076Y0080502D02*
X0065272Y0080502D01*
X0065848Y0079873D02*
X0098705Y0079873D01*
X0100173Y0079245D02*
X0066424Y0079245D01*
X0067000Y0078617D02*
X0143992Y0078617D01*
X0143992Y0079245D02*
X0124268Y0079245D01*
X0123596Y0078967D02*
X0125702Y0079839D01*
X0127313Y0081450D01*
X0128185Y0083555D01*
X0128185Y0094693D01*
X0127313Y0096798D01*
X0125702Y0098409D01*
X0123596Y0099281D01*
X0121317Y0099281D01*
X0119212Y0098409D01*
X0117600Y0096798D01*
X0116728Y0094693D01*
X0116728Y0083555D01*
X0117600Y0081450D01*
X0119212Y0079839D01*
X0121317Y0078967D01*
X0123596Y0078967D01*
X0125736Y0079873D02*
X0143992Y0079873D01*
X0143992Y0080502D02*
X0126365Y0080502D01*
X0126993Y0081130D02*
X0143992Y0081130D01*
X0143992Y0081759D02*
X0127441Y0081759D01*
X0127701Y0082387D02*
X0143992Y0082387D01*
X0143992Y0083016D02*
X0127961Y0083016D01*
X0128185Y0083644D02*
X0143992Y0083644D01*
X0143992Y0084272D02*
X0128185Y0084272D01*
X0128185Y0084901D02*
X0143992Y0084901D01*
X0143992Y0085529D02*
X0128185Y0085529D01*
X0128185Y0086158D02*
X0143992Y0086158D01*
X0143992Y0086786D02*
X0128185Y0086786D01*
X0128185Y0087415D02*
X0143992Y0087415D01*
X0143992Y0088043D02*
X0128185Y0088043D01*
X0128185Y0088671D02*
X0143992Y0088671D01*
X0143992Y0089300D02*
X0128185Y0089300D01*
X0128185Y0089928D02*
X0143992Y0089928D01*
X0143992Y0090557D02*
X0128185Y0090557D01*
X0128185Y0091185D02*
X0143992Y0091185D01*
X0143992Y0091814D02*
X0128185Y0091814D01*
X0128185Y0092442D02*
X0143992Y0092442D01*
X0143992Y0093070D02*
X0128185Y0093070D01*
X0128185Y0093699D02*
X0143992Y0093699D01*
X0143992Y0094327D02*
X0128185Y0094327D01*
X0128076Y0094956D02*
X0143992Y0094956D01*
X0143992Y0095584D02*
X0127816Y0095584D01*
X0127555Y0096213D02*
X0143992Y0096213D01*
X0143992Y0096841D02*
X0127270Y0096841D01*
X0126641Y0097469D02*
X0143992Y0097469D01*
X0143992Y0098098D02*
X0126013Y0098098D01*
X0124936Y0098726D02*
X0143992Y0098726D01*
X0140353Y0106268D02*
X0064622Y0106268D01*
X0064622Y0106896D02*
X0139724Y0106896D01*
X0139096Y0107524D02*
X0064622Y0107524D01*
X0064622Y0108153D02*
X0138467Y0108153D01*
X0137839Y0108781D02*
X0064622Y0108781D01*
X0064622Y0109410D02*
X0137210Y0109410D01*
X0136582Y0110038D02*
X0064622Y0110038D01*
X0064622Y0110667D02*
X0135954Y0110667D01*
X0135325Y0111295D02*
X0064622Y0111295D01*
X0064622Y0111923D02*
X0134697Y0111923D01*
X0134068Y0112552D02*
X0064622Y0112552D01*
X0064622Y0113180D02*
X0133440Y0113180D01*
X0132811Y0113809D02*
X0064622Y0113809D01*
X0064622Y0114437D02*
X0132183Y0114437D01*
X0131554Y0115066D02*
X0064622Y0115066D01*
X0064622Y0115694D02*
X0130926Y0115694D01*
X0130298Y0116322D02*
X0064622Y0116322D01*
X0064622Y0116951D02*
X0129669Y0116951D01*
X0129041Y0117579D02*
X0064622Y0117579D01*
X0064622Y0118208D02*
X0128412Y0118208D01*
X0127784Y0118836D02*
X0064622Y0118836D01*
X0064622Y0119465D02*
X0127155Y0119465D01*
X0126527Y0120093D02*
X0064622Y0120093D01*
X0065078Y0120721D02*
X0125899Y0120721D01*
X0125270Y0121350D02*
X0065706Y0121350D01*
X0066335Y0121978D02*
X0124642Y0121978D01*
X0086440Y0143973D02*
X0030606Y0143973D01*
X0030606Y0143345D02*
X0085812Y0143345D01*
X0085183Y0142717D02*
X0030606Y0142717D01*
X0030606Y0142088D02*
X0084555Y0142088D01*
X0083926Y0141460D02*
X0030606Y0141460D01*
X0030606Y0140831D02*
X0083298Y0140831D01*
X0082669Y0140203D02*
X0030606Y0140203D01*
X0030606Y0139574D02*
X0082041Y0139574D01*
X0081413Y0138946D02*
X0030606Y0138946D01*
X0030606Y0138318D02*
X0080784Y0138318D01*
X0080156Y0137689D02*
X0030606Y0137689D01*
X0030606Y0137061D02*
X0079527Y0137061D01*
X0078899Y0136432D02*
X0030606Y0136432D01*
X0030606Y0135804D02*
X0078270Y0135804D01*
X0077642Y0135175D02*
X0030606Y0135175D01*
X0030606Y0134547D02*
X0077014Y0134547D01*
X0076385Y0133919D02*
X0030606Y0133919D01*
X0030606Y0133290D02*
X0075757Y0133290D01*
X0075128Y0132662D02*
X0030606Y0132662D01*
X0030606Y0132033D02*
X0074500Y0132033D01*
X0073871Y0131405D02*
X0030606Y0131405D01*
X0030606Y0130776D02*
X0073243Y0130776D01*
X0072615Y0130148D02*
X0030606Y0130148D01*
X0030606Y0129520D02*
X0071986Y0129520D01*
X0071358Y0128891D02*
X0030606Y0128891D01*
X0030606Y0128263D02*
X0070729Y0128263D01*
X0070101Y0127634D02*
X0030606Y0127634D01*
X0030606Y0127006D02*
X0069472Y0127006D01*
X0068844Y0126377D02*
X0030606Y0126377D01*
X0030606Y0125749D02*
X0068215Y0125749D01*
X0067587Y0125121D02*
X0030606Y0125121D01*
X0030606Y0124492D02*
X0066959Y0124492D01*
X0066330Y0123864D02*
X0030606Y0123864D01*
X0030606Y0123235D02*
X0065309Y0123235D01*
X0064898Y0122824D02*
X0063008Y0120934D01*
X0063008Y0099124D01*
X0060843Y0096959D01*
X0030606Y0096959D01*
X0030606Y0160581D01*
X0051394Y0179478D01*
X0135522Y0179478D01*
X0133885Y0177840D01*
X0132539Y0175510D01*
X0131843Y0172911D01*
X0131843Y0170219D01*
X0132539Y0167620D01*
X0133885Y0165289D01*
X0135787Y0163387D01*
X0138118Y0162041D01*
X0140717Y0161344D01*
X0143409Y0161344D01*
X0146008Y0162041D01*
X0148338Y0163387D01*
X0150241Y0165289D01*
X0151587Y0167620D01*
X0152283Y0170219D01*
X0152283Y0172911D01*
X0151587Y0175510D01*
X0150241Y0177840D01*
X0148604Y0179478D01*
X0156591Y0179478D01*
X0161630Y0174439D01*
X0161630Y0158061D01*
X0154701Y0151132D01*
X0140468Y0151132D01*
X0140468Y0158107D01*
X0139707Y0158868D01*
X0132608Y0158868D01*
X0131846Y0158107D01*
X0131846Y0151132D01*
X0093598Y0151132D01*
X0066236Y0123770D01*
X0065843Y0123770D01*
X0064898Y0122824D01*
X0064680Y0122607D02*
X0030606Y0122607D01*
X0030606Y0121978D02*
X0064052Y0121978D01*
X0063423Y0121350D02*
X0030606Y0121350D01*
X0030606Y0120721D02*
X0063008Y0120721D01*
X0063008Y0120093D02*
X0030606Y0120093D01*
X0030606Y0119465D02*
X0063008Y0119465D01*
X0063008Y0118836D02*
X0030606Y0118836D01*
X0030606Y0118208D02*
X0063008Y0118208D01*
X0063008Y0117579D02*
X0030606Y0117579D01*
X0030606Y0116951D02*
X0063008Y0116951D01*
X0063008Y0116322D02*
X0030606Y0116322D01*
X0030606Y0115694D02*
X0063008Y0115694D01*
X0063008Y0115066D02*
X0030606Y0115066D01*
X0030606Y0114437D02*
X0063008Y0114437D01*
X0063008Y0113809D02*
X0030606Y0113809D01*
X0030606Y0113180D02*
X0063008Y0113180D01*
X0063008Y0112552D02*
X0030606Y0112552D01*
X0030606Y0111923D02*
X0036346Y0111923D01*
X0036479Y0111978D02*
X0034373Y0111106D01*
X0032762Y0109495D01*
X0031890Y0107389D01*
X0031890Y0105111D01*
X0032762Y0103005D01*
X0034373Y0101394D01*
X0036479Y0100522D01*
X0038758Y0100522D01*
X0040863Y0101394D01*
X0042474Y0103005D01*
X0043346Y0105111D01*
X0043346Y0107389D01*
X0042474Y0109495D01*
X0040863Y0111106D01*
X0038758Y0111978D01*
X0036479Y0111978D01*
X0034829Y0111295D02*
X0030606Y0111295D01*
X0030606Y0110667D02*
X0033934Y0110667D01*
X0033305Y0110038D02*
X0030606Y0110038D01*
X0030606Y0109410D02*
X0032727Y0109410D01*
X0032466Y0108781D02*
X0030606Y0108781D01*
X0030606Y0108153D02*
X0032206Y0108153D01*
X0031946Y0107524D02*
X0030606Y0107524D01*
X0030606Y0106896D02*
X0031890Y0106896D01*
X0031890Y0106268D02*
X0030606Y0106268D01*
X0030606Y0105639D02*
X0031890Y0105639D01*
X0031931Y0105011D02*
X0030606Y0105011D01*
X0030606Y0104382D02*
X0032191Y0104382D01*
X0032452Y0103754D02*
X0030606Y0103754D01*
X0030606Y0103125D02*
X0032712Y0103125D01*
X0033270Y0102497D02*
X0030606Y0102497D01*
X0030606Y0101869D02*
X0033898Y0101869D01*
X0034744Y0101240D02*
X0030606Y0101240D01*
X0030606Y0100612D02*
X0036261Y0100612D01*
X0038975Y0100612D02*
X0063008Y0100612D01*
X0063008Y0101240D02*
X0040492Y0101240D01*
X0041338Y0101869D02*
X0063008Y0101869D01*
X0063008Y0102497D02*
X0041966Y0102497D01*
X0042524Y0103125D02*
X0063008Y0103125D01*
X0063008Y0103754D02*
X0042784Y0103754D01*
X0043045Y0104382D02*
X0063008Y0104382D01*
X0063008Y0105011D02*
X0043305Y0105011D01*
X0043346Y0105639D02*
X0063008Y0105639D01*
X0063008Y0106268D02*
X0043346Y0106268D01*
X0043346Y0106896D02*
X0063008Y0106896D01*
X0063008Y0107524D02*
X0043291Y0107524D01*
X0043030Y0108153D02*
X0063008Y0108153D01*
X0063008Y0108781D02*
X0042770Y0108781D01*
X0042510Y0109410D02*
X0063008Y0109410D01*
X0063008Y0110038D02*
X0041931Y0110038D01*
X0041303Y0110667D02*
X0063008Y0110667D01*
X0063008Y0111295D02*
X0040407Y0111295D01*
X0038890Y0111923D02*
X0063008Y0111923D01*
X0063008Y0099983D02*
X0030606Y0099983D01*
X0030606Y0099355D02*
X0063008Y0099355D01*
X0062610Y0098726D02*
X0030606Y0098726D01*
X0030606Y0098098D02*
X0061982Y0098098D01*
X0061353Y0097469D02*
X0030606Y0097469D01*
X0067576Y0077988D02*
X0088123Y0077988D01*
X0087494Y0077360D02*
X0068152Y0077360D01*
X0068728Y0076731D02*
X0086866Y0076731D01*
X0086237Y0076103D02*
X0069304Y0076103D01*
X0069880Y0075474D02*
X0085609Y0075474D01*
X0084980Y0074846D02*
X0070456Y0074846D01*
X0071032Y0074217D02*
X0084352Y0074217D01*
X0089819Y0070502D02*
X0089819Y0051683D01*
X0089150Y0051014D01*
X0083244Y0051014D02*
X0083244Y0061132D01*
X0084268Y0062156D01*
X0089819Y0070502D02*
X0092969Y0073652D01*
X0147562Y0073652D01*
X0150501Y0069242D01*
X0171709Y0069242D01*
X0163283Y0080699D02*
X0164780Y0082195D01*
X0120645Y0079245D02*
X0103796Y0079245D01*
X0105264Y0079873D02*
X0119177Y0079873D01*
X0118549Y0080502D02*
X0105892Y0080502D01*
X0106521Y0081130D02*
X0117920Y0081130D01*
X0117473Y0081759D02*
X0106968Y0081759D01*
X0107229Y0082387D02*
X0117212Y0082387D01*
X0116952Y0083016D02*
X0107489Y0083016D01*
X0107713Y0083644D02*
X0116728Y0083644D01*
X0116728Y0084272D02*
X0107713Y0084272D01*
X0107713Y0084901D02*
X0116728Y0084901D01*
X0116728Y0085529D02*
X0107713Y0085529D01*
X0107713Y0086158D02*
X0116728Y0086158D01*
X0116728Y0086786D02*
X0107713Y0086786D01*
X0107713Y0087415D02*
X0116728Y0087415D01*
X0116728Y0088043D02*
X0107713Y0088043D01*
X0107713Y0088671D02*
X0116728Y0088671D01*
X0116728Y0089300D02*
X0107713Y0089300D01*
X0107713Y0089928D02*
X0116728Y0089928D01*
X0116728Y0090557D02*
X0107713Y0090557D01*
X0107713Y0091185D02*
X0116728Y0091185D01*
X0116728Y0091814D02*
X0107713Y0091814D01*
X0107713Y0092442D02*
X0116728Y0092442D01*
X0116728Y0093070D02*
X0107713Y0093070D01*
X0107713Y0093699D02*
X0116728Y0093699D01*
X0116728Y0094327D02*
X0107713Y0094327D01*
X0107604Y0094956D02*
X0116837Y0094956D01*
X0117098Y0095584D02*
X0107343Y0095584D01*
X0107083Y0096213D02*
X0117358Y0096213D01*
X0117643Y0096841D02*
X0106797Y0096841D01*
X0106169Y0097469D02*
X0118272Y0097469D01*
X0118900Y0098098D02*
X0105541Y0098098D01*
X0104464Y0098726D02*
X0119977Y0098726D01*
X0199976Y0132313D02*
X0200685Y0131604D01*
X0199976Y0132313D02*
X0207811Y0132313D01*
X0207811Y0130344D01*
X0158854Y0155285D02*
X0140468Y0155285D01*
X0140468Y0154657D02*
X0158226Y0154657D01*
X0157597Y0154028D02*
X0140468Y0154028D01*
X0140468Y0153400D02*
X0156969Y0153400D01*
X0156340Y0152772D02*
X0140468Y0152772D01*
X0140468Y0152143D02*
X0155712Y0152143D01*
X0155084Y0151515D02*
X0140468Y0151515D01*
X0131846Y0151515D02*
X0030606Y0151515D01*
X0030606Y0152143D02*
X0131846Y0152143D01*
X0131846Y0152772D02*
X0030606Y0152772D01*
X0030606Y0153400D02*
X0131846Y0153400D01*
X0131846Y0154028D02*
X0030606Y0154028D01*
X0030606Y0154657D02*
X0131846Y0154657D01*
X0131846Y0155285D02*
X0030606Y0155285D01*
X0030606Y0155914D02*
X0131846Y0155914D01*
X0131846Y0156542D02*
X0030606Y0156542D01*
X0030606Y0157171D02*
X0131846Y0157171D01*
X0131846Y0157799D02*
X0030606Y0157799D01*
X0030606Y0158427D02*
X0132167Y0158427D01*
X0135719Y0163455D02*
X0033768Y0163455D01*
X0034459Y0164083D02*
X0135091Y0164083D01*
X0134462Y0164712D02*
X0035150Y0164712D01*
X0035842Y0165340D02*
X0133855Y0165340D01*
X0133492Y0165969D02*
X0036533Y0165969D01*
X0037224Y0166597D02*
X0133130Y0166597D01*
X0132767Y0167226D02*
X0037916Y0167226D01*
X0038607Y0167854D02*
X0132476Y0167854D01*
X0132308Y0168482D02*
X0039298Y0168482D01*
X0039989Y0169111D02*
X0132140Y0169111D01*
X0131971Y0169739D02*
X0040681Y0169739D01*
X0041372Y0170368D02*
X0131843Y0170368D01*
X0131843Y0170996D02*
X0042063Y0170996D01*
X0042755Y0171625D02*
X0131843Y0171625D01*
X0131843Y0172253D02*
X0043446Y0172253D01*
X0044137Y0172881D02*
X0131843Y0172881D01*
X0132003Y0173510D02*
X0044828Y0173510D01*
X0045520Y0174138D02*
X0132172Y0174138D01*
X0132340Y0174767D02*
X0046211Y0174767D01*
X0046902Y0175395D02*
X0132508Y0175395D01*
X0132836Y0176024D02*
X0047593Y0176024D01*
X0048285Y0176652D02*
X0133198Y0176652D01*
X0133561Y0177280D02*
X0048976Y0177280D01*
X0049667Y0177909D02*
X0133953Y0177909D01*
X0134581Y0178537D02*
X0050359Y0178537D01*
X0051050Y0179166D02*
X0135210Y0179166D01*
X0148916Y0179166D02*
X0156903Y0179166D01*
X0157532Y0178537D02*
X0149545Y0178537D01*
X0150173Y0177909D02*
X0158160Y0177909D01*
X0158788Y0177280D02*
X0150565Y0177280D01*
X0150928Y0176652D02*
X0159417Y0176652D01*
X0160045Y0176024D02*
X0151290Y0176024D01*
X0151618Y0175395D02*
X0160674Y0175395D01*
X0161302Y0174767D02*
X0151786Y0174767D01*
X0151954Y0174138D02*
X0161630Y0174138D01*
X0161630Y0173510D02*
X0152123Y0173510D01*
X0152283Y0172881D02*
X0161630Y0172881D01*
X0161630Y0172253D02*
X0152283Y0172253D01*
X0152283Y0171625D02*
X0161630Y0171625D01*
X0161630Y0170996D02*
X0152283Y0170996D01*
X0152283Y0170368D02*
X0161630Y0170368D01*
X0161630Y0169739D02*
X0152155Y0169739D01*
X0151986Y0169111D02*
X0161630Y0169111D01*
X0161630Y0168482D02*
X0151818Y0168482D01*
X0151650Y0167854D02*
X0161630Y0167854D01*
X0161630Y0167226D02*
X0151359Y0167226D01*
X0150996Y0166597D02*
X0161630Y0166597D01*
X0161630Y0165969D02*
X0150634Y0165969D01*
X0150271Y0165340D02*
X0161630Y0165340D01*
X0161630Y0164712D02*
X0149664Y0164712D01*
X0149035Y0164083D02*
X0161630Y0164083D01*
X0161630Y0163455D02*
X0148407Y0163455D01*
X0147368Y0162826D02*
X0161630Y0162826D01*
X0161630Y0162198D02*
X0146280Y0162198D01*
X0144249Y0161570D02*
X0161630Y0161570D01*
X0161630Y0160941D02*
X0031003Y0160941D01*
X0030606Y0160313D02*
X0161630Y0160313D01*
X0161630Y0159684D02*
X0030606Y0159684D01*
X0030606Y0159056D02*
X0161630Y0159056D01*
X0161630Y0158427D02*
X0140148Y0158427D01*
X0140468Y0157799D02*
X0161368Y0157799D01*
X0160739Y0157171D02*
X0140468Y0157171D01*
X0140468Y0156542D02*
X0160111Y0156542D01*
X0159483Y0155914D02*
X0140468Y0155914D01*
X0139877Y0161570D02*
X0031694Y0161570D01*
X0032385Y0162198D02*
X0137846Y0162198D01*
X0136758Y0162826D02*
X0033077Y0162826D01*
X0030606Y0150886D02*
X0093353Y0150886D01*
X0092724Y0150258D02*
X0030606Y0150258D01*
X0030606Y0149629D02*
X0092096Y0149629D01*
X0091467Y0149001D02*
X0030606Y0149001D01*
X0030606Y0148373D02*
X0090839Y0148373D01*
X0090211Y0147744D02*
X0030606Y0147744D01*
X0030606Y0147116D02*
X0089582Y0147116D01*
X0088954Y0146487D02*
X0030606Y0146487D01*
X0030606Y0145859D02*
X0088325Y0145859D01*
X0087697Y0145230D02*
X0030606Y0145230D01*
X0030606Y0144602D02*
X0087068Y0144602D01*
X0177614Y0163969D02*
X0178795Y0162787D01*
X0177614Y0163969D02*
X0177614Y0172490D01*
X0180764Y0171703D02*
X0181551Y0172490D01*
X0180764Y0171703D02*
X0180764Y0162787D01*
X0189346Y0172411D02*
X0189425Y0172490D01*
X0219740Y0172490D02*
X0219740Y0172392D01*
X0241630Y0068238D02*
X0241157Y0067766D01*
D30*
X0193756Y0091289D03*
X0186197Y0088770D03*
X0184307Y0100738D03*
X0176748Y0101998D03*
X0165409Y0112707D03*
X0164150Y0118376D03*
X0195646Y0101368D03*
X0215173Y0103258D03*
X0200685Y0131604D03*
X0179898Y0145463D03*
X0169189Y0146722D03*
X0179898Y0155541D03*
X0227772Y0144203D03*
X0230921Y0141683D03*
X0234071Y0139163D03*
X0237220Y0136644D03*
X0240370Y0134124D03*
X0243520Y0132234D03*
X0243520Y0140423D03*
X0240370Y0147352D03*
X0237220Y0154911D03*
X0234071Y0162470D03*
X0230921Y0166880D03*
X0230291Y0178848D03*
X0171709Y0069242D03*
D31*
X0197299Y0081250D02*
X0197299Y0087746D01*
X0193756Y0091289D01*
D32*
X0186197Y0092037D02*
X0183677Y0094557D01*
X0180449Y0094557D01*
X0175724Y0094557D02*
X0174157Y0092989D01*
X0171634Y0092989D01*
X0163283Y0084638D01*
X0163283Y0080699D01*
X0160155Y0093381D02*
X0155515Y0098022D01*
X0153835Y0098022D01*
X0160155Y0093381D02*
X0166412Y0093381D01*
X0166939Y0093909D01*
X0166939Y0096166D01*
X0169386Y0098612D01*
X0169386Y0099482D01*
X0170430Y0099482D01*
X0175036Y0104089D01*
X0177618Y0104089D01*
X0179268Y0105738D01*
X0181157Y0102510D02*
X0181157Y0099990D01*
X0175724Y0094557D01*
X0164150Y0118376D02*
X0164583Y0118809D01*
X0164583Y0122156D01*
X0177807Y0135585D02*
X0179898Y0133494D01*
X0177807Y0135585D02*
X0177807Y0146329D01*
X0178795Y0147317D01*
X0178795Y0151287D01*
X0182732Y0162787D02*
X0182732Y0165305D01*
X0185488Y0168061D01*
X0185488Y0172490D01*
X0189425Y0172490D02*
X0189425Y0167512D01*
X0184701Y0162787D01*
D33*
X0158244Y0121329D02*
X0151354Y0121329D01*
X0148402Y0118376D01*
X0148402Y0076171D01*
X0147772Y0076171D01*
X0089274Y0076171D01*
X0084268Y0071165D01*
X0084268Y0067274D01*
X0155961Y0072392D02*
X0169189Y0072392D01*
X0169189Y0088140D01*
X0172339Y0091289D01*
X0179455Y0091289D01*
X0184701Y0084596D01*
X0184701Y0081250D01*
D34*
X0155961Y0072392D02*
X0151551Y0072392D01*
X0147772Y0076171D01*
D35*
X0158480Y0059006D03*
X0012811Y0059006D03*
X0012811Y0181053D03*
X0339583Y0181053D03*
X0339583Y0059006D03*
M02*
