G75*
%MOIN*%
%OFA0B0*%
%FSLAX25Y25*%
%IPPOS*%
%LPD*%
%AMOC8*
5,1,8,0,0,1.08239X$1,22.5*
%
%ADD10R,0.06824X0.06824*%
%ADD11C,0.06824*%
%ADD12C,0.12611*%
%ADD13R,0.03162X0.06902*%
%ADD14R,0.05524X0.07887*%
%ADD15C,0.05000*%
%ADD16C,0.04800*%
%ADD17OC8,0.07100*%
%ADD18C,0.07100*%
%ADD19C,0.03181*%
%ADD20C,0.16611*%
D10*
X0074686Y0071984D03*
X0131261Y0071945D03*
D11*
X0119450Y0071945D03*
X0107639Y0071945D03*
X0062875Y0071984D03*
D12*
X0068780Y0054976D03*
X0119450Y0054937D03*
D13*
X0120985Y0110469D03*
X0117048Y0110469D03*
X0113111Y0110469D03*
X0109174Y0110469D03*
X0093938Y0110469D03*
X0090001Y0110469D03*
X0086064Y0110469D03*
X0082127Y0110469D03*
X0078190Y0110469D03*
X0062914Y0110469D03*
X0058977Y0110469D03*
X0055040Y0110469D03*
X0051103Y0110469D03*
X0047166Y0110469D03*
X0043229Y0110469D03*
X0124922Y0110469D03*
X0128859Y0110469D03*
X0132796Y0110469D03*
X0148150Y0110508D03*
X0152087Y0110508D03*
X0156024Y0110508D03*
X0159961Y0110508D03*
X0176969Y0114760D03*
X0180906Y0114760D03*
D14*
X0187206Y0125882D03*
X0170670Y0125882D03*
X0165080Y0125764D03*
X0143032Y0125764D03*
X0137914Y0125724D03*
X0104056Y0125724D03*
X0099056Y0125724D03*
X0073072Y0125724D03*
X0068032Y0125724D03*
X0038111Y0125724D03*
D15*
X0021438Y0101335D03*
X0016438Y0101335D03*
X0016438Y0096335D03*
X0021438Y0096335D03*
X0021438Y0091335D03*
X0016438Y0091335D03*
X0016438Y0086335D03*
X0021438Y0086335D03*
X0021438Y0081335D03*
X0016438Y0081335D03*
X0016438Y0076335D03*
X0021438Y0076335D03*
X0021438Y0071335D03*
X0016438Y0071335D03*
X0016438Y0066335D03*
X0021438Y0066335D03*
X0021438Y0061335D03*
X0016438Y0061335D03*
X0016438Y0056335D03*
X0021438Y0056335D03*
X0021438Y0051335D03*
X0016438Y0051335D03*
X0016438Y0046335D03*
X0021438Y0046335D03*
X0197540Y0046335D03*
X0202540Y0046335D03*
X0202540Y0051335D03*
X0197540Y0051335D03*
X0197540Y0056335D03*
X0202540Y0056335D03*
X0202540Y0061335D03*
X0197540Y0061335D03*
X0197540Y0066335D03*
X0202540Y0066335D03*
X0202540Y0071335D03*
X0197540Y0071335D03*
X0197540Y0076335D03*
X0202540Y0076335D03*
X0202540Y0081335D03*
X0197540Y0081335D03*
X0197540Y0086335D03*
X0202540Y0086335D03*
X0202540Y0091335D03*
X0197540Y0091335D03*
X0197540Y0096335D03*
X0202540Y0096335D03*
X0202540Y0101335D03*
X0197540Y0101335D03*
D16*
X0043583Y0006906D03*
X0048583Y0006906D03*
X0053583Y0006906D03*
X0058583Y0006906D03*
X0063583Y0006906D03*
X0068583Y0006906D03*
X0073583Y0006906D03*
X0078583Y0006906D03*
X0083583Y0006906D03*
X0088583Y0006906D03*
X0093583Y0006906D03*
X0098583Y0006906D03*
X0103583Y0006906D03*
X0108583Y0006906D03*
X0113583Y0006906D03*
X0118583Y0006906D03*
X0123583Y0006906D03*
X0128583Y0006906D03*
X0133583Y0006906D03*
X0138583Y0006906D03*
X0143583Y0006906D03*
X0148583Y0006906D03*
X0153583Y0006906D03*
X0158583Y0006906D03*
X0163583Y0006906D03*
D17*
X0037206Y0050488D03*
X0037206Y0063795D03*
X0037206Y0097102D03*
D18*
X0037206Y0087102D03*
X0037206Y0073795D03*
X0037206Y0040488D03*
D19*
X0103347Y0092102D03*
X0117206Y0102811D03*
X0120985Y0102811D03*
X0129174Y0104701D03*
X0134213Y0104701D03*
X0148702Y0104701D03*
X0152481Y0104701D03*
X0156261Y0104701D03*
X0160040Y0104701D03*
X0148702Y0095705D03*
X0141143Y0088323D03*
X0137363Y0087063D03*
X0133583Y0085803D03*
X0094528Y0105331D03*
X0084450Y0104071D03*
X0074371Y0099661D03*
X0059883Y0101551D03*
X0080040Y0115409D03*
X0086339Y0114780D03*
X0109017Y0116039D03*
X0112796Y0116039D03*
X0193426Y0107220D03*
D20*
X0202009Y0121079D03*
X0202009Y0026591D03*
X0024843Y0026591D03*
X0024843Y0121079D03*
M02*
