%
M48
M72
T01C0.01181
T02C0.02600
T03C0.02800
T04C0.03200
T05C0.04016
T06C0.11811
%
T01
X133583Y85803
X137363Y87063
X141143Y88323
X148702Y95705
X148702Y104701
X152481Y104701
X156261Y104701
X160040Y104701
X134213Y104701
X129174Y104701
X120985Y102811
X117206Y102811
X103347Y92102
X84450Y104071
X94528Y105331
X86339Y114780
X80040Y115409
X59883Y101551
X74371Y99661
X109017Y116039
X112796Y116039
X193426Y107220
T02
X43583Y6906
X48583Y6906
X53583Y6906
X58583Y6906
X63583Y6906
X68583Y6906
X73583Y6906
X78583Y6906
X83583Y6906
X88583Y6906
X93583Y6906
X98583Y6906
X103583Y6906
X108583Y6906
X113583Y6906
X118583Y6906
X123583Y6906
X128583Y6906
X133583Y6906
X138583Y6906
X143583Y6906
X148583Y6906
X153583Y6906
X158583Y6906
X163583Y6906
T03
X197540Y46335
X202540Y46335
X202540Y51335
X197540Y51335
X197540Y56335
X202540Y56335
X202540Y61335
X197540Y61335
X197540Y66335
X202540Y66335
X202540Y71335
X197540Y71335
X197540Y76335
X202540Y76335
X202540Y81335
X197540Y81335
X197540Y86335
X202540Y86335
X202540Y91335
X197540Y91335
X197540Y96335
X202540Y96335
X202540Y101335
X197540Y101335
X21438Y101335
X16438Y101335
X16438Y96335
X21438Y96335
X21438Y91335
X16438Y91335
X16438Y86335
X21438Y86335
X21438Y81335
X16438Y81335
X16438Y76335
X21438Y76335
X21438Y71335
X16438Y71335
X16438Y66335
X21438Y66335
X21438Y61335
X16438Y61335
X16438Y56335
X21438Y56335
X21438Y51335
X16438Y51335
X16438Y46335
X21438Y46335
T04
X37206Y50488
X37206Y40488
X37206Y63795
X37206Y73795
X37206Y87102
X37206Y97102
T05
X62875Y71984
X74686Y71984
X107639Y71945
X119450Y71945
X131261Y71945
T06
X119450Y54937
X68780Y54976
X24843Y26591
X24843Y121079
X202009Y121079
X202009Y26591
M30
