%
M48
M72
T01C0.0118
T02C0.0260
T03C0.0280
T04C0.0320
T05C0.0402
T06C0.0787
T07C0.1181
%
T01
X13336Y8580
X13714Y8706
X14092Y8832
X14848Y9570
X14848Y10470
X15226Y10470
X15604Y10470
X15982Y10470
X13399Y10470
X12895Y10470
X12076Y10281
X11698Y10281
X10313Y9210
X8423Y10407
X9431Y10533
X8612Y11478
X7982Y11541
X5966Y10155
X7415Y9966
X10880Y11604
X11257Y11604
X19320Y10722
T02
X4336Y691
X4836Y691
X5336Y691
X5836Y691
X6336Y691
X6836Y691
X7336Y691
X7836Y691
X8336Y691
X8836Y691
X9336Y691
X9836Y691
X10336Y691
X10836Y691
X11336Y691
X11836Y691
X12336Y691
X12836Y691
X13336Y691
X13836Y691
X14336Y691
X14836Y691
X15336Y691
X15836Y691
X16336Y691
T03
X19732Y4633
X20232Y4633
X20232Y5133
X19732Y5133
X19732Y5633
X20232Y5633
X20232Y6133
X19732Y6133
X19732Y6633
X20232Y6633
X20232Y7133
X19732Y7133
X19732Y7633
X20232Y7633
X20232Y8133
X19732Y8133
X19732Y8633
X20232Y8633
X20232Y9133
X19732Y9133
X19732Y9633
X20232Y9633
X20232Y10133
X19732Y10133
X2122Y10133
X1622Y10133
X1622Y9633
X2122Y9633
X2122Y9133
X1622Y9133
X1622Y8633
X2122Y8633
X2122Y8133
X1622Y8133
X1622Y7633
X2122Y7633
X2122Y7133
X1622Y7133
X1622Y6633
X2122Y6633
X2122Y6133
X1622Y6133
X1622Y5633
X2122Y5633
X2122Y5133
X1622Y5133
X1622Y4633
X2122Y4633
T04
X3698Y5049
X3698Y4049
X3698Y6380
X3698Y7380
X3698Y8710
X3698Y9710
T05
X6265Y7198
X7446Y7198
X10742Y7194
X11923Y7194
X13104Y7194
T06
X20179Y2659
X20179Y12108
X2462Y12108
X2462Y2659
T07
X6856Y5498
X11923Y5494
M30
