G75*
%MOIN*%
%OFA0B0*%
%FSLAX24Y24*%
%IPPOS*%
%LPD*%
%AMOC8*
5,1,8,0,0,1.08239X$1,22.5*
%
%ADD10C,0.0030*%
%ADD11C,0.0000*%
%ADD12C,0.0100*%
%ADD13C,0.0060*%
%ADD14C,0.0050*%
%ADD15R,0.1000X0.0200*%
D10*
X006422Y004438D02*
X006604Y004438D01*
X006665Y004499D01*
X006665Y004741D01*
X006604Y004802D01*
X006422Y004802D01*
X006422Y004438D01*
X006785Y004499D02*
X006845Y004438D01*
X006967Y004438D01*
X007027Y004499D01*
X007027Y004741D02*
X006967Y004802D01*
X006845Y004802D01*
X006785Y004741D01*
X006785Y004499D01*
X008060Y003274D02*
X008242Y003274D01*
X008303Y003214D01*
X008303Y003153D01*
X008242Y003092D01*
X008060Y003092D01*
X008060Y002910D02*
X008242Y002910D01*
X008303Y002971D01*
X008303Y003032D01*
X008242Y003092D01*
X008422Y003092D02*
X008422Y002971D01*
X008483Y002910D01*
X008604Y002910D01*
X008665Y003032D02*
X008422Y003032D01*
X008422Y003092D02*
X008483Y003153D01*
X008604Y003153D01*
X008665Y003092D01*
X008665Y003032D01*
X008785Y003153D02*
X008785Y002910D01*
X009028Y002910D02*
X009028Y003092D01*
X008967Y003153D01*
X008785Y003153D01*
X008303Y002623D02*
X008242Y002684D01*
X008060Y002684D01*
X008060Y002320D01*
X008060Y002441D02*
X008242Y002441D01*
X008303Y002502D01*
X008303Y002623D01*
X008422Y002502D02*
X008483Y002562D01*
X008604Y002562D01*
X008665Y002502D01*
X008665Y002441D01*
X008422Y002441D01*
X008422Y002380D02*
X008422Y002502D01*
X008422Y002380D02*
X008483Y002320D01*
X008604Y002320D01*
X008785Y002320D02*
X008785Y002562D01*
X008967Y002562D01*
X009028Y002502D01*
X009028Y002320D01*
X009147Y002380D02*
X009147Y002502D01*
X009208Y002562D01*
X009390Y002562D01*
X009510Y002562D02*
X009510Y002380D01*
X009571Y002320D01*
X009753Y002320D01*
X009753Y002562D01*
X009872Y002684D02*
X009933Y002684D01*
X009933Y002320D01*
X009872Y002320D02*
X009994Y002320D01*
X010114Y002380D02*
X010175Y002320D01*
X010357Y002320D01*
X010357Y002562D01*
X010477Y002562D02*
X010537Y002562D01*
X010598Y002502D01*
X010659Y002562D01*
X010719Y002502D01*
X010719Y002320D01*
X010598Y002320D02*
X010598Y002502D01*
X010477Y002562D02*
X010477Y002320D01*
X010296Y002033D02*
X010296Y001790D01*
X010356Y001729D01*
X010477Y001790D02*
X010477Y001911D01*
X010537Y001972D01*
X010659Y001972D01*
X010719Y001911D01*
X010719Y001790D01*
X010659Y001729D01*
X010537Y001729D01*
X010477Y001790D01*
X010356Y001972D02*
X010235Y001972D01*
X010115Y001972D02*
X009933Y001972D01*
X009872Y001911D01*
X009872Y001790D01*
X009933Y001729D01*
X010115Y001729D01*
X009753Y001851D02*
X009510Y001851D01*
X009510Y001911D02*
X009571Y001972D01*
X009692Y001972D01*
X009753Y001911D01*
X009753Y001851D01*
X009692Y001729D02*
X009571Y001729D01*
X009510Y001790D01*
X009510Y001911D01*
X009390Y001911D02*
X009390Y001729D01*
X009390Y001911D02*
X009329Y001972D01*
X009147Y001972D01*
X009147Y001729D01*
X009028Y001729D02*
X009028Y001911D01*
X008967Y001972D01*
X008785Y001972D01*
X008785Y001729D01*
X008665Y001790D02*
X008665Y001911D01*
X008604Y001972D01*
X008483Y001972D01*
X008422Y001911D01*
X008422Y001790D01*
X008483Y001729D01*
X008604Y001729D01*
X008665Y001790D01*
X008303Y001790D02*
X008242Y001729D01*
X008121Y001729D01*
X008060Y001790D01*
X008060Y002033D01*
X008121Y002093D01*
X008242Y002093D01*
X008303Y002033D01*
X009147Y002380D02*
X009208Y002320D01*
X009390Y002320D01*
X009390Y002684D01*
X009510Y002910D02*
X009510Y003274D01*
X009571Y003092D02*
X009753Y002910D01*
X009872Y002971D02*
X009933Y003032D01*
X010115Y003032D01*
X010115Y003092D02*
X010115Y002910D01*
X009933Y002910D01*
X009872Y002971D01*
X009933Y003153D02*
X010054Y003153D01*
X010115Y003092D01*
X010235Y003153D02*
X010356Y003153D01*
X010296Y003214D02*
X010296Y002971D01*
X010356Y002910D01*
X010477Y002910D02*
X010719Y002910D01*
X010477Y002910D02*
X010719Y003153D01*
X010477Y003153D01*
X009753Y003274D02*
X009510Y003032D01*
X010114Y002562D02*
X010114Y002380D01*
X010839Y001972D02*
X010839Y001729D01*
X010839Y001851D02*
X010960Y001972D01*
X011021Y001972D01*
X011504Y001911D02*
X011686Y001911D01*
X011746Y001851D01*
X011746Y001790D01*
X011686Y001729D01*
X011504Y001729D01*
X011504Y002093D01*
X011686Y002093D01*
X011746Y002033D01*
X011746Y001972D01*
X011686Y001911D01*
X011866Y001851D02*
X011988Y001972D01*
X012048Y001972D01*
X012168Y001911D02*
X012229Y001972D01*
X012350Y001972D01*
X012411Y001911D01*
X012411Y001851D01*
X012168Y001851D01*
X012168Y001911D02*
X012168Y001790D01*
X012229Y001729D01*
X012350Y001729D01*
X012531Y001790D02*
X012592Y001851D01*
X012774Y001851D01*
X012774Y001911D02*
X012774Y001729D01*
X012592Y001729D01*
X012531Y001790D01*
X012592Y001972D02*
X012713Y001972D01*
X012774Y001911D01*
X012893Y001851D02*
X013075Y001972D01*
X013195Y001911D02*
X013195Y001790D01*
X013256Y001729D01*
X013377Y001729D01*
X013438Y001790D01*
X013438Y001911D01*
X013377Y001972D01*
X013256Y001972D01*
X013195Y001911D01*
X013075Y001729D02*
X012893Y001851D01*
X012893Y001729D02*
X012893Y002093D01*
X012894Y002320D02*
X012833Y002380D01*
X012833Y002502D01*
X012894Y002562D01*
X013015Y002562D01*
X013076Y002502D01*
X013076Y002380D01*
X013015Y002320D01*
X012894Y002320D01*
X012652Y002562D02*
X012531Y002441D01*
X012531Y002320D02*
X012531Y002562D01*
X012411Y002562D02*
X012289Y002562D01*
X012350Y002623D02*
X012350Y002380D01*
X012411Y002320D01*
X012169Y002320D02*
X012169Y002502D01*
X012109Y002562D01*
X011927Y002562D01*
X011927Y002320D01*
X011807Y002380D02*
X011807Y002502D01*
X011746Y002562D01*
X011625Y002562D01*
X011564Y002502D01*
X011564Y002380D01*
X011625Y002320D01*
X011746Y002320D01*
X011807Y002380D01*
X011444Y002380D02*
X011384Y002320D01*
X011262Y002320D01*
X011202Y002380D01*
X011202Y002623D01*
X011262Y002684D01*
X011384Y002684D01*
X011444Y002623D01*
X011866Y001972D02*
X011866Y001729D01*
X012652Y002562D02*
X012713Y002562D01*
X013195Y002684D02*
X013256Y002684D01*
X013256Y002320D01*
X013195Y002320D02*
X013317Y002320D01*
X013437Y002320D02*
X013559Y002320D01*
X013498Y002320D02*
X013498Y002684D01*
X013437Y002684D01*
X013679Y002502D02*
X013740Y002562D01*
X013861Y002562D01*
X013922Y002502D01*
X013922Y002441D01*
X013679Y002441D01*
X013679Y002380D02*
X013679Y002502D01*
X013679Y002380D02*
X013740Y002320D01*
X013861Y002320D01*
X014041Y002320D02*
X014041Y002562D01*
X014041Y002441D02*
X014163Y002562D01*
X014223Y002562D01*
X013981Y002033D02*
X013981Y001790D01*
X014042Y001729D01*
X014042Y001972D02*
X013921Y001972D01*
X013801Y001972D02*
X013801Y001729D01*
X013619Y001729D01*
X013558Y001790D01*
X013558Y001972D01*
X012902Y004438D02*
X012781Y004559D01*
X012842Y004559D02*
X012660Y004559D01*
X012660Y004438D02*
X012660Y004802D01*
X012842Y004802D01*
X012902Y004741D01*
X012902Y004620D01*
X012842Y004559D01*
X012540Y004499D02*
X012479Y004438D01*
X012358Y004438D01*
X012297Y004499D01*
X012297Y004741D01*
X012358Y004802D01*
X012479Y004802D01*
X012540Y004741D01*
X012540Y004499D01*
X012177Y004802D02*
X011935Y004802D01*
X012056Y004802D02*
X012056Y004438D01*
X011815Y004499D02*
X011815Y004741D01*
X011754Y004802D01*
X011633Y004802D01*
X011572Y004741D01*
X011572Y004499D01*
X011633Y004438D01*
X011754Y004438D01*
X011815Y004499D01*
X011452Y004438D02*
X011452Y004802D01*
X011331Y004681D01*
X011209Y004802D01*
X011209Y004438D01*
X008060Y003274D02*
X008060Y002910D01*
X011524Y010296D02*
X011524Y010660D01*
X011706Y010660D01*
X011767Y010599D01*
X011767Y010478D01*
X011706Y010417D01*
X011524Y010417D01*
X011887Y010417D02*
X012069Y010417D01*
X012130Y010478D01*
X012130Y010599D01*
X012069Y010660D01*
X011887Y010660D01*
X011887Y010296D01*
X012008Y010417D02*
X012130Y010296D01*
X012249Y010357D02*
X012310Y010296D01*
X012431Y010296D01*
X012492Y010357D01*
X012492Y010599D01*
X012431Y010660D01*
X012310Y010660D01*
X012249Y010599D01*
X012249Y010357D01*
X012612Y010357D02*
X012673Y010296D01*
X012794Y010296D01*
X012855Y010357D01*
X012855Y010478D01*
X012733Y010478D01*
X012612Y010599D02*
X012612Y010357D01*
X012612Y010599D02*
X012673Y010660D01*
X012794Y010660D01*
X012855Y010599D01*
X014424Y010729D02*
X014485Y010668D01*
X014606Y010668D01*
X014667Y010729D01*
X014667Y010789D01*
X014606Y010850D01*
X014485Y010850D01*
X014424Y010911D01*
X014424Y010971D01*
X014485Y011032D01*
X014606Y011032D01*
X014667Y010971D01*
X014787Y011032D02*
X014787Y010668D01*
X015029Y010668D01*
X015149Y010668D02*
X015149Y011032D01*
X015331Y011032D01*
X015392Y010971D01*
X015392Y010850D01*
X015331Y010789D01*
X015149Y010789D01*
X015270Y010789D02*
X015392Y010668D01*
X015512Y010668D02*
X015633Y010668D01*
X015572Y010668D02*
X015572Y011032D01*
X015512Y011032D02*
X015633Y011032D01*
X015753Y010911D02*
X015875Y011032D01*
X015996Y010911D01*
X015996Y010668D01*
X016116Y010668D02*
X016358Y010668D01*
X016116Y010668D02*
X016116Y011032D01*
X015996Y010850D02*
X015753Y010850D01*
X015753Y010911D02*
X015753Y010668D01*
X015029Y011032D02*
X014787Y011032D01*
X014787Y010850D02*
X014908Y010850D01*
X016942Y010861D02*
X017002Y010800D01*
X017124Y010800D01*
X017184Y010861D01*
X017184Y010921D01*
X017124Y010982D01*
X017002Y010982D01*
X016942Y011043D01*
X016942Y011103D01*
X017002Y011164D01*
X017124Y011164D01*
X017184Y011103D01*
X017304Y011164D02*
X017304Y010800D01*
X017426Y010921D01*
X017547Y010800D01*
X017547Y011164D01*
X017667Y011164D02*
X017788Y011164D01*
X017727Y011164D02*
X017727Y010800D01*
X017667Y010800D02*
X017788Y010800D01*
X018030Y010800D02*
X018030Y011164D01*
X018151Y011164D02*
X017908Y011164D01*
X018271Y011103D02*
X018271Y010861D01*
X018332Y010800D01*
X018453Y010800D01*
X018514Y010861D01*
X018633Y010800D02*
X018633Y011164D01*
X018514Y011103D02*
X018453Y011164D01*
X018332Y011164D01*
X018271Y011103D01*
X018633Y010982D02*
X018876Y010982D01*
X018876Y011164D02*
X018876Y010800D01*
X009885Y010769D02*
X009885Y010647D01*
X009824Y010587D01*
X009642Y010587D01*
X009642Y010465D02*
X009642Y010829D01*
X009824Y010829D01*
X009885Y010769D01*
X009764Y010587D02*
X009885Y010465D01*
X009523Y010465D02*
X009280Y010465D01*
X009280Y010829D01*
X009523Y010829D01*
X009401Y010647D02*
X009280Y010647D01*
X009160Y010526D02*
X009160Y010769D01*
X009099Y010829D01*
X008917Y010829D01*
X008917Y010465D01*
X009099Y010465D01*
X009160Y010526D01*
X008798Y010526D02*
X008798Y010769D01*
X008737Y010829D01*
X008616Y010829D01*
X008555Y010769D01*
X008555Y010526D01*
X008616Y010465D01*
X008737Y010465D01*
X008798Y010526D01*
X008435Y010526D02*
X008374Y010465D01*
X008253Y010465D01*
X008192Y010526D01*
X008192Y010769D01*
X008253Y010829D01*
X008374Y010829D01*
X008435Y010769D01*
X008073Y010829D02*
X008073Y010465D01*
X007830Y010829D01*
X007830Y010465D01*
X007710Y010465D02*
X007467Y010465D01*
X007467Y010829D01*
X007710Y010829D01*
X007589Y010647D02*
X007467Y010647D01*
X006496Y010580D02*
X006496Y010944D01*
X006374Y010822D01*
X006253Y010944D01*
X006253Y010580D01*
X006133Y010640D02*
X006133Y010944D01*
X005890Y010944D02*
X005890Y010640D01*
X005951Y010580D01*
X006072Y010580D01*
X006133Y010640D01*
X005771Y010580D02*
X005528Y010580D01*
X005528Y010944D01*
X005408Y010944D02*
X005408Y010640D01*
X005347Y010580D01*
X005226Y010580D01*
X005165Y010640D01*
X005165Y010944D01*
X005046Y010883D02*
X004985Y010944D01*
X004803Y010944D01*
X004803Y010580D01*
X004985Y010580D01*
X005046Y010640D01*
X005046Y010883D01*
X004683Y010944D02*
X004683Y010580D01*
X004440Y010944D01*
X004440Y010580D01*
X004321Y010580D02*
X004078Y010580D01*
X004078Y010944D01*
X004321Y010944D01*
X004199Y010762D02*
X004078Y010762D01*
X003958Y010762D02*
X003958Y010883D01*
X003897Y010944D01*
X003715Y010944D01*
X003715Y010580D01*
X003715Y010701D02*
X003897Y010701D01*
X003958Y010762D01*
D11*
X003955Y000100D02*
X018686Y000100D01*
X018783Y000102D01*
X018879Y000108D01*
X018975Y000118D01*
X019071Y000132D01*
X019166Y000149D01*
X019260Y000171D01*
X019353Y000196D01*
X019445Y000225D01*
X019536Y000258D01*
X019625Y000295D01*
X019713Y000335D01*
X019799Y000379D01*
X019884Y000426D01*
X019966Y000477D01*
X020046Y000531D01*
X020124Y000588D01*
X020199Y000648D01*
X020272Y000712D01*
X020342Y000778D01*
X020410Y000847D01*
X020475Y000919D01*
X020536Y000994D01*
X020595Y001071D01*
X020650Y001150D01*
X011332Y005494D02*
X011334Y005542D01*
X011340Y005590D01*
X011350Y005637D01*
X011363Y005683D01*
X011381Y005728D01*
X011401Y005772D01*
X011426Y005814D01*
X011454Y005853D01*
X011484Y005890D01*
X011518Y005924D01*
X011555Y005956D01*
X011593Y005985D01*
X011634Y006010D01*
X011677Y006032D01*
X011722Y006050D01*
X011768Y006064D01*
X011815Y006075D01*
X011863Y006082D01*
X011911Y006085D01*
X011959Y006084D01*
X012007Y006079D01*
X012055Y006070D01*
X012101Y006058D01*
X012146Y006041D01*
X012190Y006021D01*
X012232Y005998D01*
X012272Y005971D01*
X012310Y005941D01*
X012345Y005908D01*
X012377Y005872D01*
X012407Y005834D01*
X012433Y005793D01*
X012455Y005750D01*
X012475Y005706D01*
X012490Y005661D01*
X012502Y005614D01*
X012510Y005566D01*
X012514Y005518D01*
X012514Y005470D01*
X012510Y005422D01*
X012502Y005374D01*
X012490Y005327D01*
X012475Y005282D01*
X012455Y005238D01*
X012433Y005195D01*
X012407Y005154D01*
X012377Y005116D01*
X012345Y005080D01*
X012310Y005047D01*
X012272Y005017D01*
X012232Y004990D01*
X012190Y004967D01*
X012146Y004947D01*
X012101Y004930D01*
X012055Y004918D01*
X012007Y004909D01*
X011959Y004904D01*
X011911Y004903D01*
X011863Y004906D01*
X011815Y004913D01*
X011768Y004924D01*
X011722Y004938D01*
X011677Y004956D01*
X011634Y004978D01*
X011593Y005003D01*
X011555Y005032D01*
X011518Y005064D01*
X011484Y005098D01*
X011454Y005135D01*
X011426Y005174D01*
X011401Y005216D01*
X011381Y005260D01*
X011363Y005305D01*
X011350Y005351D01*
X011340Y005398D01*
X011334Y005446D01*
X011332Y005494D01*
X001991Y001150D02*
X001844Y001376D01*
X001702Y001605D01*
X001566Y001838D01*
X001436Y002073D01*
X001311Y002312D01*
X001192Y002554D01*
X001079Y002799D01*
X000972Y003046D01*
X000871Y003296D01*
X000776Y003548D01*
X000687Y003802D01*
X000604Y004059D01*
X000527Y004317D01*
X000456Y004577D01*
X000392Y004839D01*
X000334Y005102D01*
X000283Y005367D01*
X000237Y005632D01*
X000199Y005899D01*
X000166Y006167D01*
X000140Y006435D01*
X000121Y006704D01*
X000107Y006973D01*
X000101Y007242D01*
X000101Y007512D01*
X000107Y007781D01*
X000120Y008050D01*
X000139Y008319D01*
X000165Y008587D01*
X000197Y008855D01*
X000236Y009122D01*
X000281Y009388D01*
X000332Y009652D01*
X000390Y009915D01*
X000453Y010177D01*
X000524Y010437D01*
X000600Y010696D01*
X000683Y010952D01*
X000772Y011207D01*
X000867Y011459D01*
X000967Y011709D01*
X001074Y011956D01*
X001187Y012201D01*
X001306Y012443D01*
X001306Y012444D02*
X001339Y012504D01*
X001375Y012562D01*
X001414Y012618D01*
X001457Y012672D01*
X001502Y012723D01*
X001551Y012771D01*
X001602Y012817D01*
X001656Y012859D01*
X001712Y012899D01*
X001771Y012934D01*
X001831Y012967D01*
X001893Y012996D01*
X001957Y013021D01*
X002022Y013043D01*
X002088Y013060D01*
X002155Y013074D01*
X002223Y013084D01*
X002291Y013090D01*
X002360Y013092D01*
X020281Y013092D01*
X020350Y013090D01*
X020418Y013084D01*
X020486Y013074D01*
X020553Y013060D01*
X020619Y013043D01*
X020684Y013021D01*
X020748Y012996D01*
X020810Y012967D01*
X020870Y012934D01*
X020929Y012899D01*
X020985Y012859D01*
X021039Y012817D01*
X021090Y012771D01*
X021139Y012723D01*
X021184Y012672D01*
X021227Y012618D01*
X021266Y012562D01*
X021302Y012504D01*
X021335Y012444D01*
X021334Y012443D02*
X021453Y012201D01*
X021566Y011956D01*
X021673Y011709D01*
X021773Y011459D01*
X021868Y011207D01*
X021957Y010952D01*
X022040Y010696D01*
X022116Y010437D01*
X022187Y010177D01*
X022250Y009915D01*
X022308Y009652D01*
X022359Y009388D01*
X022404Y009122D01*
X022443Y008855D01*
X022475Y008587D01*
X022501Y008319D01*
X022520Y008050D01*
X022533Y007781D01*
X022539Y007512D01*
X022539Y007242D01*
X022533Y006973D01*
X022519Y006704D01*
X022500Y006435D01*
X022474Y006167D01*
X022441Y005899D01*
X022403Y005632D01*
X022357Y005367D01*
X022306Y005102D01*
X022248Y004839D01*
X022184Y004577D01*
X022113Y004317D01*
X022036Y004059D01*
X021953Y003802D01*
X021864Y003548D01*
X021769Y003296D01*
X021668Y003046D01*
X021561Y002799D01*
X021448Y002554D01*
X021329Y002312D01*
X021204Y002073D01*
X021074Y001838D01*
X020938Y001605D01*
X020796Y001376D01*
X020649Y001150D01*
X006265Y005498D02*
X006267Y005546D01*
X006273Y005594D01*
X006283Y005641D01*
X006296Y005687D01*
X006314Y005732D01*
X006334Y005776D01*
X006359Y005818D01*
X006387Y005857D01*
X006417Y005894D01*
X006451Y005928D01*
X006488Y005960D01*
X006526Y005989D01*
X006567Y006014D01*
X006610Y006036D01*
X006655Y006054D01*
X006701Y006068D01*
X006748Y006079D01*
X006796Y006086D01*
X006844Y006089D01*
X006892Y006088D01*
X006940Y006083D01*
X006988Y006074D01*
X007034Y006062D01*
X007079Y006045D01*
X007123Y006025D01*
X007165Y006002D01*
X007205Y005975D01*
X007243Y005945D01*
X007278Y005912D01*
X007310Y005876D01*
X007340Y005838D01*
X007366Y005797D01*
X007388Y005754D01*
X007408Y005710D01*
X007423Y005665D01*
X007435Y005618D01*
X007443Y005570D01*
X007447Y005522D01*
X007447Y005474D01*
X007443Y005426D01*
X007435Y005378D01*
X007423Y005331D01*
X007408Y005286D01*
X007388Y005242D01*
X007366Y005199D01*
X007340Y005158D01*
X007310Y005120D01*
X007278Y005084D01*
X007243Y005051D01*
X007205Y005021D01*
X007165Y004994D01*
X007123Y004971D01*
X007079Y004951D01*
X007034Y004934D01*
X006988Y004922D01*
X006940Y004913D01*
X006892Y004908D01*
X006844Y004907D01*
X006796Y004910D01*
X006748Y004917D01*
X006701Y004928D01*
X006655Y004942D01*
X006610Y004960D01*
X006567Y004982D01*
X006526Y005007D01*
X006488Y005036D01*
X006451Y005068D01*
X006417Y005102D01*
X006387Y005139D01*
X006359Y005178D01*
X006334Y005220D01*
X006314Y005264D01*
X006296Y005309D01*
X006283Y005355D01*
X006273Y005402D01*
X006267Y005450D01*
X006265Y005498D01*
X003955Y000100D02*
X003858Y000102D01*
X003762Y000108D01*
X003666Y000118D01*
X003570Y000132D01*
X003475Y000149D01*
X003381Y000171D01*
X003288Y000196D01*
X003196Y000225D01*
X003105Y000258D01*
X003016Y000295D01*
X002928Y000335D01*
X002842Y000379D01*
X002757Y000426D01*
X002675Y000477D01*
X002595Y000531D01*
X002517Y000588D01*
X002442Y000648D01*
X002369Y000712D01*
X002299Y000778D01*
X002231Y000847D01*
X002166Y000919D01*
X002105Y000994D01*
X002046Y001071D01*
X001991Y001150D01*
D12*
X004958Y004120D02*
X005478Y003687D01*
X008234Y003687D01*
X008754Y004120D01*
X008754Y007584D01*
X008431Y007584D01*
X008431Y006876D01*
X008234Y006876D01*
X008234Y007584D01*
X007840Y007584D01*
X007820Y007582D01*
X007800Y007577D01*
X007781Y007568D01*
X007764Y007556D01*
X007750Y007542D01*
X007738Y007525D01*
X007729Y007506D01*
X007724Y007486D01*
X007722Y007466D01*
X007722Y006954D01*
X007171Y006954D01*
X007171Y007466D01*
X007166Y007487D01*
X007157Y007508D01*
X007146Y007527D01*
X007131Y007544D01*
X007114Y007559D01*
X007095Y007570D01*
X007074Y007579D01*
X007053Y007584D01*
X006659Y007584D01*
X006639Y007582D01*
X006619Y007577D01*
X006600Y007568D01*
X006583Y007556D01*
X006569Y007542D01*
X006557Y007525D01*
X006548Y007506D01*
X006543Y007486D01*
X006541Y007466D01*
X006541Y006954D01*
X005990Y006954D01*
X005990Y007466D01*
X005988Y007486D01*
X005983Y007506D01*
X005974Y007525D01*
X005962Y007542D01*
X005948Y007556D01*
X005931Y007568D01*
X005912Y007577D01*
X005892Y007582D01*
X005872Y007584D01*
X005478Y007584D01*
X005478Y006876D01*
X005281Y006876D01*
X005281Y007584D01*
X004958Y007584D01*
X004958Y004120D01*
X006462Y003923D02*
X006462Y004317D01*
X007250Y004317D01*
X007250Y003923D01*
X006462Y003923D01*
X006462Y004317D02*
X006462Y004553D01*
X007250Y004553D01*
X007250Y004317D01*
X009435Y004116D02*
X009954Y003683D01*
X013891Y003683D01*
X014411Y004116D01*
X014411Y007580D01*
X014088Y007580D01*
X014088Y006872D01*
X013891Y006872D01*
X013891Y007580D01*
X013498Y007580D01*
X013478Y007578D01*
X013458Y007573D01*
X013439Y007564D01*
X013422Y007552D01*
X013408Y007538D01*
X013396Y007521D01*
X013387Y007502D01*
X013382Y007482D01*
X013380Y007462D01*
X013380Y006950D01*
X012828Y006950D01*
X012828Y007462D01*
X012829Y007463D02*
X012824Y007484D01*
X012815Y007505D01*
X012804Y007524D01*
X012789Y007541D01*
X012772Y007556D01*
X012753Y007567D01*
X012732Y007576D01*
X012711Y007581D01*
X012710Y007580D02*
X012317Y007580D01*
X012297Y007578D01*
X012277Y007573D01*
X012258Y007564D01*
X012241Y007552D01*
X012227Y007538D01*
X012215Y007521D01*
X012206Y007502D01*
X012201Y007482D01*
X012199Y007462D01*
X012198Y007462D02*
X012198Y006950D01*
X011647Y006950D01*
X011647Y007462D01*
X011645Y007482D01*
X011640Y007502D01*
X011631Y007521D01*
X011619Y007538D01*
X011605Y007552D01*
X011588Y007564D01*
X011569Y007573D01*
X011549Y007578D01*
X011529Y007580D01*
X011135Y007580D01*
X011115Y007578D01*
X011095Y007573D01*
X011076Y007564D01*
X011059Y007552D01*
X011045Y007538D01*
X011033Y007521D01*
X011024Y007502D01*
X011019Y007482D01*
X011017Y007462D01*
X011017Y006950D01*
X010466Y006950D01*
X010466Y007462D01*
X010464Y007482D01*
X010459Y007502D01*
X010450Y007521D01*
X010438Y007538D01*
X010424Y007552D01*
X010407Y007564D01*
X010388Y007573D01*
X010368Y007578D01*
X010348Y007580D01*
X009954Y007580D01*
X009954Y006872D01*
X009757Y006872D01*
X009757Y007580D01*
X009435Y007580D01*
X009435Y004116D01*
X011529Y003919D02*
X011529Y004313D01*
X012317Y004313D01*
X012317Y003919D01*
X011529Y003919D01*
X011529Y004313D02*
X011529Y004549D01*
X012317Y004549D01*
X012317Y004313D01*
X013651Y011225D02*
X013798Y011225D01*
X013798Y012021D01*
X014252Y012025D02*
X014252Y011229D01*
X014399Y011229D01*
X014252Y011229D02*
X014252Y012802D01*
X016515Y012802D01*
X016515Y011229D01*
X016368Y011229D01*
X016515Y011229D02*
X016515Y012025D01*
X017016Y012037D02*
X017016Y011615D01*
X017281Y011615D01*
X017016Y011615D02*
X017016Y012814D01*
X018727Y012814D01*
X018727Y011615D01*
X018462Y011615D01*
X018727Y011615D02*
X018727Y012037D01*
X018727Y011615D02*
X017016Y011615D01*
X016515Y011229D02*
X014252Y011229D01*
X013798Y011225D02*
X010355Y011225D01*
X010502Y011225D01*
X010355Y011225D02*
X010355Y012021D01*
X009912Y012021D02*
X009912Y011225D01*
X009765Y011225D01*
X009912Y011225D02*
X007256Y011225D01*
X007403Y011225D01*
X007256Y011225D02*
X007256Y012021D01*
X006810Y012021D02*
X006810Y011225D01*
X006663Y011225D01*
X006810Y011225D02*
X003760Y011225D01*
X003907Y011225D01*
X003760Y011225D02*
X003760Y012021D01*
X003760Y012798D02*
X003760Y011225D01*
X003760Y012798D02*
X006810Y012798D01*
X006810Y011225D01*
X007256Y011225D02*
X007256Y012798D01*
X009912Y012798D01*
X009912Y011225D01*
X010355Y011225D02*
X010355Y012798D01*
X013798Y012798D01*
X013798Y011225D01*
X013257Y012798D02*
X010895Y012798D01*
X009372Y012798D02*
X007797Y012798D01*
X006269Y012798D02*
X004301Y012798D01*
X014793Y012802D02*
X015974Y012802D01*
X017675Y012814D02*
X018069Y012814D01*
D13*
X004348Y007530D02*
X004198Y007530D01*
X004198Y007380D01*
X004198Y007180D02*
X003698Y007180D01*
X003198Y007180D01*
X003198Y006980D01*
X004198Y006980D01*
X004198Y007180D01*
X003698Y007180D02*
X003698Y007530D01*
X004048Y007530D02*
X004198Y007530D01*
X004198Y007680D01*
X003198Y008410D02*
X003198Y008560D01*
X003048Y008560D01*
X003198Y008560D02*
X003198Y008710D01*
X003198Y008910D02*
X003698Y008910D01*
X004198Y008910D01*
X004198Y009110D01*
X003198Y009110D01*
X003198Y008910D01*
X003698Y008910D02*
X003698Y008560D01*
X003348Y008560D02*
X003198Y008560D01*
X002598Y009210D02*
X002600Y009276D01*
X002606Y009341D01*
X002616Y009406D01*
X002629Y009471D01*
X002647Y009534D01*
X002668Y009597D01*
X002693Y009657D01*
X002722Y009717D01*
X002754Y009774D01*
X002789Y009830D01*
X002828Y009883D01*
X002870Y009934D01*
X002914Y009982D01*
X002962Y010027D01*
X003012Y010070D01*
X003065Y010109D01*
X003120Y010146D01*
X003177Y010179D01*
X003236Y010208D01*
X003296Y010234D01*
X003358Y010256D01*
X003421Y010275D01*
X003485Y010289D01*
X003550Y010300D01*
X003616Y010307D01*
X003682Y010310D01*
X003747Y010309D01*
X003813Y010304D01*
X003878Y010295D01*
X003943Y010282D01*
X004006Y010266D01*
X004069Y010246D01*
X004130Y010221D01*
X004190Y010194D01*
X004248Y010163D01*
X004304Y010128D01*
X004358Y010090D01*
X004409Y010049D01*
X004458Y010005D01*
X004504Y009958D01*
X004548Y009909D01*
X004588Y009857D01*
X004625Y009802D01*
X004659Y009746D01*
X004689Y009687D01*
X004716Y009627D01*
X004739Y009566D01*
X004758Y009503D01*
X004774Y009439D01*
X004786Y009374D01*
X004794Y009309D01*
X004798Y009243D01*
X004798Y009177D01*
X004794Y009111D01*
X004786Y009046D01*
X004774Y008981D01*
X004758Y008917D01*
X004739Y008854D01*
X004716Y008793D01*
X004689Y008733D01*
X004659Y008674D01*
X004625Y008618D01*
X004588Y008563D01*
X004548Y008511D01*
X004504Y008462D01*
X004458Y008415D01*
X004409Y008371D01*
X004358Y008330D01*
X004304Y008292D01*
X004248Y008257D01*
X004190Y008226D01*
X004130Y008199D01*
X004069Y008174D01*
X004006Y008154D01*
X003943Y008138D01*
X003878Y008125D01*
X003813Y008116D01*
X003747Y008111D01*
X003682Y008110D01*
X003616Y008113D01*
X003550Y008120D01*
X003485Y008131D01*
X003421Y008145D01*
X003358Y008164D01*
X003296Y008186D01*
X003236Y008212D01*
X003177Y008241D01*
X003120Y008274D01*
X003065Y008311D01*
X003012Y008350D01*
X002962Y008393D01*
X002914Y008438D01*
X002870Y008486D01*
X002828Y008537D01*
X002789Y008590D01*
X002754Y008646D01*
X002722Y008703D01*
X002693Y008763D01*
X002668Y008823D01*
X002647Y008886D01*
X002629Y008949D01*
X002616Y009014D01*
X002606Y009079D01*
X002600Y009144D01*
X002598Y009210D01*
X003698Y009460D02*
X003698Y009860D01*
X002598Y006880D02*
X002600Y006946D01*
X002606Y007011D01*
X002616Y007076D01*
X002629Y007141D01*
X002647Y007204D01*
X002668Y007267D01*
X002693Y007327D01*
X002722Y007387D01*
X002754Y007444D01*
X002789Y007500D01*
X002828Y007553D01*
X002870Y007604D01*
X002914Y007652D01*
X002962Y007697D01*
X003012Y007740D01*
X003065Y007779D01*
X003120Y007816D01*
X003177Y007849D01*
X003236Y007878D01*
X003296Y007904D01*
X003358Y007926D01*
X003421Y007945D01*
X003485Y007959D01*
X003550Y007970D01*
X003616Y007977D01*
X003682Y007980D01*
X003747Y007979D01*
X003813Y007974D01*
X003878Y007965D01*
X003943Y007952D01*
X004006Y007936D01*
X004069Y007916D01*
X004130Y007891D01*
X004190Y007864D01*
X004248Y007833D01*
X004304Y007798D01*
X004358Y007760D01*
X004409Y007719D01*
X004458Y007675D01*
X004504Y007628D01*
X004548Y007579D01*
X004588Y007527D01*
X004625Y007472D01*
X004659Y007416D01*
X004689Y007357D01*
X004716Y007297D01*
X004739Y007236D01*
X004758Y007173D01*
X004774Y007109D01*
X004786Y007044D01*
X004794Y006979D01*
X004798Y006913D01*
X004798Y006847D01*
X004794Y006781D01*
X004786Y006716D01*
X004774Y006651D01*
X004758Y006587D01*
X004739Y006524D01*
X004716Y006463D01*
X004689Y006403D01*
X004659Y006344D01*
X004625Y006288D01*
X004588Y006233D01*
X004548Y006181D01*
X004504Y006132D01*
X004458Y006085D01*
X004409Y006041D01*
X004358Y006000D01*
X004304Y005962D01*
X004248Y005927D01*
X004190Y005896D01*
X004130Y005869D01*
X004069Y005844D01*
X004006Y005824D01*
X003943Y005808D01*
X003878Y005795D01*
X003813Y005786D01*
X003747Y005781D01*
X003682Y005780D01*
X003616Y005783D01*
X003550Y005790D01*
X003485Y005801D01*
X003421Y005815D01*
X003358Y005834D01*
X003296Y005856D01*
X003236Y005882D01*
X003177Y005911D01*
X003120Y005944D01*
X003065Y005981D01*
X003012Y006020D01*
X002962Y006063D01*
X002914Y006108D01*
X002870Y006156D01*
X002828Y006207D01*
X002789Y006260D01*
X002754Y006316D01*
X002722Y006373D01*
X002693Y006433D01*
X002668Y006493D01*
X002647Y006556D01*
X002629Y006619D01*
X002616Y006684D01*
X002606Y006749D01*
X002600Y006814D01*
X002598Y006880D01*
X003698Y006630D02*
X003698Y006230D01*
X003698Y005199D02*
X003698Y004799D01*
X002598Y004549D02*
X002600Y004615D01*
X002606Y004680D01*
X002616Y004745D01*
X002629Y004810D01*
X002647Y004873D01*
X002668Y004936D01*
X002693Y004996D01*
X002722Y005056D01*
X002754Y005113D01*
X002789Y005169D01*
X002828Y005222D01*
X002870Y005273D01*
X002914Y005321D01*
X002962Y005366D01*
X003012Y005409D01*
X003065Y005448D01*
X003120Y005485D01*
X003177Y005518D01*
X003236Y005547D01*
X003296Y005573D01*
X003358Y005595D01*
X003421Y005614D01*
X003485Y005628D01*
X003550Y005639D01*
X003616Y005646D01*
X003682Y005649D01*
X003747Y005648D01*
X003813Y005643D01*
X003878Y005634D01*
X003943Y005621D01*
X004006Y005605D01*
X004069Y005585D01*
X004130Y005560D01*
X004190Y005533D01*
X004248Y005502D01*
X004304Y005467D01*
X004358Y005429D01*
X004409Y005388D01*
X004458Y005344D01*
X004504Y005297D01*
X004548Y005248D01*
X004588Y005196D01*
X004625Y005141D01*
X004659Y005085D01*
X004689Y005026D01*
X004716Y004966D01*
X004739Y004905D01*
X004758Y004842D01*
X004774Y004778D01*
X004786Y004713D01*
X004794Y004648D01*
X004798Y004582D01*
X004798Y004516D01*
X004794Y004450D01*
X004786Y004385D01*
X004774Y004320D01*
X004758Y004256D01*
X004739Y004193D01*
X004716Y004132D01*
X004689Y004072D01*
X004659Y004013D01*
X004625Y003957D01*
X004588Y003902D01*
X004548Y003850D01*
X004504Y003801D01*
X004458Y003754D01*
X004409Y003710D01*
X004358Y003669D01*
X004304Y003631D01*
X004248Y003596D01*
X004190Y003565D01*
X004130Y003538D01*
X004069Y003513D01*
X004006Y003493D01*
X003943Y003477D01*
X003878Y003464D01*
X003813Y003455D01*
X003747Y003450D01*
X003682Y003449D01*
X003616Y003452D01*
X003550Y003459D01*
X003485Y003470D01*
X003421Y003484D01*
X003358Y003503D01*
X003296Y003525D01*
X003236Y003551D01*
X003177Y003580D01*
X003120Y003613D01*
X003065Y003650D01*
X003012Y003689D01*
X002962Y003732D01*
X002914Y003777D01*
X002870Y003825D01*
X002828Y003876D01*
X002789Y003929D01*
X002754Y003985D01*
X002722Y004042D01*
X002693Y004102D01*
X002668Y004162D01*
X002647Y004225D01*
X002629Y004288D01*
X002616Y004353D01*
X002606Y004418D01*
X002600Y004483D01*
X002598Y004549D01*
X003198Y004449D02*
X003198Y004249D01*
X003698Y004249D01*
X004198Y004249D01*
X004198Y004449D01*
X003198Y004449D01*
X003698Y004249D02*
X003698Y003899D01*
X003348Y003899D02*
X003198Y003899D01*
X003048Y003899D01*
X003198Y003899D02*
X003198Y003749D01*
X003198Y003899D02*
X003198Y004049D01*
D14*
X004323Y005009D02*
X004398Y004934D01*
X004698Y004934D01*
X004773Y005009D01*
X004773Y005159D01*
X004698Y005234D01*
X004773Y005394D02*
X004473Y005694D01*
X004398Y005694D01*
X004323Y005619D01*
X004323Y005469D01*
X004398Y005394D01*
X004398Y005234D02*
X004323Y005159D01*
X004323Y005009D01*
X004773Y005394D02*
X004773Y005694D01*
X003073Y005699D02*
X002998Y005624D01*
X002698Y005624D01*
X002623Y005699D01*
X002623Y005849D01*
X002698Y005924D01*
X002698Y006084D02*
X002623Y006159D01*
X002623Y006309D01*
X002698Y006384D01*
X002773Y006384D01*
X002848Y006309D01*
X002923Y006384D01*
X002998Y006384D01*
X003073Y006309D01*
X003073Y006159D01*
X002998Y006084D01*
X002848Y006234D02*
X002848Y006309D01*
X002998Y005924D02*
X003073Y005849D01*
X003073Y005699D01*
X002998Y010285D02*
X002698Y010285D01*
X002623Y010360D01*
X002623Y010510D01*
X002698Y010585D01*
X002773Y010746D02*
X002623Y010896D01*
X003073Y010896D01*
X003073Y010746D02*
X003073Y011046D01*
X002998Y010585D02*
X003073Y010510D01*
X003073Y010360D01*
X002998Y010285D01*
D15*
X003698Y009410D03*
X003698Y006680D03*
X003698Y004749D03*
M02*
