G75*
%MOIN*%
%OFA0B0*%
%FSLAX24Y24*%
%IPPOS*%
%LPD*%
%AMOC8*
5,1,8,0,0,1.08239X$1,22.5*
%
%ADD10R,0.0602X0.0602*%
%ADD11C,0.0602*%
%ADD12C,0.0420*%
%ADD13C,0.0400*%
%ADD14OC8,0.0630*%
%ADD15C,0.0630*%
%ADD16C,0.0063*%
%ADD17C,0.0238*%
%ADD18C,0.0240*%
%ADD19C,0.0400*%
%ADD20C,0.1181*%
D10*
X007446Y007198D03*
X013104Y007194D03*
D11*
X011923Y007194D03*
X010742Y007194D03*
X006265Y007198D03*
D12*
X002122Y007133D03*
X001622Y007133D03*
X001622Y007633D03*
X002122Y007633D03*
X002122Y008133D03*
X001622Y008133D03*
X001622Y008633D03*
X002122Y008633D03*
X002122Y009133D03*
X001622Y009133D03*
X001622Y009633D03*
X002122Y009633D03*
X002122Y010133D03*
X001622Y010133D03*
X001622Y006633D03*
X002122Y006633D03*
X002122Y006133D03*
X001622Y006133D03*
X001622Y005633D03*
X002122Y005633D03*
X002122Y005133D03*
X001622Y005133D03*
X001622Y004633D03*
X002122Y004633D03*
X019732Y004633D03*
X020232Y004633D03*
X020232Y005133D03*
X019732Y005133D03*
X019732Y005633D03*
X020232Y005633D03*
X020232Y006133D03*
X019732Y006133D03*
X019732Y006633D03*
X020232Y006633D03*
X020232Y007133D03*
X019732Y007133D03*
X019732Y007633D03*
X020232Y007633D03*
X020232Y008133D03*
X019732Y008133D03*
X019732Y008633D03*
X020232Y008633D03*
X020232Y009133D03*
X019732Y009133D03*
X019732Y009633D03*
X020232Y009633D03*
X020232Y010133D03*
X019732Y010133D03*
D13*
X016336Y000691D03*
X015836Y000691D03*
X015336Y000691D03*
X014836Y000691D03*
X014336Y000691D03*
X013836Y000691D03*
X013336Y000691D03*
X012836Y000691D03*
X012336Y000691D03*
X011836Y000691D03*
X011336Y000691D03*
X010836Y000691D03*
X010336Y000691D03*
X009836Y000691D03*
X009336Y000691D03*
X008836Y000691D03*
X008336Y000691D03*
X007836Y000691D03*
X007336Y000691D03*
X006836Y000691D03*
X006336Y000691D03*
X005836Y000691D03*
X005336Y000691D03*
X004836Y000691D03*
X004336Y000691D03*
D14*
X003698Y005049D03*
X003698Y006380D03*
X003698Y009710D03*
D15*
X003698Y008710D03*
X003698Y007380D03*
X003698Y004049D03*
D16*
X004076Y002092D02*
X004076Y000328D01*
X004139Y000265D01*
X008450Y000265D01*
X008450Y000899D01*
X008545Y000994D01*
X010403Y002852D01*
X010403Y006190D01*
X010498Y006285D01*
X011096Y006883D01*
X011096Y007639D01*
X011155Y007698D01*
X008864Y007698D01*
X008864Y003541D01*
X005525Y003541D01*
X004076Y002092D01*
X004079Y002095D02*
X009646Y002095D01*
X009585Y002034D02*
X004076Y002034D01*
X004076Y001972D02*
X009523Y001972D01*
X009462Y001911D02*
X004076Y001911D01*
X004076Y001849D02*
X009400Y001849D01*
X009339Y001788D02*
X004076Y001788D01*
X004076Y001726D02*
X009277Y001726D01*
X009216Y001665D02*
X004076Y001665D01*
X004076Y001603D02*
X009154Y001603D01*
X009093Y001542D02*
X004076Y001542D01*
X004076Y001480D02*
X009031Y001480D01*
X008970Y001419D02*
X004076Y001419D01*
X004076Y001357D02*
X008908Y001357D01*
X008847Y001296D02*
X004076Y001296D01*
X004076Y001234D02*
X008785Y001234D01*
X008724Y001173D02*
X004076Y001173D01*
X004076Y001111D02*
X008662Y001111D01*
X008601Y001050D02*
X004076Y001050D01*
X004076Y000988D02*
X008540Y000988D01*
X008478Y000927D02*
X004076Y000927D01*
X004076Y000865D02*
X008450Y000865D01*
X008450Y000804D02*
X004076Y000804D01*
X004076Y000742D02*
X008450Y000742D01*
X008450Y000681D02*
X004076Y000681D01*
X004076Y000619D02*
X008450Y000619D01*
X008450Y000558D02*
X004076Y000558D01*
X004076Y000496D02*
X008450Y000496D01*
X008450Y000435D02*
X004076Y000435D01*
X004076Y000373D02*
X008450Y000373D01*
X008450Y000312D02*
X004093Y000312D01*
X004141Y002157D02*
X009708Y002157D01*
X009769Y002218D02*
X004202Y002218D01*
X004264Y002280D02*
X009831Y002280D01*
X009892Y002341D02*
X004325Y002341D01*
X004387Y002403D02*
X009954Y002403D01*
X010015Y002464D02*
X004448Y002464D01*
X004510Y002526D02*
X010077Y002526D01*
X010138Y002587D02*
X004571Y002587D01*
X004633Y002649D02*
X010200Y002649D01*
X010261Y002710D02*
X004694Y002710D01*
X004756Y002772D02*
X010323Y002772D01*
X010384Y002833D02*
X004817Y002833D01*
X004879Y002895D02*
X010403Y002895D01*
X010403Y002956D02*
X004940Y002956D01*
X005002Y003018D02*
X010403Y003018D01*
X010403Y003079D02*
X005063Y003079D01*
X005125Y003140D02*
X010403Y003140D01*
X010403Y003202D02*
X005186Y003202D01*
X005248Y003263D02*
X010403Y003263D01*
X010403Y003325D02*
X005309Y003325D01*
X005371Y003386D02*
X010403Y003386D01*
X010403Y003448D02*
X005432Y003448D01*
X005494Y003509D02*
X010403Y003509D01*
X010403Y003571D02*
X008864Y003571D01*
X008864Y003632D02*
X010403Y003632D01*
X010403Y003694D02*
X008864Y003694D01*
X008864Y003755D02*
X010403Y003755D01*
X010403Y003817D02*
X008864Y003817D01*
X008864Y003878D02*
X010403Y003878D01*
X010403Y003940D02*
X008864Y003940D01*
X008864Y004001D02*
X010403Y004001D01*
X010403Y004063D02*
X008864Y004063D01*
X008864Y004124D02*
X010403Y004124D01*
X010403Y004186D02*
X008864Y004186D01*
X008864Y004247D02*
X010403Y004247D01*
X010403Y004309D02*
X008864Y004309D01*
X008864Y004370D02*
X010403Y004370D01*
X010403Y004432D02*
X008864Y004432D01*
X008864Y004493D02*
X010403Y004493D01*
X010403Y004555D02*
X008864Y004555D01*
X008864Y004616D02*
X010403Y004616D01*
X010403Y004678D02*
X008864Y004678D01*
X008864Y004739D02*
X010403Y004739D01*
X010403Y004801D02*
X008864Y004801D01*
X008864Y004862D02*
X010403Y004862D01*
X010403Y004924D02*
X008864Y004924D01*
X008864Y004985D02*
X010403Y004985D01*
X010403Y005047D02*
X008864Y005047D01*
X008864Y005108D02*
X010403Y005108D01*
X010403Y005170D02*
X008864Y005170D01*
X008864Y005231D02*
X010403Y005231D01*
X010403Y005293D02*
X008864Y005293D01*
X008864Y005354D02*
X010403Y005354D01*
X010403Y005416D02*
X008864Y005416D01*
X008864Y005477D02*
X010403Y005477D01*
X010403Y005539D02*
X008864Y005539D01*
X008864Y005600D02*
X010403Y005600D01*
X010403Y005662D02*
X008864Y005662D01*
X008864Y005723D02*
X010403Y005723D01*
X010403Y005785D02*
X008864Y005785D01*
X008864Y005846D02*
X010403Y005846D01*
X010403Y005908D02*
X008864Y005908D01*
X008864Y005969D02*
X010403Y005969D01*
X010403Y006031D02*
X008864Y006031D01*
X008864Y006092D02*
X010403Y006092D01*
X010403Y006154D02*
X008864Y006154D01*
X008864Y006215D02*
X010428Y006215D01*
X010489Y006277D02*
X008864Y006277D01*
X008864Y006338D02*
X010551Y006338D01*
X010612Y006400D02*
X008864Y006400D01*
X008864Y006461D02*
X010674Y006461D01*
X010735Y006523D02*
X008864Y006523D01*
X008864Y006584D02*
X010797Y006584D01*
X010858Y006646D02*
X008864Y006646D01*
X008864Y006707D02*
X010920Y006707D01*
X010981Y006769D02*
X008864Y006769D01*
X008864Y006830D02*
X011043Y006830D01*
X011096Y006892D02*
X008864Y006892D01*
X008864Y006953D02*
X011096Y006953D01*
X011096Y007015D02*
X008864Y007015D01*
X008864Y007076D02*
X011096Y007076D01*
X011096Y007137D02*
X008864Y007137D01*
X008864Y007199D02*
X011096Y007199D01*
X011096Y007260D02*
X008864Y007260D01*
X008864Y007322D02*
X011096Y007322D01*
X011096Y007383D02*
X008864Y007383D01*
X008864Y007445D02*
X011096Y007445D01*
X011096Y007506D02*
X008864Y007506D01*
X008864Y007568D02*
X011096Y007568D01*
X011096Y007629D02*
X008864Y007629D01*
X008864Y007691D02*
X011148Y007691D01*
X011257Y007572D02*
X012580Y007572D01*
X012580Y006754D01*
X013399Y006061D01*
X013399Y004738D01*
X012580Y004045D01*
X012580Y000901D01*
X012557Y000877D01*
X012506Y000756D01*
X012506Y000625D01*
X012557Y000504D01*
X012580Y000480D01*
X012580Y000328D01*
X012517Y000265D01*
X008612Y000265D01*
X008612Y000500D01*
X008616Y000504D01*
X008666Y000625D01*
X008666Y000756D01*
X008628Y000848D01*
X010565Y002785D01*
X010565Y006124D01*
X011257Y006817D01*
X011257Y007572D01*
X011257Y007568D02*
X012580Y007568D01*
X012580Y007506D02*
X011257Y007506D01*
X011257Y007445D02*
X012580Y007445D01*
X012580Y007383D02*
X011257Y007383D01*
X011257Y007322D02*
X012580Y007322D01*
X012580Y007260D02*
X011257Y007260D01*
X011257Y007199D02*
X012580Y007199D01*
X012580Y007137D02*
X011257Y007137D01*
X011257Y007076D02*
X012580Y007076D01*
X012580Y007015D02*
X011257Y007015D01*
X011257Y006953D02*
X012580Y006953D01*
X012580Y006892D02*
X011257Y006892D01*
X011257Y006830D02*
X012580Y006830D01*
X012580Y006769D02*
X011209Y006769D01*
X011148Y006707D02*
X012635Y006707D01*
X012708Y006646D02*
X011086Y006646D01*
X011025Y006584D02*
X012781Y006584D01*
X012853Y006523D02*
X010964Y006523D01*
X010902Y006461D02*
X012926Y006461D01*
X012999Y006400D02*
X012145Y006400D01*
X012106Y006416D02*
X011739Y006416D01*
X011401Y006275D01*
X011141Y006016D01*
X011001Y005677D01*
X011001Y005310D01*
X011141Y004971D01*
X011401Y004712D01*
X011739Y004572D01*
X012106Y004572D01*
X012445Y004712D01*
X012705Y004971D01*
X012845Y005310D01*
X012845Y005677D01*
X012705Y006016D01*
X012445Y006275D01*
X012106Y006416D01*
X012294Y006338D02*
X013071Y006338D01*
X013144Y006277D02*
X012442Y006277D01*
X012505Y006215D02*
X013217Y006215D01*
X013289Y006154D02*
X012567Y006154D01*
X012628Y006092D02*
X013362Y006092D01*
X013399Y006031D02*
X012690Y006031D01*
X012724Y005969D02*
X013399Y005969D01*
X013399Y005908D02*
X012749Y005908D01*
X012775Y005846D02*
X013399Y005846D01*
X013399Y005785D02*
X012800Y005785D01*
X012826Y005723D02*
X013399Y005723D01*
X013399Y005662D02*
X012845Y005662D01*
X012845Y005600D02*
X013399Y005600D01*
X013399Y005539D02*
X012845Y005539D01*
X012845Y005477D02*
X013399Y005477D01*
X013399Y005416D02*
X012845Y005416D01*
X012845Y005354D02*
X013399Y005354D01*
X013399Y005293D02*
X012838Y005293D01*
X012812Y005231D02*
X013399Y005231D01*
X013399Y005170D02*
X012787Y005170D01*
X012761Y005108D02*
X013399Y005108D01*
X013399Y005047D02*
X012736Y005047D01*
X012710Y004985D02*
X013399Y004985D01*
X013399Y004924D02*
X012657Y004924D01*
X012595Y004862D02*
X013399Y004862D01*
X013399Y004801D02*
X012534Y004801D01*
X012472Y004739D02*
X013399Y004739D01*
X013328Y004678D02*
X012362Y004678D01*
X012214Y004616D02*
X013256Y004616D01*
X013183Y004555D02*
X010565Y004555D01*
X010565Y004616D02*
X011632Y004616D01*
X011483Y004678D02*
X010565Y004678D01*
X010565Y004739D02*
X011373Y004739D01*
X011312Y004801D02*
X010565Y004801D01*
X010565Y004862D02*
X011250Y004862D01*
X011189Y004924D02*
X010565Y004924D01*
X010565Y004985D02*
X011135Y004985D01*
X011110Y005047D02*
X010565Y005047D01*
X010565Y005108D02*
X011084Y005108D01*
X011059Y005170D02*
X010565Y005170D01*
X010565Y005231D02*
X011034Y005231D01*
X011008Y005293D02*
X010565Y005293D01*
X010565Y005354D02*
X011001Y005354D01*
X011001Y005416D02*
X010565Y005416D01*
X010565Y005477D02*
X011001Y005477D01*
X011001Y005539D02*
X010565Y005539D01*
X010565Y005600D02*
X011001Y005600D01*
X011001Y005662D02*
X010565Y005662D01*
X010565Y005723D02*
X011020Y005723D01*
X011045Y005785D02*
X010565Y005785D01*
X010565Y005846D02*
X011071Y005846D01*
X011096Y005908D02*
X010565Y005908D01*
X010565Y005969D02*
X011122Y005969D01*
X011156Y006031D02*
X010565Y006031D01*
X010565Y006092D02*
X011217Y006092D01*
X011279Y006154D02*
X010595Y006154D01*
X010656Y006215D02*
X011340Y006215D01*
X011403Y006277D02*
X010718Y006277D01*
X010779Y006338D02*
X011552Y006338D01*
X011700Y006400D02*
X010841Y006400D01*
X012742Y006828D02*
X012742Y007572D01*
X013777Y007572D01*
X016612Y004738D01*
X016612Y000265D01*
X012742Y000265D01*
X012742Y003970D01*
X013458Y004576D01*
X013466Y004576D01*
X013509Y004619D01*
X013555Y004658D01*
X013555Y004665D01*
X013561Y004671D01*
X013561Y004731D01*
X013566Y004791D01*
X013561Y004797D01*
X013561Y006002D01*
X013566Y006007D01*
X013561Y006067D01*
X013561Y006127D01*
X013555Y006133D01*
X013555Y006141D01*
X013509Y006180D01*
X013466Y006222D01*
X013458Y006222D01*
X012742Y006828D01*
X012742Y006830D02*
X014520Y006830D01*
X014581Y006769D02*
X012812Y006769D01*
X012885Y006707D02*
X014643Y006707D01*
X014704Y006646D02*
X012958Y006646D01*
X013030Y006584D02*
X014766Y006584D01*
X014827Y006523D02*
X013103Y006523D01*
X013176Y006461D02*
X014889Y006461D01*
X014950Y006400D02*
X013249Y006400D01*
X013321Y006338D02*
X015012Y006338D01*
X015073Y006277D02*
X013394Y006277D01*
X013473Y006215D02*
X015134Y006215D01*
X015196Y006154D02*
X013539Y006154D01*
X013561Y006092D02*
X015257Y006092D01*
X015319Y006031D02*
X013564Y006031D01*
X013561Y005969D02*
X015380Y005969D01*
X015442Y005908D02*
X013561Y005908D01*
X013561Y005846D02*
X015503Y005846D01*
X015565Y005785D02*
X013561Y005785D01*
X013561Y005723D02*
X015626Y005723D01*
X015688Y005662D02*
X013561Y005662D01*
X013561Y005600D02*
X015749Y005600D01*
X015811Y005539D02*
X013561Y005539D01*
X013561Y005477D02*
X015872Y005477D01*
X015934Y005416D02*
X013561Y005416D01*
X013561Y005354D02*
X015995Y005354D01*
X016057Y005293D02*
X013561Y005293D01*
X013561Y005231D02*
X016118Y005231D01*
X016180Y005170D02*
X013561Y005170D01*
X013561Y005108D02*
X016241Y005108D01*
X016303Y005047D02*
X013561Y005047D01*
X013561Y004985D02*
X016364Y004985D01*
X016426Y004924D02*
X013561Y004924D01*
X013561Y004862D02*
X016487Y004862D01*
X016549Y004801D02*
X013561Y004801D01*
X013561Y004739D02*
X016610Y004739D01*
X016612Y004678D02*
X013561Y004678D01*
X013506Y004616D02*
X016612Y004616D01*
X016612Y004555D02*
X013433Y004555D01*
X013360Y004493D02*
X016612Y004493D01*
X016612Y004432D02*
X013288Y004432D01*
X013215Y004370D02*
X016612Y004370D01*
X016612Y004309D02*
X013142Y004309D01*
X013069Y004247D02*
X016612Y004247D01*
X016612Y004186D02*
X012997Y004186D01*
X012924Y004124D02*
X016612Y004124D01*
X016612Y004063D02*
X012851Y004063D01*
X012779Y004001D02*
X016612Y004001D01*
X016612Y003940D02*
X012742Y003940D01*
X012742Y003878D02*
X016612Y003878D01*
X016612Y003817D02*
X012742Y003817D01*
X012742Y003755D02*
X016612Y003755D01*
X016612Y003694D02*
X012742Y003694D01*
X012742Y003632D02*
X016612Y003632D01*
X016612Y003571D02*
X012742Y003571D01*
X012742Y003509D02*
X016612Y003509D01*
X016612Y003448D02*
X012742Y003448D01*
X012742Y003386D02*
X016612Y003386D01*
X016612Y003325D02*
X012742Y003325D01*
X012742Y003263D02*
X016612Y003263D01*
X016612Y003202D02*
X012742Y003202D01*
X012742Y003140D02*
X016612Y003140D01*
X016612Y003079D02*
X012742Y003079D01*
X012742Y003018D02*
X016612Y003018D01*
X016612Y002956D02*
X012742Y002956D01*
X012742Y002895D02*
X016612Y002895D01*
X016612Y002833D02*
X012742Y002833D01*
X012742Y002772D02*
X016612Y002772D01*
X016612Y002710D02*
X012742Y002710D01*
X012742Y002649D02*
X016612Y002649D01*
X016612Y002587D02*
X012742Y002587D01*
X012742Y002526D02*
X016612Y002526D01*
X016612Y002464D02*
X012742Y002464D01*
X012742Y002403D02*
X016612Y002403D01*
X016612Y002341D02*
X012742Y002341D01*
X012742Y002280D02*
X016612Y002280D01*
X016612Y002218D02*
X012742Y002218D01*
X012742Y002157D02*
X016612Y002157D01*
X016612Y002095D02*
X012742Y002095D01*
X012742Y002034D02*
X016612Y002034D01*
X016612Y001972D02*
X012742Y001972D01*
X012742Y001911D02*
X016612Y001911D01*
X016612Y001849D02*
X012742Y001849D01*
X012742Y001788D02*
X016612Y001788D01*
X016612Y001726D02*
X012742Y001726D01*
X012742Y001665D02*
X016612Y001665D01*
X016612Y001603D02*
X012742Y001603D01*
X012742Y001542D02*
X016612Y001542D01*
X016612Y001480D02*
X012742Y001480D01*
X012742Y001419D02*
X016612Y001419D01*
X016612Y001357D02*
X012742Y001357D01*
X012742Y001296D02*
X016612Y001296D01*
X016612Y001234D02*
X012742Y001234D01*
X012742Y001173D02*
X016612Y001173D01*
X016612Y001111D02*
X012742Y001111D01*
X012742Y001050D02*
X016612Y001050D01*
X016612Y000988D02*
X012742Y000988D01*
X012742Y000927D02*
X016612Y000927D01*
X016612Y000865D02*
X012742Y000865D01*
X012742Y000804D02*
X016612Y000804D01*
X016612Y000742D02*
X012742Y000742D01*
X012742Y000681D02*
X016612Y000681D01*
X016612Y000619D02*
X012742Y000619D01*
X012742Y000558D02*
X016612Y000558D01*
X016612Y000496D02*
X012742Y000496D01*
X012742Y000435D02*
X016612Y000435D01*
X016612Y000373D02*
X012742Y000373D01*
X012742Y000312D02*
X016612Y000312D01*
X012580Y000373D02*
X008612Y000373D01*
X008612Y000312D02*
X012564Y000312D01*
X012580Y000435D02*
X008612Y000435D01*
X008612Y000496D02*
X012564Y000496D01*
X012534Y000558D02*
X008638Y000558D01*
X008664Y000619D02*
X012509Y000619D01*
X012506Y000681D02*
X008666Y000681D01*
X008666Y000742D02*
X012506Y000742D01*
X012526Y000804D02*
X008646Y000804D01*
X008645Y000865D02*
X012551Y000865D01*
X012580Y000927D02*
X008706Y000927D01*
X008768Y000988D02*
X012580Y000988D01*
X012580Y001050D02*
X008829Y001050D01*
X008891Y001111D02*
X012580Y001111D01*
X012580Y001173D02*
X008952Y001173D01*
X009014Y001234D02*
X012580Y001234D01*
X012580Y001296D02*
X009075Y001296D01*
X009137Y001357D02*
X012580Y001357D01*
X012580Y001419D02*
X009198Y001419D01*
X009260Y001480D02*
X012580Y001480D01*
X012580Y001542D02*
X009321Y001542D01*
X009383Y001603D02*
X012580Y001603D01*
X012580Y001665D02*
X009444Y001665D01*
X009506Y001726D02*
X012580Y001726D01*
X012580Y001788D02*
X009567Y001788D01*
X009629Y001849D02*
X012580Y001849D01*
X012580Y001911D02*
X009690Y001911D01*
X009752Y001972D02*
X012580Y001972D01*
X012580Y002034D02*
X009813Y002034D01*
X009875Y002095D02*
X012580Y002095D01*
X012580Y002157D02*
X009936Y002157D01*
X009998Y002218D02*
X012580Y002218D01*
X012580Y002280D02*
X010059Y002280D01*
X010121Y002341D02*
X012580Y002341D01*
X012580Y002403D02*
X010182Y002403D01*
X010244Y002464D02*
X012580Y002464D01*
X012580Y002526D02*
X010305Y002526D01*
X010367Y002587D02*
X012580Y002587D01*
X012580Y002649D02*
X010428Y002649D01*
X010490Y002710D02*
X012580Y002710D01*
X012580Y002772D02*
X010551Y002772D01*
X010565Y002833D02*
X012580Y002833D01*
X012580Y002895D02*
X010565Y002895D01*
X010565Y002956D02*
X012580Y002956D01*
X012580Y003018D02*
X010565Y003018D01*
X010565Y003079D02*
X012580Y003079D01*
X012580Y003140D02*
X010565Y003140D01*
X010565Y003202D02*
X012580Y003202D01*
X012580Y003263D02*
X010565Y003263D01*
X010565Y003325D02*
X012580Y003325D01*
X012580Y003386D02*
X010565Y003386D01*
X010565Y003448D02*
X012580Y003448D01*
X012580Y003509D02*
X010565Y003509D01*
X010565Y003571D02*
X012580Y003571D01*
X012580Y003632D02*
X010565Y003632D01*
X010565Y003694D02*
X012580Y003694D01*
X012580Y003755D02*
X010565Y003755D01*
X010565Y003817D02*
X012580Y003817D01*
X012580Y003878D02*
X010565Y003878D01*
X010565Y003940D02*
X012580Y003940D01*
X012580Y004001D02*
X010565Y004001D01*
X010565Y004063D02*
X012602Y004063D01*
X012674Y004124D02*
X010565Y004124D01*
X010565Y004186D02*
X012747Y004186D01*
X012820Y004247D02*
X010565Y004247D01*
X010565Y004309D02*
X012892Y004309D01*
X012965Y004370D02*
X010565Y004370D01*
X010565Y004432D02*
X013038Y004432D01*
X013110Y004493D02*
X010565Y004493D01*
X008702Y004493D02*
X003788Y004493D01*
X003787Y004494D02*
X003610Y004494D01*
X003446Y004426D01*
X003321Y004301D01*
X003254Y004137D01*
X003254Y003960D01*
X003321Y003797D01*
X003446Y003672D01*
X003499Y003650D01*
X001494Y003667D01*
X001368Y003793D01*
X001368Y007222D01*
X003128Y007222D01*
X003821Y006529D01*
X006852Y006529D01*
X006946Y006624D01*
X006946Y007698D01*
X008702Y007698D01*
X008702Y003702D01*
X005458Y003702D01*
X005389Y003633D01*
X003889Y003646D01*
X003950Y003672D01*
X004076Y003797D01*
X004143Y003960D01*
X004143Y004137D01*
X004076Y004301D01*
X003950Y004426D01*
X003787Y004494D01*
X003936Y004432D02*
X008702Y004432D01*
X008702Y004370D02*
X004006Y004370D01*
X004068Y004309D02*
X008702Y004309D01*
X008702Y004247D02*
X004098Y004247D01*
X004123Y004186D02*
X008702Y004186D01*
X008702Y004124D02*
X004143Y004124D01*
X004143Y004063D02*
X008702Y004063D01*
X008702Y004001D02*
X004143Y004001D01*
X004135Y003940D02*
X008702Y003940D01*
X008702Y003878D02*
X004109Y003878D01*
X004084Y003817D02*
X008702Y003817D01*
X008702Y003755D02*
X004034Y003755D01*
X003973Y003694D02*
X005450Y003694D01*
X006334Y004716D02*
X006672Y004576D01*
X007039Y004576D01*
X007378Y004716D01*
X007638Y004975D01*
X007778Y005314D01*
X007778Y005681D01*
X007638Y006020D01*
X007378Y006279D01*
X007039Y006420D01*
X006672Y006420D01*
X006334Y006279D01*
X006074Y006020D01*
X005934Y005681D01*
X005934Y005314D01*
X006074Y004975D01*
X006334Y004716D01*
X006310Y004739D02*
X001368Y004739D01*
X001368Y004678D02*
X006426Y004678D01*
X006574Y004616D02*
X001368Y004616D01*
X001368Y004555D02*
X008702Y004555D01*
X008702Y004616D02*
X007138Y004616D01*
X007286Y004678D02*
X008702Y004678D01*
X008702Y004739D02*
X007402Y004739D01*
X007463Y004801D02*
X008702Y004801D01*
X008702Y004862D02*
X007525Y004862D01*
X007586Y004924D02*
X008702Y004924D01*
X008702Y004985D02*
X007642Y004985D01*
X007667Y005047D02*
X008702Y005047D01*
X008702Y005108D02*
X007693Y005108D01*
X007718Y005170D02*
X008702Y005170D01*
X008702Y005231D02*
X007744Y005231D01*
X007769Y005293D02*
X008702Y005293D01*
X008702Y005354D02*
X007778Y005354D01*
X007778Y005416D02*
X008702Y005416D01*
X008702Y005477D02*
X007778Y005477D01*
X007778Y005539D02*
X008702Y005539D01*
X008702Y005600D02*
X007778Y005600D01*
X007778Y005662D02*
X008702Y005662D01*
X008702Y005723D02*
X007761Y005723D01*
X007735Y005785D02*
X008702Y005785D01*
X008702Y005846D02*
X007710Y005846D01*
X007684Y005908D02*
X008702Y005908D01*
X008702Y005969D02*
X007659Y005969D01*
X007627Y006031D02*
X008702Y006031D01*
X008702Y006092D02*
X007565Y006092D01*
X007504Y006154D02*
X008702Y006154D01*
X008702Y006215D02*
X007442Y006215D01*
X007381Y006277D02*
X008702Y006277D01*
X008702Y006338D02*
X007236Y006338D01*
X007088Y006400D02*
X008702Y006400D01*
X008702Y006461D02*
X001368Y006461D01*
X001368Y006400D02*
X006624Y006400D01*
X006476Y006338D02*
X001368Y006338D01*
X001368Y006277D02*
X006331Y006277D01*
X006269Y006215D02*
X001368Y006215D01*
X001368Y006154D02*
X006208Y006154D01*
X006146Y006092D02*
X001368Y006092D01*
X001368Y006031D02*
X006085Y006031D01*
X006053Y005969D02*
X001368Y005969D01*
X001368Y005908D02*
X006028Y005908D01*
X006002Y005846D02*
X001368Y005846D01*
X001368Y005785D02*
X005977Y005785D01*
X005951Y005723D02*
X001368Y005723D01*
X001368Y005662D02*
X005934Y005662D01*
X005934Y005600D02*
X001368Y005600D01*
X001368Y005539D02*
X005934Y005539D01*
X005934Y005477D02*
X001368Y005477D01*
X001368Y005416D02*
X005934Y005416D01*
X005934Y005354D02*
X001368Y005354D01*
X001368Y005293D02*
X005943Y005293D01*
X005968Y005231D02*
X001368Y005231D01*
X001368Y005170D02*
X005994Y005170D01*
X006019Y005108D02*
X001368Y005108D01*
X001368Y005047D02*
X006045Y005047D01*
X006070Y004985D02*
X001368Y004985D01*
X001368Y004924D02*
X006126Y004924D01*
X006187Y004862D02*
X001368Y004862D01*
X001368Y004801D02*
X006249Y004801D01*
X003609Y004493D02*
X001368Y004493D01*
X001368Y004432D02*
X003460Y004432D01*
X003391Y004370D02*
X001368Y004370D01*
X001368Y004309D02*
X003329Y004309D01*
X003299Y004247D02*
X001368Y004247D01*
X001368Y004186D02*
X003274Y004186D01*
X003254Y004124D02*
X001368Y004124D01*
X001368Y004063D02*
X003254Y004063D01*
X003254Y004001D02*
X001368Y004001D01*
X001368Y003940D02*
X003262Y003940D01*
X003287Y003878D02*
X001368Y003878D01*
X001368Y003817D02*
X003313Y003817D01*
X003363Y003755D02*
X001405Y003755D01*
X001467Y003694D02*
X003424Y003694D01*
X003766Y006584D02*
X001368Y006584D01*
X001368Y006523D02*
X008702Y006523D01*
X008702Y006584D02*
X006907Y006584D01*
X006946Y006646D02*
X008702Y006646D01*
X008702Y006707D02*
X006946Y006707D01*
X006946Y006769D02*
X008702Y006769D01*
X008702Y006830D02*
X006946Y006830D01*
X006946Y006892D02*
X008702Y006892D01*
X008702Y006953D02*
X006946Y006953D01*
X006946Y007015D02*
X008702Y007015D01*
X008702Y007076D02*
X006946Y007076D01*
X006946Y007137D02*
X008702Y007137D01*
X008702Y007199D02*
X006946Y007199D01*
X006946Y007260D02*
X008702Y007260D01*
X008702Y007322D02*
X006946Y007322D01*
X006946Y007383D02*
X008702Y007383D01*
X008702Y007445D02*
X006946Y007445D01*
X006946Y007506D02*
X008702Y007506D01*
X008702Y007568D02*
X006946Y007568D01*
X006946Y007629D02*
X008702Y007629D01*
X008702Y007691D02*
X006946Y007691D01*
X006785Y007635D02*
X006785Y006691D01*
X004017Y006691D01*
X003883Y006824D01*
X003754Y006824D01*
X003194Y007383D01*
X002352Y007383D01*
X006785Y007383D01*
X006785Y007322D02*
X003256Y007322D01*
X003317Y007260D02*
X006785Y007260D01*
X006785Y007199D02*
X003379Y007199D01*
X003440Y007137D02*
X006785Y007137D01*
X006785Y007076D02*
X003502Y007076D01*
X003563Y007015D02*
X006785Y007015D01*
X006785Y006953D02*
X003625Y006953D01*
X003686Y006892D02*
X006785Y006892D01*
X006785Y006830D02*
X003748Y006830D01*
X003643Y006707D02*
X001368Y006707D01*
X001368Y006646D02*
X003704Y006646D01*
X003581Y006769D02*
X001368Y006769D01*
X001368Y006830D02*
X003520Y006830D01*
X003458Y006892D02*
X001368Y006892D01*
X001368Y006953D02*
X003397Y006953D01*
X003335Y007015D02*
X001368Y007015D01*
X001368Y007076D02*
X003274Y007076D01*
X003212Y007137D02*
X001368Y007137D01*
X001368Y007199D02*
X003151Y007199D01*
X002352Y007383D02*
X002314Y007422D01*
X002189Y007473D01*
X002054Y007473D01*
X001929Y007422D01*
X001891Y007383D01*
X001852Y007383D01*
X001814Y007422D01*
X001689Y007473D01*
X001554Y007473D01*
X001429Y007422D01*
X001391Y007383D01*
X001383Y007383D01*
X001383Y010225D01*
X001522Y010392D01*
X002491Y010392D01*
X003254Y009630D01*
X003254Y009526D01*
X003514Y009265D01*
X003883Y009265D01*
X004143Y009526D01*
X004143Y009895D01*
X003883Y010155D01*
X003661Y010155D01*
X003346Y010470D01*
X003950Y010470D01*
X006785Y007635D01*
X006785Y007629D02*
X001383Y007629D01*
X001383Y007568D02*
X006785Y007568D01*
X006785Y007506D02*
X001383Y007506D01*
X001383Y007445D02*
X001485Y007445D01*
X001391Y007383D02*
X001383Y007383D01*
X001758Y007445D02*
X001985Y007445D01*
X001891Y007383D02*
X001852Y007383D01*
X002258Y007445D02*
X006785Y007445D01*
X006730Y007691D02*
X001383Y007691D01*
X001383Y007752D02*
X006668Y007752D01*
X006607Y007814D02*
X001383Y007814D01*
X001383Y007875D02*
X006545Y007875D01*
X006484Y007937D02*
X001383Y007937D01*
X001383Y007998D02*
X006422Y007998D01*
X006361Y008060D02*
X001383Y008060D01*
X001383Y008121D02*
X006299Y008121D01*
X006238Y008183D02*
X001383Y008183D01*
X001383Y008244D02*
X006176Y008244D01*
X006115Y008306D02*
X001383Y008306D01*
X001383Y008367D02*
X006053Y008367D01*
X005992Y008429D02*
X001383Y008429D01*
X001383Y008490D02*
X005930Y008490D01*
X005869Y008552D02*
X001383Y008552D01*
X001383Y008613D02*
X005807Y008613D01*
X005746Y008675D02*
X001383Y008675D01*
X001383Y008736D02*
X005684Y008736D01*
X005623Y008798D02*
X001383Y008798D01*
X001383Y008859D02*
X005561Y008859D01*
X005500Y008921D02*
X001383Y008921D01*
X001383Y008982D02*
X005438Y008982D01*
X005377Y009044D02*
X001383Y009044D01*
X001383Y009105D02*
X005315Y009105D01*
X005254Y009167D02*
X001383Y009167D01*
X001383Y009228D02*
X005192Y009228D01*
X005131Y009290D02*
X003907Y009290D01*
X003969Y009351D02*
X005069Y009351D01*
X005008Y009413D02*
X004030Y009413D01*
X004092Y009474D02*
X004946Y009474D01*
X004885Y009536D02*
X004143Y009536D01*
X004143Y009597D02*
X004823Y009597D01*
X004762Y009659D02*
X004143Y009659D01*
X004143Y009720D02*
X004700Y009720D01*
X004639Y009782D02*
X004143Y009782D01*
X004143Y009843D02*
X004577Y009843D01*
X004516Y009905D02*
X004133Y009905D01*
X004072Y009966D02*
X004454Y009966D01*
X004393Y010028D02*
X004010Y010028D01*
X003949Y010089D02*
X004331Y010089D01*
X004270Y010151D02*
X003887Y010151D01*
X004147Y010274D02*
X003543Y010274D01*
X003604Y010212D02*
X004208Y010212D01*
X004085Y010335D02*
X003481Y010335D01*
X003420Y010397D02*
X004024Y010397D01*
X003962Y010458D02*
X003358Y010458D01*
X002855Y010028D02*
X001383Y010028D01*
X001383Y010089D02*
X002794Y010089D01*
X002732Y010151D02*
X001383Y010151D01*
X001383Y010212D02*
X002671Y010212D01*
X002609Y010274D02*
X001423Y010274D01*
X001475Y010335D02*
X002548Y010335D01*
X002917Y009966D02*
X001383Y009966D01*
X001383Y009905D02*
X002978Y009905D01*
X003040Y009843D02*
X001383Y009843D01*
X001383Y009782D02*
X003101Y009782D01*
X003163Y009720D02*
X001383Y009720D01*
X001383Y009659D02*
X003224Y009659D01*
X003254Y009597D02*
X001383Y009597D01*
X001383Y009536D02*
X003254Y009536D01*
X003305Y009474D02*
X001383Y009474D01*
X001383Y009413D02*
X003367Y009413D01*
X003428Y009351D02*
X001383Y009351D01*
X001383Y009290D02*
X003490Y009290D01*
X003939Y006769D02*
X006785Y006769D01*
X006785Y006707D02*
X004000Y006707D01*
X008423Y010407D02*
X008801Y010785D01*
X018817Y010848D01*
X018943Y010722D01*
X018943Y010533D01*
X019257Y010218D01*
X019257Y007108D01*
X019732Y006633D01*
X020232Y006633D02*
X020832Y007234D01*
X020832Y010344D01*
X020076Y011100D01*
X019320Y011100D01*
X019069Y011352D01*
X013021Y011352D01*
X012580Y011793D01*
X008297Y011856D01*
X007982Y011541D01*
X008612Y011478D02*
X009116Y010974D01*
X018880Y010974D01*
X019069Y010785D01*
X019069Y010596D01*
X019383Y010281D01*
X019383Y007482D01*
X019732Y007133D01*
X020232Y007133D02*
X020706Y007608D01*
X020706Y010281D01*
X020013Y010974D01*
X019257Y010974D01*
X019006Y011226D01*
X011572Y011226D01*
X011257Y011604D01*
X010880Y011604D02*
X011320Y011100D01*
X018943Y011100D01*
X019320Y010722D01*
X016108Y009336D02*
X015982Y009462D01*
X015982Y010470D01*
X015604Y010470D02*
X015604Y009651D01*
X015982Y009273D01*
X015982Y007572D01*
X018817Y004738D01*
X019628Y004738D01*
X019732Y004633D01*
X019895Y004297D02*
X020232Y004633D01*
X020580Y004486D02*
X020580Y004785D01*
X020232Y005133D01*
X019732Y005133D02*
X019714Y005116D01*
X018628Y005116D01*
X016108Y007635D01*
X016108Y009336D01*
X015856Y009210D02*
X015226Y009840D01*
X015226Y010470D01*
X014848Y010470D02*
X014848Y010029D01*
X015730Y009147D01*
X015730Y007446D01*
X019006Y004171D01*
X020265Y004171D01*
X020580Y004486D01*
X019895Y004297D02*
X019069Y004297D01*
X015856Y007509D01*
X015856Y009210D01*
X014092Y009273D02*
X014092Y008832D01*
X013714Y008706D02*
X013651Y008706D01*
X012076Y010281D01*
X011698Y010281D02*
X013336Y008643D01*
X013336Y008580D01*
X014092Y009273D02*
X012895Y010470D01*
X012742Y007568D02*
X013782Y007568D01*
X013843Y007506D02*
X012742Y007506D01*
X012742Y007445D02*
X013905Y007445D01*
X013966Y007383D02*
X012742Y007383D01*
X012742Y007322D02*
X014028Y007322D01*
X014089Y007260D02*
X012742Y007260D01*
X012742Y007199D02*
X014151Y007199D01*
X014212Y007137D02*
X012742Y007137D01*
X012742Y007076D02*
X014274Y007076D01*
X014335Y007015D02*
X012742Y007015D01*
X012742Y006953D02*
X014397Y006953D01*
X014458Y006892D02*
X012742Y006892D01*
D17*
X013336Y008580D03*
X013714Y008706D03*
X014092Y008832D03*
X014848Y009570D03*
X014848Y010470D03*
X015226Y010470D03*
X015604Y010470D03*
X015982Y010470D03*
X013399Y010470D03*
X012895Y010470D03*
X012076Y010281D03*
X011698Y010281D03*
X010313Y009210D03*
X008423Y010407D03*
X009431Y010533D03*
X008612Y011478D03*
X007982Y011541D03*
X005966Y010155D03*
X007415Y009966D03*
X010880Y011604D03*
X011257Y011604D03*
X019320Y010722D03*
D18*
X014848Y009570D02*
X014029Y010452D01*
X013399Y010470D01*
X010313Y009210D02*
X009431Y010155D01*
X009431Y010533D01*
X007415Y009966D02*
X007226Y010155D01*
X005966Y010155D01*
D19*
X003698Y009710D02*
X003639Y009710D01*
X002628Y010722D01*
X001368Y010722D01*
X001053Y010344D01*
X001053Y007202D01*
X001622Y006633D01*
D20*
X002462Y002659D03*
X002462Y012108D03*
X020179Y012108D03*
X020179Y002659D03*
M02*
