G75*
%MOIN*%
%OFA0B0*%
%FSLAX25Y25*%
%IPPOS*%
%LPD*%
%AMOC8*
5,1,8,0,0,1.08239X$1,22.5*
%
%ADD10R,0.06024X0.06024*%
%ADD11C,0.06024*%
%ADD12R,0.02362X0.06102*%
%ADD13R,0.04724X0.07087*%
%ADD14C,0.04200*%
%ADD15C,0.04000*%
%ADD16OC8,0.06300*%
%ADD17C,0.06300*%
%ADD18C,0.02400*%
%ADD19C,0.02381*%
%ADD20C,0.00630*%
%ADD21C,0.00600*%
%ADD22C,0.15811*%
D10*
X0074686Y0071984D03*
X0131261Y0071945D03*
D11*
X0119450Y0071945D03*
X0107639Y0071945D03*
X0062875Y0071984D03*
D12*
X0062914Y0110469D03*
X0058977Y0110469D03*
X0055040Y0110469D03*
X0051103Y0110469D03*
X0047166Y0110469D03*
X0043229Y0110469D03*
X0078190Y0110469D03*
X0082127Y0110469D03*
X0086064Y0110469D03*
X0090001Y0110469D03*
X0093938Y0110469D03*
X0109174Y0110469D03*
X0113111Y0110469D03*
X0117048Y0110469D03*
X0120985Y0110469D03*
X0124922Y0110469D03*
X0128859Y0110469D03*
X0132796Y0110469D03*
X0148150Y0110508D03*
X0152087Y0110508D03*
X0156024Y0110508D03*
X0159961Y0110508D03*
X0176969Y0114760D03*
X0180906Y0114760D03*
D13*
X0187206Y0125882D03*
X0170670Y0125882D03*
X0165080Y0125764D03*
X0143032Y0125764D03*
X0137914Y0125724D03*
X0104056Y0125724D03*
X0099056Y0125724D03*
X0073072Y0125724D03*
X0068032Y0125724D03*
X0038111Y0125724D03*
D14*
X0021438Y0101335D03*
X0016438Y0101335D03*
X0016438Y0096335D03*
X0021438Y0096335D03*
X0021438Y0091335D03*
X0016438Y0091335D03*
X0016438Y0086335D03*
X0021438Y0086335D03*
X0021438Y0081335D03*
X0016438Y0081335D03*
X0016438Y0076335D03*
X0021438Y0076335D03*
X0021438Y0071335D03*
X0016438Y0071335D03*
X0016438Y0066335D03*
X0021438Y0066335D03*
X0021438Y0061335D03*
X0016438Y0061335D03*
X0016438Y0056335D03*
X0021438Y0056335D03*
X0021438Y0051335D03*
X0016438Y0051335D03*
X0016438Y0046335D03*
X0021438Y0046335D03*
X0197540Y0046335D03*
X0202540Y0046335D03*
X0202540Y0051335D03*
X0197540Y0051335D03*
X0197540Y0056335D03*
X0202540Y0056335D03*
X0202540Y0061335D03*
X0197540Y0061335D03*
X0197540Y0066335D03*
X0202540Y0066335D03*
X0202540Y0071335D03*
X0197540Y0071335D03*
X0197540Y0076335D03*
X0202540Y0076335D03*
X0202540Y0081335D03*
X0197540Y0081335D03*
X0197540Y0086335D03*
X0202540Y0086335D03*
X0202540Y0091335D03*
X0197540Y0091335D03*
X0197540Y0096335D03*
X0202540Y0096335D03*
X0202540Y0101335D03*
X0197540Y0101335D03*
D15*
X0163583Y0006906D03*
X0158583Y0006906D03*
X0153583Y0006906D03*
X0148583Y0006906D03*
X0143583Y0006906D03*
X0138583Y0006906D03*
X0133583Y0006906D03*
X0128583Y0006906D03*
X0123583Y0006906D03*
X0118583Y0006906D03*
X0113583Y0006906D03*
X0108583Y0006906D03*
X0103583Y0006906D03*
X0098583Y0006906D03*
X0093583Y0006906D03*
X0088583Y0006906D03*
X0083583Y0006906D03*
X0078583Y0006906D03*
X0073583Y0006906D03*
X0068583Y0006906D03*
X0063583Y0006906D03*
X0058583Y0006906D03*
X0053583Y0006906D03*
X0048583Y0006906D03*
X0043583Y0006906D03*
D16*
X0037206Y0050488D03*
X0037206Y0063795D03*
X0037206Y0097102D03*
D17*
X0037206Y0087102D03*
X0037206Y0073795D03*
X0037206Y0040488D03*
D18*
X0103347Y0092102D02*
X0104115Y0091335D01*
X0197540Y0091335D01*
X0202540Y0091335D01*
X0202540Y0096335D02*
X0197540Y0096335D01*
X0149961Y0096335D01*
X0148702Y0095705D01*
X0065099Y0095705D01*
X0062914Y0097890D01*
X0062914Y0110469D01*
X0058977Y0110469D02*
X0058977Y0103087D01*
X0059883Y0101551D01*
X0074371Y0099661D02*
X0098938Y0099661D01*
X0090001Y0099780D01*
X0090001Y0110469D01*
X0093938Y0110469D02*
X0094528Y0109799D01*
X0094528Y0105331D01*
X0098938Y0099661D02*
X0123505Y0099661D01*
X0125709Y0101866D01*
X0124922Y0103283D01*
X0124922Y0110469D01*
X0132796Y0110469D02*
X0132796Y0106118D01*
X0134213Y0104701D01*
X0127501Y0101335D02*
X0125709Y0101866D01*
X0127501Y0101335D02*
X0176418Y0101335D01*
X0197540Y0101335D01*
X0202540Y0101335D01*
D19*
X0193426Y0107220D03*
X0160040Y0104701D03*
X0156261Y0104701D03*
X0152481Y0104701D03*
X0148702Y0104701D03*
X0134213Y0104701D03*
X0129174Y0104701D03*
X0120985Y0102811D03*
X0117206Y0102811D03*
X0103347Y0092102D03*
X0084450Y0104071D03*
X0094528Y0105331D03*
X0086339Y0114780D03*
X0080040Y0115409D03*
X0059883Y0101551D03*
X0074371Y0099661D03*
X0109017Y0116039D03*
X0112796Y0116039D03*
X0148702Y0095705D03*
X0141143Y0088323D03*
X0137363Y0087063D03*
X0133583Y0085803D03*
D20*
X0040985Y0020921D02*
X0040985Y0003283D01*
X0041615Y0002654D01*
X0084725Y0002654D01*
X0084725Y0008991D01*
X0085671Y0009937D01*
X0104253Y0028519D01*
X0104253Y0061905D01*
X0105198Y0062850D01*
X0105198Y0062850D01*
X0111182Y0068834D01*
X0111182Y0076393D01*
X0111773Y0076984D01*
X0088859Y0076984D01*
X0088859Y0035409D01*
X0055845Y0035409D01*
X0055506Y0035070D01*
X0055134Y0035070D01*
X0040985Y0020921D01*
X0041110Y0021046D02*
X0096780Y0021046D01*
X0096152Y0020418D02*
X0040985Y0020418D01*
X0040985Y0019789D02*
X0095523Y0019789D01*
X0094895Y0019161D02*
X0040985Y0019161D01*
X0040985Y0018533D02*
X0094266Y0018533D01*
X0093638Y0017904D02*
X0040985Y0017904D01*
X0040985Y0017276D02*
X0093009Y0017276D01*
X0092381Y0016647D02*
X0040985Y0016647D01*
X0040985Y0016019D02*
X0091753Y0016019D01*
X0091124Y0015390D02*
X0040985Y0015390D01*
X0040985Y0014762D02*
X0090496Y0014762D01*
X0089867Y0014134D02*
X0040985Y0014134D01*
X0040985Y0013505D02*
X0089239Y0013505D01*
X0088610Y0012877D02*
X0040985Y0012877D01*
X0040985Y0012248D02*
X0087982Y0012248D01*
X0087354Y0011620D02*
X0040985Y0011620D01*
X0040985Y0010991D02*
X0086725Y0010991D01*
X0086097Y0010363D02*
X0040985Y0010363D01*
X0040985Y0009735D02*
X0085468Y0009735D01*
X0084840Y0009106D02*
X0040985Y0009106D01*
X0040985Y0008478D02*
X0084725Y0008478D01*
X0084725Y0007849D02*
X0040985Y0007849D01*
X0040985Y0007221D02*
X0084725Y0007221D01*
X0084725Y0006592D02*
X0040985Y0006592D01*
X0040985Y0005964D02*
X0084725Y0005964D01*
X0084725Y0005335D02*
X0040985Y0005335D01*
X0040985Y0004707D02*
X0084725Y0004707D01*
X0084725Y0004079D02*
X0040985Y0004079D01*
X0040985Y0003450D02*
X0084725Y0003450D01*
X0084725Y0002822D02*
X0041447Y0002822D01*
X0041739Y0021675D02*
X0097409Y0021675D01*
X0098037Y0022303D02*
X0042367Y0022303D01*
X0042995Y0022932D02*
X0098665Y0022932D01*
X0099294Y0023560D02*
X0043624Y0023560D01*
X0044252Y0024188D02*
X0099922Y0024188D01*
X0100551Y0024817D02*
X0044881Y0024817D01*
X0045509Y0025445D02*
X0101179Y0025445D01*
X0101808Y0026074D02*
X0046138Y0026074D01*
X0046766Y0026702D02*
X0102436Y0026702D01*
X0103064Y0027331D02*
X0047394Y0027331D01*
X0048023Y0027959D02*
X0103693Y0027959D01*
X0104253Y0028587D02*
X0048651Y0028587D01*
X0049280Y0029216D02*
X0104253Y0029216D01*
X0104253Y0029844D02*
X0049908Y0029844D01*
X0050537Y0030473D02*
X0104253Y0030473D01*
X0104253Y0031101D02*
X0051165Y0031101D01*
X0051793Y0031730D02*
X0104253Y0031730D01*
X0104253Y0032358D02*
X0052422Y0032358D01*
X0053050Y0032987D02*
X0104253Y0032987D01*
X0104253Y0033615D02*
X0053679Y0033615D01*
X0054307Y0034243D02*
X0104253Y0034243D01*
X0104253Y0034872D02*
X0054936Y0034872D01*
X0088859Y0035500D02*
X0104253Y0035500D01*
X0104253Y0036129D02*
X0088859Y0036129D01*
X0088859Y0036757D02*
X0104253Y0036757D01*
X0104253Y0037386D02*
X0088859Y0037386D01*
X0088859Y0038014D02*
X0104253Y0038014D01*
X0104253Y0038642D02*
X0088859Y0038642D01*
X0088859Y0039271D02*
X0104253Y0039271D01*
X0104253Y0039899D02*
X0088859Y0039899D01*
X0088859Y0040528D02*
X0104253Y0040528D01*
X0104253Y0041156D02*
X0088859Y0041156D01*
X0088859Y0041785D02*
X0104253Y0041785D01*
X0104253Y0042413D02*
X0088859Y0042413D01*
X0088859Y0043041D02*
X0104253Y0043041D01*
X0104253Y0043670D02*
X0088859Y0043670D01*
X0088859Y0044298D02*
X0104253Y0044298D01*
X0104253Y0044927D02*
X0088859Y0044927D01*
X0088859Y0045555D02*
X0104253Y0045555D01*
X0104253Y0046184D02*
X0088859Y0046184D01*
X0088859Y0046812D02*
X0104253Y0046812D01*
X0104253Y0047440D02*
X0088859Y0047440D01*
X0088859Y0048069D02*
X0104253Y0048069D01*
X0104253Y0048697D02*
X0088859Y0048697D01*
X0088859Y0049326D02*
X0104253Y0049326D01*
X0104253Y0049954D02*
X0088859Y0049954D01*
X0088859Y0050583D02*
X0104253Y0050583D01*
X0104253Y0051211D02*
X0088859Y0051211D01*
X0088859Y0051840D02*
X0104253Y0051840D01*
X0104253Y0052468D02*
X0088859Y0052468D01*
X0088859Y0053096D02*
X0104253Y0053096D01*
X0104253Y0053725D02*
X0088859Y0053725D01*
X0088859Y0054353D02*
X0104253Y0054353D01*
X0104253Y0054982D02*
X0088859Y0054982D01*
X0088859Y0055610D02*
X0104253Y0055610D01*
X0104253Y0056239D02*
X0088859Y0056239D01*
X0088859Y0056867D02*
X0104253Y0056867D01*
X0104253Y0057495D02*
X0088859Y0057495D01*
X0088859Y0058124D02*
X0104253Y0058124D01*
X0104253Y0058752D02*
X0088859Y0058752D01*
X0088859Y0059381D02*
X0104253Y0059381D01*
X0104253Y0060009D02*
X0088859Y0060009D01*
X0088859Y0060638D02*
X0104253Y0060638D01*
X0104253Y0061266D02*
X0088859Y0061266D01*
X0088859Y0061894D02*
X0104253Y0061894D01*
X0104871Y0062523D02*
X0088859Y0062523D01*
X0088859Y0063151D02*
X0105499Y0063151D01*
X0106128Y0063780D02*
X0088859Y0063780D01*
X0088859Y0064408D02*
X0106756Y0064408D01*
X0107385Y0065037D02*
X0088859Y0065037D01*
X0088859Y0065665D02*
X0108013Y0065665D01*
X0108641Y0066293D02*
X0088859Y0066293D01*
X0088859Y0066922D02*
X0109270Y0066922D01*
X0109898Y0067550D02*
X0088859Y0067550D01*
X0088859Y0068179D02*
X0110527Y0068179D01*
X0111155Y0068807D02*
X0088859Y0068807D01*
X0088859Y0069436D02*
X0111182Y0069436D01*
X0111182Y0070064D02*
X0088859Y0070064D01*
X0088859Y0070692D02*
X0111182Y0070692D01*
X0111182Y0071321D02*
X0088859Y0071321D01*
X0088859Y0071949D02*
X0111182Y0071949D01*
X0111182Y0072578D02*
X0088859Y0072578D01*
X0088859Y0073206D02*
X0111182Y0073206D01*
X0111182Y0073835D02*
X0088859Y0073835D01*
X0088859Y0074463D02*
X0111182Y0074463D01*
X0111182Y0075092D02*
X0088859Y0075092D01*
X0088859Y0075720D02*
X0111182Y0075720D01*
X0111182Y0076348D02*
X0088859Y0076348D01*
X0088859Y0076977D02*
X0111766Y0076977D01*
X0112796Y0075724D02*
X0126024Y0075724D01*
X0126024Y0067535D01*
X0134213Y0060606D01*
X0134213Y0047378D01*
X0126024Y0040449D01*
X0126024Y0009012D01*
X0125787Y0008774D01*
X0125284Y0007562D01*
X0125284Y0006249D01*
X0125787Y0005037D01*
X0126024Y0004799D01*
X0126024Y0003283D01*
X0125394Y0002654D01*
X0086339Y0002654D01*
X0086339Y0004996D01*
X0086380Y0005037D01*
X0086883Y0006249D01*
X0086883Y0007562D01*
X0086501Y0008484D01*
X0105867Y0027850D01*
X0105867Y0061236D01*
X0112796Y0068165D01*
X0112796Y0075724D01*
X0112796Y0075720D02*
X0126024Y0075720D01*
X0126024Y0075092D02*
X0112796Y0075092D01*
X0112796Y0074463D02*
X0126024Y0074463D01*
X0126024Y0073835D02*
X0112796Y0073835D01*
X0112796Y0073206D02*
X0126024Y0073206D01*
X0126024Y0072578D02*
X0112796Y0072578D01*
X0112796Y0071949D02*
X0126024Y0071949D01*
X0126024Y0071321D02*
X0112796Y0071321D01*
X0112796Y0070692D02*
X0126024Y0070692D01*
X0126024Y0070064D02*
X0112796Y0070064D01*
X0112796Y0069436D02*
X0126024Y0069436D01*
X0126024Y0068807D02*
X0112796Y0068807D01*
X0112796Y0068179D02*
X0126024Y0068179D01*
X0126024Y0067550D02*
X0112181Y0067550D01*
X0111553Y0066922D02*
X0126750Y0066922D01*
X0127492Y0066293D02*
X0110924Y0066293D01*
X0110296Y0065665D02*
X0128235Y0065665D01*
X0128978Y0065037D02*
X0109667Y0065037D01*
X0109039Y0064408D02*
X0129720Y0064408D01*
X0130463Y0063780D02*
X0122196Y0063780D01*
X0121284Y0064157D02*
X0117616Y0064157D01*
X0114227Y0062754D01*
X0111633Y0060160D01*
X0110229Y0056771D01*
X0110229Y0053103D01*
X0111633Y0049714D01*
X0114227Y0047120D01*
X0117616Y0045717D01*
X0121284Y0045717D01*
X0124673Y0047120D01*
X0127266Y0049714D01*
X0128670Y0053103D01*
X0128670Y0056771D01*
X0127266Y0060160D01*
X0124673Y0062754D01*
X0121284Y0064157D01*
X0123713Y0063151D02*
X0131206Y0063151D01*
X0131948Y0062523D02*
X0124903Y0062523D01*
X0125532Y0061894D02*
X0132691Y0061894D01*
X0133434Y0061266D02*
X0126160Y0061266D01*
X0126789Y0060638D02*
X0134176Y0060638D01*
X0134213Y0060009D02*
X0127329Y0060009D01*
X0127589Y0059381D02*
X0134213Y0059381D01*
X0134213Y0058752D02*
X0127849Y0058752D01*
X0128110Y0058124D02*
X0134213Y0058124D01*
X0134213Y0057495D02*
X0128370Y0057495D01*
X0128630Y0056867D02*
X0134213Y0056867D01*
X0134213Y0056239D02*
X0128670Y0056239D01*
X0128670Y0055610D02*
X0134213Y0055610D01*
X0134213Y0054982D02*
X0128670Y0054982D01*
X0128670Y0054353D02*
X0134213Y0054353D01*
X0134213Y0053725D02*
X0128670Y0053725D01*
X0128667Y0053096D02*
X0134213Y0053096D01*
X0134213Y0052468D02*
X0128407Y0052468D01*
X0128147Y0051840D02*
X0134213Y0051840D01*
X0134213Y0051211D02*
X0127886Y0051211D01*
X0127626Y0050583D02*
X0134213Y0050583D01*
X0134213Y0049954D02*
X0127366Y0049954D01*
X0126878Y0049326D02*
X0134213Y0049326D01*
X0134213Y0048697D02*
X0126250Y0048697D01*
X0125621Y0048069D02*
X0134213Y0048069D01*
X0134213Y0047440D02*
X0124993Y0047440D01*
X0123928Y0046812D02*
X0133545Y0046812D01*
X0132802Y0046184D02*
X0122411Y0046184D01*
X0116488Y0046184D02*
X0105867Y0046184D01*
X0105867Y0046812D02*
X0114971Y0046812D01*
X0113906Y0047440D02*
X0105867Y0047440D01*
X0105867Y0048069D02*
X0113278Y0048069D01*
X0112650Y0048697D02*
X0105867Y0048697D01*
X0105867Y0049326D02*
X0112021Y0049326D01*
X0111533Y0049954D02*
X0105867Y0049954D01*
X0105867Y0050583D02*
X0111273Y0050583D01*
X0111013Y0051211D02*
X0105867Y0051211D01*
X0105867Y0051840D02*
X0110752Y0051840D01*
X0110492Y0052468D02*
X0105867Y0052468D01*
X0105867Y0053096D02*
X0110232Y0053096D01*
X0110229Y0053725D02*
X0105867Y0053725D01*
X0105867Y0054353D02*
X0110229Y0054353D01*
X0110229Y0054982D02*
X0105867Y0054982D01*
X0105867Y0055610D02*
X0110229Y0055610D01*
X0110229Y0056239D02*
X0105867Y0056239D01*
X0105867Y0056867D02*
X0110269Y0056867D01*
X0110529Y0057495D02*
X0105867Y0057495D01*
X0105867Y0058124D02*
X0110789Y0058124D01*
X0111050Y0058752D02*
X0105867Y0058752D01*
X0105867Y0059381D02*
X0111310Y0059381D01*
X0111570Y0060009D02*
X0105867Y0060009D01*
X0105867Y0060638D02*
X0112110Y0060638D01*
X0112739Y0061266D02*
X0105897Y0061266D01*
X0106525Y0061894D02*
X0113367Y0061894D01*
X0113996Y0062523D02*
X0107154Y0062523D01*
X0107782Y0063151D02*
X0115186Y0063151D01*
X0116704Y0063780D02*
X0108410Y0063780D01*
X0127639Y0068284D02*
X0127639Y0075724D01*
X0137993Y0075724D01*
X0166339Y0047378D01*
X0166339Y0002654D01*
X0127639Y0002654D01*
X0127639Y0039700D01*
X0134805Y0045764D01*
X0134882Y0045764D01*
X0135307Y0046189D01*
X0135766Y0046578D01*
X0135773Y0046655D01*
X0135828Y0046709D01*
X0135828Y0047311D01*
X0135877Y0047910D01*
X0135828Y0047969D01*
X0135828Y0060015D01*
X0135877Y0060074D01*
X0135828Y0060673D01*
X0135828Y0061275D01*
X0135773Y0061330D01*
X0135766Y0061407D01*
X0135307Y0061795D01*
X0134882Y0062220D01*
X0134805Y0062220D01*
X0127639Y0068284D01*
X0127763Y0068179D02*
X0145539Y0068179D01*
X0146167Y0067550D02*
X0128506Y0067550D01*
X0129248Y0066922D02*
X0146795Y0066922D01*
X0147424Y0066293D02*
X0129991Y0066293D01*
X0130734Y0065665D02*
X0148052Y0065665D01*
X0148681Y0065037D02*
X0131477Y0065037D01*
X0132219Y0064408D02*
X0149309Y0064408D01*
X0149938Y0063780D02*
X0132962Y0063780D01*
X0133705Y0063151D02*
X0150566Y0063151D01*
X0151194Y0062523D02*
X0134447Y0062523D01*
X0135208Y0061894D02*
X0151823Y0061894D01*
X0152451Y0061266D02*
X0135828Y0061266D01*
X0135831Y0060638D02*
X0153080Y0060638D01*
X0153708Y0060009D02*
X0135828Y0060009D01*
X0135828Y0059381D02*
X0154337Y0059381D01*
X0154965Y0058752D02*
X0135828Y0058752D01*
X0135828Y0058124D02*
X0155593Y0058124D01*
X0156222Y0057495D02*
X0135828Y0057495D01*
X0135828Y0056867D02*
X0156850Y0056867D01*
X0157479Y0056239D02*
X0135828Y0056239D01*
X0135828Y0055610D02*
X0158107Y0055610D01*
X0158736Y0054982D02*
X0135828Y0054982D01*
X0135828Y0054353D02*
X0159364Y0054353D01*
X0159993Y0053725D02*
X0135828Y0053725D01*
X0135828Y0053096D02*
X0160621Y0053096D01*
X0161249Y0052468D02*
X0135828Y0052468D01*
X0135828Y0051840D02*
X0161878Y0051840D01*
X0162506Y0051211D02*
X0135828Y0051211D01*
X0135828Y0050583D02*
X0163135Y0050583D01*
X0163763Y0049954D02*
X0135828Y0049954D01*
X0135828Y0049326D02*
X0164392Y0049326D01*
X0165020Y0048697D02*
X0135828Y0048697D01*
X0135828Y0048069D02*
X0165648Y0048069D01*
X0166277Y0047440D02*
X0135838Y0047440D01*
X0135828Y0046812D02*
X0166339Y0046812D01*
X0166339Y0046184D02*
X0135302Y0046184D01*
X0134558Y0045555D02*
X0166339Y0045555D01*
X0166339Y0044927D02*
X0133815Y0044927D01*
X0133073Y0044298D02*
X0166339Y0044298D01*
X0166339Y0043670D02*
X0132330Y0043670D01*
X0131587Y0043041D02*
X0166339Y0043041D01*
X0166339Y0042413D02*
X0130845Y0042413D01*
X0130102Y0041785D02*
X0166339Y0041785D01*
X0166339Y0041156D02*
X0129359Y0041156D01*
X0128617Y0040528D02*
X0166339Y0040528D01*
X0166339Y0039899D02*
X0127874Y0039899D01*
X0127639Y0039271D02*
X0166339Y0039271D01*
X0166339Y0038642D02*
X0127639Y0038642D01*
X0127639Y0038014D02*
X0166339Y0038014D01*
X0166339Y0037386D02*
X0127639Y0037386D01*
X0127639Y0036757D02*
X0166339Y0036757D01*
X0166339Y0036129D02*
X0127639Y0036129D01*
X0127639Y0035500D02*
X0166339Y0035500D01*
X0166339Y0034872D02*
X0127639Y0034872D01*
X0127639Y0034243D02*
X0166339Y0034243D01*
X0166339Y0033615D02*
X0127639Y0033615D01*
X0127639Y0032987D02*
X0166339Y0032987D01*
X0166339Y0032358D02*
X0127639Y0032358D01*
X0127639Y0031730D02*
X0166339Y0031730D01*
X0166339Y0031101D02*
X0127639Y0031101D01*
X0127639Y0030473D02*
X0166339Y0030473D01*
X0166339Y0029844D02*
X0127639Y0029844D01*
X0127639Y0029216D02*
X0166339Y0029216D01*
X0166339Y0028587D02*
X0127639Y0028587D01*
X0127639Y0027959D02*
X0166339Y0027959D01*
X0166339Y0027331D02*
X0127639Y0027331D01*
X0127639Y0026702D02*
X0166339Y0026702D01*
X0166339Y0026074D02*
X0127639Y0026074D01*
X0127639Y0025445D02*
X0166339Y0025445D01*
X0166339Y0024817D02*
X0127639Y0024817D01*
X0127639Y0024188D02*
X0166339Y0024188D01*
X0166339Y0023560D02*
X0127639Y0023560D01*
X0127639Y0022932D02*
X0166339Y0022932D01*
X0166339Y0022303D02*
X0127639Y0022303D01*
X0127639Y0021675D02*
X0166339Y0021675D01*
X0166339Y0021046D02*
X0127639Y0021046D01*
X0127639Y0020418D02*
X0166339Y0020418D01*
X0166339Y0019789D02*
X0127639Y0019789D01*
X0127639Y0019161D02*
X0166339Y0019161D01*
X0166339Y0018533D02*
X0127639Y0018533D01*
X0127639Y0017904D02*
X0166339Y0017904D01*
X0166339Y0017276D02*
X0127639Y0017276D01*
X0127639Y0016647D02*
X0166339Y0016647D01*
X0166339Y0016019D02*
X0127639Y0016019D01*
X0127639Y0015390D02*
X0166339Y0015390D01*
X0166339Y0014762D02*
X0127639Y0014762D01*
X0127639Y0014134D02*
X0166339Y0014134D01*
X0166339Y0013505D02*
X0127639Y0013505D01*
X0127639Y0012877D02*
X0166339Y0012877D01*
X0166339Y0012248D02*
X0127639Y0012248D01*
X0127639Y0011620D02*
X0166339Y0011620D01*
X0166339Y0010991D02*
X0127639Y0010991D01*
X0127639Y0010363D02*
X0166339Y0010363D01*
X0166339Y0009735D02*
X0127639Y0009735D01*
X0127639Y0009106D02*
X0166339Y0009106D01*
X0166339Y0008478D02*
X0127639Y0008478D01*
X0127639Y0007849D02*
X0166339Y0007849D01*
X0166339Y0007221D02*
X0127639Y0007221D01*
X0127639Y0006592D02*
X0166339Y0006592D01*
X0166339Y0005964D02*
X0127639Y0005964D01*
X0127639Y0005335D02*
X0166339Y0005335D01*
X0166339Y0004707D02*
X0127639Y0004707D01*
X0127639Y0004079D02*
X0166339Y0004079D01*
X0166339Y0003450D02*
X0127639Y0003450D01*
X0127639Y0002822D02*
X0166339Y0002822D01*
X0126024Y0003450D02*
X0086339Y0003450D01*
X0086339Y0002822D02*
X0125563Y0002822D01*
X0126024Y0004079D02*
X0086339Y0004079D01*
X0086339Y0004707D02*
X0126024Y0004707D01*
X0125663Y0005335D02*
X0086504Y0005335D01*
X0086764Y0005964D02*
X0125402Y0005964D01*
X0125284Y0006592D02*
X0086883Y0006592D01*
X0086883Y0007221D02*
X0125284Y0007221D01*
X0125403Y0007849D02*
X0086764Y0007849D01*
X0086503Y0008478D02*
X0125664Y0008478D01*
X0126024Y0009106D02*
X0087123Y0009106D01*
X0087751Y0009735D02*
X0126024Y0009735D01*
X0126024Y0010363D02*
X0088379Y0010363D01*
X0089008Y0010991D02*
X0126024Y0010991D01*
X0126024Y0011620D02*
X0089636Y0011620D01*
X0090265Y0012248D02*
X0126024Y0012248D01*
X0126024Y0012877D02*
X0090893Y0012877D01*
X0091522Y0013505D02*
X0126024Y0013505D01*
X0126024Y0014134D02*
X0092150Y0014134D01*
X0092779Y0014762D02*
X0126024Y0014762D01*
X0126024Y0015390D02*
X0093407Y0015390D01*
X0094035Y0016019D02*
X0126024Y0016019D01*
X0126024Y0016647D02*
X0094664Y0016647D01*
X0095292Y0017276D02*
X0126024Y0017276D01*
X0126024Y0017904D02*
X0095921Y0017904D01*
X0096549Y0018533D02*
X0126024Y0018533D01*
X0126024Y0019161D02*
X0097178Y0019161D01*
X0097806Y0019789D02*
X0126024Y0019789D01*
X0126024Y0020418D02*
X0098434Y0020418D01*
X0099063Y0021046D02*
X0126024Y0021046D01*
X0126024Y0021675D02*
X0099691Y0021675D01*
X0100320Y0022303D02*
X0126024Y0022303D01*
X0126024Y0022932D02*
X0100948Y0022932D01*
X0101577Y0023560D02*
X0126024Y0023560D01*
X0126024Y0024188D02*
X0102205Y0024188D01*
X0102833Y0024817D02*
X0126024Y0024817D01*
X0126024Y0025445D02*
X0103462Y0025445D01*
X0104090Y0026074D02*
X0126024Y0026074D01*
X0126024Y0026702D02*
X0104719Y0026702D01*
X0105347Y0027331D02*
X0126024Y0027331D01*
X0126024Y0027959D02*
X0105867Y0027959D01*
X0105867Y0028587D02*
X0126024Y0028587D01*
X0126024Y0029216D02*
X0105867Y0029216D01*
X0105867Y0029844D02*
X0126024Y0029844D01*
X0126024Y0030473D02*
X0105867Y0030473D01*
X0105867Y0031101D02*
X0126024Y0031101D01*
X0126024Y0031730D02*
X0105867Y0031730D01*
X0105867Y0032358D02*
X0126024Y0032358D01*
X0126024Y0032987D02*
X0105867Y0032987D01*
X0105867Y0033615D02*
X0126024Y0033615D01*
X0126024Y0034243D02*
X0105867Y0034243D01*
X0105867Y0034872D02*
X0126024Y0034872D01*
X0126024Y0035500D02*
X0105867Y0035500D01*
X0105867Y0036129D02*
X0126024Y0036129D01*
X0126024Y0036757D02*
X0105867Y0036757D01*
X0105867Y0037386D02*
X0126024Y0037386D01*
X0126024Y0038014D02*
X0105867Y0038014D01*
X0105867Y0038642D02*
X0126024Y0038642D01*
X0126024Y0039271D02*
X0105867Y0039271D01*
X0105867Y0039899D02*
X0126024Y0039899D01*
X0126118Y0040528D02*
X0105867Y0040528D01*
X0105867Y0041156D02*
X0126860Y0041156D01*
X0127603Y0041785D02*
X0105867Y0041785D01*
X0105867Y0042413D02*
X0128346Y0042413D01*
X0129088Y0043041D02*
X0105867Y0043041D01*
X0105867Y0043670D02*
X0129831Y0043670D01*
X0130574Y0044298D02*
X0105867Y0044298D01*
X0105867Y0044927D02*
X0131317Y0044927D01*
X0132059Y0045555D02*
X0105867Y0045555D01*
X0127639Y0068807D02*
X0144910Y0068807D01*
X0144282Y0069436D02*
X0127639Y0069436D01*
X0127639Y0070064D02*
X0143653Y0070064D01*
X0143025Y0070692D02*
X0127639Y0070692D01*
X0127639Y0071321D02*
X0142396Y0071321D01*
X0141768Y0071949D02*
X0127639Y0071949D01*
X0127639Y0072578D02*
X0141140Y0072578D01*
X0140511Y0073206D02*
X0127639Y0073206D01*
X0127639Y0073835D02*
X0139883Y0073835D01*
X0139254Y0074463D02*
X0127639Y0074463D01*
X0127639Y0075092D02*
X0138626Y0075092D01*
X0137997Y0075720D02*
X0127639Y0075720D01*
X0135473Y0083913D02*
X0133583Y0085803D01*
X0135473Y0083913D02*
X0189646Y0083913D01*
X0197225Y0076335D01*
X0197540Y0076335D01*
X0202540Y0076335D02*
X0204115Y0076335D01*
X0207284Y0079504D01*
X0207284Y0102811D01*
X0202875Y0107220D01*
X0193426Y0107220D01*
X0194686Y0104701D02*
X0192166Y0104701D01*
X0181477Y0115390D01*
X0180906Y0114760D01*
X0176969Y0114760D02*
X0176418Y0114839D01*
X0176418Y0101335D01*
X0160040Y0104701D02*
X0160040Y0110429D01*
X0159961Y0110508D01*
X0156261Y0110272D02*
X0156024Y0110508D01*
X0156261Y0110272D02*
X0156261Y0104701D01*
X0152481Y0104701D02*
X0152481Y0110114D01*
X0152087Y0110508D01*
X0148702Y0109957D02*
X0148150Y0110508D01*
X0148702Y0109957D02*
X0148702Y0104701D01*
X0129174Y0104701D02*
X0129174Y0110154D01*
X0128859Y0110469D01*
X0120985Y0110469D02*
X0120985Y0102811D01*
X0117206Y0102811D02*
X0117206Y0110311D01*
X0117048Y0110469D01*
X0113111Y0110469D02*
X0112796Y0111413D01*
X0112796Y0116039D01*
X0109017Y0116039D02*
X0109017Y0111571D01*
X0109174Y0110469D01*
X0086339Y0110823D02*
X0086064Y0110469D01*
X0086339Y0110823D02*
X0086339Y0114780D01*
X0080040Y0115409D02*
X0078150Y0113028D01*
X0078190Y0110469D01*
X0082127Y0110469D02*
X0081930Y0106256D01*
X0084450Y0104071D01*
X0055473Y0102181D02*
X0055473Y0110035D01*
X0055040Y0110469D01*
X0051103Y0110469D02*
X0051064Y0110429D01*
X0051064Y0104701D01*
X0047914Y0104071D02*
X0047284Y0104071D01*
X0045394Y0104071D01*
X0043505Y0105961D01*
X0043505Y0110193D01*
X0043229Y0110469D01*
X0047166Y0110469D02*
X0047284Y0110350D01*
X0047284Y0106591D01*
X0137363Y0087063D02*
X0139253Y0085173D01*
X0190276Y0085173D01*
X0194115Y0081335D01*
X0197540Y0081335D01*
X0197540Y0086335D02*
X0143131Y0086335D01*
X0141143Y0088323D01*
X0144922Y0082654D02*
X0145237Y0082339D01*
X0166241Y0061335D01*
X0197540Y0061335D01*
X0202540Y0061335D02*
X0207284Y0056591D01*
X0207284Y0044228D01*
X0204765Y0041709D01*
X0180198Y0041709D01*
X0143662Y0078244D01*
X0143032Y0078874D01*
X0143662Y0080134D02*
X0180828Y0042969D01*
X0204135Y0042969D01*
X0206024Y0044858D01*
X0206024Y0053047D01*
X0202737Y0056335D01*
X0202540Y0056335D01*
X0197540Y0056335D02*
X0169351Y0056335D01*
X0144607Y0081079D01*
X0144292Y0081394D01*
X0194686Y0104701D02*
X0195946Y0105331D01*
X0202875Y0105331D01*
X0206024Y0102181D01*
X0206024Y0089819D01*
X0202540Y0086335D01*
D21*
X0145237Y0082339D02*
X0144877Y0082698D01*
X0109781Y0082698D01*
X0099747Y0092732D01*
X0064922Y0092732D01*
X0055473Y0102181D01*
X0051064Y0104701D02*
X0064232Y0091532D01*
X0099250Y0091532D01*
X0109284Y0081498D01*
X0144187Y0081498D01*
X0144607Y0081079D01*
X0143662Y0080134D02*
X0143498Y0080298D01*
X0108787Y0080298D01*
X0098753Y0090332D01*
X0063543Y0090332D01*
X0049174Y0104701D01*
X0047284Y0106591D01*
X0047284Y0104071D02*
X0048107Y0104071D01*
X0063045Y0089132D01*
X0098256Y0089132D01*
X0108290Y0079098D01*
X0142808Y0079098D01*
X0143662Y0078244D01*
X0087599Y0078024D02*
X0068702Y0078024D01*
X0068702Y0077965D02*
X0068702Y0078244D01*
X0068422Y0078244D01*
X0068098Y0078568D01*
X0034030Y0078568D01*
X0030880Y0075419D01*
X0002865Y0075419D01*
X0001300Y0076984D01*
X0001300Y0101551D01*
X0005709Y0105961D01*
X0041906Y0105961D01*
X0041906Y0105298D01*
X0042842Y0104361D01*
X0044732Y0102472D01*
X0047466Y0102472D01*
X0061461Y0088476D01*
X0062389Y0087548D01*
X0085854Y0087548D01*
X0087599Y0085803D01*
X0087599Y0063756D01*
X0085709Y0061866D01*
X0074909Y0061866D01*
X0073995Y0062780D01*
X0070611Y0064182D01*
X0070165Y0064182D01*
X0069026Y0065321D01*
X0069026Y0077640D01*
X0068702Y0077965D01*
X0069026Y0077426D02*
X0087599Y0077426D01*
X0087599Y0076827D02*
X0069026Y0076827D01*
X0069026Y0076229D02*
X0087599Y0076229D01*
X0087599Y0075630D02*
X0069026Y0075630D01*
X0069026Y0075032D02*
X0087599Y0075032D01*
X0087599Y0074433D02*
X0069026Y0074433D01*
X0069026Y0073835D02*
X0087599Y0073835D01*
X0087599Y0073236D02*
X0069026Y0073236D01*
X0069026Y0072638D02*
X0087599Y0072638D01*
X0087599Y0072039D02*
X0069026Y0072039D01*
X0069026Y0071441D02*
X0087599Y0071441D01*
X0087599Y0070842D02*
X0069026Y0070842D01*
X0069026Y0070244D02*
X0087599Y0070244D01*
X0087599Y0069645D02*
X0069026Y0069645D01*
X0069026Y0069047D02*
X0087599Y0069047D01*
X0087599Y0068448D02*
X0069026Y0068448D01*
X0069026Y0067850D02*
X0087599Y0067850D01*
X0087599Y0067251D02*
X0069026Y0067251D01*
X0069026Y0066653D02*
X0087599Y0066653D01*
X0087599Y0066054D02*
X0069026Y0066054D01*
X0069026Y0065455D02*
X0087599Y0065455D01*
X0087599Y0064857D02*
X0069490Y0064857D01*
X0070089Y0064258D02*
X0087599Y0064258D01*
X0087503Y0063660D02*
X0071871Y0063660D01*
X0073316Y0063061D02*
X0086905Y0063061D01*
X0086306Y0062463D02*
X0074312Y0062463D01*
X0067442Y0064182D02*
X0066949Y0064182D01*
X0063566Y0062780D01*
X0060976Y0060191D01*
X0059575Y0056807D01*
X0059575Y0053145D01*
X0060976Y0049762D01*
X0063566Y0047172D01*
X0064825Y0046651D01*
X0054843Y0036669D01*
X0002560Y0036669D01*
X0001930Y0037299D01*
X0001930Y0072575D01*
X0003190Y0073835D01*
X0014152Y0073835D01*
X0014521Y0073466D01*
X0015765Y0072950D01*
X0017111Y0072950D01*
X0018355Y0073466D01*
X0018724Y0073835D01*
X0019152Y0073835D01*
X0019521Y0073466D01*
X0020765Y0072950D01*
X0022111Y0072950D01*
X0023355Y0073466D01*
X0023724Y0073835D01*
X0031536Y0073835D01*
X0067442Y0073835D01*
X0031536Y0073835D01*
X0034686Y0076984D01*
X0067442Y0076984D01*
X0067442Y0064182D01*
X0066949Y0064182D01*
X0063566Y0062780D01*
X0060976Y0060191D01*
X0059575Y0056807D01*
X0059575Y0053145D01*
X0060976Y0049762D01*
X0063566Y0047172D01*
X0064825Y0046651D01*
X0054843Y0036669D01*
X0002560Y0036669D01*
X0001930Y0037299D01*
X0001930Y0072575D01*
X0003190Y0073835D01*
X0014152Y0073835D01*
X0014521Y0073466D01*
X0015765Y0072950D01*
X0017111Y0072950D01*
X0018355Y0073466D01*
X0018724Y0073835D01*
X0019152Y0073835D01*
X0019521Y0073466D01*
X0020765Y0072950D01*
X0022111Y0072950D01*
X0023355Y0073466D01*
X0023724Y0073835D01*
X0031536Y0073835D01*
X0034686Y0076984D01*
X0067442Y0076984D01*
X0067442Y0064182D01*
X0067442Y0064258D02*
X0041640Y0064258D01*
X0067442Y0064258D01*
X0067442Y0064857D02*
X0041640Y0064857D01*
X0067442Y0064857D01*
X0067442Y0065455D02*
X0041640Y0065455D01*
X0067442Y0065455D01*
X0067442Y0066054D02*
X0041218Y0066054D01*
X0067442Y0066054D01*
X0067442Y0066653D02*
X0040619Y0066653D01*
X0067442Y0066653D01*
X0067442Y0067251D02*
X0040021Y0067251D01*
X0067442Y0067251D01*
X0067442Y0067850D02*
X0039422Y0067850D01*
X0067442Y0067850D01*
X0067442Y0068448D02*
X0001930Y0068448D01*
X0067442Y0068448D01*
X0067442Y0069047D02*
X0001930Y0069047D01*
X0067442Y0069047D01*
X0067442Y0069645D02*
X0001930Y0069645D01*
X0067442Y0069645D01*
X0067442Y0070244D02*
X0001930Y0070244D01*
X0067442Y0070244D01*
X0067442Y0070842D02*
X0001930Y0070842D01*
X0067442Y0070842D01*
X0067442Y0071441D02*
X0001930Y0071441D01*
X0067442Y0071441D01*
X0067442Y0072039D02*
X0001930Y0072039D01*
X0067442Y0072039D01*
X0067442Y0072638D02*
X0001993Y0072638D01*
X0067442Y0072638D01*
X0067442Y0073236D02*
X0022801Y0073236D01*
X0067442Y0073236D01*
X0067442Y0074433D02*
X0032135Y0074433D01*
X0067442Y0074433D01*
X0067442Y0075032D02*
X0032733Y0075032D01*
X0067442Y0075032D01*
X0067442Y0075630D02*
X0033332Y0075630D01*
X0067442Y0075630D01*
X0067442Y0076229D02*
X0033930Y0076229D01*
X0067442Y0076229D01*
X0067442Y0076827D02*
X0034529Y0076827D01*
X0067442Y0076827D01*
X0062337Y0087600D02*
X0041640Y0087600D01*
X0041640Y0087984D02*
X0040965Y0089614D01*
X0039717Y0090862D01*
X0038088Y0091537D01*
X0036323Y0091537D01*
X0034694Y0090862D01*
X0033446Y0089614D01*
X0032771Y0087984D01*
X0032771Y0086220D01*
X0033446Y0084591D01*
X0034694Y0083343D01*
X0036323Y0082668D01*
X0038088Y0082668D01*
X0039717Y0083343D01*
X0040965Y0084591D01*
X0041640Y0086220D01*
X0041640Y0087984D01*
X0041551Y0088199D02*
X0061738Y0088199D01*
X0061140Y0088797D02*
X0041303Y0088797D01*
X0041055Y0089396D02*
X0060541Y0089396D01*
X0059943Y0089994D02*
X0040584Y0089994D01*
X0039986Y0090593D02*
X0059344Y0090593D01*
X0058746Y0091191D02*
X0038921Y0091191D01*
X0035490Y0091191D02*
X0001300Y0091191D01*
X0001300Y0090593D02*
X0034425Y0090593D01*
X0033827Y0089994D02*
X0001300Y0089994D01*
X0001300Y0089396D02*
X0033356Y0089396D01*
X0033108Y0088797D02*
X0001300Y0088797D01*
X0001300Y0088199D02*
X0032860Y0088199D01*
X0032771Y0087600D02*
X0001300Y0087600D01*
X0001300Y0087002D02*
X0032771Y0087002D01*
X0032771Y0086403D02*
X0001300Y0086403D01*
X0001300Y0085805D02*
X0032943Y0085805D01*
X0033191Y0085206D02*
X0001300Y0085206D01*
X0001300Y0084608D02*
X0033439Y0084608D01*
X0034028Y0084009D02*
X0001300Y0084009D01*
X0001300Y0083411D02*
X0034626Y0083411D01*
X0035975Y0082812D02*
X0001300Y0082812D01*
X0001300Y0082214D02*
X0087599Y0082214D01*
X0087599Y0082812D02*
X0038436Y0082812D01*
X0039785Y0083411D02*
X0087599Y0083411D01*
X0087599Y0084009D02*
X0040383Y0084009D01*
X0040972Y0084608D02*
X0087599Y0084608D01*
X0087599Y0085206D02*
X0041220Y0085206D01*
X0041468Y0085805D02*
X0087597Y0085805D01*
X0086999Y0086403D02*
X0041640Y0086403D01*
X0041640Y0087002D02*
X0086400Y0087002D01*
X0087599Y0081615D02*
X0001300Y0081615D01*
X0001300Y0081017D02*
X0087599Y0081017D01*
X0087599Y0080418D02*
X0001300Y0080418D01*
X0001300Y0079820D02*
X0087599Y0079820D01*
X0087599Y0079221D02*
X0001300Y0079221D01*
X0001300Y0078623D02*
X0087599Y0078623D01*
X0065689Y0063660D02*
X0041640Y0063660D01*
X0065689Y0063660D01*
X0064244Y0063061D02*
X0041640Y0063061D01*
X0064244Y0063061D01*
X0063248Y0062463D02*
X0041640Y0062463D01*
X0063248Y0062463D01*
X0062650Y0061864D02*
X0041546Y0061864D01*
X0062650Y0061864D01*
X0062051Y0061266D02*
X0040947Y0061266D01*
X0062051Y0061266D01*
X0061453Y0060667D02*
X0040349Y0060667D01*
X0061453Y0060667D01*
X0060926Y0060069D02*
X0039750Y0060069D01*
X0060926Y0060069D01*
X0060678Y0059470D02*
X0039152Y0059470D01*
X0060678Y0059470D01*
X0060430Y0058872D02*
X0001930Y0058872D01*
X0060430Y0058872D01*
X0060182Y0058273D02*
X0001930Y0058273D01*
X0060182Y0058273D01*
X0059934Y0057675D02*
X0001930Y0057675D01*
X0059934Y0057675D01*
X0059686Y0057076D02*
X0001930Y0057076D01*
X0059686Y0057076D01*
X0059575Y0056478D02*
X0001930Y0056478D01*
X0059575Y0056478D01*
X0059575Y0055879D02*
X0001930Y0055879D01*
X0059575Y0055879D01*
X0059575Y0055281D02*
X0001930Y0055281D01*
X0059575Y0055281D01*
X0059575Y0054682D02*
X0039282Y0054682D01*
X0059575Y0054682D01*
X0059575Y0054084D02*
X0039881Y0054084D01*
X0059575Y0054084D01*
X0059575Y0053485D02*
X0040479Y0053485D01*
X0059575Y0053485D01*
X0059682Y0052887D02*
X0041078Y0052887D01*
X0059682Y0052887D01*
X0059930Y0052288D02*
X0041640Y0052288D01*
X0059930Y0052288D01*
X0060178Y0051690D02*
X0041640Y0051690D01*
X0060178Y0051690D01*
X0060426Y0051091D02*
X0041640Y0051091D01*
X0060426Y0051091D01*
X0060674Y0050493D02*
X0041640Y0050493D01*
X0060674Y0050493D01*
X0060921Y0049894D02*
X0041640Y0049894D01*
X0060921Y0049894D01*
X0061442Y0049296D02*
X0041640Y0049296D01*
X0061442Y0049296D01*
X0062041Y0048697D02*
X0041640Y0048697D01*
X0062041Y0048697D01*
X0062639Y0048099D02*
X0041087Y0048099D01*
X0062639Y0048099D01*
X0063238Y0047500D02*
X0040488Y0047500D01*
X0063238Y0047500D01*
X0064219Y0046902D02*
X0039890Y0046902D01*
X0064219Y0046902D01*
X0064477Y0046303D02*
X0039291Y0046303D01*
X0064477Y0046303D01*
X0063879Y0045705D02*
X0001930Y0045705D01*
X0063879Y0045705D01*
X0063280Y0045106D02*
X0001930Y0045106D01*
X0063280Y0045106D01*
X0062682Y0044508D02*
X0001930Y0044508D01*
X0062682Y0044508D01*
X0062083Y0043909D02*
X0001930Y0043909D01*
X0062083Y0043909D01*
X0061485Y0043311D02*
X0001930Y0043311D01*
X0061485Y0043311D01*
X0060886Y0042712D02*
X0001930Y0042712D01*
X0060886Y0042712D01*
X0060288Y0042114D02*
X0001930Y0042114D01*
X0060288Y0042114D01*
X0059689Y0041515D02*
X0001930Y0041515D01*
X0059689Y0041515D01*
X0059091Y0040917D02*
X0001930Y0040917D01*
X0059091Y0040917D01*
X0058492Y0040318D02*
X0001930Y0040318D01*
X0058492Y0040318D01*
X0057894Y0039720D02*
X0001930Y0039720D01*
X0057894Y0039720D01*
X0057295Y0039121D02*
X0001930Y0039121D01*
X0057295Y0039121D01*
X0056696Y0038522D02*
X0001930Y0038522D01*
X0056696Y0038522D01*
X0056098Y0037924D02*
X0001930Y0037924D01*
X0056098Y0037924D01*
X0055499Y0037325D02*
X0001930Y0037325D01*
X0055499Y0037325D01*
X0054901Y0036727D02*
X0002502Y0036727D01*
X0054901Y0036727D01*
X0041640Y0048651D02*
X0039042Y0046054D01*
X0035369Y0046054D01*
X0032771Y0048651D01*
X0032771Y0052325D01*
X0035369Y0054922D01*
X0039042Y0054922D01*
X0041640Y0052325D01*
X0041640Y0048651D01*
X0039042Y0046054D01*
X0035369Y0046054D01*
X0032771Y0048651D01*
X0032771Y0052325D01*
X0035369Y0054922D01*
X0039042Y0054922D01*
X0041640Y0052325D01*
X0041640Y0048651D01*
X0035120Y0046303D02*
X0001930Y0046303D01*
X0035120Y0046303D01*
X0034521Y0046902D02*
X0001930Y0046902D01*
X0034521Y0046902D01*
X0033923Y0047500D02*
X0001930Y0047500D01*
X0033923Y0047500D01*
X0033324Y0048099D02*
X0001930Y0048099D01*
X0033324Y0048099D01*
X0032771Y0048697D02*
X0001930Y0048697D01*
X0032771Y0048697D01*
X0032771Y0049296D02*
X0001930Y0049296D01*
X0032771Y0049296D01*
X0032771Y0049894D02*
X0001930Y0049894D01*
X0032771Y0049894D01*
X0032771Y0050493D02*
X0001930Y0050493D01*
X0032771Y0050493D01*
X0032771Y0051091D02*
X0001930Y0051091D01*
X0032771Y0051091D01*
X0032771Y0051690D02*
X0001930Y0051690D01*
X0032771Y0051690D01*
X0032771Y0052288D02*
X0001930Y0052288D01*
X0032771Y0052288D01*
X0033333Y0052887D02*
X0001930Y0052887D01*
X0033333Y0052887D01*
X0033932Y0053485D02*
X0001930Y0053485D01*
X0033932Y0053485D01*
X0034530Y0054084D02*
X0001930Y0054084D01*
X0034530Y0054084D01*
X0035129Y0054682D02*
X0001930Y0054682D01*
X0035129Y0054682D01*
X0035369Y0059361D02*
X0039042Y0059361D01*
X0041640Y0061959D01*
X0041640Y0065632D01*
X0039042Y0068230D01*
X0035369Y0068230D01*
X0032771Y0065632D01*
X0032771Y0061959D01*
X0035369Y0059361D01*
X0039042Y0059361D01*
X0041640Y0061959D01*
X0041640Y0065632D01*
X0039042Y0068230D01*
X0035369Y0068230D01*
X0032771Y0065632D01*
X0032771Y0061959D01*
X0035369Y0059361D01*
X0035259Y0059470D02*
X0001930Y0059470D01*
X0035259Y0059470D01*
X0034661Y0060069D02*
X0001930Y0060069D01*
X0034661Y0060069D01*
X0034062Y0060667D02*
X0001930Y0060667D01*
X0034062Y0060667D01*
X0033464Y0061266D02*
X0001930Y0061266D01*
X0033464Y0061266D01*
X0032865Y0061864D02*
X0001930Y0061864D01*
X0032865Y0061864D01*
X0032771Y0062463D02*
X0001930Y0062463D01*
X0032771Y0062463D01*
X0032771Y0063061D02*
X0001930Y0063061D01*
X0032771Y0063061D01*
X0032771Y0063660D02*
X0001930Y0063660D01*
X0032771Y0063660D01*
X0032771Y0064258D02*
X0001930Y0064258D01*
X0032771Y0064258D01*
X0032771Y0064857D02*
X0001930Y0064857D01*
X0032771Y0064857D01*
X0032771Y0065455D02*
X0001930Y0065455D01*
X0032771Y0065455D01*
X0033193Y0066054D02*
X0001930Y0066054D01*
X0033193Y0066054D01*
X0033792Y0066653D02*
X0001930Y0066653D01*
X0033792Y0066653D01*
X0034390Y0067251D02*
X0001930Y0067251D01*
X0034390Y0067251D01*
X0034989Y0067850D02*
X0001930Y0067850D01*
X0034989Y0067850D01*
X0031091Y0075630D02*
X0002654Y0075630D01*
X0002056Y0076229D02*
X0031690Y0076229D01*
X0032288Y0076827D02*
X0001457Y0076827D01*
X0001300Y0077426D02*
X0032887Y0077426D01*
X0033485Y0078024D02*
X0001300Y0078024D01*
X0002591Y0073236D02*
X0015075Y0073236D01*
X0002591Y0073236D01*
X0017801Y0073236D02*
X0020075Y0073236D01*
X0017801Y0073236D01*
X0001300Y0091790D02*
X0058147Y0091790D01*
X0057549Y0092388D02*
X0001300Y0092388D01*
X0001300Y0092987D02*
X0056950Y0092987D01*
X0056352Y0093586D02*
X0001300Y0093586D01*
X0001300Y0094184D02*
X0055753Y0094184D01*
X0055155Y0094783D02*
X0001300Y0094783D01*
X0001300Y0095381D02*
X0054556Y0095381D01*
X0053958Y0095980D02*
X0001300Y0095980D01*
X0001300Y0096578D02*
X0053359Y0096578D01*
X0052761Y0097177D02*
X0001300Y0097177D01*
X0001300Y0097775D02*
X0052162Y0097775D01*
X0051564Y0098374D02*
X0001300Y0098374D01*
X0001300Y0098972D02*
X0050965Y0098972D01*
X0050367Y0099571D02*
X0001300Y0099571D01*
X0001300Y0100169D02*
X0049768Y0100169D01*
X0049170Y0100768D02*
X0001300Y0100768D01*
X0001300Y0101366D02*
X0048571Y0101366D01*
X0047973Y0101965D02*
X0001713Y0101965D01*
X0002312Y0102563D02*
X0044641Y0102563D01*
X0044042Y0103162D02*
X0002911Y0103162D01*
X0003509Y0103760D02*
X0043444Y0103760D01*
X0042845Y0104359D02*
X0004108Y0104359D01*
X0004706Y0104957D02*
X0042246Y0104957D01*
X0041906Y0105556D02*
X0005305Y0105556D01*
D22*
X0024843Y0121079D03*
X0024843Y0026591D03*
X0202009Y0026591D03*
X0202009Y0121079D03*
M02*
