G75*
%MOIN*%
%OFA0B0*%
%FSLAX25Y25*%
%IPPOS*%
%LPD*%
%AMOC8*
5,1,8,0,0,1.08239X$1,22.5*
%
%ADD10C,0.00300*%
%ADD11C,0.00000*%
%ADD12C,0.01000*%
%ADD13C,0.00600*%
%ADD14R,0.10000X0.02000*%
%ADD15C,0.00500*%
D10*
X0064442Y0044378D02*
X0066262Y0044378D01*
X0066869Y0044985D01*
X0066869Y0047412D01*
X0066262Y0048018D01*
X0064442Y0048018D01*
X0064442Y0044378D01*
X0068067Y0044985D02*
X0068067Y0047412D01*
X0068674Y0048018D01*
X0069887Y0048018D01*
X0070494Y0047412D01*
X0070494Y0044985D02*
X0069887Y0044378D01*
X0068674Y0044378D01*
X0068067Y0044985D01*
X0080820Y0032743D02*
X0082640Y0032743D01*
X0083247Y0032136D01*
X0083247Y0031529D01*
X0082640Y0030923D01*
X0080820Y0030923D01*
X0080820Y0029103D02*
X0080820Y0032743D01*
X0082640Y0030923D02*
X0083247Y0030316D01*
X0083247Y0029709D01*
X0082640Y0029103D01*
X0080820Y0029103D01*
X0080820Y0026837D02*
X0082640Y0026837D01*
X0083247Y0026231D01*
X0083247Y0025017D01*
X0082640Y0024411D01*
X0080820Y0024411D01*
X0080820Y0023197D02*
X0080820Y0026837D01*
X0084445Y0025017D02*
X0085052Y0025624D01*
X0086265Y0025624D01*
X0086872Y0025017D01*
X0086872Y0024411D01*
X0084445Y0024411D01*
X0084445Y0025017D02*
X0084445Y0023804D01*
X0085052Y0023197D01*
X0086265Y0023197D01*
X0088070Y0023197D02*
X0088070Y0025624D01*
X0089890Y0025624D01*
X0090497Y0025017D01*
X0090497Y0023197D01*
X0091695Y0023804D02*
X0091695Y0025017D01*
X0092302Y0025624D01*
X0094122Y0025624D01*
X0095321Y0025624D02*
X0095321Y0023804D01*
X0095927Y0023197D01*
X0097747Y0023197D01*
X0097747Y0025624D01*
X0098946Y0026837D02*
X0099552Y0026837D01*
X0099552Y0023197D01*
X0098946Y0023197D02*
X0100159Y0023197D01*
X0101363Y0023804D02*
X0101969Y0023197D01*
X0103789Y0023197D01*
X0103789Y0025624D01*
X0104988Y0025624D02*
X0105594Y0025624D01*
X0106201Y0025017D01*
X0106808Y0025624D01*
X0107414Y0025017D01*
X0107414Y0023197D01*
X0106201Y0023197D02*
X0106201Y0025017D01*
X0104988Y0025624D02*
X0104988Y0023197D01*
X0103178Y0020325D02*
X0103178Y0017898D01*
X0103784Y0017292D01*
X0104988Y0017898D02*
X0104988Y0019112D01*
X0105594Y0019718D01*
X0106808Y0019718D01*
X0107414Y0019112D01*
X0107414Y0017898D01*
X0106808Y0017292D01*
X0105594Y0017292D01*
X0104988Y0017898D01*
X0103784Y0019718D02*
X0102571Y0019718D01*
X0101372Y0019718D02*
X0099552Y0019718D01*
X0098946Y0019112D01*
X0098946Y0017898D01*
X0099552Y0017292D01*
X0101372Y0017292D01*
X0097747Y0018505D02*
X0095321Y0018505D01*
X0095321Y0017898D02*
X0095321Y0019112D01*
X0095927Y0019718D01*
X0097141Y0019718D01*
X0097747Y0019112D01*
X0097747Y0018505D01*
X0097141Y0017292D02*
X0095927Y0017292D01*
X0095321Y0017898D01*
X0094122Y0017292D02*
X0094122Y0019112D01*
X0093516Y0019718D01*
X0091695Y0019718D01*
X0091695Y0017292D01*
X0090497Y0017292D02*
X0090497Y0019112D01*
X0089890Y0019718D01*
X0088070Y0019718D01*
X0088070Y0017292D01*
X0086872Y0017898D02*
X0086872Y0019112D01*
X0086265Y0019718D01*
X0085052Y0019718D01*
X0084445Y0019112D01*
X0084445Y0017898D01*
X0085052Y0017292D01*
X0086265Y0017292D01*
X0086872Y0017898D01*
X0083247Y0017898D02*
X0082640Y0017292D01*
X0081427Y0017292D01*
X0080820Y0017898D01*
X0080820Y0020325D01*
X0081427Y0020932D01*
X0082640Y0020932D01*
X0083247Y0020325D01*
X0091695Y0023804D02*
X0092302Y0023197D01*
X0094122Y0023197D01*
X0094122Y0026837D01*
X0095321Y0029103D02*
X0095321Y0032743D01*
X0095927Y0030923D02*
X0097747Y0029103D01*
X0098946Y0029709D02*
X0099552Y0030316D01*
X0101372Y0030316D01*
X0101372Y0030923D02*
X0101372Y0029103D01*
X0099552Y0029103D01*
X0098946Y0029709D01*
X0099552Y0031529D02*
X0100766Y0031529D01*
X0101372Y0030923D01*
X0102571Y0031529D02*
X0103784Y0031529D01*
X0103178Y0032136D02*
X0103178Y0029709D01*
X0103784Y0029103D01*
X0104988Y0029103D02*
X0107414Y0029103D01*
X0107414Y0031529D02*
X0104988Y0029103D01*
X0104988Y0031529D02*
X0107414Y0031529D01*
X0112238Y0026231D02*
X0112845Y0026837D01*
X0114058Y0026837D01*
X0114665Y0026231D01*
X0115863Y0025017D02*
X0115863Y0023804D01*
X0116470Y0023197D01*
X0117683Y0023197D01*
X0118290Y0023804D01*
X0118290Y0025017D01*
X0117683Y0025624D01*
X0116470Y0025624D01*
X0115863Y0025017D01*
X0114665Y0023804D02*
X0114058Y0023197D01*
X0112845Y0023197D01*
X0112238Y0023804D01*
X0112238Y0026231D01*
X0119488Y0025624D02*
X0119488Y0023197D01*
X0121915Y0023197D02*
X0121915Y0025017D01*
X0121308Y0025624D01*
X0119488Y0025624D01*
X0123113Y0025624D02*
X0124327Y0025624D01*
X0123720Y0026231D02*
X0123720Y0023804D01*
X0124327Y0023197D01*
X0125530Y0023197D02*
X0125530Y0025624D01*
X0125530Y0024411D02*
X0126743Y0025624D01*
X0127350Y0025624D01*
X0128551Y0025017D02*
X0129158Y0025624D01*
X0130371Y0025624D01*
X0130978Y0025017D01*
X0130978Y0023804D01*
X0130371Y0023197D01*
X0129158Y0023197D01*
X0128551Y0023804D01*
X0128551Y0025017D01*
X0132176Y0023197D02*
X0133390Y0023197D01*
X0132783Y0023197D02*
X0132783Y0026837D01*
X0132176Y0026837D01*
X0134593Y0026837D02*
X0135200Y0026837D01*
X0135200Y0023197D01*
X0135806Y0023197D02*
X0134593Y0023197D01*
X0137010Y0023804D02*
X0137010Y0025017D01*
X0137616Y0025624D01*
X0138830Y0025624D01*
X0139436Y0025017D01*
X0139436Y0024411D01*
X0137010Y0024411D01*
X0137010Y0023804D02*
X0137616Y0023197D01*
X0138830Y0023197D01*
X0140635Y0023197D02*
X0140635Y0025624D01*
X0141848Y0025624D02*
X0142455Y0025624D01*
X0141848Y0025624D02*
X0140635Y0024411D01*
X0140033Y0020325D02*
X0140033Y0017898D01*
X0140640Y0017292D01*
X0140640Y0019718D02*
X0139426Y0019718D01*
X0138228Y0019718D02*
X0138228Y0017292D01*
X0136408Y0017292D01*
X0135801Y0017898D01*
X0135801Y0019718D01*
X0134603Y0019112D02*
X0133996Y0019718D01*
X0132783Y0019718D01*
X0132176Y0019112D01*
X0132176Y0017898D01*
X0132783Y0017292D01*
X0133996Y0017292D01*
X0134603Y0017898D01*
X0134603Y0019112D01*
X0130975Y0019718D02*
X0129155Y0018505D01*
X0130975Y0017292D01*
X0129155Y0017292D02*
X0129155Y0020932D01*
X0127350Y0019718D02*
X0126137Y0019718D01*
X0126137Y0018505D02*
X0127957Y0018505D01*
X0127957Y0019112D02*
X0127957Y0017292D01*
X0126137Y0017292D01*
X0125530Y0017898D01*
X0126137Y0018505D01*
X0127350Y0019718D02*
X0127957Y0019112D01*
X0124332Y0019112D02*
X0124332Y0018505D01*
X0121905Y0018505D01*
X0121905Y0017898D02*
X0121905Y0019112D01*
X0122512Y0019718D01*
X0123725Y0019718D01*
X0124332Y0019112D01*
X0123725Y0017292D02*
X0122512Y0017292D01*
X0121905Y0017898D01*
X0120704Y0019718D02*
X0120097Y0019718D01*
X0118884Y0018505D01*
X0117686Y0018505D02*
X0117686Y0017898D01*
X0117079Y0017292D01*
X0115259Y0017292D01*
X0115259Y0020932D01*
X0117079Y0020932D01*
X0117686Y0020325D01*
X0117686Y0019718D01*
X0117079Y0019112D01*
X0115259Y0019112D01*
X0117079Y0019112D02*
X0117686Y0018505D01*
X0118884Y0017292D02*
X0118884Y0019718D01*
X0110433Y0019718D02*
X0109826Y0019718D01*
X0108613Y0018505D01*
X0108613Y0017292D02*
X0108613Y0019718D01*
X0101363Y0023804D02*
X0101363Y0025624D01*
X0095321Y0030316D02*
X0097747Y0032743D01*
X0090497Y0030923D02*
X0090497Y0029103D01*
X0090497Y0030923D02*
X0089890Y0031529D01*
X0088070Y0031529D01*
X0088070Y0029103D01*
X0086872Y0030316D02*
X0084445Y0030316D01*
X0084445Y0029709D02*
X0084445Y0030923D01*
X0085052Y0031529D01*
X0086265Y0031529D01*
X0086872Y0030923D01*
X0086872Y0030316D01*
X0086265Y0029103D02*
X0085052Y0029103D01*
X0084445Y0029709D01*
X0112316Y0044378D02*
X0112316Y0048018D01*
X0113530Y0046805D01*
X0114743Y0048018D01*
X0114743Y0044378D01*
X0115941Y0044985D02*
X0116548Y0044378D01*
X0117761Y0044378D01*
X0118368Y0044985D01*
X0118368Y0047412D01*
X0117761Y0048018D01*
X0116548Y0048018D01*
X0115941Y0047412D01*
X0115941Y0044985D01*
X0119566Y0048018D02*
X0121993Y0048018D01*
X0120780Y0048018D02*
X0120780Y0044378D01*
X0123192Y0044985D02*
X0123798Y0044378D01*
X0125012Y0044378D01*
X0125618Y0044985D01*
X0125618Y0047412D01*
X0125012Y0048018D01*
X0123798Y0048018D01*
X0123192Y0047412D01*
X0123192Y0044985D01*
X0126817Y0044378D02*
X0126817Y0048018D01*
X0128637Y0048018D01*
X0129243Y0047412D01*
X0129243Y0046198D01*
X0128637Y0045592D01*
X0126817Y0045592D01*
X0128030Y0045592D02*
X0129243Y0044378D01*
X0128161Y0102961D02*
X0128768Y0103568D01*
X0128768Y0104781D01*
X0127555Y0104781D01*
X0128768Y0105994D02*
X0128161Y0106601D01*
X0126948Y0106601D01*
X0126341Y0105994D01*
X0126341Y0103568D01*
X0126948Y0102961D01*
X0128161Y0102961D01*
X0125143Y0103568D02*
X0125143Y0105994D01*
X0124536Y0106601D01*
X0123323Y0106601D01*
X0122716Y0105994D01*
X0122716Y0103568D01*
X0123323Y0102961D01*
X0124536Y0102961D01*
X0125143Y0103568D01*
X0121518Y0102961D02*
X0120304Y0104174D01*
X0120911Y0104174D02*
X0119091Y0104174D01*
X0119091Y0102961D02*
X0119091Y0106601D01*
X0120911Y0106601D01*
X0121518Y0105994D01*
X0121518Y0104781D01*
X0120911Y0104174D01*
X0117892Y0104781D02*
X0117286Y0104174D01*
X0115466Y0104174D01*
X0115466Y0102961D02*
X0115466Y0106601D01*
X0117286Y0106601D01*
X0117892Y0105994D01*
X0117892Y0104781D01*
X0099072Y0104654D02*
X0097859Y0105867D01*
X0098466Y0105867D02*
X0096646Y0105867D01*
X0096646Y0104654D02*
X0096646Y0108294D01*
X0098466Y0108294D01*
X0099072Y0107687D01*
X0099072Y0106474D01*
X0098466Y0105867D01*
X0095447Y0104654D02*
X0093021Y0104654D01*
X0093021Y0108294D01*
X0095447Y0108294D01*
X0094234Y0106474D02*
X0093021Y0106474D01*
X0091822Y0105261D02*
X0091822Y0107687D01*
X0091215Y0108294D01*
X0089395Y0108294D01*
X0089395Y0104654D01*
X0091215Y0104654D01*
X0091822Y0105261D01*
X0088197Y0105261D02*
X0088197Y0107687D01*
X0087590Y0108294D01*
X0086377Y0108294D01*
X0085770Y0107687D01*
X0085770Y0105261D01*
X0086377Y0104654D01*
X0087590Y0104654D01*
X0088197Y0105261D01*
X0084572Y0105261D02*
X0083965Y0104654D01*
X0082752Y0104654D01*
X0082145Y0105261D01*
X0082145Y0107687D01*
X0082752Y0108294D01*
X0083965Y0108294D01*
X0084572Y0107687D01*
X0080947Y0108294D02*
X0080947Y0104654D01*
X0078520Y0108294D01*
X0078520Y0104654D01*
X0077322Y0104654D02*
X0074895Y0104654D01*
X0074895Y0108294D01*
X0077322Y0108294D01*
X0076108Y0106474D02*
X0074895Y0106474D01*
X0065178Y0105796D02*
X0065178Y0109436D01*
X0063965Y0108222D01*
X0062751Y0109436D01*
X0062751Y0105796D01*
X0061553Y0106402D02*
X0061553Y0109436D01*
X0059126Y0109436D02*
X0059126Y0106402D01*
X0059733Y0105796D01*
X0060946Y0105796D01*
X0061553Y0106402D01*
X0057928Y0105796D02*
X0055501Y0105796D01*
X0055501Y0109436D01*
X0054302Y0109436D02*
X0054302Y0106402D01*
X0053696Y0105796D01*
X0052482Y0105796D01*
X0051876Y0106402D01*
X0051876Y0109436D01*
X0050677Y0108829D02*
X0050071Y0109436D01*
X0048251Y0109436D01*
X0048251Y0105796D01*
X0050071Y0105796D01*
X0050677Y0106402D01*
X0050677Y0108829D01*
X0047052Y0109436D02*
X0047052Y0105796D01*
X0044625Y0109436D01*
X0044625Y0105796D01*
X0043427Y0105796D02*
X0041000Y0105796D01*
X0041000Y0109436D01*
X0043427Y0109436D01*
X0042214Y0107616D02*
X0041000Y0107616D01*
X0039802Y0107616D02*
X0039802Y0108829D01*
X0039195Y0109436D01*
X0037375Y0109436D01*
X0037375Y0105796D01*
X0037375Y0107009D02*
X0039195Y0107009D01*
X0039802Y0107616D01*
X0144462Y0107288D02*
X0145068Y0106681D01*
X0146282Y0106681D01*
X0146889Y0107288D01*
X0146889Y0107895D01*
X0146282Y0108502D01*
X0145068Y0108502D01*
X0144462Y0109108D01*
X0144462Y0109715D01*
X0145068Y0110322D01*
X0146282Y0110322D01*
X0146889Y0109715D01*
X0148087Y0110322D02*
X0148087Y0106681D01*
X0150514Y0106681D01*
X0151712Y0106681D02*
X0151712Y0110322D01*
X0153532Y0110322D01*
X0154139Y0109715D01*
X0154139Y0108502D01*
X0153532Y0107895D01*
X0151712Y0107895D01*
X0152925Y0107895D02*
X0154139Y0106681D01*
X0155337Y0106681D02*
X0156551Y0106681D01*
X0155944Y0106681D02*
X0155944Y0110322D01*
X0155337Y0110322D02*
X0156551Y0110322D01*
X0157754Y0109108D02*
X0158967Y0110322D01*
X0160181Y0109108D01*
X0160181Y0106681D01*
X0161379Y0106681D02*
X0163806Y0106681D01*
X0161379Y0106681D02*
X0161379Y0110322D01*
X0160181Y0108502D02*
X0157754Y0108502D01*
X0157754Y0109108D02*
X0157754Y0106681D01*
X0150514Y0110322D02*
X0148087Y0110322D01*
X0148087Y0108502D02*
X0149300Y0108502D01*
X0169639Y0108607D02*
X0170246Y0108000D01*
X0171459Y0108000D01*
X0172066Y0108607D01*
X0172066Y0109214D01*
X0171459Y0109820D01*
X0170246Y0109820D01*
X0169639Y0110427D01*
X0169639Y0111034D01*
X0170246Y0111641D01*
X0171459Y0111641D01*
X0172066Y0111034D01*
X0173264Y0111641D02*
X0173264Y0108000D01*
X0174477Y0109214D01*
X0175691Y0108000D01*
X0175691Y0111641D01*
X0176889Y0111641D02*
X0178103Y0111641D01*
X0177496Y0111641D02*
X0177496Y0108000D01*
X0176889Y0108000D02*
X0178103Y0108000D01*
X0180519Y0108000D02*
X0180519Y0111641D01*
X0179306Y0111641D02*
X0181733Y0111641D01*
X0182931Y0111034D02*
X0182931Y0108607D01*
X0183538Y0108000D01*
X0184751Y0108000D01*
X0185358Y0108607D01*
X0186556Y0108000D02*
X0186556Y0111641D01*
X0185358Y0111034D02*
X0184751Y0111641D01*
X0183538Y0111641D01*
X0182931Y0111034D01*
X0186556Y0109820D02*
X0188983Y0109820D01*
X0188983Y0108000D02*
X0188983Y0111641D01*
D11*
X0187081Y0001000D02*
X0039771Y0001000D01*
X0039205Y0001007D01*
X0038640Y0001027D01*
X0038076Y0001061D01*
X0037512Y0001108D01*
X0036950Y0001169D01*
X0036389Y0001243D01*
X0035830Y0001331D01*
X0035273Y0001432D01*
X0034720Y0001546D01*
X0034168Y0001674D01*
X0033621Y0001815D01*
X0033076Y0001969D01*
X0032536Y0002135D01*
X0032000Y0002315D01*
X0031468Y0002507D01*
X0030941Y0002713D01*
X0030418Y0002930D01*
X0029902Y0003160D01*
X0029391Y0003403D01*
X0028886Y0003658D01*
X0028387Y0003924D01*
X0027895Y0004203D01*
X0027409Y0004493D01*
X0026931Y0004795D01*
X0026460Y0005108D01*
X0025996Y0005432D01*
X0025541Y0005767D01*
X0025093Y0006114D01*
X0024654Y0006470D01*
X0024224Y0006837D01*
X0023803Y0007215D01*
X0023390Y0007602D01*
X0022988Y0007999D01*
X0022594Y0008406D01*
X0022211Y0008822D01*
X0021838Y0009247D01*
X0021475Y0009680D01*
X0021122Y0010123D01*
X0020781Y0010573D01*
X0020450Y0011032D01*
X0020130Y0011499D01*
X0062874Y0054976D02*
X0062876Y0055129D01*
X0062882Y0055283D01*
X0062892Y0055436D01*
X0062906Y0055588D01*
X0062924Y0055741D01*
X0062946Y0055892D01*
X0062971Y0056043D01*
X0063001Y0056194D01*
X0063035Y0056344D01*
X0063072Y0056492D01*
X0063113Y0056640D01*
X0063158Y0056786D01*
X0063207Y0056932D01*
X0063260Y0057076D01*
X0063316Y0057218D01*
X0063376Y0057359D01*
X0063440Y0057499D01*
X0063507Y0057637D01*
X0063578Y0057773D01*
X0063653Y0057907D01*
X0063730Y0058039D01*
X0063812Y0058169D01*
X0063896Y0058297D01*
X0063984Y0058423D01*
X0064075Y0058546D01*
X0064169Y0058667D01*
X0064267Y0058785D01*
X0064367Y0058901D01*
X0064471Y0059014D01*
X0064577Y0059125D01*
X0064686Y0059233D01*
X0064798Y0059338D01*
X0064912Y0059439D01*
X0065030Y0059538D01*
X0065149Y0059634D01*
X0065271Y0059727D01*
X0065396Y0059816D01*
X0065523Y0059903D01*
X0065652Y0059985D01*
X0065783Y0060065D01*
X0065916Y0060141D01*
X0066051Y0060214D01*
X0066188Y0060283D01*
X0066327Y0060348D01*
X0066467Y0060410D01*
X0066609Y0060468D01*
X0066752Y0060523D01*
X0066897Y0060574D01*
X0067043Y0060621D01*
X0067190Y0060664D01*
X0067338Y0060703D01*
X0067487Y0060739D01*
X0067637Y0060770D01*
X0067788Y0060798D01*
X0067939Y0060822D01*
X0068092Y0060842D01*
X0068244Y0060858D01*
X0068397Y0060870D01*
X0068550Y0060878D01*
X0068703Y0060882D01*
X0068857Y0060882D01*
X0069010Y0060878D01*
X0069163Y0060870D01*
X0069316Y0060858D01*
X0069468Y0060842D01*
X0069621Y0060822D01*
X0069772Y0060798D01*
X0069923Y0060770D01*
X0070073Y0060739D01*
X0070222Y0060703D01*
X0070370Y0060664D01*
X0070517Y0060621D01*
X0070663Y0060574D01*
X0070808Y0060523D01*
X0070951Y0060468D01*
X0071093Y0060410D01*
X0071233Y0060348D01*
X0071372Y0060283D01*
X0071509Y0060214D01*
X0071644Y0060141D01*
X0071777Y0060065D01*
X0071908Y0059985D01*
X0072037Y0059903D01*
X0072164Y0059816D01*
X0072289Y0059727D01*
X0072411Y0059634D01*
X0072530Y0059538D01*
X0072648Y0059439D01*
X0072762Y0059338D01*
X0072874Y0059233D01*
X0072983Y0059125D01*
X0073089Y0059014D01*
X0073193Y0058901D01*
X0073293Y0058785D01*
X0073391Y0058667D01*
X0073485Y0058546D01*
X0073576Y0058423D01*
X0073664Y0058297D01*
X0073748Y0058169D01*
X0073830Y0058039D01*
X0073907Y0057907D01*
X0073982Y0057773D01*
X0074053Y0057637D01*
X0074120Y0057499D01*
X0074184Y0057359D01*
X0074244Y0057218D01*
X0074300Y0057076D01*
X0074353Y0056932D01*
X0074402Y0056786D01*
X0074447Y0056640D01*
X0074488Y0056492D01*
X0074525Y0056344D01*
X0074559Y0056194D01*
X0074589Y0056043D01*
X0074614Y0055892D01*
X0074636Y0055741D01*
X0074654Y0055588D01*
X0074668Y0055436D01*
X0074678Y0055283D01*
X0074684Y0055129D01*
X0074686Y0054976D01*
X0074684Y0054823D01*
X0074678Y0054669D01*
X0074668Y0054516D01*
X0074654Y0054364D01*
X0074636Y0054211D01*
X0074614Y0054060D01*
X0074589Y0053909D01*
X0074559Y0053758D01*
X0074525Y0053608D01*
X0074488Y0053460D01*
X0074447Y0053312D01*
X0074402Y0053166D01*
X0074353Y0053020D01*
X0074300Y0052876D01*
X0074244Y0052734D01*
X0074184Y0052593D01*
X0074120Y0052453D01*
X0074053Y0052315D01*
X0073982Y0052179D01*
X0073907Y0052045D01*
X0073830Y0051913D01*
X0073748Y0051783D01*
X0073664Y0051655D01*
X0073576Y0051529D01*
X0073485Y0051406D01*
X0073391Y0051285D01*
X0073293Y0051167D01*
X0073193Y0051051D01*
X0073089Y0050938D01*
X0072983Y0050827D01*
X0072874Y0050719D01*
X0072762Y0050614D01*
X0072648Y0050513D01*
X0072530Y0050414D01*
X0072411Y0050318D01*
X0072289Y0050225D01*
X0072164Y0050136D01*
X0072037Y0050049D01*
X0071908Y0049967D01*
X0071777Y0049887D01*
X0071644Y0049811D01*
X0071509Y0049738D01*
X0071372Y0049669D01*
X0071233Y0049604D01*
X0071093Y0049542D01*
X0070951Y0049484D01*
X0070808Y0049429D01*
X0070663Y0049378D01*
X0070517Y0049331D01*
X0070370Y0049288D01*
X0070222Y0049249D01*
X0070073Y0049213D01*
X0069923Y0049182D01*
X0069772Y0049154D01*
X0069621Y0049130D01*
X0069468Y0049110D01*
X0069316Y0049094D01*
X0069163Y0049082D01*
X0069010Y0049074D01*
X0068857Y0049070D01*
X0068703Y0049070D01*
X0068550Y0049074D01*
X0068397Y0049082D01*
X0068244Y0049094D01*
X0068092Y0049110D01*
X0067939Y0049130D01*
X0067788Y0049154D01*
X0067637Y0049182D01*
X0067487Y0049213D01*
X0067338Y0049249D01*
X0067190Y0049288D01*
X0067043Y0049331D01*
X0066897Y0049378D01*
X0066752Y0049429D01*
X0066609Y0049484D01*
X0066467Y0049542D01*
X0066327Y0049604D01*
X0066188Y0049669D01*
X0066051Y0049738D01*
X0065916Y0049811D01*
X0065783Y0049887D01*
X0065652Y0049967D01*
X0065523Y0050049D01*
X0065396Y0050136D01*
X0065271Y0050225D01*
X0065149Y0050318D01*
X0065030Y0050414D01*
X0064912Y0050513D01*
X0064798Y0050614D01*
X0064686Y0050719D01*
X0064577Y0050827D01*
X0064471Y0050938D01*
X0064367Y0051051D01*
X0064267Y0051167D01*
X0064169Y0051285D01*
X0064075Y0051406D01*
X0063984Y0051529D01*
X0063896Y0051655D01*
X0063812Y0051783D01*
X0063730Y0051913D01*
X0063653Y0052045D01*
X0063578Y0052179D01*
X0063507Y0052315D01*
X0063440Y0052453D01*
X0063376Y0052593D01*
X0063316Y0052734D01*
X0063260Y0052876D01*
X0063207Y0053020D01*
X0063158Y0053166D01*
X0063113Y0053312D01*
X0063072Y0053460D01*
X0063035Y0053608D01*
X0063001Y0053758D01*
X0062971Y0053909D01*
X0062946Y0054060D01*
X0062924Y0054211D01*
X0062906Y0054364D01*
X0062892Y0054516D01*
X0062882Y0054669D01*
X0062876Y0054823D01*
X0062874Y0054976D01*
X0206722Y0011499D02*
X0208192Y0013758D01*
X0209608Y0016051D01*
X0210968Y0018378D01*
X0212272Y0020737D01*
X0213519Y0023126D01*
X0214708Y0025545D01*
X0215838Y0027991D01*
X0216910Y0030464D01*
X0217922Y0032962D01*
X0218873Y0035484D01*
X0219764Y0038027D01*
X0220593Y0040592D01*
X0221361Y0043175D01*
X0222066Y0045777D01*
X0222709Y0048394D01*
X0223288Y0051026D01*
X0223804Y0053671D01*
X0224257Y0056328D01*
X0224645Y0058995D01*
X0224970Y0061671D01*
X0225230Y0064353D01*
X0225425Y0067041D01*
X0225556Y0069733D01*
X0225622Y0072428D01*
X0225624Y0075123D01*
X0225560Y0077817D01*
X0225432Y0080509D01*
X0225240Y0083198D01*
X0224983Y0085880D01*
X0224661Y0088556D01*
X0224275Y0091224D01*
X0223826Y0093881D01*
X0223313Y0096527D01*
X0222736Y0099160D01*
X0222096Y0101778D01*
X0221394Y0104380D01*
X0220629Y0106964D01*
X0219802Y0109529D01*
X0218914Y0112074D01*
X0217965Y0114596D01*
X0216956Y0117096D01*
X0215887Y0119570D01*
X0214759Y0122017D01*
X0213573Y0124437D01*
X0213439Y0124693D01*
X0213299Y0124947D01*
X0213153Y0125197D01*
X0213001Y0125443D01*
X0212843Y0125685D01*
X0212678Y0125924D01*
X0212509Y0126158D01*
X0212333Y0126388D01*
X0212152Y0126614D01*
X0211965Y0126835D01*
X0211773Y0127052D01*
X0211576Y0127264D01*
X0211374Y0127471D01*
X0211166Y0127673D01*
X0210954Y0127869D01*
X0210737Y0128061D01*
X0210515Y0128247D01*
X0210289Y0128428D01*
X0210058Y0128603D01*
X0209824Y0128772D01*
X0209585Y0128936D01*
X0209342Y0129094D01*
X0209095Y0129245D01*
X0208845Y0129391D01*
X0208592Y0129530D01*
X0208335Y0129663D01*
X0208074Y0129790D01*
X0207811Y0129911D01*
X0207545Y0130024D01*
X0207276Y0130132D01*
X0207005Y0130232D01*
X0206731Y0130327D01*
X0206455Y0130414D01*
X0206177Y0130494D01*
X0205897Y0130568D01*
X0205615Y0130635D01*
X0205332Y0130695D01*
X0205047Y0130748D01*
X0204762Y0130794D01*
X0204475Y0130832D01*
X0204187Y0130864D01*
X0203899Y0130889D01*
X0203610Y0130907D01*
X0203320Y0130917D01*
X0203031Y0130921D01*
X0023821Y0130921D01*
X0023532Y0130917D01*
X0023242Y0130907D01*
X0022953Y0130889D01*
X0022665Y0130864D01*
X0022377Y0130832D01*
X0022090Y0130794D01*
X0021805Y0130748D01*
X0021520Y0130695D01*
X0021237Y0130635D01*
X0020955Y0130568D01*
X0020675Y0130494D01*
X0020397Y0130414D01*
X0020121Y0130327D01*
X0019847Y0130232D01*
X0019576Y0130132D01*
X0019307Y0130024D01*
X0019041Y0129911D01*
X0018778Y0129790D01*
X0018517Y0129663D01*
X0018260Y0129530D01*
X0018007Y0129391D01*
X0017757Y0129245D01*
X0017510Y0129094D01*
X0017267Y0128936D01*
X0017028Y0128772D01*
X0016794Y0128603D01*
X0016563Y0128428D01*
X0016337Y0128247D01*
X0016115Y0128061D01*
X0015898Y0127869D01*
X0015686Y0127673D01*
X0015478Y0127471D01*
X0015276Y0127264D01*
X0015079Y0127052D01*
X0014887Y0126835D01*
X0014700Y0126614D01*
X0014519Y0126388D01*
X0014343Y0126158D01*
X0014174Y0125924D01*
X0014009Y0125685D01*
X0013851Y0125443D01*
X0013699Y0125197D01*
X0013553Y0124947D01*
X0013413Y0124693D01*
X0013279Y0124437D01*
X0012093Y0122017D01*
X0010965Y0119570D01*
X0009896Y0117096D01*
X0008887Y0114596D01*
X0007938Y0112074D01*
X0007050Y0109529D01*
X0006223Y0106964D01*
X0005458Y0104380D01*
X0004756Y0101778D01*
X0004116Y0099160D01*
X0003539Y0096527D01*
X0003026Y0093881D01*
X0002577Y0091224D01*
X0002191Y0088556D01*
X0001869Y0085880D01*
X0001612Y0083198D01*
X0001420Y0080509D01*
X0001292Y0077817D01*
X0001228Y0075123D01*
X0001230Y0072428D01*
X0001296Y0069733D01*
X0001427Y0067041D01*
X0001622Y0064353D01*
X0001882Y0061671D01*
X0002207Y0058995D01*
X0002595Y0056328D01*
X0003048Y0053671D01*
X0003564Y0051026D01*
X0004143Y0048394D01*
X0004786Y0045777D01*
X0005491Y0043175D01*
X0006259Y0040592D01*
X0007088Y0038027D01*
X0007979Y0035484D01*
X0008930Y0032962D01*
X0009942Y0030464D01*
X0011014Y0027991D01*
X0012144Y0025545D01*
X0013333Y0023126D01*
X0014580Y0020737D01*
X0015884Y0018378D01*
X0017244Y0016051D01*
X0018660Y0013758D01*
X0020130Y0011499D01*
X0113544Y0054937D02*
X0113546Y0055090D01*
X0113552Y0055244D01*
X0113562Y0055397D01*
X0113576Y0055549D01*
X0113594Y0055702D01*
X0113616Y0055853D01*
X0113641Y0056004D01*
X0113671Y0056155D01*
X0113705Y0056305D01*
X0113742Y0056453D01*
X0113783Y0056601D01*
X0113828Y0056747D01*
X0113877Y0056893D01*
X0113930Y0057037D01*
X0113986Y0057179D01*
X0114046Y0057320D01*
X0114110Y0057460D01*
X0114177Y0057598D01*
X0114248Y0057734D01*
X0114323Y0057868D01*
X0114400Y0058000D01*
X0114482Y0058130D01*
X0114566Y0058258D01*
X0114654Y0058384D01*
X0114745Y0058507D01*
X0114839Y0058628D01*
X0114937Y0058746D01*
X0115037Y0058862D01*
X0115141Y0058975D01*
X0115247Y0059086D01*
X0115356Y0059194D01*
X0115468Y0059299D01*
X0115582Y0059400D01*
X0115700Y0059499D01*
X0115819Y0059595D01*
X0115941Y0059688D01*
X0116066Y0059777D01*
X0116193Y0059864D01*
X0116322Y0059946D01*
X0116453Y0060026D01*
X0116586Y0060102D01*
X0116721Y0060175D01*
X0116858Y0060244D01*
X0116997Y0060309D01*
X0117137Y0060371D01*
X0117279Y0060429D01*
X0117422Y0060484D01*
X0117567Y0060535D01*
X0117713Y0060582D01*
X0117860Y0060625D01*
X0118008Y0060664D01*
X0118157Y0060700D01*
X0118307Y0060731D01*
X0118458Y0060759D01*
X0118609Y0060783D01*
X0118762Y0060803D01*
X0118914Y0060819D01*
X0119067Y0060831D01*
X0119220Y0060839D01*
X0119373Y0060843D01*
X0119527Y0060843D01*
X0119680Y0060839D01*
X0119833Y0060831D01*
X0119986Y0060819D01*
X0120138Y0060803D01*
X0120291Y0060783D01*
X0120442Y0060759D01*
X0120593Y0060731D01*
X0120743Y0060700D01*
X0120892Y0060664D01*
X0121040Y0060625D01*
X0121187Y0060582D01*
X0121333Y0060535D01*
X0121478Y0060484D01*
X0121621Y0060429D01*
X0121763Y0060371D01*
X0121903Y0060309D01*
X0122042Y0060244D01*
X0122179Y0060175D01*
X0122314Y0060102D01*
X0122447Y0060026D01*
X0122578Y0059946D01*
X0122707Y0059864D01*
X0122834Y0059777D01*
X0122959Y0059688D01*
X0123081Y0059595D01*
X0123200Y0059499D01*
X0123318Y0059400D01*
X0123432Y0059299D01*
X0123544Y0059194D01*
X0123653Y0059086D01*
X0123759Y0058975D01*
X0123863Y0058862D01*
X0123963Y0058746D01*
X0124061Y0058628D01*
X0124155Y0058507D01*
X0124246Y0058384D01*
X0124334Y0058258D01*
X0124418Y0058130D01*
X0124500Y0058000D01*
X0124577Y0057868D01*
X0124652Y0057734D01*
X0124723Y0057598D01*
X0124790Y0057460D01*
X0124854Y0057320D01*
X0124914Y0057179D01*
X0124970Y0057037D01*
X0125023Y0056893D01*
X0125072Y0056747D01*
X0125117Y0056601D01*
X0125158Y0056453D01*
X0125195Y0056305D01*
X0125229Y0056155D01*
X0125259Y0056004D01*
X0125284Y0055853D01*
X0125306Y0055702D01*
X0125324Y0055549D01*
X0125338Y0055397D01*
X0125348Y0055244D01*
X0125354Y0055090D01*
X0125356Y0054937D01*
X0125354Y0054784D01*
X0125348Y0054630D01*
X0125338Y0054477D01*
X0125324Y0054325D01*
X0125306Y0054172D01*
X0125284Y0054021D01*
X0125259Y0053870D01*
X0125229Y0053719D01*
X0125195Y0053569D01*
X0125158Y0053421D01*
X0125117Y0053273D01*
X0125072Y0053127D01*
X0125023Y0052981D01*
X0124970Y0052837D01*
X0124914Y0052695D01*
X0124854Y0052554D01*
X0124790Y0052414D01*
X0124723Y0052276D01*
X0124652Y0052140D01*
X0124577Y0052006D01*
X0124500Y0051874D01*
X0124418Y0051744D01*
X0124334Y0051616D01*
X0124246Y0051490D01*
X0124155Y0051367D01*
X0124061Y0051246D01*
X0123963Y0051128D01*
X0123863Y0051012D01*
X0123759Y0050899D01*
X0123653Y0050788D01*
X0123544Y0050680D01*
X0123432Y0050575D01*
X0123318Y0050474D01*
X0123200Y0050375D01*
X0123081Y0050279D01*
X0122959Y0050186D01*
X0122834Y0050097D01*
X0122707Y0050010D01*
X0122578Y0049928D01*
X0122447Y0049848D01*
X0122314Y0049772D01*
X0122179Y0049699D01*
X0122042Y0049630D01*
X0121903Y0049565D01*
X0121763Y0049503D01*
X0121621Y0049445D01*
X0121478Y0049390D01*
X0121333Y0049339D01*
X0121187Y0049292D01*
X0121040Y0049249D01*
X0120892Y0049210D01*
X0120743Y0049174D01*
X0120593Y0049143D01*
X0120442Y0049115D01*
X0120291Y0049091D01*
X0120138Y0049071D01*
X0119986Y0049055D01*
X0119833Y0049043D01*
X0119680Y0049035D01*
X0119527Y0049031D01*
X0119373Y0049031D01*
X0119220Y0049035D01*
X0119067Y0049043D01*
X0118914Y0049055D01*
X0118762Y0049071D01*
X0118609Y0049091D01*
X0118458Y0049115D01*
X0118307Y0049143D01*
X0118157Y0049174D01*
X0118008Y0049210D01*
X0117860Y0049249D01*
X0117713Y0049292D01*
X0117567Y0049339D01*
X0117422Y0049390D01*
X0117279Y0049445D01*
X0117137Y0049503D01*
X0116997Y0049565D01*
X0116858Y0049630D01*
X0116721Y0049699D01*
X0116586Y0049772D01*
X0116453Y0049848D01*
X0116322Y0049928D01*
X0116193Y0050010D01*
X0116066Y0050097D01*
X0115941Y0050186D01*
X0115819Y0050279D01*
X0115700Y0050375D01*
X0115582Y0050474D01*
X0115468Y0050575D01*
X0115356Y0050680D01*
X0115247Y0050788D01*
X0115141Y0050899D01*
X0115037Y0051012D01*
X0114937Y0051128D01*
X0114839Y0051246D01*
X0114745Y0051367D01*
X0114654Y0051490D01*
X0114566Y0051616D01*
X0114482Y0051744D01*
X0114400Y0051874D01*
X0114323Y0052006D01*
X0114248Y0052140D01*
X0114177Y0052276D01*
X0114110Y0052414D01*
X0114046Y0052554D01*
X0113986Y0052695D01*
X0113930Y0052837D01*
X0113877Y0052981D01*
X0113828Y0053127D01*
X0113783Y0053273D01*
X0113742Y0053421D01*
X0113705Y0053569D01*
X0113671Y0053719D01*
X0113641Y0053870D01*
X0113616Y0054021D01*
X0113594Y0054172D01*
X0113576Y0054325D01*
X0113562Y0054477D01*
X0113552Y0054630D01*
X0113546Y0054784D01*
X0113544Y0054937D01*
X0187081Y0001000D02*
X0187647Y0001007D01*
X0188212Y0001027D01*
X0188776Y0001061D01*
X0189340Y0001108D01*
X0189902Y0001169D01*
X0190463Y0001243D01*
X0191022Y0001331D01*
X0191578Y0001432D01*
X0192132Y0001546D01*
X0192684Y0001674D01*
X0193231Y0001815D01*
X0193776Y0001969D01*
X0194316Y0002135D01*
X0194852Y0002315D01*
X0195384Y0002507D01*
X0195911Y0002713D01*
X0196434Y0002930D01*
X0196950Y0003160D01*
X0197461Y0003403D01*
X0197966Y0003658D01*
X0198465Y0003924D01*
X0198957Y0004203D01*
X0199443Y0004493D01*
X0199921Y0004795D01*
X0200392Y0005108D01*
X0200856Y0005432D01*
X0201311Y0005767D01*
X0201759Y0006114D01*
X0202198Y0006470D01*
X0202628Y0006837D01*
X0203049Y0007215D01*
X0203461Y0007602D01*
X0203864Y0007999D01*
X0204258Y0008406D01*
X0204641Y0008822D01*
X0205014Y0009247D01*
X0205377Y0009680D01*
X0205730Y0010123D01*
X0206071Y0010573D01*
X0206402Y0011032D01*
X0206722Y0011499D01*
D12*
X0144331Y0041157D02*
X0139135Y0036827D01*
X0099765Y0036827D01*
X0094568Y0041157D01*
X0094568Y0075803D01*
X0097796Y0075803D01*
X0097796Y0068717D01*
X0099765Y0068717D01*
X0099765Y0075803D01*
X0103702Y0075803D01*
X0103768Y0075801D01*
X0103834Y0075796D01*
X0103900Y0075786D01*
X0103965Y0075773D01*
X0104029Y0075757D01*
X0104092Y0075737D01*
X0104154Y0075713D01*
X0104214Y0075686D01*
X0104273Y0075656D01*
X0104330Y0075622D01*
X0104385Y0075585D01*
X0104438Y0075545D01*
X0104489Y0075503D01*
X0104537Y0075457D01*
X0104583Y0075409D01*
X0104625Y0075358D01*
X0104665Y0075305D01*
X0104702Y0075250D01*
X0104736Y0075193D01*
X0104766Y0075134D01*
X0104793Y0075074D01*
X0104817Y0075012D01*
X0104837Y0074949D01*
X0104853Y0074885D01*
X0104866Y0074820D01*
X0104876Y0074754D01*
X0104881Y0074688D01*
X0104883Y0074622D01*
X0104883Y0069504D01*
X0110394Y0069504D01*
X0110394Y0074622D01*
X0110395Y0074622D02*
X0110397Y0074688D01*
X0110402Y0074754D01*
X0110412Y0074820D01*
X0110425Y0074885D01*
X0110441Y0074949D01*
X0110461Y0075012D01*
X0110485Y0075074D01*
X0110512Y0075134D01*
X0110542Y0075193D01*
X0110576Y0075250D01*
X0110613Y0075305D01*
X0110653Y0075358D01*
X0110695Y0075409D01*
X0110741Y0075457D01*
X0110789Y0075503D01*
X0110840Y0075545D01*
X0110893Y0075585D01*
X0110948Y0075622D01*
X0111005Y0075656D01*
X0111064Y0075686D01*
X0111124Y0075713D01*
X0111186Y0075737D01*
X0111249Y0075757D01*
X0111313Y0075773D01*
X0111378Y0075786D01*
X0111444Y0075796D01*
X0111510Y0075801D01*
X0111576Y0075803D01*
X0115513Y0075803D01*
X0115579Y0075801D01*
X0115645Y0075796D01*
X0115711Y0075786D01*
X0115776Y0075773D01*
X0115840Y0075757D01*
X0115903Y0075737D01*
X0115965Y0075713D01*
X0116025Y0075686D01*
X0116084Y0075656D01*
X0116141Y0075622D01*
X0116196Y0075585D01*
X0116249Y0075545D01*
X0116300Y0075503D01*
X0116348Y0075457D01*
X0116394Y0075409D01*
X0116436Y0075358D01*
X0116476Y0075305D01*
X0116513Y0075250D01*
X0116547Y0075193D01*
X0116577Y0075134D01*
X0116604Y0075074D01*
X0116628Y0075012D01*
X0116648Y0074949D01*
X0116664Y0074885D01*
X0116677Y0074820D01*
X0116687Y0074754D01*
X0116692Y0074688D01*
X0116694Y0074622D01*
X0116694Y0069504D01*
X0122206Y0069504D01*
X0122206Y0074622D01*
X0122208Y0074688D01*
X0122213Y0074754D01*
X0122223Y0074820D01*
X0122236Y0074885D01*
X0122252Y0074949D01*
X0122272Y0075012D01*
X0122296Y0075074D01*
X0122323Y0075134D01*
X0122353Y0075193D01*
X0122387Y0075250D01*
X0122424Y0075305D01*
X0122464Y0075358D01*
X0122506Y0075409D01*
X0122552Y0075457D01*
X0122600Y0075503D01*
X0122651Y0075545D01*
X0122704Y0075585D01*
X0122759Y0075622D01*
X0122816Y0075656D01*
X0122875Y0075686D01*
X0122935Y0075713D01*
X0122997Y0075737D01*
X0123060Y0075757D01*
X0123124Y0075773D01*
X0123189Y0075786D01*
X0123255Y0075796D01*
X0123321Y0075801D01*
X0123387Y0075803D01*
X0127324Y0075803D01*
X0127395Y0075791D01*
X0127464Y0075775D01*
X0127533Y0075756D01*
X0127601Y0075734D01*
X0127668Y0075707D01*
X0127733Y0075678D01*
X0127797Y0075645D01*
X0127859Y0075609D01*
X0127919Y0075570D01*
X0127977Y0075527D01*
X0128032Y0075482D01*
X0128086Y0075434D01*
X0128136Y0075384D01*
X0128184Y0075330D01*
X0128229Y0075275D01*
X0128272Y0075217D01*
X0128311Y0075157D01*
X0128347Y0075095D01*
X0128380Y0075031D01*
X0128409Y0074966D01*
X0128436Y0074899D01*
X0128458Y0074831D01*
X0128477Y0074762D01*
X0128493Y0074693D01*
X0128505Y0074622D01*
X0128505Y0069504D01*
X0134017Y0069504D01*
X0134017Y0074622D01*
X0134019Y0074688D01*
X0134024Y0074754D01*
X0134034Y0074820D01*
X0134047Y0074885D01*
X0134063Y0074949D01*
X0134083Y0075012D01*
X0134107Y0075074D01*
X0134134Y0075134D01*
X0134164Y0075193D01*
X0134198Y0075250D01*
X0134235Y0075305D01*
X0134275Y0075358D01*
X0134317Y0075409D01*
X0134363Y0075457D01*
X0134411Y0075503D01*
X0134462Y0075545D01*
X0134515Y0075585D01*
X0134570Y0075622D01*
X0134627Y0075656D01*
X0134686Y0075686D01*
X0134746Y0075713D01*
X0134808Y0075737D01*
X0134871Y0075757D01*
X0134935Y0075773D01*
X0135000Y0075786D01*
X0135066Y0075796D01*
X0135132Y0075801D01*
X0135198Y0075803D01*
X0139135Y0075803D01*
X0139135Y0068717D01*
X0141103Y0068717D01*
X0141103Y0075803D01*
X0144331Y0075803D01*
X0144331Y0041157D01*
X0123387Y0039189D02*
X0115513Y0039189D01*
X0115513Y0043126D01*
X0123387Y0043126D01*
X0123387Y0039189D01*
X0123387Y0043126D02*
X0123387Y0045488D01*
X0115513Y0045488D01*
X0115513Y0043126D01*
X0087757Y0041197D02*
X0082560Y0036866D01*
X0055001Y0036866D01*
X0049804Y0041197D01*
X0049804Y0075843D01*
X0053032Y0075843D01*
X0053032Y0068756D01*
X0055001Y0068756D01*
X0055001Y0075843D01*
X0058938Y0075843D01*
X0058938Y0075842D02*
X0059004Y0075840D01*
X0059070Y0075835D01*
X0059136Y0075825D01*
X0059201Y0075812D01*
X0059265Y0075796D01*
X0059328Y0075776D01*
X0059390Y0075752D01*
X0059450Y0075725D01*
X0059509Y0075695D01*
X0059566Y0075661D01*
X0059621Y0075624D01*
X0059674Y0075584D01*
X0059725Y0075542D01*
X0059773Y0075496D01*
X0059819Y0075448D01*
X0059861Y0075397D01*
X0059901Y0075344D01*
X0059938Y0075289D01*
X0059972Y0075232D01*
X0060002Y0075173D01*
X0060029Y0075113D01*
X0060053Y0075051D01*
X0060073Y0074988D01*
X0060089Y0074924D01*
X0060102Y0074859D01*
X0060112Y0074793D01*
X0060117Y0074727D01*
X0060119Y0074661D01*
X0060119Y0069543D01*
X0065631Y0069543D01*
X0065631Y0074661D01*
X0065633Y0074727D01*
X0065638Y0074793D01*
X0065648Y0074859D01*
X0065661Y0074924D01*
X0065677Y0074988D01*
X0065697Y0075051D01*
X0065721Y0075113D01*
X0065748Y0075173D01*
X0065778Y0075232D01*
X0065812Y0075289D01*
X0065849Y0075344D01*
X0065889Y0075397D01*
X0065931Y0075448D01*
X0065977Y0075496D01*
X0066025Y0075542D01*
X0066076Y0075584D01*
X0066129Y0075624D01*
X0066184Y0075661D01*
X0066241Y0075695D01*
X0066300Y0075725D01*
X0066360Y0075752D01*
X0066422Y0075776D01*
X0066485Y0075796D01*
X0066549Y0075812D01*
X0066614Y0075825D01*
X0066680Y0075835D01*
X0066746Y0075840D01*
X0066812Y0075842D01*
X0066812Y0075843D02*
X0070749Y0075843D01*
X0070820Y0075831D01*
X0070889Y0075815D01*
X0070958Y0075796D01*
X0071026Y0075774D01*
X0071093Y0075747D01*
X0071158Y0075718D01*
X0071222Y0075685D01*
X0071284Y0075649D01*
X0071344Y0075610D01*
X0071402Y0075567D01*
X0071457Y0075522D01*
X0071511Y0075474D01*
X0071561Y0075424D01*
X0071609Y0075370D01*
X0071654Y0075315D01*
X0071697Y0075257D01*
X0071736Y0075197D01*
X0071772Y0075135D01*
X0071805Y0075071D01*
X0071834Y0075006D01*
X0071861Y0074939D01*
X0071883Y0074871D01*
X0071902Y0074802D01*
X0071918Y0074733D01*
X0071930Y0074662D01*
X0071930Y0074661D02*
X0071930Y0069543D01*
X0077442Y0069543D01*
X0077442Y0074661D01*
X0077444Y0074727D01*
X0077449Y0074793D01*
X0077459Y0074859D01*
X0077472Y0074924D01*
X0077488Y0074988D01*
X0077508Y0075051D01*
X0077532Y0075113D01*
X0077559Y0075173D01*
X0077589Y0075232D01*
X0077623Y0075289D01*
X0077660Y0075344D01*
X0077700Y0075397D01*
X0077742Y0075448D01*
X0077788Y0075496D01*
X0077836Y0075542D01*
X0077887Y0075584D01*
X0077940Y0075624D01*
X0077995Y0075661D01*
X0078052Y0075695D01*
X0078111Y0075725D01*
X0078171Y0075752D01*
X0078233Y0075776D01*
X0078296Y0075796D01*
X0078360Y0075812D01*
X0078425Y0075825D01*
X0078491Y0075835D01*
X0078557Y0075840D01*
X0078623Y0075842D01*
X0078623Y0075843D02*
X0082560Y0075843D01*
X0082560Y0068756D01*
X0084528Y0068756D01*
X0084528Y0075843D01*
X0087757Y0075843D01*
X0087757Y0041197D01*
X0072717Y0043165D02*
X0072717Y0039228D01*
X0064843Y0039228D01*
X0064843Y0043165D01*
X0072717Y0043165D01*
X0072717Y0045528D01*
X0064843Y0045528D01*
X0064843Y0043165D01*
X0066851Y0112248D02*
X0068320Y0112248D01*
X0068320Y0120213D01*
X0072784Y0120213D02*
X0072784Y0112248D01*
X0074253Y0112248D01*
X0072784Y0112248D02*
X0072784Y0127980D01*
X0099343Y0127980D01*
X0099343Y0112248D01*
X0097875Y0112248D01*
X0099343Y0112248D02*
X0099343Y0120213D01*
X0103769Y0120213D02*
X0103769Y0112248D01*
X0105237Y0112248D01*
X0103769Y0112248D02*
X0103769Y0127980D01*
X0138202Y0127980D01*
X0138202Y0112248D01*
X0136733Y0112248D01*
X0138202Y0112248D02*
X0138202Y0120213D01*
X0142745Y0120252D02*
X0142745Y0112287D01*
X0144213Y0112287D01*
X0142745Y0112287D02*
X0142745Y0128020D01*
X0165367Y0128020D01*
X0165367Y0112287D01*
X0163898Y0112287D01*
X0165367Y0112287D02*
X0165367Y0120252D01*
X0170383Y0120370D02*
X0170383Y0116146D01*
X0173032Y0116146D01*
X0170383Y0116146D02*
X0170383Y0128138D01*
X0187493Y0128138D01*
X0187493Y0116146D01*
X0184843Y0116146D01*
X0187493Y0116146D02*
X0187493Y0120370D01*
X0187493Y0116146D02*
X0170383Y0116146D01*
X0165367Y0112287D02*
X0142745Y0112287D01*
X0138202Y0112248D02*
X0103769Y0112248D01*
X0099343Y0112248D02*
X0072784Y0112248D01*
X0068320Y0112248D02*
X0037824Y0112248D01*
X0039292Y0112248D01*
X0037824Y0112248D02*
X0037824Y0120213D01*
X0037824Y0127980D02*
X0037824Y0112248D01*
X0037824Y0127980D02*
X0068320Y0127980D01*
X0068320Y0112248D01*
X0062914Y0127980D02*
X0043229Y0127980D01*
X0078190Y0127980D02*
X0093938Y0127980D01*
X0109174Y0127980D02*
X0132796Y0127980D01*
X0148150Y0128020D02*
X0159961Y0128020D01*
X0176969Y0128138D02*
X0180906Y0128138D01*
D13*
X0043706Y0075295D02*
X0042206Y0075295D01*
X0042206Y0073795D01*
X0042206Y0071795D02*
X0037206Y0071795D01*
X0032206Y0071795D01*
X0032206Y0069795D01*
X0042206Y0069795D01*
X0042206Y0071795D01*
X0037206Y0071795D02*
X0037206Y0075295D01*
X0040706Y0075295D02*
X0042206Y0075295D01*
X0042206Y0076795D01*
X0032206Y0084102D02*
X0032206Y0085602D01*
X0030706Y0085602D01*
X0032206Y0085602D02*
X0032206Y0087102D01*
X0032206Y0089102D02*
X0037206Y0089102D01*
X0042206Y0089102D01*
X0042206Y0091102D01*
X0032206Y0091102D01*
X0032206Y0089102D01*
X0037206Y0089102D02*
X0037206Y0085602D01*
X0033706Y0085602D02*
X0032206Y0085602D01*
X0026206Y0092102D02*
X0026209Y0092372D01*
X0026219Y0092642D01*
X0026236Y0092911D01*
X0026259Y0093180D01*
X0026289Y0093449D01*
X0026325Y0093716D01*
X0026368Y0093983D01*
X0026417Y0094248D01*
X0026473Y0094512D01*
X0026536Y0094775D01*
X0026604Y0095036D01*
X0026680Y0095295D01*
X0026761Y0095552D01*
X0026849Y0095808D01*
X0026943Y0096061D01*
X0027043Y0096312D01*
X0027150Y0096560D01*
X0027262Y0096805D01*
X0027381Y0097048D01*
X0027505Y0097287D01*
X0027635Y0097524D01*
X0027771Y0097757D01*
X0027913Y0097987D01*
X0028060Y0098213D01*
X0028213Y0098436D01*
X0028371Y0098655D01*
X0028534Y0098870D01*
X0028703Y0099080D01*
X0028877Y0099287D01*
X0029056Y0099489D01*
X0029239Y0099687D01*
X0029428Y0099880D01*
X0029621Y0100069D01*
X0029819Y0100252D01*
X0030021Y0100431D01*
X0030228Y0100605D01*
X0030438Y0100774D01*
X0030653Y0100937D01*
X0030872Y0101095D01*
X0031095Y0101248D01*
X0031321Y0101395D01*
X0031551Y0101537D01*
X0031784Y0101673D01*
X0032021Y0101803D01*
X0032260Y0101927D01*
X0032503Y0102046D01*
X0032748Y0102158D01*
X0032996Y0102265D01*
X0033247Y0102365D01*
X0033500Y0102459D01*
X0033756Y0102547D01*
X0034013Y0102628D01*
X0034272Y0102704D01*
X0034533Y0102772D01*
X0034796Y0102835D01*
X0035060Y0102891D01*
X0035325Y0102940D01*
X0035592Y0102983D01*
X0035859Y0103019D01*
X0036128Y0103049D01*
X0036397Y0103072D01*
X0036666Y0103089D01*
X0036936Y0103099D01*
X0037206Y0103102D01*
X0037476Y0103099D01*
X0037746Y0103089D01*
X0038015Y0103072D01*
X0038284Y0103049D01*
X0038553Y0103019D01*
X0038820Y0102983D01*
X0039087Y0102940D01*
X0039352Y0102891D01*
X0039616Y0102835D01*
X0039879Y0102772D01*
X0040140Y0102704D01*
X0040399Y0102628D01*
X0040656Y0102547D01*
X0040912Y0102459D01*
X0041165Y0102365D01*
X0041416Y0102265D01*
X0041664Y0102158D01*
X0041909Y0102046D01*
X0042152Y0101927D01*
X0042391Y0101803D01*
X0042628Y0101673D01*
X0042861Y0101537D01*
X0043091Y0101395D01*
X0043317Y0101248D01*
X0043540Y0101095D01*
X0043759Y0100937D01*
X0043974Y0100774D01*
X0044184Y0100605D01*
X0044391Y0100431D01*
X0044593Y0100252D01*
X0044791Y0100069D01*
X0044984Y0099880D01*
X0045173Y0099687D01*
X0045356Y0099489D01*
X0045535Y0099287D01*
X0045709Y0099080D01*
X0045878Y0098870D01*
X0046041Y0098655D01*
X0046199Y0098436D01*
X0046352Y0098213D01*
X0046499Y0097987D01*
X0046641Y0097757D01*
X0046777Y0097524D01*
X0046907Y0097287D01*
X0047031Y0097048D01*
X0047150Y0096805D01*
X0047262Y0096560D01*
X0047369Y0096312D01*
X0047469Y0096061D01*
X0047563Y0095808D01*
X0047651Y0095552D01*
X0047732Y0095295D01*
X0047808Y0095036D01*
X0047876Y0094775D01*
X0047939Y0094512D01*
X0047995Y0094248D01*
X0048044Y0093983D01*
X0048087Y0093716D01*
X0048123Y0093449D01*
X0048153Y0093180D01*
X0048176Y0092911D01*
X0048193Y0092642D01*
X0048203Y0092372D01*
X0048206Y0092102D01*
X0048203Y0091832D01*
X0048193Y0091562D01*
X0048176Y0091293D01*
X0048153Y0091024D01*
X0048123Y0090755D01*
X0048087Y0090488D01*
X0048044Y0090221D01*
X0047995Y0089956D01*
X0047939Y0089692D01*
X0047876Y0089429D01*
X0047808Y0089168D01*
X0047732Y0088909D01*
X0047651Y0088652D01*
X0047563Y0088396D01*
X0047469Y0088143D01*
X0047369Y0087892D01*
X0047262Y0087644D01*
X0047150Y0087399D01*
X0047031Y0087156D01*
X0046907Y0086917D01*
X0046777Y0086680D01*
X0046641Y0086447D01*
X0046499Y0086217D01*
X0046352Y0085991D01*
X0046199Y0085768D01*
X0046041Y0085549D01*
X0045878Y0085334D01*
X0045709Y0085124D01*
X0045535Y0084917D01*
X0045356Y0084715D01*
X0045173Y0084517D01*
X0044984Y0084324D01*
X0044791Y0084135D01*
X0044593Y0083952D01*
X0044391Y0083773D01*
X0044184Y0083599D01*
X0043974Y0083430D01*
X0043759Y0083267D01*
X0043540Y0083109D01*
X0043317Y0082956D01*
X0043091Y0082809D01*
X0042861Y0082667D01*
X0042628Y0082531D01*
X0042391Y0082401D01*
X0042152Y0082277D01*
X0041909Y0082158D01*
X0041664Y0082046D01*
X0041416Y0081939D01*
X0041165Y0081839D01*
X0040912Y0081745D01*
X0040656Y0081657D01*
X0040399Y0081576D01*
X0040140Y0081500D01*
X0039879Y0081432D01*
X0039616Y0081369D01*
X0039352Y0081313D01*
X0039087Y0081264D01*
X0038820Y0081221D01*
X0038553Y0081185D01*
X0038284Y0081155D01*
X0038015Y0081132D01*
X0037746Y0081115D01*
X0037476Y0081105D01*
X0037206Y0081102D01*
X0036936Y0081105D01*
X0036666Y0081115D01*
X0036397Y0081132D01*
X0036128Y0081155D01*
X0035859Y0081185D01*
X0035592Y0081221D01*
X0035325Y0081264D01*
X0035060Y0081313D01*
X0034796Y0081369D01*
X0034533Y0081432D01*
X0034272Y0081500D01*
X0034013Y0081576D01*
X0033756Y0081657D01*
X0033500Y0081745D01*
X0033247Y0081839D01*
X0032996Y0081939D01*
X0032748Y0082046D01*
X0032503Y0082158D01*
X0032260Y0082277D01*
X0032021Y0082401D01*
X0031784Y0082531D01*
X0031551Y0082667D01*
X0031321Y0082809D01*
X0031095Y0082956D01*
X0030872Y0083109D01*
X0030653Y0083267D01*
X0030438Y0083430D01*
X0030228Y0083599D01*
X0030021Y0083773D01*
X0029819Y0083952D01*
X0029621Y0084135D01*
X0029428Y0084324D01*
X0029239Y0084517D01*
X0029056Y0084715D01*
X0028877Y0084917D01*
X0028703Y0085124D01*
X0028534Y0085334D01*
X0028371Y0085549D01*
X0028213Y0085768D01*
X0028060Y0085991D01*
X0027913Y0086217D01*
X0027771Y0086447D01*
X0027635Y0086680D01*
X0027505Y0086917D01*
X0027381Y0087156D01*
X0027262Y0087399D01*
X0027150Y0087644D01*
X0027043Y0087892D01*
X0026943Y0088143D01*
X0026849Y0088396D01*
X0026761Y0088652D01*
X0026680Y0088909D01*
X0026604Y0089168D01*
X0026536Y0089429D01*
X0026473Y0089692D01*
X0026417Y0089956D01*
X0026368Y0090221D01*
X0026325Y0090488D01*
X0026289Y0090755D01*
X0026259Y0091024D01*
X0026236Y0091293D01*
X0026219Y0091562D01*
X0026209Y0091832D01*
X0026206Y0092102D01*
X0037206Y0094602D02*
X0037206Y0098602D01*
X0026206Y0068795D02*
X0026209Y0069065D01*
X0026219Y0069335D01*
X0026236Y0069604D01*
X0026259Y0069873D01*
X0026289Y0070142D01*
X0026325Y0070409D01*
X0026368Y0070676D01*
X0026417Y0070941D01*
X0026473Y0071205D01*
X0026536Y0071468D01*
X0026604Y0071729D01*
X0026680Y0071988D01*
X0026761Y0072245D01*
X0026849Y0072501D01*
X0026943Y0072754D01*
X0027043Y0073005D01*
X0027150Y0073253D01*
X0027262Y0073498D01*
X0027381Y0073741D01*
X0027505Y0073980D01*
X0027635Y0074217D01*
X0027771Y0074450D01*
X0027913Y0074680D01*
X0028060Y0074906D01*
X0028213Y0075129D01*
X0028371Y0075348D01*
X0028534Y0075563D01*
X0028703Y0075773D01*
X0028877Y0075980D01*
X0029056Y0076182D01*
X0029239Y0076380D01*
X0029428Y0076573D01*
X0029621Y0076762D01*
X0029819Y0076945D01*
X0030021Y0077124D01*
X0030228Y0077298D01*
X0030438Y0077467D01*
X0030653Y0077630D01*
X0030872Y0077788D01*
X0031095Y0077941D01*
X0031321Y0078088D01*
X0031551Y0078230D01*
X0031784Y0078366D01*
X0032021Y0078496D01*
X0032260Y0078620D01*
X0032503Y0078739D01*
X0032748Y0078851D01*
X0032996Y0078958D01*
X0033247Y0079058D01*
X0033500Y0079152D01*
X0033756Y0079240D01*
X0034013Y0079321D01*
X0034272Y0079397D01*
X0034533Y0079465D01*
X0034796Y0079528D01*
X0035060Y0079584D01*
X0035325Y0079633D01*
X0035592Y0079676D01*
X0035859Y0079712D01*
X0036128Y0079742D01*
X0036397Y0079765D01*
X0036666Y0079782D01*
X0036936Y0079792D01*
X0037206Y0079795D01*
X0037476Y0079792D01*
X0037746Y0079782D01*
X0038015Y0079765D01*
X0038284Y0079742D01*
X0038553Y0079712D01*
X0038820Y0079676D01*
X0039087Y0079633D01*
X0039352Y0079584D01*
X0039616Y0079528D01*
X0039879Y0079465D01*
X0040140Y0079397D01*
X0040399Y0079321D01*
X0040656Y0079240D01*
X0040912Y0079152D01*
X0041165Y0079058D01*
X0041416Y0078958D01*
X0041664Y0078851D01*
X0041909Y0078739D01*
X0042152Y0078620D01*
X0042391Y0078496D01*
X0042628Y0078366D01*
X0042861Y0078230D01*
X0043091Y0078088D01*
X0043317Y0077941D01*
X0043540Y0077788D01*
X0043759Y0077630D01*
X0043974Y0077467D01*
X0044184Y0077298D01*
X0044391Y0077124D01*
X0044593Y0076945D01*
X0044791Y0076762D01*
X0044984Y0076573D01*
X0045173Y0076380D01*
X0045356Y0076182D01*
X0045535Y0075980D01*
X0045709Y0075773D01*
X0045878Y0075563D01*
X0046041Y0075348D01*
X0046199Y0075129D01*
X0046352Y0074906D01*
X0046499Y0074680D01*
X0046641Y0074450D01*
X0046777Y0074217D01*
X0046907Y0073980D01*
X0047031Y0073741D01*
X0047150Y0073498D01*
X0047262Y0073253D01*
X0047369Y0073005D01*
X0047469Y0072754D01*
X0047563Y0072501D01*
X0047651Y0072245D01*
X0047732Y0071988D01*
X0047808Y0071729D01*
X0047876Y0071468D01*
X0047939Y0071205D01*
X0047995Y0070941D01*
X0048044Y0070676D01*
X0048087Y0070409D01*
X0048123Y0070142D01*
X0048153Y0069873D01*
X0048176Y0069604D01*
X0048193Y0069335D01*
X0048203Y0069065D01*
X0048206Y0068795D01*
X0048203Y0068525D01*
X0048193Y0068255D01*
X0048176Y0067986D01*
X0048153Y0067717D01*
X0048123Y0067448D01*
X0048087Y0067181D01*
X0048044Y0066914D01*
X0047995Y0066649D01*
X0047939Y0066385D01*
X0047876Y0066122D01*
X0047808Y0065861D01*
X0047732Y0065602D01*
X0047651Y0065345D01*
X0047563Y0065089D01*
X0047469Y0064836D01*
X0047369Y0064585D01*
X0047262Y0064337D01*
X0047150Y0064092D01*
X0047031Y0063849D01*
X0046907Y0063610D01*
X0046777Y0063373D01*
X0046641Y0063140D01*
X0046499Y0062910D01*
X0046352Y0062684D01*
X0046199Y0062461D01*
X0046041Y0062242D01*
X0045878Y0062027D01*
X0045709Y0061817D01*
X0045535Y0061610D01*
X0045356Y0061408D01*
X0045173Y0061210D01*
X0044984Y0061017D01*
X0044791Y0060828D01*
X0044593Y0060645D01*
X0044391Y0060466D01*
X0044184Y0060292D01*
X0043974Y0060123D01*
X0043759Y0059960D01*
X0043540Y0059802D01*
X0043317Y0059649D01*
X0043091Y0059502D01*
X0042861Y0059360D01*
X0042628Y0059224D01*
X0042391Y0059094D01*
X0042152Y0058970D01*
X0041909Y0058851D01*
X0041664Y0058739D01*
X0041416Y0058632D01*
X0041165Y0058532D01*
X0040912Y0058438D01*
X0040656Y0058350D01*
X0040399Y0058269D01*
X0040140Y0058193D01*
X0039879Y0058125D01*
X0039616Y0058062D01*
X0039352Y0058006D01*
X0039087Y0057957D01*
X0038820Y0057914D01*
X0038553Y0057878D01*
X0038284Y0057848D01*
X0038015Y0057825D01*
X0037746Y0057808D01*
X0037476Y0057798D01*
X0037206Y0057795D01*
X0036936Y0057798D01*
X0036666Y0057808D01*
X0036397Y0057825D01*
X0036128Y0057848D01*
X0035859Y0057878D01*
X0035592Y0057914D01*
X0035325Y0057957D01*
X0035060Y0058006D01*
X0034796Y0058062D01*
X0034533Y0058125D01*
X0034272Y0058193D01*
X0034013Y0058269D01*
X0033756Y0058350D01*
X0033500Y0058438D01*
X0033247Y0058532D01*
X0032996Y0058632D01*
X0032748Y0058739D01*
X0032503Y0058851D01*
X0032260Y0058970D01*
X0032021Y0059094D01*
X0031784Y0059224D01*
X0031551Y0059360D01*
X0031321Y0059502D01*
X0031095Y0059649D01*
X0030872Y0059802D01*
X0030653Y0059960D01*
X0030438Y0060123D01*
X0030228Y0060292D01*
X0030021Y0060466D01*
X0029819Y0060645D01*
X0029621Y0060828D01*
X0029428Y0061017D01*
X0029239Y0061210D01*
X0029056Y0061408D01*
X0028877Y0061610D01*
X0028703Y0061817D01*
X0028534Y0062027D01*
X0028371Y0062242D01*
X0028213Y0062461D01*
X0028060Y0062684D01*
X0027913Y0062910D01*
X0027771Y0063140D01*
X0027635Y0063373D01*
X0027505Y0063610D01*
X0027381Y0063849D01*
X0027262Y0064092D01*
X0027150Y0064337D01*
X0027043Y0064585D01*
X0026943Y0064836D01*
X0026849Y0065089D01*
X0026761Y0065345D01*
X0026680Y0065602D01*
X0026604Y0065861D01*
X0026536Y0066122D01*
X0026473Y0066385D01*
X0026417Y0066649D01*
X0026368Y0066914D01*
X0026325Y0067181D01*
X0026289Y0067448D01*
X0026259Y0067717D01*
X0026236Y0067986D01*
X0026219Y0068255D01*
X0026209Y0068525D01*
X0026206Y0068795D01*
X0037206Y0066295D02*
X0037206Y0062295D01*
X0037206Y0051988D02*
X0037206Y0047988D01*
X0026206Y0045488D02*
X0026209Y0045758D01*
X0026219Y0046028D01*
X0026236Y0046297D01*
X0026259Y0046566D01*
X0026289Y0046835D01*
X0026325Y0047102D01*
X0026368Y0047369D01*
X0026417Y0047634D01*
X0026473Y0047898D01*
X0026536Y0048161D01*
X0026604Y0048422D01*
X0026680Y0048681D01*
X0026761Y0048938D01*
X0026849Y0049194D01*
X0026943Y0049447D01*
X0027043Y0049698D01*
X0027150Y0049946D01*
X0027262Y0050191D01*
X0027381Y0050434D01*
X0027505Y0050673D01*
X0027635Y0050910D01*
X0027771Y0051143D01*
X0027913Y0051373D01*
X0028060Y0051599D01*
X0028213Y0051822D01*
X0028371Y0052041D01*
X0028534Y0052256D01*
X0028703Y0052466D01*
X0028877Y0052673D01*
X0029056Y0052875D01*
X0029239Y0053073D01*
X0029428Y0053266D01*
X0029621Y0053455D01*
X0029819Y0053638D01*
X0030021Y0053817D01*
X0030228Y0053991D01*
X0030438Y0054160D01*
X0030653Y0054323D01*
X0030872Y0054481D01*
X0031095Y0054634D01*
X0031321Y0054781D01*
X0031551Y0054923D01*
X0031784Y0055059D01*
X0032021Y0055189D01*
X0032260Y0055313D01*
X0032503Y0055432D01*
X0032748Y0055544D01*
X0032996Y0055651D01*
X0033247Y0055751D01*
X0033500Y0055845D01*
X0033756Y0055933D01*
X0034013Y0056014D01*
X0034272Y0056090D01*
X0034533Y0056158D01*
X0034796Y0056221D01*
X0035060Y0056277D01*
X0035325Y0056326D01*
X0035592Y0056369D01*
X0035859Y0056405D01*
X0036128Y0056435D01*
X0036397Y0056458D01*
X0036666Y0056475D01*
X0036936Y0056485D01*
X0037206Y0056488D01*
X0037476Y0056485D01*
X0037746Y0056475D01*
X0038015Y0056458D01*
X0038284Y0056435D01*
X0038553Y0056405D01*
X0038820Y0056369D01*
X0039087Y0056326D01*
X0039352Y0056277D01*
X0039616Y0056221D01*
X0039879Y0056158D01*
X0040140Y0056090D01*
X0040399Y0056014D01*
X0040656Y0055933D01*
X0040912Y0055845D01*
X0041165Y0055751D01*
X0041416Y0055651D01*
X0041664Y0055544D01*
X0041909Y0055432D01*
X0042152Y0055313D01*
X0042391Y0055189D01*
X0042628Y0055059D01*
X0042861Y0054923D01*
X0043091Y0054781D01*
X0043317Y0054634D01*
X0043540Y0054481D01*
X0043759Y0054323D01*
X0043974Y0054160D01*
X0044184Y0053991D01*
X0044391Y0053817D01*
X0044593Y0053638D01*
X0044791Y0053455D01*
X0044984Y0053266D01*
X0045173Y0053073D01*
X0045356Y0052875D01*
X0045535Y0052673D01*
X0045709Y0052466D01*
X0045878Y0052256D01*
X0046041Y0052041D01*
X0046199Y0051822D01*
X0046352Y0051599D01*
X0046499Y0051373D01*
X0046641Y0051143D01*
X0046777Y0050910D01*
X0046907Y0050673D01*
X0047031Y0050434D01*
X0047150Y0050191D01*
X0047262Y0049946D01*
X0047369Y0049698D01*
X0047469Y0049447D01*
X0047563Y0049194D01*
X0047651Y0048938D01*
X0047732Y0048681D01*
X0047808Y0048422D01*
X0047876Y0048161D01*
X0047939Y0047898D01*
X0047995Y0047634D01*
X0048044Y0047369D01*
X0048087Y0047102D01*
X0048123Y0046835D01*
X0048153Y0046566D01*
X0048176Y0046297D01*
X0048193Y0046028D01*
X0048203Y0045758D01*
X0048206Y0045488D01*
X0048203Y0045218D01*
X0048193Y0044948D01*
X0048176Y0044679D01*
X0048153Y0044410D01*
X0048123Y0044141D01*
X0048087Y0043874D01*
X0048044Y0043607D01*
X0047995Y0043342D01*
X0047939Y0043078D01*
X0047876Y0042815D01*
X0047808Y0042554D01*
X0047732Y0042295D01*
X0047651Y0042038D01*
X0047563Y0041782D01*
X0047469Y0041529D01*
X0047369Y0041278D01*
X0047262Y0041030D01*
X0047150Y0040785D01*
X0047031Y0040542D01*
X0046907Y0040303D01*
X0046777Y0040066D01*
X0046641Y0039833D01*
X0046499Y0039603D01*
X0046352Y0039377D01*
X0046199Y0039154D01*
X0046041Y0038935D01*
X0045878Y0038720D01*
X0045709Y0038510D01*
X0045535Y0038303D01*
X0045356Y0038101D01*
X0045173Y0037903D01*
X0044984Y0037710D01*
X0044791Y0037521D01*
X0044593Y0037338D01*
X0044391Y0037159D01*
X0044184Y0036985D01*
X0043974Y0036816D01*
X0043759Y0036653D01*
X0043540Y0036495D01*
X0043317Y0036342D01*
X0043091Y0036195D01*
X0042861Y0036053D01*
X0042628Y0035917D01*
X0042391Y0035787D01*
X0042152Y0035663D01*
X0041909Y0035544D01*
X0041664Y0035432D01*
X0041416Y0035325D01*
X0041165Y0035225D01*
X0040912Y0035131D01*
X0040656Y0035043D01*
X0040399Y0034962D01*
X0040140Y0034886D01*
X0039879Y0034818D01*
X0039616Y0034755D01*
X0039352Y0034699D01*
X0039087Y0034650D01*
X0038820Y0034607D01*
X0038553Y0034571D01*
X0038284Y0034541D01*
X0038015Y0034518D01*
X0037746Y0034501D01*
X0037476Y0034491D01*
X0037206Y0034488D01*
X0036936Y0034491D01*
X0036666Y0034501D01*
X0036397Y0034518D01*
X0036128Y0034541D01*
X0035859Y0034571D01*
X0035592Y0034607D01*
X0035325Y0034650D01*
X0035060Y0034699D01*
X0034796Y0034755D01*
X0034533Y0034818D01*
X0034272Y0034886D01*
X0034013Y0034962D01*
X0033756Y0035043D01*
X0033500Y0035131D01*
X0033247Y0035225D01*
X0032996Y0035325D01*
X0032748Y0035432D01*
X0032503Y0035544D01*
X0032260Y0035663D01*
X0032021Y0035787D01*
X0031784Y0035917D01*
X0031551Y0036053D01*
X0031321Y0036195D01*
X0031095Y0036342D01*
X0030872Y0036495D01*
X0030653Y0036653D01*
X0030438Y0036816D01*
X0030228Y0036985D01*
X0030021Y0037159D01*
X0029819Y0037338D01*
X0029621Y0037521D01*
X0029428Y0037710D01*
X0029239Y0037903D01*
X0029056Y0038101D01*
X0028877Y0038303D01*
X0028703Y0038510D01*
X0028534Y0038720D01*
X0028371Y0038935D01*
X0028213Y0039154D01*
X0028060Y0039377D01*
X0027913Y0039603D01*
X0027771Y0039833D01*
X0027635Y0040066D01*
X0027505Y0040303D01*
X0027381Y0040542D01*
X0027262Y0040785D01*
X0027150Y0041030D01*
X0027043Y0041278D01*
X0026943Y0041529D01*
X0026849Y0041782D01*
X0026761Y0042038D01*
X0026680Y0042295D01*
X0026604Y0042554D01*
X0026536Y0042815D01*
X0026473Y0043078D01*
X0026417Y0043342D01*
X0026368Y0043607D01*
X0026325Y0043874D01*
X0026289Y0044141D01*
X0026259Y0044410D01*
X0026236Y0044679D01*
X0026219Y0044948D01*
X0026209Y0045218D01*
X0026206Y0045488D01*
X0032206Y0044488D02*
X0032206Y0042488D01*
X0037206Y0042488D01*
X0042206Y0042488D01*
X0042206Y0044488D01*
X0032206Y0044488D01*
X0037206Y0042488D02*
X0037206Y0038988D01*
X0033706Y0038988D02*
X0032206Y0038988D01*
X0030706Y0038988D01*
X0032206Y0038988D02*
X0032206Y0037488D01*
X0032206Y0038988D02*
X0032206Y0040488D01*
D14*
X0037206Y0047488D03*
X0037206Y0066795D03*
X0037206Y0094102D03*
D15*
X0030205Y0102852D02*
X0027202Y0102852D01*
X0026452Y0103603D01*
X0026452Y0105104D01*
X0027202Y0105855D01*
X0027953Y0107456D02*
X0026452Y0108958D01*
X0030956Y0108958D01*
X0030956Y0110459D02*
X0030956Y0107456D01*
X0030205Y0105855D02*
X0030956Y0105104D01*
X0030956Y0103603D01*
X0030205Y0102852D01*
X0030205Y0063845D02*
X0029454Y0063845D01*
X0028704Y0063094D01*
X0028704Y0062343D01*
X0028704Y0063094D02*
X0027953Y0063845D01*
X0027202Y0063845D01*
X0026452Y0063094D01*
X0026452Y0061593D01*
X0027202Y0060842D01*
X0030205Y0060842D02*
X0030956Y0061593D01*
X0030956Y0063094D01*
X0030205Y0063845D01*
X0030205Y0059241D02*
X0030956Y0058490D01*
X0030956Y0056989D01*
X0030205Y0056238D01*
X0027202Y0056238D01*
X0026452Y0056989D01*
X0026452Y0058490D01*
X0027202Y0059241D01*
X0043452Y0056193D02*
X0043452Y0054692D01*
X0044202Y0053941D01*
X0044202Y0052340D02*
X0043452Y0051589D01*
X0043452Y0050088D01*
X0044202Y0049337D01*
X0047205Y0049337D01*
X0047956Y0050088D01*
X0047956Y0051589D01*
X0047205Y0052340D01*
X0047956Y0053941D02*
X0044953Y0056944D01*
X0044202Y0056944D01*
X0043452Y0056193D01*
X0047956Y0056944D02*
X0047956Y0053941D01*
M02*
