G04 EAGLE Gerber RS-274X export*
G75*
%MOMM*%
%FSLAX34Y34*%
%LPD*%
%INsol*%
%IPPOS*%
%AMOC8*
5,1,8,0,0,1.08239X$1,22.5*%
G01*
%ADD10R,1.700000X1.700000*%
%ADD11C,0.225000*%
%ADD12P,1.732040X8X22.500000*%
%ADD13C,1.600200*%
%ADD14C,0.160000*%
%ADD15C,0.706400*%
%ADD16C,3.000000*%


D10*
X0Y0D03*
D11*
X11625Y7875D02*
X17875Y7875D01*
X17875Y7125D01*
X11625Y7125D01*
X11625Y7875D01*
X11625Y2875D02*
X17875Y2875D01*
X17875Y2125D01*
X11625Y2125D01*
X11625Y2875D01*
X11625Y-2125D02*
X17875Y-2125D01*
X17875Y-2875D01*
X11625Y-2875D01*
X11625Y-2125D01*
X11625Y-7125D02*
X17875Y-7125D01*
X17875Y-7875D01*
X11625Y-7875D01*
X11625Y-7125D01*
X7875Y-11625D02*
X7875Y-17875D01*
X7125Y-17875D01*
X7125Y-11625D01*
X7875Y-11625D01*
X7875Y-15738D02*
X7125Y-15738D01*
X7125Y-13601D02*
X7875Y-13601D01*
X2875Y-11625D02*
X2875Y-17875D01*
X2125Y-17875D01*
X2125Y-11625D01*
X2875Y-11625D01*
X2875Y-15738D02*
X2125Y-15738D01*
X2125Y-13601D02*
X2875Y-13601D01*
X-2125Y-11625D02*
X-2125Y-17875D01*
X-2875Y-17875D01*
X-2875Y-11625D01*
X-2125Y-11625D01*
X-2125Y-15738D02*
X-2875Y-15738D01*
X-2875Y-13601D02*
X-2125Y-13601D01*
X-7125Y-11625D02*
X-7125Y-17875D01*
X-7875Y-17875D01*
X-7875Y-11625D01*
X-7125Y-11625D01*
X-7125Y-15738D02*
X-7875Y-15738D01*
X-7875Y-13601D02*
X-7125Y-13601D01*
X-11625Y-7875D02*
X-17875Y-7875D01*
X-17875Y-7125D01*
X-11625Y-7125D01*
X-11625Y-7875D01*
X-11625Y-2875D02*
X-17875Y-2875D01*
X-17875Y-2125D01*
X-11625Y-2125D01*
X-11625Y-2875D01*
X-11625Y2125D02*
X-17875Y2125D01*
X-17875Y2875D01*
X-11625Y2875D01*
X-11625Y2125D01*
X-11625Y7125D02*
X-17875Y7125D01*
X-17875Y7875D01*
X-11625Y7875D01*
X-11625Y7125D01*
X-7875Y11625D02*
X-7875Y17875D01*
X-7125Y17875D01*
X-7125Y11625D01*
X-7875Y11625D01*
X-7875Y13762D02*
X-7125Y13762D01*
X-7125Y15899D02*
X-7875Y15899D01*
X-2875Y17875D02*
X-2875Y11625D01*
X-2875Y17875D02*
X-2125Y17875D01*
X-2125Y11625D01*
X-2875Y11625D01*
X-2875Y13762D02*
X-2125Y13762D01*
X-2125Y15899D02*
X-2875Y15899D01*
X2125Y17875D02*
X2125Y11625D01*
X2125Y17875D02*
X2875Y17875D01*
X2875Y11625D01*
X2125Y11625D01*
X2125Y13762D02*
X2875Y13762D01*
X2875Y15899D02*
X2125Y15899D01*
X7125Y17875D02*
X7125Y11625D01*
X7125Y17875D02*
X7875Y17875D01*
X7875Y11625D01*
X7125Y11625D01*
X7125Y13762D02*
X7875Y13762D01*
X7875Y15899D02*
X7125Y15899D01*
D12*
X12700Y52500D03*
D13*
X-12700Y52500D03*
D14*
X-7500Y-7500D02*
X-7500Y-14750D01*
X-7500Y-7500D02*
X-3750Y-3750D01*
D15*
X-3750Y-3750D03*
D14*
X0Y0D01*
X-7500Y14750D02*
X-7500Y44800D01*
X-12700Y52500D01*
D15*
X-25000Y25000D03*
D14*
X-12750Y25000D01*
X-7500Y19750D01*
X-7500Y14750D01*
X7500Y-14750D02*
X7500Y-20000D01*
X15000Y-27500D01*
D15*
X15000Y-27500D03*
D14*
X14750Y-7500D02*
X22500Y-7500D01*
X25000Y-5000D01*
X25000Y17500D01*
X12500Y30000D01*
X0Y30000D01*
D15*
X0Y30000D03*
D14*
X-2500Y-14750D02*
X-2500Y-22500D01*
X0Y-25000D01*
D15*
X0Y-25000D03*
X2500Y-35000D03*
D14*
X-15000Y-35000D01*
X-25000Y-25000D01*
X-25000Y2500D01*
X-20000Y7500D01*
X-14750Y7500D01*
D16*
X-62500Y62500D03*
X62500Y62500D03*
X62500Y-62500D03*
X-62500Y-62500D03*
M02*
