G04 EAGLE Gerber RS-274X export*
G75*
%MOMM*%
%FSLAX34Y34*%
%LPD*%
%INsts*%
%IPPOS*%
%AMOC8*
5,1,8,0,0,1.08239X$1,22.5*%
G01*
%ADD10C,0.400000*%
%ADD11R,1.750000X1.750000*%
%ADD12R,0.700000X0.400000*%
%ADD13R,0.400000X0.700000*%
%ADD14P,1.951982X8X22.500000*%
%ADD15C,1.803400*%
%ADD16C,0.909600*%
%ADD17C,3.203200*%


D10*
X12000Y7500D03*
X12000Y2500D03*
X12000Y-2500D03*
X12000Y-7500D03*
X7500Y-12000D03*
X2500Y-12000D03*
X-2500Y-12000D03*
X-7500Y-12000D03*
X-12000Y-7500D03*
X-12000Y-2500D03*
X-12000Y2500D03*
X-12000Y7500D03*
X-7500Y12000D03*
X-2500Y12000D03*
X2500Y12000D03*
X7500Y12000D03*
D11*
X0Y0D03*
D12*
X15500Y7500D03*
X15500Y2500D03*
X15500Y-2500D03*
X15500Y-7500D03*
D13*
X7500Y-15500D03*
X2500Y-15500D03*
X-2500Y-15500D03*
X-7500Y-15500D03*
D12*
X-15500Y-7500D03*
X-15500Y-2500D03*
X-15500Y2500D03*
X-15500Y7500D03*
D13*
X-7500Y15500D03*
X-2500Y15500D03*
X2500Y15500D03*
X7500Y15500D03*
D14*
X12700Y52500D03*
D15*
X-12700Y52500D03*
D16*
X-3750Y-3750D03*
X-25000Y25000D03*
X15000Y-27500D03*
X0Y30000D03*
X0Y-25000D03*
X2500Y-35000D03*
D17*
X-62500Y62500D03*
X62500Y62500D03*
X62500Y-62500D03*
X-62500Y-62500D03*
M02*
