G04 EAGLE Gerber RS-274X export*
G75*
%MOMM*%
%FSLAX34Y34*%
%LPD*%
%INplc*%
%IPPOS*%
%AMOC8*
5,1,8,0,0,1.08239X$1,22.5*%
G01*
%ADD10C,0.000000*%
%ADD11C,0.050800*%
%ADD12C,0.101600*%
%ADD13R,0.500000X0.275000*%
%ADD14C,0.152400*%
%ADD15R,0.508000X2.540000*%
%ADD16C,0.254000*%
%ADD17C,0.254000*%


D10*
X62500Y-80000D02*
X-62500Y-80000D01*
X-80000Y-62500D02*
X-80000Y62500D01*
X-62500Y80000D02*
X62500Y80000D01*
X80000Y62500D02*
X80000Y-62500D01*
X-62500Y80000D02*
X-62923Y79995D01*
X-63345Y79980D01*
X-63768Y79954D01*
X-64189Y79918D01*
X-64609Y79872D01*
X-65029Y79816D01*
X-65446Y79750D01*
X-65862Y79674D01*
X-66276Y79588D01*
X-66688Y79491D01*
X-67097Y79385D01*
X-67504Y79269D01*
X-67908Y79143D01*
X-68308Y79008D01*
X-68706Y78863D01*
X-69099Y78708D01*
X-69489Y78544D01*
X-69875Y78370D01*
X-70256Y78187D01*
X-70633Y77995D01*
X-71005Y77794D01*
X-71372Y77584D01*
X-71734Y77366D01*
X-72090Y77138D01*
X-72441Y76902D01*
X-72786Y76658D01*
X-73125Y76405D01*
X-73458Y76144D01*
X-73785Y75876D01*
X-74105Y75599D01*
X-74418Y75315D01*
X-74724Y75023D01*
X-75023Y74724D01*
X-75315Y74418D01*
X-75599Y74105D01*
X-75876Y73785D01*
X-76144Y73458D01*
X-76405Y73125D01*
X-76658Y72786D01*
X-76902Y72441D01*
X-77138Y72090D01*
X-77366Y71734D01*
X-77584Y71372D01*
X-77794Y71005D01*
X-77995Y70633D01*
X-78187Y70256D01*
X-78370Y69875D01*
X-78544Y69489D01*
X-78708Y69099D01*
X-78863Y68706D01*
X-79008Y68308D01*
X-79143Y67908D01*
X-79269Y67504D01*
X-79385Y67097D01*
X-79491Y66688D01*
X-79588Y66276D01*
X-79674Y65862D01*
X-79750Y65446D01*
X-79816Y65029D01*
X-79872Y64609D01*
X-79918Y64189D01*
X-79954Y63768D01*
X-79980Y63345D01*
X-79995Y62923D01*
X-80000Y62500D01*
X-80000Y-62500D02*
X-79995Y-62923D01*
X-79980Y-63345D01*
X-79954Y-63768D01*
X-79918Y-64189D01*
X-79872Y-64609D01*
X-79816Y-65029D01*
X-79750Y-65446D01*
X-79674Y-65862D01*
X-79588Y-66276D01*
X-79491Y-66688D01*
X-79385Y-67097D01*
X-79269Y-67504D01*
X-79143Y-67908D01*
X-79008Y-68308D01*
X-78863Y-68706D01*
X-78708Y-69099D01*
X-78544Y-69489D01*
X-78370Y-69875D01*
X-78187Y-70256D01*
X-77995Y-70633D01*
X-77794Y-71005D01*
X-77584Y-71372D01*
X-77366Y-71734D01*
X-77138Y-72090D01*
X-76902Y-72441D01*
X-76658Y-72786D01*
X-76405Y-73125D01*
X-76144Y-73458D01*
X-75876Y-73785D01*
X-75599Y-74105D01*
X-75315Y-74418D01*
X-75023Y-74724D01*
X-74724Y-75023D01*
X-74418Y-75315D01*
X-74105Y-75599D01*
X-73785Y-75876D01*
X-73458Y-76144D01*
X-73125Y-76405D01*
X-72786Y-76658D01*
X-72441Y-76902D01*
X-72090Y-77138D01*
X-71734Y-77366D01*
X-71372Y-77584D01*
X-71005Y-77794D01*
X-70633Y-77995D01*
X-70256Y-78187D01*
X-69875Y-78370D01*
X-69489Y-78544D01*
X-69099Y-78708D01*
X-68706Y-78863D01*
X-68308Y-79008D01*
X-67908Y-79143D01*
X-67504Y-79269D01*
X-67097Y-79385D01*
X-66688Y-79491D01*
X-66276Y-79588D01*
X-65862Y-79674D01*
X-65446Y-79750D01*
X-65029Y-79816D01*
X-64609Y-79872D01*
X-64189Y-79918D01*
X-63768Y-79954D01*
X-63345Y-79980D01*
X-62923Y-79995D01*
X-62500Y-80000D01*
X62500Y-80000D02*
X62923Y-79995D01*
X63345Y-79980D01*
X63768Y-79954D01*
X64189Y-79918D01*
X64609Y-79872D01*
X65029Y-79816D01*
X65446Y-79750D01*
X65862Y-79674D01*
X66276Y-79588D01*
X66688Y-79491D01*
X67097Y-79385D01*
X67504Y-79269D01*
X67908Y-79143D01*
X68308Y-79008D01*
X68706Y-78863D01*
X69099Y-78708D01*
X69489Y-78544D01*
X69875Y-78370D01*
X70256Y-78187D01*
X70633Y-77995D01*
X71005Y-77794D01*
X71372Y-77584D01*
X71734Y-77366D01*
X72090Y-77138D01*
X72441Y-76902D01*
X72786Y-76658D01*
X73125Y-76405D01*
X73458Y-76144D01*
X73785Y-75876D01*
X74105Y-75599D01*
X74418Y-75315D01*
X74724Y-75023D01*
X75023Y-74724D01*
X75315Y-74418D01*
X75599Y-74105D01*
X75876Y-73785D01*
X76144Y-73458D01*
X76405Y-73125D01*
X76658Y-72786D01*
X76902Y-72441D01*
X77138Y-72090D01*
X77366Y-71734D01*
X77584Y-71372D01*
X77794Y-71005D01*
X77995Y-70633D01*
X78187Y-70256D01*
X78370Y-69875D01*
X78544Y-69489D01*
X78708Y-69099D01*
X78863Y-68706D01*
X79008Y-68308D01*
X79143Y-67908D01*
X79269Y-67504D01*
X79385Y-67097D01*
X79491Y-66688D01*
X79588Y-66276D01*
X79674Y-65862D01*
X79750Y-65446D01*
X79816Y-65029D01*
X79872Y-64609D01*
X79918Y-64189D01*
X79954Y-63768D01*
X79980Y-63345D01*
X79995Y-62923D01*
X80000Y-62500D01*
X80000Y62500D02*
X79995Y62923D01*
X79980Y63345D01*
X79954Y63768D01*
X79918Y64189D01*
X79872Y64609D01*
X79816Y65029D01*
X79750Y65446D01*
X79674Y65862D01*
X79588Y66276D01*
X79491Y66688D01*
X79385Y67097D01*
X79269Y67504D01*
X79143Y67908D01*
X79008Y68308D01*
X78863Y68706D01*
X78708Y69099D01*
X78544Y69489D01*
X78370Y69875D01*
X78187Y70256D01*
X77995Y70633D01*
X77794Y71005D01*
X77584Y71372D01*
X77366Y71734D01*
X77138Y72090D01*
X76902Y72441D01*
X76658Y72786D01*
X76405Y73125D01*
X76144Y73458D01*
X75876Y73785D01*
X75599Y74105D01*
X75315Y74418D01*
X75023Y74724D01*
X74724Y75023D01*
X74418Y75315D01*
X74105Y75599D01*
X73785Y75876D01*
X73458Y76144D01*
X73125Y76405D01*
X72786Y76658D01*
X72441Y76902D01*
X72090Y77138D01*
X71734Y77366D01*
X71372Y77584D01*
X71005Y77794D01*
X70633Y77995D01*
X70256Y78187D01*
X69875Y78370D01*
X69489Y78544D01*
X69099Y78708D01*
X68706Y78863D01*
X68308Y79008D01*
X67908Y79143D01*
X67504Y79269D01*
X67097Y79385D01*
X66688Y79491D01*
X66276Y79588D01*
X65862Y79674D01*
X65446Y79750D01*
X65029Y79816D01*
X64609Y79872D01*
X64189Y79918D01*
X63768Y79954D01*
X63345Y79980D01*
X62923Y79995D01*
X62500Y80000D01*
D11*
X-31002Y-59297D02*
X-29836Y-60464D01*
X-31002Y-59297D02*
X-31002Y-56965D01*
X-29836Y-55798D01*
X-28669Y-55798D01*
X-27503Y-56965D01*
X-27503Y-58131D01*
X-27503Y-56965D02*
X-26337Y-55798D01*
X-25170Y-55798D01*
X-24004Y-56965D01*
X-24004Y-59297D01*
X-25170Y-60464D01*
X-26337Y-53558D02*
X-31002Y-53558D01*
X-26337Y-53558D02*
X-24004Y-51225D01*
X-26337Y-48893D01*
X-31002Y-48893D01*
X-29836Y-46652D02*
X-31002Y-45486D01*
X-31002Y-43153D01*
X-29836Y-41987D01*
X-28669Y-41987D01*
X-27503Y-43153D01*
X-27503Y-44319D01*
X-27503Y-43153D02*
X-26337Y-41987D01*
X-25170Y-41987D01*
X-24004Y-43153D01*
X-24004Y-45486D01*
X-25170Y-46652D01*
X-18586Y-55798D02*
X-19752Y-56965D01*
X-19752Y-59297D01*
X-18586Y-60464D01*
X-13920Y-60464D01*
X-12754Y-59297D01*
X-12754Y-56965D01*
X-13920Y-55798D01*
X-16253Y-55798D01*
X-16253Y-58131D01*
X-12754Y-53558D02*
X-19752Y-53558D01*
X-12754Y-48893D01*
X-19752Y-48893D01*
X-19752Y-46652D02*
X-12754Y-46652D01*
X-12754Y-43153D01*
X-13920Y-41987D01*
X-18586Y-41987D01*
X-19752Y-43153D01*
X-19752Y-46652D01*
X-8502Y-65068D02*
X-1504Y-65068D01*
X-6169Y-62735D02*
X-8502Y-65068D01*
X-6169Y-62735D02*
X-8502Y-60402D01*
X-1504Y-60402D01*
X-8502Y-56995D02*
X-8502Y-54663D01*
X-8502Y-56995D02*
X-7336Y-58162D01*
X-2670Y-58162D01*
X-1504Y-56995D01*
X-1504Y-54663D01*
X-2670Y-53496D01*
X-7336Y-53496D01*
X-8502Y-54663D01*
X-8502Y-47757D02*
X-7336Y-46591D01*
X-8502Y-47757D02*
X-8502Y-50090D01*
X-7336Y-51256D01*
X-6169Y-51256D01*
X-5003Y-50090D01*
X-5003Y-47757D01*
X-3837Y-46591D01*
X-2670Y-46591D01*
X-1504Y-47757D01*
X-1504Y-50090D01*
X-2670Y-51256D01*
X-1504Y-44350D02*
X-1504Y-42017D01*
X-1504Y-43184D02*
X-8502Y-43184D01*
X-8502Y-44350D02*
X-8502Y-42017D01*
X2748Y-65068D02*
X9746Y-65068D01*
X5081Y-62735D02*
X2748Y-65068D01*
X5081Y-62735D02*
X2748Y-60402D01*
X9746Y-60402D01*
X9746Y-58162D02*
X9746Y-55829D01*
X9746Y-56995D02*
X2748Y-56995D01*
X2748Y-55829D02*
X2748Y-58162D01*
X2748Y-50059D02*
X3914Y-48893D01*
X2748Y-50059D02*
X2748Y-52392D01*
X3914Y-53558D01*
X5081Y-53558D01*
X6247Y-52392D01*
X6247Y-50059D01*
X7413Y-48893D01*
X8580Y-48893D01*
X9746Y-50059D01*
X9746Y-52392D01*
X8580Y-53558D01*
X2748Y-45486D02*
X2748Y-43153D01*
X2748Y-45486D02*
X3914Y-46652D01*
X8580Y-46652D01*
X9746Y-45486D01*
X9746Y-43153D01*
X8580Y-41987D01*
X3914Y-41987D01*
X2748Y-43153D01*
X15164Y-55798D02*
X13998Y-56965D01*
X13998Y-59297D01*
X15164Y-60464D01*
X16331Y-60464D01*
X17497Y-59297D01*
X17497Y-56965D01*
X18663Y-55798D01*
X19830Y-55798D01*
X20996Y-56965D01*
X20996Y-59297D01*
X19830Y-60464D01*
X13998Y-50059D02*
X15164Y-48893D01*
X13998Y-50059D02*
X13998Y-52392D01*
X15164Y-53558D01*
X19830Y-53558D01*
X20996Y-52392D01*
X20996Y-50059D01*
X19830Y-48893D01*
X20996Y-46652D02*
X13998Y-46652D01*
X18663Y-46652D02*
X13998Y-41987D01*
X17497Y-45486D02*
X20996Y-41987D01*
X26414Y-48892D02*
X25248Y-50059D01*
X25248Y-52391D01*
X26414Y-53558D01*
X31080Y-53558D01*
X32246Y-52391D01*
X32246Y-50059D01*
X31080Y-48892D01*
X25248Y-43153D02*
X26414Y-41987D01*
X25248Y-43153D02*
X25248Y-45486D01*
X26414Y-46652D01*
X27581Y-46652D01*
X28747Y-45486D01*
X28747Y-43153D01*
X29913Y-41987D01*
X31080Y-41987D01*
X32246Y-43153D01*
X32246Y-45486D01*
X31080Y-46652D01*
D12*
X-36300Y23150D02*
X-36300Y31650D01*
X-32300Y31650D02*
X-32300Y23150D01*
D13*
X-34300Y23775D03*
X-34300Y31025D03*
D11*
X-45051Y23151D02*
X-45800Y22402D01*
X-45800Y20903D01*
X-45051Y20154D01*
X-42053Y20154D01*
X-41304Y20903D01*
X-41304Y22402D01*
X-42053Y23151D01*
X-44301Y24758D02*
X-45800Y26257D01*
X-41304Y26257D01*
X-41304Y27755D02*
X-41304Y24758D01*
X-45051Y29362D02*
X-45800Y30111D01*
X-45800Y31610D01*
X-45051Y32359D01*
X-44301Y32359D01*
X-43552Y31610D01*
X-42803Y32359D01*
X-42053Y32359D01*
X-41304Y31610D01*
X-41304Y30111D01*
X-42053Y29362D01*
X-42803Y29362D01*
X-43552Y30111D01*
X-44301Y29362D01*
X-45051Y29362D01*
X-43552Y30111D02*
X-43552Y31610D01*
D14*
X-16510Y65200D02*
X-13970Y65200D01*
X-13970Y62660D01*
X-13970Y65200D02*
X-11430Y65200D01*
X-13970Y65200D02*
X-13970Y67740D01*
X-16510Y52500D02*
X-7620Y52500D01*
X-7620Y39800D01*
X-2540Y39800D01*
X-2540Y65200D01*
X-7620Y65200D01*
X-7620Y52500D01*
X6350Y52500D02*
X16510Y52500D01*
X-25400Y52500D02*
X-25392Y53123D01*
X-25369Y53746D01*
X-25331Y54369D01*
X-25278Y54990D01*
X-25209Y55609D01*
X-25125Y56227D01*
X-25026Y56842D01*
X-24912Y57455D01*
X-24783Y58065D01*
X-24639Y58672D01*
X-24480Y59275D01*
X-24306Y59873D01*
X-24118Y60468D01*
X-23915Y61057D01*
X-23698Y61641D01*
X-23467Y62220D01*
X-23221Y62793D01*
X-22961Y63360D01*
X-22688Y63920D01*
X-22401Y64473D01*
X-22100Y65020D01*
X-21786Y65558D01*
X-21459Y66089D01*
X-21119Y66611D01*
X-20767Y67126D01*
X-20401Y67631D01*
X-20024Y68127D01*
X-19634Y68614D01*
X-19233Y69091D01*
X-18820Y69558D01*
X-18396Y70014D01*
X-17961Y70461D01*
X-17514Y70896D01*
X-17058Y71320D01*
X-16591Y71733D01*
X-16114Y72134D01*
X-15627Y72524D01*
X-15131Y72901D01*
X-14626Y73267D01*
X-14111Y73619D01*
X-13589Y73959D01*
X-13058Y74286D01*
X-12520Y74600D01*
X-11973Y74901D01*
X-11420Y75188D01*
X-10860Y75461D01*
X-10293Y75721D01*
X-9720Y75967D01*
X-9141Y76198D01*
X-8557Y76415D01*
X-7968Y76618D01*
X-7373Y76806D01*
X-6775Y76980D01*
X-6172Y77139D01*
X-5565Y77283D01*
X-4955Y77412D01*
X-4342Y77526D01*
X-3727Y77625D01*
X-3109Y77709D01*
X-2490Y77778D01*
X-1869Y77831D01*
X-1246Y77869D01*
X-623Y77892D01*
X0Y77900D01*
X623Y77892D01*
X1246Y77869D01*
X1869Y77831D01*
X2490Y77778D01*
X3109Y77709D01*
X3727Y77625D01*
X4342Y77526D01*
X4955Y77412D01*
X5565Y77283D01*
X6172Y77139D01*
X6775Y76980D01*
X7373Y76806D01*
X7968Y76618D01*
X8557Y76415D01*
X9141Y76198D01*
X9720Y75967D01*
X10293Y75721D01*
X10860Y75461D01*
X11420Y75188D01*
X11973Y74901D01*
X12520Y74600D01*
X13058Y74286D01*
X13589Y73959D01*
X14111Y73619D01*
X14626Y73267D01*
X15131Y72901D01*
X15627Y72524D01*
X16114Y72134D01*
X16591Y71733D01*
X17058Y71320D01*
X17514Y70896D01*
X17961Y70461D01*
X18396Y70014D01*
X18820Y69558D01*
X19233Y69091D01*
X19634Y68614D01*
X20024Y68127D01*
X20401Y67631D01*
X20767Y67126D01*
X21119Y66611D01*
X21459Y66089D01*
X21786Y65558D01*
X22100Y65020D01*
X22401Y64473D01*
X22688Y63920D01*
X22961Y63360D01*
X23221Y62793D01*
X23467Y62220D01*
X23698Y61641D01*
X23915Y61057D01*
X24118Y60468D01*
X24306Y59873D01*
X24480Y59275D01*
X24639Y58672D01*
X24783Y58065D01*
X24912Y57455D01*
X25026Y56842D01*
X25125Y56227D01*
X25209Y55609D01*
X25278Y54990D01*
X25331Y54369D01*
X25369Y53746D01*
X25392Y53123D01*
X25400Y52500D01*
X25392Y51877D01*
X25369Y51254D01*
X25331Y50631D01*
X25278Y50010D01*
X25209Y49391D01*
X25125Y48773D01*
X25026Y48158D01*
X24912Y47545D01*
X24783Y46935D01*
X24639Y46328D01*
X24480Y45725D01*
X24306Y45127D01*
X24118Y44532D01*
X23915Y43943D01*
X23698Y43359D01*
X23467Y42780D01*
X23221Y42207D01*
X22961Y41640D01*
X22688Y41080D01*
X22401Y40527D01*
X22100Y39980D01*
X21786Y39442D01*
X21459Y38911D01*
X21119Y38389D01*
X20767Y37874D01*
X20401Y37369D01*
X20024Y36873D01*
X19634Y36386D01*
X19233Y35909D01*
X18820Y35442D01*
X18396Y34986D01*
X17961Y34539D01*
X17514Y34104D01*
X17058Y33680D01*
X16591Y33267D01*
X16114Y32866D01*
X15627Y32476D01*
X15131Y32099D01*
X14626Y31733D01*
X14111Y31381D01*
X13589Y31041D01*
X13058Y30714D01*
X12520Y30400D01*
X11973Y30099D01*
X11420Y29812D01*
X10860Y29539D01*
X10293Y29279D01*
X9720Y29033D01*
X9141Y28802D01*
X8557Y28585D01*
X7968Y28382D01*
X7373Y28194D01*
X6775Y28020D01*
X6172Y27861D01*
X5565Y27717D01*
X4955Y27588D01*
X4342Y27474D01*
X3727Y27375D01*
X3109Y27291D01*
X2490Y27222D01*
X1869Y27169D01*
X1246Y27131D01*
X623Y27108D01*
X0Y27100D01*
X-623Y27108D01*
X-1246Y27131D01*
X-1869Y27169D01*
X-2490Y27222D01*
X-3109Y27291D01*
X-3727Y27375D01*
X-4342Y27474D01*
X-4955Y27588D01*
X-5565Y27717D01*
X-6172Y27861D01*
X-6775Y28020D01*
X-7373Y28194D01*
X-7968Y28382D01*
X-8557Y28585D01*
X-9141Y28802D01*
X-9720Y29033D01*
X-10293Y29279D01*
X-10860Y29539D01*
X-11420Y29812D01*
X-11973Y30099D01*
X-12520Y30400D01*
X-13058Y30714D01*
X-13589Y31041D01*
X-14111Y31381D01*
X-14626Y31733D01*
X-15131Y32099D01*
X-15627Y32476D01*
X-16114Y32866D01*
X-16591Y33267D01*
X-17058Y33680D01*
X-17514Y34104D01*
X-17961Y34539D01*
X-18396Y34986D01*
X-18820Y35442D01*
X-19233Y35909D01*
X-19634Y36386D01*
X-20024Y36873D01*
X-20401Y37369D01*
X-20767Y37874D01*
X-21119Y38389D01*
X-21459Y38911D01*
X-21786Y39442D01*
X-22100Y39980D01*
X-22401Y40527D01*
X-22688Y41080D01*
X-22961Y41640D01*
X-23221Y42207D01*
X-23467Y42780D01*
X-23698Y43359D01*
X-23915Y43943D01*
X-24118Y44532D01*
X-24306Y45127D01*
X-24480Y45725D01*
X-24639Y46328D01*
X-24783Y46935D01*
X-24912Y47545D01*
X-25026Y48158D01*
X-25125Y48773D01*
X-25209Y49391D01*
X-25278Y50010D01*
X-25331Y50631D01*
X-25369Y51254D01*
X-25392Y51877D01*
X-25400Y52500D01*
D15*
X5080Y52500D03*
D11*
X27550Y51632D02*
X28299Y52381D01*
X27550Y51632D02*
X27550Y50133D01*
X28299Y49384D01*
X31297Y49384D01*
X32046Y50133D01*
X32046Y51632D01*
X31297Y52381D01*
X32046Y53988D02*
X32046Y56985D01*
X32046Y53988D02*
X29049Y56985D01*
X28299Y56985D01*
X27550Y56236D01*
X27550Y54737D01*
X28299Y53988D01*
D16*
X-38730Y10230D02*
X-38730Y-29730D01*
X-38730Y10230D02*
X38730Y10230D01*
X38730Y-29730D01*
X-38730Y-29730D01*
X-38730Y-10000D02*
X-38730Y10230D01*
X-35000Y10230D01*
X38730Y10230D02*
X38730Y-10000D01*
X38730Y10230D02*
X35000Y10230D01*
X25000Y-29730D02*
X-25000Y-29730D01*
D11*
X48550Y-30027D02*
X53046Y-30027D01*
X48550Y-30027D02*
X48550Y-27780D01*
X49299Y-27030D01*
X50798Y-27030D01*
X51547Y-27780D01*
X51547Y-30027D01*
X48550Y-25424D02*
X48550Y-22426D01*
X48550Y-25424D02*
X53046Y-25424D01*
X53046Y-22426D01*
X50798Y-23925D02*
X50798Y-25424D01*
X53046Y-20820D02*
X48550Y-20820D01*
X53046Y-17822D01*
X48550Y-17822D01*
X48550Y-16216D02*
X53046Y-16216D01*
X53046Y-13968D01*
X52297Y-13219D01*
X49299Y-13219D01*
X48550Y-13968D01*
X48550Y-16216D01*
X48550Y-11612D02*
X52297Y-11612D01*
X53046Y-10863D01*
X53046Y-9364D01*
X52297Y-8615D01*
X48550Y-8615D01*
X48550Y-7008D02*
X53046Y-7008D01*
X53046Y-4011D01*
X52297Y-2404D02*
X48550Y-2404D01*
X52297Y-2404D02*
X53046Y-1655D01*
X53046Y-156D01*
X52297Y593D01*
X48550Y593D01*
X48550Y2200D02*
X53046Y2200D01*
X50049Y3698D02*
X48550Y2200D01*
X50049Y3698D02*
X48550Y5197D01*
X53046Y5197D01*
D17*
X-80000Y-62500D02*
X-79933Y-64025D01*
X-79734Y-65539D01*
X-79404Y-67029D01*
X-78945Y-68485D01*
X-78360Y-69896D01*
X-77655Y-71250D01*
X-76835Y-72538D01*
X-75906Y-73749D01*
X-74874Y-74874D01*
X-73749Y-75906D01*
X-72538Y-76835D01*
X-71250Y-77655D01*
X-69896Y-78360D01*
X-68485Y-78945D01*
X-67029Y-79404D01*
X-65539Y-79734D01*
X-64025Y-79933D01*
X-62500Y-80000D01*
X62500Y-80000D01*
X64025Y-79933D01*
X65539Y-79734D01*
X67029Y-79404D01*
X68485Y-78945D01*
X69896Y-78360D01*
X71250Y-77655D01*
X72538Y-76835D01*
X73749Y-75906D01*
X74874Y-74874D01*
X75906Y-73749D01*
X76835Y-72538D01*
X77655Y-71250D01*
X78360Y-69896D01*
X78945Y-68485D01*
X79404Y-67029D01*
X79734Y-65539D01*
X79933Y-64025D01*
X80000Y-62500D01*
X80000Y62500D01*
X79933Y64025D01*
X79734Y65539D01*
X79404Y67029D01*
X78945Y68485D01*
X78360Y69896D01*
X77655Y71250D01*
X76835Y72538D01*
X75906Y73749D01*
X74874Y74874D01*
X73749Y75906D01*
X72538Y76835D01*
X71250Y77655D01*
X69896Y78360D01*
X68485Y78945D01*
X67029Y79404D01*
X65539Y79734D01*
X64025Y79933D01*
X62500Y80000D01*
X-62500Y80000D01*
X-64025Y79933D01*
X-65539Y79734D01*
X-67029Y79404D01*
X-68485Y78945D01*
X-69896Y78360D01*
X-71250Y77655D01*
X-72538Y76835D01*
X-73749Y75906D01*
X-74874Y74874D01*
X-75906Y73749D01*
X-76835Y72538D01*
X-77655Y71250D01*
X-78360Y69896D01*
X-78945Y68485D01*
X-79404Y67029D01*
X-79734Y65539D01*
X-79933Y64025D01*
X-80000Y62500D01*
X-80000Y-62500D01*
M02*
